<svg width="82" height="283" viewBox="0 0 82 283" fill="none" xmlns="http://www.w3.org/2000/svg">
<g opacity="0.15">
<path d="M31.8159 238.465C25.2357 240.231 14.1619 241.274 4.49233 241.675C4.93368 242.718 5.53552 244.684 5.65589 245.888C15.4859 245.567 27.0413 244.564 35.3065 242.438L31.8159 238.465ZM4.85343 249.86L4.85343 254.474L36.5905 254.474L36.5905 249.86L4.85343 249.86ZM2.08497 259.209L2.08497 263.903L38.9577 263.903L38.9577 259.209L2.08497 259.209ZM18.0538 244.123L18.0538 270.403C18.0538 271.206 17.6927 271.486 16.7699 271.486C15.847 271.486 12.4767 271.527 9.50766 271.406C10.2299 272.65 11.1527 274.817 11.4737 276.181C15.5662 276.221 18.4951 276.101 20.421 275.338C22.3469 274.616 23.0691 273.332 23.0691 270.483L23.0691 244.123L18.0538 244.123ZM61.4665 250.221L61.4665 254.555L75.8304 254.555L75.8304 250.221L61.4665 250.221ZM61.5066 259.69L61.5066 264.064L75.8705 264.064L75.8705 259.69L61.5066 259.69ZM61.4665 269.199L61.4665 273.533L75.8705 273.533L75.8705 269.199L61.4665 269.199ZM59.1795 240.712L59.1795 275.9L63.7936 275.9L63.7936 245.246L73.2626 245.246L73.2626 275.659L78.1174 275.659L78.1174 240.712L59.1795 240.712ZM42.328 246.811L42.328 251.385L57.7752 251.385L57.7752 246.811L42.328 246.811ZM48.1458 238.546L48.1458 276.221L52.7599 276.221L52.7599 238.546L48.1458 238.546ZM47.8649 249.9C46.7816 255.036 44.2138 261.295 41.3249 264.786C42.0471 265.99 43.1706 267.956 43.6119 269.32C46.7816 265.147 49.4297 257.443 50.7538 250.904L47.8649 249.9ZM52.3988 253.431L50.192 255.638C51.6364 257.644 54.4852 262.017 55.6487 264.385L58.3771 260.493C57.4944 259.41 53.5623 254.555 52.3988 253.431Z" fill="#989898"/>
</g>
<path d="M1.77058 0.609985H25.1207V9.60105C25.1207 11.3295 24.7825 12.8021 24.106 14.0187C23.4371 15.2353 22.506 16.1626 21.3126 16.8006C20.1269 17.446 18.7587 17.7687 17.2081 17.7687C15.6575 17.7687 14.2893 17.4423 13.1036 16.7895C11.9179 16.1366 10.9943 15.1908 10.3331 13.9519C9.67177 12.7205 9.34113 11.2294 9.34113 9.47865V3.74796H13.2974V8.69972C13.2974 9.62702 13.4608 10.3911 13.7877 10.992C14.1221 11.6003 14.582 12.0528 15.1673 12.3496C15.7601 12.6537 16.4404 12.8058 17.2081 12.8058C17.9834 12.8058 18.6599 12.6537 19.2376 12.3496C19.8228 12.0528 20.2751 11.6003 20.5943 10.992C20.9212 10.3837 21.0846 9.61218 21.0846 8.67747V5.42822H1.77058V0.609985Z" fill="#989898" fill-opacity="0.2"/>
<path d="M18.4053 33.261C19.325 33.172 20.0395 32.79 20.5487 32.1149C21.058 31.4398 21.3126 30.5236 21.3126 29.3664C21.3126 28.58 21.1986 27.9161 20.9706 27.3745C20.7502 26.833 20.4423 26.4176 20.0471 26.1283C19.6518 25.8464 19.2034 25.7054 18.7017 25.7054C18.2836 25.6906 17.9188 25.7759 17.6072 25.9613C17.2955 26.1542 17.0257 26.4176 16.7977 26.7514C16.5772 27.0852 16.3834 27.471 16.2162 27.9087C16.0566 28.3464 15.9198 28.8137 15.8057 29.3107L15.3041 31.3582C15.076 32.3523 14.772 33.2647 14.392 34.0956C14.0119 34.9265 13.5445 35.646 12.9896 36.2543C12.4347 36.8626 11.781 37.3337 11.0285 37.6675C10.276 38.0088 9.41334 38.1831 8.44042 38.1905C7.01144 38.1831 5.77248 37.827 4.72355 37.1223C3.68222 36.425 2.87272 35.4161 2.29505 34.0956C1.72498 32.7825 1.43994 31.1987 1.43994 29.3441C1.43994 27.5044 1.72878 25.902 2.30645 24.537C2.88412 23.1795 3.73923 22.1186 4.87177 21.3545C6.01191 20.5979 7.42189 20.201 9.1017 20.1639V24.8263C8.3188 24.8783 7.66512 25.0971 7.14065 25.4829C6.62379 25.876 6.23234 26.399 5.96631 27.0518C5.70787 27.7121 5.57866 28.4576 5.57866 29.2885C5.57866 30.1045 5.70027 30.813 5.9435 31.4139C6.18673 32.0222 6.52498 32.4932 6.95823 32.8271C7.39149 33.1609 7.88935 33.3278 8.45182 33.3278C8.97628 33.3278 9.41714 33.1757 9.77438 32.8716C10.1316 32.5748 10.4357 32.1371 10.6865 31.5585C10.9373 30.9873 11.1654 30.2863 11.3706 29.4554L12.0091 26.974C12.4879 25.0526 13.2366 23.5355 14.2551 22.4228C15.2737 21.31 16.6456 20.7574 18.3711 20.7648C19.7848 20.7574 21.02 21.1246 22.0765 21.8664C23.1331 22.6157 23.9578 23.6431 24.5506 24.9487C25.1435 26.2544 25.4399 27.738 25.4399 29.3998C25.4399 31.0912 25.1435 32.5674 24.5506 33.8285C23.9578 35.0971 23.1331 36.0837 22.0765 36.7885C21.02 37.4932 19.7962 37.8567 18.4053 37.879V33.261Z" fill="#989898" fill-opacity="0.2"/>
<path d="M25.1207 40.0961V45.493L15.0646 50.6896V50.9121L25.1207 56.1087V61.5055L10.0252 53.1933H1.77058V48.4084H10.0252L25.1207 40.0961Z" fill="#989898" fill-opacity="0.2"/>
<path d="M16.9459 82.8677V77.9938C17.592 77.9048 18.1658 77.723 18.6675 77.4486C19.1768 77.1741 19.61 76.8217 19.9673 76.3914C20.3245 75.9612 20.5981 75.4641 20.7882 74.9003C20.9782 74.344 21.0732 73.7394 21.0732 73.0866C21.0732 71.907 20.773 70.8796 20.1725 70.0042C19.5796 69.1289 18.7131 68.4501 17.573 67.9679C16.4404 67.4857 15.0646 67.2446 13.4456 67.2446C11.781 67.2446 10.3825 67.4857 9.24992 67.9679C8.11738 68.4575 7.26227 69.14 6.6846 70.0153C6.10692 70.8907 5.81809 71.9033 5.81809 73.0532C5.81809 73.6986 5.9055 74.2958 6.08032 74.8447C6.25514 75.4011 6.50978 75.8944 6.84422 76.3247C7.18626 76.7549 7.60051 77.111 8.08697 77.3929C8.57343 77.6822 9.1283 77.8825 9.75158 77.9938L9.72878 82.8677C8.65704 82.7416 7.62331 82.4263 6.62759 81.9218C5.63947 81.4248 4.75396 80.7534 3.97106 79.9078C3.19576 79.0695 2.58008 78.068 2.12403 76.9033C1.67557 75.746 1.45134 74.4367 1.45134 72.9753C1.45134 70.9426 1.9226 69.1251 2.86512 67.5228C3.80764 65.9278 5.17201 64.6667 6.95823 63.7394C8.74445 62.8195 10.9069 62.3596 13.4456 62.3596C15.992 62.3596 18.1582 62.8269 19.9445 63.7617C21.7307 64.6964 23.0912 65.9649 24.0262 67.5673C24.9687 69.1697 25.4399 70.9723 25.4399 72.9753C25.4399 74.2958 25.2499 75.5198 24.8699 76.6474C24.4898 77.7824 23.935 78.7876 23.2053 79.6629C22.4832 80.5383 21.5977 81.2505 20.5487 81.7994C19.4998 82.3558 18.2988 82.7119 16.9459 82.8677Z" fill="#989898" fill-opacity="0.2"/>
<path d="M1.77058 86.3228H25.1207V91.141H15.4865V100.922H25.1207V105.729H1.77058V100.922H11.4162V91.141H1.77058V86.3228Z" fill="#989898" fill-opacity="0.2"/>
<path d="M13.4456 130.644C10.8993 130.644 8.73305 130.173 6.94683 129.231C5.16061 128.296 3.79624 127.02 2.85372 125.403C1.9188 123.793 1.45134 121.983 1.45134 119.973C1.45134 117.947 1.9226 116.13 2.86512 114.52C3.80764 112.91 5.17201 111.638 6.95823 110.703C8.74445 109.769 10.9069 109.301 13.4456 109.301C15.992 109.301 18.1582 109.769 19.9445 110.703C21.7307 111.638 23.0912 112.91 24.0262 114.52C24.9687 116.13 25.4399 117.947 25.4399 119.973C25.4399 121.983 24.9687 123.793 24.0262 125.403C23.0912 127.02 21.7307 128.296 19.9445 129.231C18.1582 130.173 15.992 130.644 13.4456 130.644ZM13.4456 125.759C15.095 125.759 16.486 125.518 17.6186 125.036C18.7511 124.561 19.61 123.889 20.1953 123.021C20.7806 122.154 21.0732 121.137 21.0732 119.973C21.0732 118.808 20.7806 117.792 20.1953 116.924C19.61 116.056 18.7511 115.381 17.6186 114.898C16.486 114.424 15.095 114.186 13.4456 114.186C11.7962 114.186 10.4053 114.424 9.27272 114.898C8.14018 115.381 7.28127 116.056 6.696 116.924C6.11072 117.792 5.81809 118.808 5.81809 119.973C5.81809 121.137 6.11072 122.154 6.696 123.021C7.28127 123.889 8.14018 124.561 9.27272 125.036C10.4053 125.518 11.7962 125.759 13.4456 125.759Z" fill="#989898" fill-opacity="0.2"/>
<path d="M1.77058 134.213H25.1207V139.031H5.84089V148.801H1.77058V134.213Z" fill="#989898" fill-opacity="0.2"/>
<path d="M13.4456 172.047C10.8993 172.047 8.73305 171.576 6.94683 170.634C5.16061 169.699 3.79624 168.423 2.85372 166.806C1.9188 165.196 1.45134 163.386 1.45134 161.375C1.45134 159.35 1.9226 157.533 2.86512 155.923C3.80764 154.313 5.17201 153.041 6.95823 152.106C8.74445 151.171 10.9069 150.704 13.4456 150.704C15.992 150.704 18.1582 151.171 19.9445 152.106C21.7307 153.041 23.0912 154.313 24.0262 155.923C24.9687 157.533 25.4399 159.35 25.4399 161.375C25.4399 163.386 24.9687 165.196 24.0262 166.806C23.0912 168.423 21.7307 169.699 19.9445 170.634C18.1582 171.576 15.992 172.047 13.4456 172.047ZM13.4456 167.162C15.095 167.162 16.486 166.921 17.6186 166.438C18.7511 165.964 19.61 165.292 20.1953 164.424C20.7806 163.556 21.0732 162.54 21.0732 161.375C21.0732 160.211 20.7806 159.194 20.1953 158.326C19.61 157.458 18.7511 156.783 17.6186 156.301C16.486 155.826 15.095 155.589 13.4456 155.589C11.7962 155.589 10.4053 155.826 9.27272 156.301C8.14018 156.783 7.28127 157.458 6.696 158.326C6.11072 159.194 5.81809 160.211 5.81809 161.375C5.81809 162.54 6.11072 163.556 6.696 164.424C7.28127 165.292 8.14018 165.964 9.27272 166.438C10.4053 166.921 11.7962 167.162 13.4456 167.162Z" fill="#989898" fill-opacity="0.2"/>
<path d="M17.573 190.727C18.1278 190.571 18.6181 190.352 19.0437 190.071C19.477 189.789 19.8418 189.444 20.1383 189.036C20.4423 188.635 20.6741 188.175 20.8338 187.656C20.9934 187.144 21.0732 186.577 21.0732 185.953C21.0732 184.789 20.7768 183.765 20.1839 182.882C19.591 182.007 18.7283 181.324 17.5958 180.835C16.4708 180.345 15.095 180.1 13.4684 180.1C11.8418 180.1 10.4585 180.341 9.31833 180.824C8.17818 181.306 7.30787 181.988 6.7074 182.871C6.11453 183.754 5.81809 184.796 5.81809 185.998C5.81809 187.088 6.01571 188.019 6.41096 188.791C6.81381 189.57 7.38008 190.163 8.10977 190.571C8.83947 190.987 9.70217 191.194 10.6979 191.194L10.5497 192.174V186.298H14.2665V195.835H11.325C9.27272 195.835 7.5093 195.412 6.03472 194.566C4.56773 193.72 3.43519 192.556 2.63709 191.072C1.84659 189.588 1.45134 187.89 1.45134 185.976C1.45134 183.839 1.934 181.962 2.89932 180.345C3.87225 178.728 5.25182 177.467 7.03804 176.562C8.83187 175.664 10.9601 175.215 13.4228 175.215C15.3155 175.215 17.0029 175.482 18.4851 176.016C19.9749 176.558 21.2366 177.315 22.2703 178.287C23.3041 179.258 24.0908 180.39 24.6304 181.68C25.1701 182.971 25.4399 184.37 25.4399 185.875C25.4399 187.166 25.2461 188.368 24.8585 189.481C24.4784 190.594 23.9388 191.58 23.2395 192.441C22.5402 193.309 21.7079 194.017 20.7426 194.566C19.7848 195.115 18.7283 195.467 17.573 195.623V190.727Z" fill="#989898" fill-opacity="0.2"/>
<path d="M25.1207 197.201V202.597L15.0646 207.794V208.017L25.1207 213.213V218.61L10.0252 210.298H1.77058V205.513H10.0252L25.1207 197.201Z" fill="#989898" fill-opacity="0.2"/>
<g opacity="0.3">
<path d="M58.3041 7.37224L76.5923 7.37224V19.481H73.4044V11.2388L69.0466 11.2388V18.6774H65.8587V11.2388L58.3041 11.2388V7.37224Z" fill="white"/>
<path d="M76.5923 33.378V37.2446H64.7157C63.3822 37.2446 62.2153 36.9261 61.2152 36.2891C60.2151 35.6581 59.4352 34.774 58.8756 33.637C58.3219 32.4999 58.0451 31.1753 58.0451 29.6632C58.0451 28.1452 58.3219 26.8176 58.8756 25.6805C59.4352 24.5435 60.2151 23.6594 61.2152 23.0284C62.2153 22.3974 63.3822 22.0818 64.7157 22.0818L76.5923 22.0818L76.5923 25.9484H65.0461C64.3496 25.9484 63.7304 26.1002 63.1887 26.4039C62.6469 26.7134 62.2213 27.148 61.9117 27.7076C61.6022 28.2672 61.4474 28.9191 61.4474 29.6632C61.4474 30.4133 61.6022 31.0652 61.9117 31.6189C62.2213 32.1785 62.6469 32.6101 63.1887 32.9137C63.7304 33.2232 64.3496 33.378 65.0461 33.378H76.5923Z" fill="white"/>
<path d="M73.4044 39.7293H76.5923V54.7492H73.4044V49.1503H58.3041V45.3283H73.4044L73.4044 39.7293Z" fill="white"/>
<path d="M76.5923 68.519V72.3856H64.7157C63.3822 72.3856 62.2153 72.0671 61.2152 71.4301C60.2151 70.799 59.4352 69.915 58.8756 68.7779C58.3219 67.6409 58.0451 66.3163 58.0451 64.8042C58.0451 63.2861 58.3219 61.9586 58.8756 60.8215C59.4352 59.6844 60.2151 58.8004 61.2152 58.1693C62.2153 57.5383 63.3822 57.2228 64.7157 57.2228H76.5923V61.0894H65.0461C64.3496 61.0894 63.7304 61.2412 63.1887 61.5448C62.6469 61.8544 62.2213 62.289 61.9117 62.8486C61.6022 63.4082 61.4474 64.06 61.4474 64.8042C61.4474 65.5543 61.6022 66.2062 61.9117 66.7598C62.2213 67.3194 62.6469 67.751 63.1887 68.0546C63.7304 68.3642 64.3496 68.519 65.0461 68.519H76.5923Z" fill="white"/>
<path d="M58.3041 75.5668H76.5923V82.7821C76.5923 84.1632 76.3452 85.342 75.8511 86.3183C75.363 87.3006 74.6694 88.0477 73.7705 88.5597C72.8775 89.0776 71.8268 89.3366 70.6183 89.3366C69.4038 89.3366 68.359 89.0746 67.4839 88.5507C66.6147 88.0268 65.948 87.2678 65.4836 86.2736C65.0193 85.2854 64.7871 84.0888 64.7871 82.6839V77.8528H67.8947L67.8947 82.0588C67.8947 82.797 67.9959 83.4101 68.1983 83.8983C68.4007 84.3865 68.7043 84.7496 69.1091 84.9877C69.5139 85.2318 70.017 85.3539 70.6183 85.3539C71.2255 85.3539 71.7375 85.2318 72.1542 84.9877C72.5709 84.7496 72.8864 84.3835 73.1007 83.8894C73.321 83.4012 73.4311 82.7851 73.4311 82.0409V79.4334H58.3041V75.5668ZM66.6266 85.4432L58.3041 89.9884V85.72L66.6266 81.2729V85.4432Z" fill="white"/>
<path d="M58.3041 92.0691H76.5923V104.392H73.4044V95.9357H69.0466V103.758H65.8587V95.9357H61.492V104.428H58.3041V92.0691Z" fill="white"/>
<path d="M32.6989 6.60999L50.9871 6.60999L50.9871 13.8253C50.9871 15.2124 50.7222 16.3941 50.1924 17.3704C49.6685 18.3467 48.9392 19.0909 48.0046 19.6028C47.0759 20.1208 46.0043 20.3797 44.7898 20.3797C43.5754 20.3797 42.5038 20.1178 41.5751 19.5939C40.6464 19.07 39.9231 18.311 39.4052 17.3168C38.8873 16.3286 38.6283 15.132 38.6283 13.727L38.6283 9.12819L41.7269 9.12819V13.1019C41.7269 13.8461 41.8549 14.4593 42.1109 14.9415C42.3728 15.4296 42.733 15.7928 43.1914 16.0309C43.6558 16.275 44.1886 16.397 44.7898 16.397C45.3971 16.397 45.9269 16.275 46.3793 16.0309C46.8377 15.7928 47.192 15.4296 47.442 14.9415C47.698 14.4533 47.826 13.8342 47.826 13.0841V10.4766L32.6989 10.4766L32.6989 6.60999Z" fill="white"/>
<path d="M32.6989 22.8912L50.9871 22.8912V35.2143H47.7992V26.7578H43.4414V34.5803H40.2535L40.2535 26.7578H35.8868L35.8868 35.2501H32.6989L32.6989 22.8912Z" fill="white"/>
<path d="M32.6989 38.2884H50.9871L50.9871 45.5037C50.9871 46.8848 50.7401 48.0636 50.2459 49.0399C49.7578 50.0222 49.0642 50.7693 48.1653 51.2813C47.2723 51.7992 46.2216 52.0582 45.0131 52.0582C43.7986 52.0582 42.7538 51.7962 41.8787 51.2723C41.0096 50.7484 40.3428 49.9894 39.8785 48.9952C39.4141 48.007 39.1819 46.8104 39.1819 45.4055V40.5744H42.2895V44.7804C42.2895 45.5186 42.3907 46.1317 42.5931 46.6199C42.7955 47.1081 43.0991 47.4712 43.504 47.7093C43.9088 47.9534 44.4118 48.0755 45.0131 48.0755C45.6203 48.0755 46.1323 47.9534 46.549 47.7093C46.9657 47.4712 47.2813 47.1051 47.4956 46.611C47.7158 46.1228 47.826 45.5067 47.826 44.7625V42.155H32.6989L32.6989 38.2884ZM41.0215 48.1648L32.6989 52.71L32.6989 48.4416L41.0215 43.9946V48.1648Z" fill="white"/>
<path d="M45.7275 64.7117C46.4478 64.6402 47.0074 64.3336 47.4063 63.7919C47.8051 63.2502 48.0046 62.5149 48.0046 61.5862C48.0046 60.9552 47.9153 60.4224 47.7367 59.9878C47.564 59.5532 47.3229 59.2198 47.0134 58.9877C46.7038 58.7614 46.3526 58.6483 45.9596 58.6483C45.6322 58.6364 45.3465 58.7049 45.1024 58.8537C44.8583 59.0085 44.647 59.2198 44.4684 59.4877C44.2957 59.7556 44.1439 60.0652 44.0129 60.4164C43.8879 60.7677 43.7808 61.1427 43.6915 61.5416L43.2986 63.1847C43.12 63.9824 42.8818 64.7146 42.5842 65.3814C42.2865 66.0482 41.9204 66.6256 41.4858 67.1138C41.0512 67.6019 40.5393 67.98 39.9499 68.2479C39.3605 68.5217 38.6848 68.6616 37.9228 68.6676C36.8036 68.6616 35.8333 68.3759 35.0117 67.8103C34.1961 67.2507 33.5621 66.4411 33.1097 65.3814C32.6632 64.3277 32.4399 63.0567 32.4399 61.5684C32.4399 60.092 32.6662 58.8061 33.1186 57.7107C33.571 56.6213 34.2408 55.77 35.1278 55.1568C36.0208 54.5496 37.1251 54.2311 38.4408 54.2013V57.9429C37.8276 57.9846 37.3156 58.1602 36.9048 58.4697C36.5 58.7853 36.1934 59.205 35.9851 59.7288C35.7827 60.2587 35.6815 60.857 35.6815 61.5237C35.6815 62.1786 35.7767 62.7471 35.9672 63.2293C36.1577 63.7175 36.4226 64.0955 36.762 64.3634C37.1013 64.6313 37.4912 64.7652 37.9318 64.7652C38.3425 64.7652 38.6878 64.6432 38.9676 64.3991C39.2474 64.161 39.4855 63.8098 39.682 63.3454C39.8785 62.887 40.0571 62.3244 40.2178 61.6577L40.7179 59.6663C41.0929 58.1245 41.6793 56.907 42.477 56.014C43.2748 55.1211 44.3493 54.6776 45.7007 54.6835C46.808 54.6776 47.7754 54.9722 48.6029 55.5676C49.4304 56.1688 50.0763 56.9933 50.5406 58.0411C51.005 59.0889 51.2371 60.2795 51.2371 61.613C51.2371 62.9704 51.005 64.155 50.5406 65.1671C50.0763 66.1851 49.4304 66.9769 48.6029 67.5424C47.7754 68.108 46.8169 68.3997 45.7275 68.4175V64.7117Z" fill="white"/>
<path d="M41.843 88.0742C39.8487 88.0742 38.152 87.6962 36.753 86.9401C35.354 86.19 34.2854 85.1661 33.5472 83.8683C32.815 82.5765 32.4489 81.1239 32.4489 79.5106C32.4489 77.8853 32.818 76.4268 33.5562 75.135C34.2944 73.8431 35.363 72.8221 36.762 72.072C38.161 71.3219 39.8546 70.9469 41.843 70.9469C43.8373 70.9469 45.534 71.3219 46.933 72.072C48.332 72.8221 49.3976 73.8431 50.1299 75.135C50.8681 76.4268 51.2371 77.8853 51.2371 79.5106C51.2371 81.1239 50.8681 82.5765 50.1299 83.8683C49.3976 85.1661 48.332 86.19 46.933 86.9401C45.534 87.6962 43.8373 88.0742 41.843 88.0742ZM41.843 84.1541C43.1349 84.1541 44.2243 83.9606 45.1113 83.5736C45.9983 83.1926 46.671 82.6538 47.1294 81.9573C47.5878 81.2608 47.817 80.4452 47.817 79.5106C47.817 78.5759 47.5878 77.7603 47.1294 77.0638C46.671 76.3673 45.9983 75.8255 45.1113 75.4386C44.2243 75.0576 43.1349 74.8671 41.843 74.8671C40.5512 74.8671 39.4617 75.0576 38.5747 75.4386C37.6877 75.8255 37.015 76.3673 36.5566 77.0638C36.0982 77.7603 35.869 78.5759 35.869 79.5106C35.869 80.4452 36.0982 81.2608 36.5566 81.9573C37.015 82.6538 37.6877 83.1926 38.5747 83.5736C39.4617 83.9606 40.5512 84.1541 41.843 84.1541Z" fill="white"/>
<path d="M50.9871 106.235L32.6989 106.235L32.6989 102.895L44.2094 94.939V94.8051H32.6989L32.6989 90.9385H50.9871V94.3318L39.4855 102.226V102.386L50.9871 102.386L50.9871 106.235Z" fill="white"/>
<path d="M32.6989 112.582L32.6989 108.439L50.9871 114.752V119.735L32.6989 126.039L32.6989 121.896L46.808 117.315V117.172L32.6989 112.582ZM39.8874 112.323L39.8874 122.11H36.8691L36.8691 112.323H39.8874Z" fill="white"/>
<path d="M32.6989 128.24H50.9871V132.107H35.8868L35.8868 139.947H32.6989L32.6989 128.24Z" fill="white"/>
<path d="M50.9871 146.375H32.6989L32.6989 142.508H50.9871V146.375Z" fill="white"/>
<path d="M47.7992 148.859H50.9871V163.879H47.7992V158.28H32.6989L32.6989 154.458H47.7992V148.859Z" fill="white"/>
<path d="M50.9871 165.281V169.612L43.111 173.782V173.961L50.9871 178.131V182.462L39.1641 175.792H32.6989L32.6989 171.952H39.1641L50.9871 165.281Z" fill="white"/>
</g>
</svg>
