<svg width="110" height="143" fill="none" xmlns="http://www.w3.org/2000/svg"><path d="M1.52 1.5h107v141h-107V1.5z" fill="#C9C9C9" stroke="#fff"/><path d="M7.73 1.08H1v6.73h6.73V1.08zM14.46 1.08H7.73v6.73h6.73V1.08zM21.19 1.08h-6.73v6.73h6.73V1.08zM27.92 1.08h-6.73v6.73h6.73V1.08z" stroke="#fff" stroke-width=".25" stroke-miterlimit="10"/><path d="M34.65 1.08h-6.73v6.73h6.73V1.08zM41.38 1.08h-6.73v6.73h6.73V1.08z" stroke="#fff" stroke-width=".25" stroke-miterlimit="10"/><path d="M48.11 1.08h-6.73v6.73h6.73V1.08zM54.84 1.08h-6.73v6.73h6.73V1.08zM7.73 7.8H1v6.73h6.73V7.8zM14.46 7.8H7.73v6.73h6.73V7.8zM21.19 7.8h-6.73v6.73h6.73V7.8zM27.92 7.8h-6.73v6.73h6.73V7.8z" stroke="#fff" stroke-width=".25" stroke-miterlimit="10"/><path d="M34.65 7.8h-6.73v6.73h6.73V7.8zM41.38 7.8h-6.73v6.73h6.73V7.8z" stroke="#fff" stroke-width=".25" stroke-miterlimit="10"/><path d="M48.11 7.8h-6.73v6.73h6.73V7.8zM54.84 7.8h-6.73v6.73h6.73V7.8zM7.73 14.53H1v6.73h6.73v-6.73zM14.46 14.53H7.73v6.73h6.73v-6.73zM21.19 14.53h-6.73v6.73h6.73v-6.73zM27.92 14.53h-6.73v6.73h6.73v-6.73z" stroke="#fff" stroke-width=".25" stroke-miterlimit="10"/><path d="M34.65 14.53h-6.73v6.73h6.73v-6.73zM41.38 14.53h-6.73v6.73h6.73v-6.73z" stroke="#fff" stroke-width=".25" stroke-miterlimit="10"/><path d="M48.11 14.53h-6.73v6.73h6.73v-6.73zM54.84 14.53h-6.73v6.73h6.73v-6.73zM7.73 21.26H1v6.73h6.73v-6.73zM14.46 21.26H7.73v6.73h6.73v-6.73zM21.19 21.26h-6.73v6.73h6.73v-6.73zM27.92 21.26h-6.73v6.73h6.73v-6.73z" stroke="#fff" stroke-width=".25" stroke-miterlimit="10"/><path d="M34.65 21.26h-6.73v6.73h6.73v-6.73zM41.38 21.26h-6.73v6.73h6.73v-6.73z" stroke="#fff" stroke-width=".25" stroke-miterlimit="10"/><path d="M48.11 21.26h-6.73v6.73h6.73v-6.73zM54.84 21.26h-6.73v6.73h6.73v-6.73zM7.73 28.05H1v6.73h6.73v-6.73zM14.46 28.05H7.73v6.73h6.73v-6.73zM21.19 28.05h-6.73v6.73h6.73v-6.73zM27.92 28.05h-6.73v6.73h6.73v-6.73z" stroke="#fff" stroke-width=".25" stroke-miterlimit="10"/><path d="M34.65 28.05h-6.73v6.73h6.73v-6.73zM41.38 28.05h-6.73v6.73h6.73v-6.73z" stroke="#fff" stroke-width=".25" stroke-miterlimit="10"/><path d="M48.11 28.05h-6.73v6.73h6.73v-6.73zM54.84 28.05h-6.73v6.73h6.73v-6.73zM7.73 34.78H1v6.73h6.73v-6.73zM14.46 34.78H7.73v6.73h6.73v-6.73zM21.19 34.78h-6.73v6.73h6.73v-6.73zM27.92 34.78h-6.73v6.73h6.73v-6.73z" stroke="#fff" stroke-width=".25" stroke-miterlimit="10"/><path d="M34.65 34.78h-6.73v6.73h6.73v-6.73zM41.38 34.78h-6.73v6.73h6.73v-6.73z" stroke="#fff" stroke-width=".25" stroke-miterlimit="10"/><path d="M48.11 34.78h-6.73v6.73h6.73v-6.73zM54.84 34.78h-6.73v6.73h6.73v-6.73zM7.73 41.5H1v6.73h6.73V41.5zM14.46 41.5H7.73v6.73h6.73V41.5zM21.19 41.5h-6.73v6.73h6.73V41.5zM27.92 41.5h-6.73v6.73h6.73V41.5z" stroke="#fff" stroke-width=".25" stroke-miterlimit="10"/><path d="M34.65 41.5h-6.73v6.73h6.73V41.5zM41.38 41.5h-6.73v6.73h6.73V41.5z" stroke="#fff" stroke-width=".25" stroke-miterlimit="10"/><path d="M48.11 41.5h-6.73v6.73h6.73V41.5zM54.84 41.5h-6.73v6.73h6.73V41.5zM7.73 48.23H1v6.73h6.73v-6.73zM14.46 48.23H7.73v6.73h6.73v-6.73zM21.19 48.23h-6.73v6.73h6.73v-6.73zM27.92 48.23h-6.73v6.73h6.73v-6.73z" stroke="#fff" stroke-width=".25" stroke-miterlimit="10"/><path d="M34.65 48.23h-6.73v6.73h6.73v-6.73zM41.38 48.23h-6.73v6.73h6.73v-6.73z" stroke="#fff" stroke-width=".25" stroke-miterlimit="10"/><path d="M48.11 48.23h-6.73v6.73h6.73v-6.73zM54.84 48.23h-6.73v6.73h6.73v-6.73zM7.73 54.96H1v6.73h6.73v-6.73zM14.46 54.96H7.73v6.73h6.73v-6.73zM21.19 54.96h-6.73v6.73h6.73v-6.73zM27.92 54.96h-6.73v6.73h6.73v-6.73z" stroke="#fff" stroke-width=".25" stroke-miterlimit="10"/><path d="M34.65 54.96h-6.73v6.73h6.73v-6.73zM41.38 54.96h-6.73v6.73h6.73v-6.73z" stroke="#fff" stroke-width=".25" stroke-miterlimit="10"/><path d="M48.11 54.96h-6.73v6.73h6.73v-6.73zM54.84 54.96h-6.73v6.73h6.73v-6.73zM7.73 61.69H1v6.73h6.73v-6.73zM14.46 61.69H7.73v6.73h6.73v-6.73zM21.19 61.69h-6.73v6.73h6.73v-6.73zM27.92 61.69h-6.73v6.73h6.73v-6.73z" stroke="#fff" stroke-width=".25" stroke-miterlimit="10"/><path d="M34.65 61.69h-6.73v6.73h6.73v-6.73zM41.38 61.69h-6.73v6.73h6.73v-6.73z" stroke="#fff" stroke-width=".25" stroke-miterlimit="10"/><path d="M48.11 61.69h-6.73v6.73h6.73v-6.73zM54.84 61.69h-6.73v6.73h6.73v-6.73zM7.73 68.42H1v6.73h6.73v-6.73zM14.46 68.42H7.73v6.73h6.73v-6.73zM21.19 68.42h-6.73v6.73h6.73v-6.73zM27.92 68.42h-6.73v6.73h6.73v-6.73z" stroke="#fff" stroke-width=".25" stroke-miterlimit="10"/><path d="M34.65 68.42h-6.73v6.73h6.73v-6.73zM41.38 68.42h-6.73v6.73h6.73v-6.73z" stroke="#fff" stroke-width=".25" stroke-miterlimit="10"/><path d="M48.11 68.42h-6.73v6.73h6.73v-6.73zM54.84 68.42h-6.73v6.73h6.73v-6.73zM7.73 75.15H1v6.73h6.73v-6.73zM14.46 75.15H7.73v6.73h6.73v-6.73zM21.19 75.15h-6.73v6.73h6.73v-6.73zM27.92 75.15h-6.73v6.73h6.73v-6.73z" stroke="#fff" stroke-width=".25" stroke-miterlimit="10"/><path d="M34.65 75.15h-6.73v6.73h6.73v-6.73zM41.38 75.15h-6.73v6.73h6.73v-6.73z" stroke="#fff" stroke-width=".25" stroke-miterlimit="10"/><path d="M48.11 75.15h-6.73v6.73h6.73v-6.73zM54.84 75.15h-6.73v6.73h6.73v-6.73zM7.73 81.93H1v6.73h6.73v-6.73zM14.46 81.93H7.73v6.73h6.73v-6.73zM21.19 81.93h-6.73v6.73h6.73v-6.73zM27.92 81.93h-6.73v6.73h6.73v-6.73z" stroke="#fff" stroke-width=".25" stroke-miterlimit="10"/><path d="M34.65 81.93h-6.73v6.73h6.73v-6.73zM41.38 81.93h-6.73v6.73h6.73v-6.73z" stroke="#fff" stroke-width=".25" stroke-miterlimit="10"/><path d="M48.11 81.93h-6.73v6.73h6.73v-6.73zM54.84 81.93h-6.73v6.73h6.73v-6.73zM7.73 88.66H1v6.73h6.73v-6.73zM14.46 88.66H7.73v6.73h6.73v-6.73zM21.19 88.66h-6.73v6.73h6.73v-6.73zM27.92 88.66h-6.73v6.73h6.73v-6.73z" stroke="#fff" stroke-width=".25" stroke-miterlimit="10"/><path d="M34.65 88.66h-6.73v6.73h6.73v-6.73zM41.38 88.66h-6.73v6.73h6.73v-6.73z" stroke="#fff" stroke-width=".25" stroke-miterlimit="10"/><path d="M48.11 88.66h-6.73v6.73h6.73v-6.73zM54.84 88.66h-6.73v6.73h6.73v-6.73zM7.73 95.39H1v6.73h6.73v-6.73zM14.46 95.39H7.73v6.73h6.73v-6.73zM21.19 95.39h-6.73v6.73h6.73v-6.73zM27.92 95.39h-6.73v6.73h6.73v-6.73z" stroke="#fff" stroke-width=".25" stroke-miterlimit="10"/><path d="M34.65 95.39h-6.73v6.73h6.73v-6.73zM41.38 95.39h-6.73v6.73h6.73v-6.73z" stroke="#fff" stroke-width=".25" stroke-miterlimit="10"/><path d="M48.11 95.39h-6.73v6.73h6.73v-6.73zM54.84 95.39h-6.73v6.73h6.73v-6.73zM7.73 102.12H1v6.73h6.73v-6.73zM14.46 102.12H7.73v6.73h6.73v-6.73zM21.19 102.12h-6.73v6.73h6.73v-6.73zM27.92 102.12h-6.73v6.73h6.73v-6.73z" stroke="#fff" stroke-width=".25" stroke-miterlimit="10"/><path d="M34.65 102.12h-6.73v6.73h6.73v-6.73zM41.38 102.12h-6.73v6.73h6.73v-6.73z" stroke="#fff" stroke-width=".25" stroke-miterlimit="10"/><path d="M48.11 102.12h-6.73v6.73h6.73v-6.73zM54.84 102.12h-6.73v6.73h6.73v-6.73zM61.78 1.08h-6.73v6.73h6.73V1.08zM68.51 1.08h-6.73v6.73h6.73V1.08z" stroke="#fff" stroke-width=".25" stroke-miterlimit="10"/><path d="M75.24 1.08h-6.73v6.73h6.73V1.08z" stroke="#fff" stroke-width=".25" stroke-miterlimit="10"/><path d="M81.96 1.08h-6.73v6.73h6.73V1.08zM88.69 1.08h-6.73v6.73h6.73V1.08zM95.42 1.08h-6.73v6.73h6.73V1.08zM102.15 1.08h-6.73v6.73h6.73V1.08z" stroke="#fff" stroke-width=".25" stroke-miterlimit="10"/><path d="M108.88 1.08h-6.73v6.73h6.73V1.08zM61.78 7.8h-6.73v6.73h6.73V7.8zM68.51 7.8h-6.73v6.73h6.73V7.8z" stroke="#fff" stroke-width=".25" stroke-miterlimit="10"/><path d="M75.24 7.8h-6.73v6.73h6.73V7.8z" stroke="#fff" stroke-width=".25" stroke-miterlimit="10"/><path d="M81.96 7.8h-6.73v6.73h6.73V7.8zM88.69 7.8h-6.73v6.73h6.73V7.8zM95.42 7.8h-6.73v6.73h6.73V7.8zM102.15 7.8h-6.73v6.73h6.73V7.8z" stroke="#fff" stroke-width=".25" stroke-miterlimit="10"/><path d="M108.88 7.8h-6.73v6.73h6.73V7.8zM61.78 14.53h-6.73v6.73h6.73v-6.73zM68.51 14.53h-6.73v6.73h6.73v-6.73z" stroke="#fff" stroke-width=".25" stroke-miterlimit="10"/><path d="M75.24 14.53h-6.73v6.73h6.73v-6.73z" stroke="#fff" stroke-width=".25" stroke-miterlimit="10"/><path d="M81.96 14.53h-6.73v6.73h6.73v-6.73zM88.69 14.53h-6.73v6.73h6.73v-6.73zM95.42 14.53h-6.73v6.73h6.73v-6.73zM102.15 14.53h-6.73v6.73h6.73v-6.73z" stroke="#fff" stroke-width=".25" stroke-miterlimit="10"/><path d="M108.88 14.53h-6.73v6.73h6.73v-6.73zM61.78 21.26h-6.73v6.73h6.73v-6.73zM68.51 21.26h-6.73v6.73h6.73v-6.73z" stroke="#fff" stroke-width=".25" stroke-miterlimit="10"/><path d="M75.24 21.26h-6.73v6.73h6.73v-6.73z" stroke="#fff" stroke-width=".25" stroke-miterlimit="10"/><path d="M81.96 21.26h-6.73v6.73h6.73v-6.73zM88.69 21.26h-6.73v6.73h6.73v-6.73zM95.42 21.26h-6.73v6.73h6.73v-6.73zM102.15 21.26h-6.73v6.73h6.73v-6.73z" stroke="#fff" stroke-width=".25" stroke-miterlimit="10"/><path d="M108.88 21.26h-6.73v6.73h6.73v-6.73zM61.78 28.05h-6.73v6.73h6.73v-6.73zM68.51 28.05h-6.73v6.73h6.73v-6.73z" stroke="#fff" stroke-width=".25" stroke-miterlimit="10"/><path d="M75.24 28.05h-6.73v6.73h6.73v-6.73z" stroke="#fff" stroke-width=".25" stroke-miterlimit="10"/><path d="M81.96 28.05h-6.73v6.73h6.73v-6.73zM88.69 28.05h-6.73v6.73h6.73v-6.73zM95.42 28.05h-6.73v6.73h6.73v-6.73zM102.15 28.05h-6.73v6.73h6.73v-6.73z" stroke="#fff" stroke-width=".25" stroke-miterlimit="10"/><path d="M108.88 28.05h-6.73v6.73h6.73v-6.73zM61.78 34.78h-6.73v6.73h6.73v-6.73zM68.51 34.78h-6.73v6.73h6.73v-6.73z" stroke="#fff" stroke-width=".25" stroke-miterlimit="10"/><path d="M75.24 34.78h-6.73v6.73h6.73v-6.73z" stroke="#fff" stroke-width=".25" stroke-miterlimit="10"/><path d="M81.96 34.78h-6.73v6.73h6.73v-6.73zM88.69 34.78h-6.73v6.73h6.73v-6.73zM95.42 34.78h-6.73v6.73h6.73v-6.73zM102.15 34.78h-6.73v6.73h6.73v-6.73z" stroke="#fff" stroke-width=".25" stroke-miterlimit="10"/><path d="M108.88 34.78h-6.73v6.73h6.73v-6.73zM61.78 41.5h-6.73v6.73h6.73V41.5zM68.51 41.5h-6.73v6.73h6.73V41.5z" stroke="#fff" stroke-width=".25" stroke-miterlimit="10"/><path d="M75.24 41.5h-6.73v6.73h6.73V41.5z" stroke="#fff" stroke-width=".25" stroke-miterlimit="10"/><path d="M81.96 41.5h-6.73v6.73h6.73V41.5zM88.69 41.5h-6.73v6.73h6.73V41.5zM95.42 41.5h-6.73v6.73h6.73V41.5zM102.15 41.5h-6.73v6.73h6.73V41.5z" stroke="#fff" stroke-width=".25" stroke-miterlimit="10"/><path d="M108.88 41.5h-6.73v6.73h6.73V41.5zM61.78 48.23h-6.73v6.73h6.73v-6.73zM68.51 48.23h-6.73v6.73h6.73v-6.73z" stroke="#fff" stroke-width=".25" stroke-miterlimit="10"/><path d="M75.24 48.23h-6.73v6.73h6.73v-6.73z" stroke="#fff" stroke-width=".25" stroke-miterlimit="10"/><path d="M81.96 48.23h-6.73v6.73h6.73v-6.73zM88.69 48.23h-6.73v6.73h6.73v-6.73zM95.42 48.23h-6.73v6.73h6.73v-6.73zM102.15 48.23h-6.73v6.73h6.73v-6.73z" stroke="#fff" stroke-width=".25" stroke-miterlimit="10"/><path d="M108.88 48.23h-6.73v6.73h6.73v-6.73zM61.78 54.96h-6.73v6.73h6.73v-6.73zM68.51 54.96h-6.73v6.73h6.73v-6.73z" stroke="#fff" stroke-width=".25" stroke-miterlimit="10"/><path d="M75.24 54.96h-6.73v6.73h6.73v-6.73z" stroke="#fff" stroke-width=".25" stroke-miterlimit="10"/><path d="M81.96 54.96h-6.73v6.73h6.73v-6.73zM88.69 54.96h-6.73v6.73h6.73v-6.73zM95.42 54.96h-6.73v6.73h6.73v-6.73zM102.15 54.96h-6.73v6.73h6.73v-6.73z" stroke="#fff" stroke-width=".25" stroke-miterlimit="10"/><path d="M108.88 54.96h-6.73v6.73h6.73v-6.73zM61.78 61.69h-6.73v6.73h6.73v-6.73zM68.51 61.69h-6.73v6.73h6.73v-6.73z" stroke="#fff" stroke-width=".25" stroke-miterlimit="10"/><path d="M75.24 61.69h-6.73v6.73h6.73v-6.73z" stroke="#fff" stroke-width=".25" stroke-miterlimit="10"/><path d="M81.96 61.69h-6.73v6.73h6.73v-6.73zM88.69 61.69h-6.73v6.73h6.73v-6.73zM95.42 61.69h-6.73v6.73h6.73v-6.73zM102.15 61.69h-6.73v6.73h6.73v-6.73z" stroke="#fff" stroke-width=".25" stroke-miterlimit="10"/><path d="M108.88 61.69h-6.73v6.73h6.73v-6.73zM61.78 68.42h-6.73v6.73h6.73v-6.73zM68.51 68.42h-6.73v6.73h6.73v-6.73z" stroke="#fff" stroke-width=".25" stroke-miterlimit="10"/><path d="M75.24 68.42h-6.73v6.73h6.73v-6.73z" stroke="#fff" stroke-width=".25" stroke-miterlimit="10"/><path d="M81.96 68.42h-6.73v6.73h6.73v-6.73zM88.69 68.42h-6.73v6.73h6.73v-6.73zM95.42 68.42h-6.73v6.73h6.73v-6.73zM102.15 68.42h-6.73v6.73h6.73v-6.73z" stroke="#fff" stroke-width=".25" stroke-miterlimit="10"/><path d="M108.88 68.42h-6.73v6.73h6.73v-6.73zM61.78 75.15h-6.73v6.73h6.73v-6.73zM68.51 75.15h-6.73v6.73h6.73v-6.73z" stroke="#fff" stroke-width=".25" stroke-miterlimit="10"/><path d="M75.24 75.15h-6.73v6.73h6.73v-6.73z" stroke="#fff" stroke-width=".25" stroke-miterlimit="10"/><path d="M81.96 75.15h-6.73v6.73h6.73v-6.73zM88.69 75.15h-6.73v6.73h6.73v-6.73zM95.42 75.15h-6.73v6.73h6.73v-6.73zM102.15 75.15h-6.73v6.73h6.73v-6.73z" stroke="#fff" stroke-width=".25" stroke-miterlimit="10"/><path d="M108.88 75.15h-6.73v6.73h6.73v-6.73zM61.78 81.93h-6.73v6.73h6.73v-6.73zM68.51 81.93h-6.73v6.73h6.73v-6.73z" stroke="#fff" stroke-width=".25" stroke-miterlimit="10"/><path d="M75.24 81.93h-6.73v6.73h6.73v-6.73z" stroke="#fff" stroke-width=".25" stroke-miterlimit="10"/><path d="M81.96 81.93h-6.73v6.73h6.73v-6.73zM88.69 81.93h-6.73v6.73h6.73v-6.73zM95.42 81.93h-6.73v6.73h6.73v-6.73zM102.15 81.93h-6.73v6.73h6.73v-6.73z" stroke="#fff" stroke-width=".25" stroke-miterlimit="10"/><path d="M108.88 81.93h-6.73v6.73h6.73v-6.73zM61.78 88.66h-6.73v6.73h6.73v-6.73zM68.51 88.66h-6.73v6.73h6.73v-6.73z" stroke="#fff" stroke-width=".25" stroke-miterlimit="10"/><path d="M75.24 88.66h-6.73v6.73h6.73v-6.73z" stroke="#fff" stroke-width=".25" stroke-miterlimit="10"/><path d="M81.96 88.66h-6.73v6.73h6.73v-6.73zM88.69 88.66h-6.73v6.73h6.73v-6.73zM95.42 88.66h-6.73v6.73h6.73v-6.73zM102.15 88.66h-6.73v6.73h6.73v-6.73z" stroke="#fff" stroke-width=".25" stroke-miterlimit="10"/><path d="M108.88 88.66h-6.73v6.73h6.73v-6.73zM61.78 95.39h-6.73v6.73h6.73v-6.73zM68.51 95.39h-6.73v6.73h6.73v-6.73z" stroke="#fff" stroke-width=".25" stroke-miterlimit="10"/><path d="M75.24 95.39h-6.73v6.73h6.73v-6.73z" stroke="#fff" stroke-width=".25" stroke-miterlimit="10"/><path d="M81.96 95.39h-6.73v6.73h6.73v-6.73zM88.69 95.39h-6.73v6.73h6.73v-6.73zM95.42 95.39h-6.73v6.73h6.73v-6.73zM102.15 95.39h-6.73v6.73h6.73v-6.73z" stroke="#fff" stroke-width=".25" stroke-miterlimit="10"/><path d="M108.88 95.39h-6.73v6.73h6.73v-6.73zM61.78 102.12h-6.73v6.73h6.73v-6.73zM68.51 102.12h-6.73v6.73h6.73v-6.73z" stroke="#fff" stroke-width=".25" stroke-miterlimit="10"/><path d="M75.24 102.12h-6.73v6.73h6.73v-6.73z" stroke="#fff" stroke-width=".25" stroke-miterlimit="10"/><path d="M81.96 102.12h-6.73v6.73h6.73v-6.73zM88.69 102.12h-6.73v6.73h6.73v-6.73zM95.42 102.12h-6.73v6.73h6.73v-6.73zM102.15 102.12h-6.73v6.73h6.73v-6.73z" stroke="#fff" stroke-width=".25" stroke-miterlimit="10"/><path d="M108.88 102.12h-6.73v6.73h6.73v-6.73zM7.73 108.85H1v6.73h6.73v-6.73zM14.46 108.85H7.73v6.73h6.73v-6.73zM21.19 108.85h-6.73v6.73h6.73v-6.73zM27.92 108.85h-6.73v6.73h6.73v-6.73z" stroke="#fff" stroke-width=".25" stroke-miterlimit="10"/><path d="M34.65 108.85h-6.73v6.73h6.73v-6.73zM41.38 108.85h-6.73v6.73h6.73v-6.73z" stroke="#fff" stroke-width=".25" stroke-miterlimit="10"/><path d="M48.11 108.85h-6.73v6.73h6.73v-6.73zM54.84 108.85h-6.73v6.73h6.73v-6.73zM7.73 115.63H1v6.73h6.73v-6.73zM14.46 115.63H7.73v6.73h6.73v-6.73zM21.19 115.63h-6.73v6.73h6.73v-6.73zM27.92 115.63h-6.73v6.73h6.73v-6.73z" stroke="#fff" stroke-width=".25" stroke-miterlimit="10"/><path d="M34.65 115.63h-6.73v6.73h6.73v-6.73zM41.38 115.63h-6.73v6.73h6.73v-6.73z" stroke="#fff" stroke-width=".25" stroke-miterlimit="10"/><path d="M48.11 115.63h-6.73v6.73h6.73v-6.73zM54.84 115.63h-6.73v6.73h6.73v-6.73zM7.73 122.36H1v6.73h6.73v-6.73zM14.46 122.36H7.73v6.73h6.73v-6.73zM21.19 122.36h-6.73v6.73h6.73v-6.73zM27.92 122.36h-6.73v6.73h6.73v-6.73z" stroke="#fff" stroke-width=".25" stroke-miterlimit="10"/><path d="M34.65 122.36h-6.73v6.73h6.73v-6.73zM41.38 122.36h-6.73v6.73h6.73v-6.73z" stroke="#fff" stroke-width=".25" stroke-miterlimit="10"/><path d="M48.11 122.36h-6.73v6.73h6.73v-6.73zM54.84 122.36h-6.73v6.73h6.73v-6.73zM7.73 129.09H1v6.73h6.73v-6.73zM14.46 129.09H7.73v6.73h6.73v-6.73zM21.19 129.09h-6.73v6.73h6.73v-6.73zM27.92 129.09h-6.73v6.73h6.73v-6.73z" stroke="#fff" stroke-width=".25" stroke-miterlimit="10"/><path d="M34.65 129.09h-6.73v6.73h6.73v-6.73zM41.38 129.09h-6.73v6.73h6.73v-6.73z" stroke="#fff" stroke-width=".25" stroke-miterlimit="10"/><path d="M48.11 129.09h-6.73v6.73h6.73v-6.73zM54.84 129.09h-6.73v6.73h6.73v-6.73zM7.73 135.82H1v6.73h6.73v-6.73zM14.46 135.82H7.73v6.73h6.73v-6.73zM21.19 135.82h-6.73v6.73h6.73v-6.73zM27.92 135.82h-6.73v6.73h6.73v-6.73z" stroke="#fff" stroke-width=".25" stroke-miterlimit="10"/><path d="M34.65 135.82h-6.73v6.73h6.73v-6.73zM41.38 135.82h-6.73v6.73h6.73v-6.73z" stroke="#fff" stroke-width=".25" stroke-miterlimit="10"/><path d="M48.11 135.82h-6.73v6.73h6.73v-6.73zM54.84 135.82h-6.73v6.73h6.73v-6.73zM61.78 108.85h-6.73v6.73h6.73v-6.73zM68.51 108.85h-6.73v6.73h6.73v-6.73z" stroke="#fff" stroke-width=".25" stroke-miterlimit="10"/><path d="M75.24 108.85h-6.73v6.73h6.73v-6.73z" stroke="#fff" stroke-width=".25" stroke-miterlimit="10"/><path d="M81.96 108.85h-6.73v6.73h6.73v-6.73zM88.69 108.85h-6.73v6.73h6.73v-6.73zM95.42 108.85h-6.73v6.73h6.73v-6.73zM102.15 108.85h-6.73v6.73h6.73v-6.73z" stroke="#fff" stroke-width=".25" stroke-miterlimit="10"/><path d="M108.88 108.85h-6.73v6.73h6.73v-6.73zM61.78 115.63h-6.73v6.73h6.73v-6.73zM68.51 115.63h-6.73v6.73h6.73v-6.73z" stroke="#fff" stroke-width=".25" stroke-miterlimit="10"/><path d="M75.24 115.63h-6.73v6.73h6.73v-6.73z" stroke="#fff" stroke-width=".25" stroke-miterlimit="10"/><path d="M81.96 115.63h-6.73v6.73h6.73v-6.73zM88.69 115.63h-6.73v6.73h6.73v-6.73zM95.42 115.63h-6.73v6.73h6.73v-6.73zM102.15 115.63h-6.73v6.73h6.73v-6.73z" stroke="#fff" stroke-width=".25" stroke-miterlimit="10"/><path d="M108.88 115.63h-6.73v6.73h6.73v-6.73zM61.78 122.36h-6.73v6.73h6.73v-6.73zM68.51 122.36h-6.73v6.73h6.73v-6.73z" stroke="#fff" stroke-width=".25" stroke-miterlimit="10"/><path d="M75.24 122.36h-6.73v6.73h6.73v-6.73z" stroke="#fff" stroke-width=".25" stroke-miterlimit="10"/><path d="M81.96 122.36h-6.73v6.73h6.73v-6.73zM88.69 122.36h-6.73v6.73h6.73v-6.73zM95.42 122.36h-6.73v6.73h6.73v-6.73zM102.15 122.36h-6.73v6.73h6.73v-6.73z" stroke="#fff" stroke-width=".25" stroke-miterlimit="10"/><path d="M108.88 122.36h-6.73v6.73h6.73v-6.73zM61.78 129.09h-6.73v6.73h6.73v-6.73zM68.51 129.09h-6.73v6.73h6.73v-6.73z" stroke="#fff" stroke-width=".25" stroke-miterlimit="10"/><path d="M75.24 129.09h-6.73v6.73h6.73v-6.73z" stroke="#fff" stroke-width=".25" stroke-miterlimit="10"/><path d="M81.96 129.09h-6.73v6.73h6.73v-6.73zM88.69 129.09h-6.73v6.73h6.73v-6.73zM95.42 129.09h-6.73v6.73h6.73v-6.73zM102.15 129.09h-6.73v6.73h6.73v-6.73z" stroke="#fff" stroke-width=".25" stroke-miterlimit="10"/><path d="M108.88 129.09h-6.73v6.73h6.73v-6.73zM61.78 135.82h-6.73v6.73h6.73v-6.73zM68.51 135.82h-6.73v6.73h6.73v-6.73z" stroke="#fff" stroke-width=".25" stroke-miterlimit="10"/><path d="M75.24 135.82h-6.73v6.73h6.73v-6.73z" stroke="#fff" stroke-width=".25" stroke-miterlimit="10"/><path d="M81.96 135.82h-6.73v6.73h6.73v-6.73zM88.69 135.82h-6.73v6.73h6.73v-6.73zM95.42 135.82h-6.73v6.73h6.73v-6.73zM102.15 135.82h-6.73v6.73h6.73v-6.73z" stroke="#fff" stroke-width=".25" stroke-miterlimit="10"/><path d="M108.88 135.82h-6.73v6.73h6.73v-6.73z" stroke="#fff" stroke-width=".25" stroke-miterlimit="10"/><path d="M48.02 1h-47v7h47V1zM109.02 129h-47v14h47v-14z" fill="#fff"/><path d="M108.02 2h-13v13h13V2zM15.02 129h-13v13h13v-13z" fill="#F8EC2C"/><path d="M38.29 56.23c-.64 0-1.16-.52-1.16-1.16V36.82a1.16 1.16 0 0 1 2.32 0v18.25c0 .64-.52 1.16-1.16 1.16zM52.88 53.11c-.64 0-1.16-.52-1.16-1.16V28.32a1.16 1.16 0 0 1 2.32 0v23.63c0 .64-.52 1.16-1.16 1.16zM67.21 53.11c-.64 0-1.16-.52-1.16-1.16L66 28.61a1.16 1.16 0 0 1 2.32 0l.05 23.34c0 .64-.52 1.16-1.16 1.16zM66.42 102.52a1 1 0 0 1-.91-.57c-.67-1.36-6.38-13.39-.94-16.37.17-.09.37-.2.61-.33 3.06-1.63 11.18-5.96 15.69-12.86.31-.47.94-.6 1.41-.3.47.31.6.94.3 1.41-4.79 7.34-13.25 11.85-16.43 13.55-.23.12-.43.23-.59.32-3.17 1.73.32 10.68 1.79 13.68a1.013 1.013 0 0 1-.92 1.46l-.01.01z" fill="#989898"/><path d="M34.16 59.41c-.32 0-.64-.15-.84-.44-.32-.46-.21-1.1.26-1.42 7.12-4.94 16.38-5.52 23.82-5.99.56-.03 1.04.39 1.08.95.04.56-.39 1.04-.95 1.08-7.19.45-16.14 1.02-22.78 5.63-.18.12-.38.18-.58.18l-.01.01z" fill="#989898"/><path d="M63.62 115.13H47.18c-3.38 0-9.85-.57-15.08-4.41-5.34-3.91-8.05-10.06-8.05-18.28V39.55c0-3.75 4.03-7.71 7.84-7.71 1.97 0 3.95.89 5.39 2.08.06-1.6.12-3.34.12-4.2 0-2.57 3.02-7.56 8.55-7.56 2.04 0 4.25.9 5.87 2.35v-2.28c0-3.01 2.51-7.25 8.1-7.25s8.37 4.34 8.37 7.48v3.1c1.36-1.08 3.5-2 6.85-2 5.86 0 7.84 5.51 7.84 8.03 0 1.75-.54 28.75-.73 38.49 2.4-2.73 6.44-6.54 10.41-6.74 2.02-.1 3.79.68 5.25 2.35 3.01 3.44 1.81 9.74-3.66 19.26-2.84 4.95-6.72 10.55-11.52 16.63-5.15 6.52-13.33 13.55-19.1 13.55h-.01zM31.89 34.16c-2.52 0-5.51 2.92-5.51 5.39v52.89c0 18.38 14.55 20.37 20.81 20.37h16.44c4.73 0 12.43-6.52 17.28-12.66C94 83.58 99.7 71.28 96.16 67.24c-.98-1.12-2.08-1.63-3.38-1.56-4.12.22-9.2 6.2-10.82 8.49a1.157 1.157 0 0 1-2.11-.69c0-.4.8-39.79.8-41.86 0-1.2-.94-5.7-5.51-5.7-5.99 0-6.84 3.45-6.87 3.6-.12.59-.65.98-1.25.93a1.17 1.17 0 0 1-1.05-1.16V22.5c0-1.8-1.77-5.16-6.05-5.16-4.28 0-5.78 3.02-5.78 4.92v7.02a1.16 1.16 0 0 1-2.32 0c0-2.57-3.23-4.77-5.87-4.77-4.35 0-6.22 3.97-6.22 5.23 0 1.88-.26 7.54-.27 7.78-.03.63-.55 1.13-1.19 1.11-.63-.01-1.14-.53-1.14-1.16 0-.78-2.42-3.28-5.24-3.28v-.03z" fill="#989898"/></svg>