<svg width="58" height="58" fill="none" xmlns="http://www.w3.org/2000/svg"><path d="m6.875 10.125 1.69 1.434c-.092.105-.184.21-.272.329l-1.715-1.411.297-.352zm.305-.347c.098-.114.209-.233.306-.347l1.647 1.493-.277.315L7.19 9.783l-.01-.005zm-.89 1.056 1.74 1.388c-.083.11-.18.224-.264.334l-1.754-1.36c.088-.12.19-.243.279-.362zm1.511-1.745.32-.328L9.718 10.3c-.101.1-.194.205-.295.305L7.8 9.09zm-2.067 2.468 1.783 1.33c-.083.11-.17.229-.254.338l-1.798-1.3.27-.368zm2.71-3.133c.107-.11.214-.219.33-.323l1.545 1.594-.305.3-1.57-1.571zm-3.243 3.881 1.818 1.265c-.083.11-.162.234-.236.349l-1.842-1.242c.084-.133.172-.253.265-.381l-.005.01zm3.91-4.522c.116-.104.222-.213.338-.318l1.497 1.64c-.11.094-.212.194-.314.295L9.111 7.783zM4.69 13.077l1.862 1.205-.232.363-1.876-1.177c.074-.138.162-.257.246-.39zm5.11-5.91c.116-.105.226-.2.351-.3l1.435 1.69c-.11.095-.217.18-.318.28L9.8 7.168zm-5.593 6.697 1.906 1.145c-.07.13-.144.244-.223.368L3.97 14.26c.074-.138.153-.263.237-.396zm6.295-7.295c.125-.1.236-.194.36-.294l1.382 1.744c-.105.086-.216.18-.331.262l-1.41-1.712zm-6.76 8.092 1.936 1.09-.204.378-1.956-1.053.219-.406.005-.01zm7.485-8.665c.12-.09.245-.19.365-.28L12.916 7.5c-.115.081-.225.176-.34.257l-1.354-1.752.005-.01zm-7.922 9.477 1.97 1.025-.198.369-1.99-.989c.074-.138.143-.267.209-.41l.009.005zm8.661-10.031c.12-.09.25-.176.378-.26l1.267 1.824-.345.242-1.29-1.801-.01-.005zm-9.08 10.852 2.005.96a5.6 5.6 0 0 0-.18.38l-2.016-.919c.075-.138.126-.277.2-.416l-.009-.005zm9.827-11.378.388-.255 1.209 1.864c-.115.081-.24.157-.354.238L12.722 4.92l-.009-.005zM2.495 17.13l2.031.89c-.055.126-.116.26-.162.39l-2.045-.864c.065-.143.116-.282.181-.425l-.005.009zM13.483 4.414c.13-.085.268-.165.392-.24l1.142 1.9c-.124.075-.243.142-.358.223l-1.176-1.883zM2.141 17.987l2.06.836a5.736 5.736 0 0 0-.152.394l-2.076-.785c.056-.148.107-.287.173-.43l-.005-.015zm12.135-14.05c.138-.08.271-.151.4-.237l1.085 1.941c-.119.067-.243.143-.371.204L14.27 3.923l.005.014zM1.81 18.844l2.09.757c-.045.13-.097.27-.143.4l-2.096-.725c.056-.149.098-.293.154-.44l-.005.008zM15.08 3.478c.134-.07.272-.15.415-.217l1.018 1.976c-.128.062-.247.129-.38.2l-1.052-1.959zM1.509 19.716l2.107.683c-.046.13-.088.274-.125.409l-2.122-.655c.042-.144.093-.283.14-.437zM15.905 3.053a8.51 8.51 0 0 1 .419-.203l.956 2.003-.385.185-.985-1.994-.005.01zM1.237 20.594l2.128.622-.11.405-2.139-.58c.042-.145.089-.298.121-.447zm15.5-17.937c.143-.066.281-.123.424-.189l.89 2.038c-.13.062-.262.109-.39.17l-.923-2.02zM.987 21.482l2.153.552c-.037.135-.065.275-.101.41l-2.16-.52c.033-.15.075-.293.108-.442zM17.579 2.288c.137-.056.28-.122.427-.174l.828 2.064c-.133.047-.261.11-.4.166l-.846-2.05-.01-.006zM.765 22.375l2.17.478c-.028.14-.065.275-.092.415l-2.176-.446.098-.447zM18.433 1.939c.147-.051.284-.108.431-.16l.757 2.085c-.132.048-.265.095-.403.152l-.785-2.077zM.58 23.274l2.18.413a4.44 4.44 0 0 0-.068.415l-2.187-.38c.024-.154.056-.303.08-.457l-.005.009zM19.3 1.633c.147-.052.294-.104.435-.146l.687 2.106c-.133.048-.275.09-.408.138l-.723-2.103.009.005zM.42 24.188l2.198.338c-.027.14-.041.276-.06.42l-2.203-.305c.024-.154.047-.308.066-.453zM20.176 1.355l.44-.132.616 2.128c-.138.033-.27.08-.412.123l-.653-2.124.01.005zM.295 25.107l2.199.269c-.018.144-.032.28-.05.425l-2.206-.236a7.27 7.27 0 0 1 .056-.458zM21.058 1.105c.152-.038.293-.08.445-.118l.544 2.15a8.021 8.021 0 0 0-.416.109L21.05 1.1l.01.005zM.192 26.028l2.216.193c-.014.136-.023.286-.037.421L.16 26.486l.033-.458zM21.957.874c.151-.037.297-.066.448-.103l.479 2.161c-.137.033-.283.062-.42.095L21.948.869l.009.005zM.127 26.944l2.217.124c-.004.14-.017.276-.022.416L.108 27.4c.01-.15.01-.305.023-.464l-.005.01zM22.848.676l.453-.09.407 2.183a7.463 7.463 0 0 0-.415.086L22.849.676zm.91-.164c.155-.024.301-.052.456-.076l.342 2.195c-.141.02-.288.048-.42.072l-.37-2.186-.008-.005zm.909-.142c.155-.023.305-.037.46-.06l.267 2.201-.424.058L24.668.37zm.917-.112c.15-.015.3-.029.46-.038l.2 2.214c-.136.01-.286.024-.427.043L25.589.272l-.004-.014zm.92-.076a7.8 7.8 0 0 1 .456-.028l.13 2.212a7.05 7.05 0 0 0-.432.029L26.497.177l.009.005zm.921-.051c.16-.01.305-.015.46-.015l.055 2.22c-.146.004-.277.005-.423.01L27.426.13zm.929-.024h.464l-.016 2.217c-.14-.004-.286 0-.426-.004L28.36.098l-.005.01zm.923.01c.155 0 .304.009.46.009L29.65 2.34l-.421-.013.053-2.22-.005.01zm.922.032c.15.01.3.018.459.033l-.156 2.212c-.14-.004-.285-.023-.426-.027L30.2.149zm.917.065c.15.01.304.033.453.042l-.235 2.205a6.444 6.444 0 0 0-.43-.04l.203-2.212.01.005zm.911.098c.154.024.304.033.458.056l-.306 2.203c-.145-.018-.28-.032-.42-.06l.268-2.199zm.91.122c.154.023.308.046.457.079l-.38 2.187c-.14-.028-.275-.041-.415-.069l.338-2.197zm.905.153c.15.033.303.057.452.09l-.445 2.175-.42-.083.413-2.182zm.9.187.446.098-.51 2.164c-.14-.028-.275-.065-.415-.092l.478-2.17zm.898.21c.148.033.293.075.446.121l-.58 2.139-.405-.11.553-2.154-.014.004zm.883.238.441.13-.655 2.123c-.135-.037-.264-.083-.408-.125l.622-2.128zm.877.27c.145.042.293.098.437.14l-.724 2.097c-.13-.047-.27-.098-.404-.135l.682-2.107.01.005zM3.465 42.068l1.958-1.051c.067.119.129.247.205.371l-1.941 1.085c-.08-.138-.151-.271-.222-.405zM38.274 1.795l.435.163-.785 2.076-.398-.143.757-2.091-.01-.005zM3.918 42.883l1.918-1.109c.067.12.143.244.219.368l-1.9 1.142c-.08-.138-.156-.262-.237-.4zM39.14 2.131c.139.05.282.116.421.167l-.854 2.05c-.134-.06-.264-.106-.398-.166l.827-2.066.004.015zM4.396 43.676l1.891-1.17c.076.123.148.233.224.358l-1.865 1.209a8.048 8.048 0 0 1-.25-.397zM39.987 2.48l.42.19-.918 2.016c-.13-.07-.259-.115-.393-.176l.891-2.03zM4.897 44.446l1.842-1.233c.081.115.162.23.238.354l-1.824 1.266c-.085-.129-.175-.249-.26-.378l.005-.01zM40.83 2.86c.138.075.272.135.415.2l-.997 1.986c-.12-.065-.25-.134-.38-.18l.962-2.006zM5.428 45.207l1.801-1.29c.08.114.162.23.248.335l-1.775 1.33c-.09-.12-.184-.255-.274-.375zM41.655 3.271l.406.218-1.053 1.956-.378-.204 1.025-1.97zM5.982 45.946l1.76-1.348c.082.115.177.225.263.331L6.26 46.31c-.09-.12-.19-.244-.28-.364zM42.467 3.708c.138.074.267.144.4.228l-1.117 1.92c-.129-.07-.249-.134-.373-.212l1.08-1.941.01.005zM6.555 46.67l1.711-1.41c.096.11.181.216.276.326l-1.688 1.435c-.105-.115-.195-.235-.299-.351zM43.264 4.173c.138.074.257.162.39.246l-1.176 1.877c-.13-.07-.24-.153-.36-.218l1.146-1.905zm-36.112 43.2 1.671-1.468c.095.111.186.207.281.318l-1.648 1.492a19.467 19.467 0 0 1-.304-.342zM44.046 4.665c.133.084.257.162.386.255L43.19 6.762c-.115-.073-.234-.161-.35-.235l1.206-1.862zM7.774 48.053l1.616-1.521c.1.101.2.203.296.313l-1.594 1.546a7.176 7.176 0 0 1-.318-.338zM44.818 5.176c.128.093.252.172.38.265l-1.3 1.798c-.11-.083-.235-.162-.345-.245l1.265-1.818zM8.42 48.71l1.57-1.57c.1.102.2.203.306.296l-1.548 1.593-.328-.319zm37.145-43c.12.087.248.18.362.278l-1.351 1.759-.34-.254 1.33-1.784zM9.086 49.353 10.6 47.73c.105.092.205.194.32.29L9.426 49.67c-.11-.107-.224-.204-.333-.31l-.01-.005zM46.298 6.27c.115.097.243.19.357.287l-1.41 1.715c-.106-.092-.225-.18-.33-.272l1.383-1.73zM9.764 49.969l1.457-1.666.324.282.056.03-1.444 1.709-.056-.03a7.088 7.088 0 0 0-.342-.315l.005-.01zM47.007 6.855l.028.015c.1.101.21.184.324.281l-1.456 1.667c-.096-.087-.197-.165-.302-.258l1.411-1.715-.005.01zM11.925 48.896c.105.092.215.175.334.263l-1.38 1.744c-.114-.097-.242-.19-.356-.287l1.411-1.715-.01-.005zM46.208 9.113 47.7 7.466c.11.107.233.209.342.315l-1.516 1.623c-.105-.092-.205-.194-.31-.286l-.01-.005zm-33.615 40.31.34.253-1.32 1.788a7.062 7.062 0 0 1-.371-.283l1.351-1.759zM46.828 9.684l1.539-1.599.328.32-1.562 1.574c-.1-.101-.2-.203-.305-.295zM13.276 49.921c.11.083.235.162.345.245l-1.265 1.818c-.128-.093-.252-.172-.38-.265l1.291-1.803.01.005zm34.157-39.636 1.594-1.546c.109.107.213.222.318.338l-1.617 1.521c-.1-.101-.2-.203-.295-.314zM13.98 50.406c.124.08.24.153.358.241l-1.204 1.862a6.886 6.886 0 0 1-.386-.255l1.232-1.847zm34.04-39.508L49.66 9.4l.312.347-1.67 1.468c-.096-.11-.187-.207-.282-.317zM14.687 50.859c.13.07.24.153.368.222l-1.145 1.906c-.138-.074-.257-.162-.396-.237l1.168-1.882.005-.009zm33.894-39.326 1.694-1.444c.104.116.194.236.299.352l-1.712 1.41a15.52 15.52 0 0 0-.276-.327l-.005.01zm-33.157 39.77.378.204-1.08 1.94c-.14-.074-.268-.143-.402-.227l1.118-1.92-.014.003zm33.704-39.106 1.734-1.387c.1.125.19.245.28.365l-1.752 1.353c-.086-.106-.176-.226-.262-.331zM16.161 51.724l.378.204-1.016 1.975-.406-.218 1.053-1.956-.01-.005zm33.477-38.86 1.774-1.33c.09.12.185.255.275.375l-1.802 1.29c-.08-.115-.161-.23-.256-.34l.009.005zm-32.72 39.244c.12.065.249.134.379.18l-.952 2.01c-.138-.074-.272-.135-.415-.2l.988-1.99zm33.22-38.559 1.814-1.271c.085.129.175.249.26.378l-1.841 1.233a6.532 6.532 0 0 1-.238-.354l.004.014zM17.684 52.473c.13.07.259.116.393.176l-.891 2.031-.42-.19.918-2.017zm32.928-38.216 1.864-1.209c.085.13.17.258.247.383l-1.883 1.175c-.076-.124-.157-.239-.223-.358l-.005.01zM18.467 52.811c.125.055.264.106.389.162l-.827 2.065c-.148-.056-.282-.116-.43-.172l.863-2.046.005-.009zM51.069 14.98l1.9-1.143c.08.139.156.263.236.401l-1.923 1.118c-.066-.119-.142-.243-.218-.367l.005-.01zM19.259 53.13l.398.144-.757 2.09-.435-.162.794-2.072zM51.5 15.723l1.94-1.085c.072.134.152.272.223.405l-1.959 1.052c-.066-.12-.137-.253-.204-.372zM20.056 53.417c.13.046.274.088.404.134l-.683 2.107c-.144-.041-.292-.098-.436-.14l.715-2.101zm31.854-36.95 1.967-1.023c.07.133.136.275.207.409l-1.984.99c-.062-.129-.124-.257-.19-.376zM20.869 53.676c.134.037.264.083.408.125l-.613 2.133c-.144-.042-.297-.089-.441-.13l.646-2.128zm31.416-36.448 2.002-.957c.066.143.132.286.203.42l-2.02.922a9.44 9.44 0 0 1-.176-.38l-.009-.005zM21.682 53.911c.135.037.27.074.41.102l-.54 2.15a5.66 5.66 0 0 1-.446-.122l.58-2.139-.004.01zm30.96-35.908 2.037-.89c.066.143.123.28.184.432l-2.047.861a7.37 7.37 0 0 0-.17-.389l-.005-.014zM22.5 54.114c.134.037.274.065.414.093l-.478 2.17-.447-.099.51-2.163zm30.468-35.328 2.06-.819c.056.138.108.285.169.437l-2.077.785a7.441 7.441 0 0 0-.157-.394l.005-.009zM23.33 54.3l.42.083-.413 2.181c-.15-.033-.303-.056-.452-.089l.445-2.175zm29.944-34.707 2.085-.757.155.44-2.098.715-.142-.398zM24.168 54.465c.14.028.275.041.415.069l-.333 2.188a7.24 7.24 0 0 1-.457-.08l.37-2.191.005.014zm29.385-34.068 2.107-.686c.051.147.094.29.14.445l-2.123.653c-.048-.133-.081-.27-.129-.402l.005-.01zM25.008 54.584c.145.018.275.041.42.06l-.259 2.204c-.154-.023-.303-.032-.457-.056l.305-2.203-.009-.005zm28.797-33.373 2.128-.615c.042.142.08.293.127.45l-2.137.586c-.033-.137-.076-.279-.114-.407l-.004-.014zM25.853 54.694c.136.014.28.032.42.036l-.193 2.216c-.159-.014-.308-.023-.462-.047l.235-2.205zm28.175-32.66 2.155-.554.112.454-2.157.515-.1-.41-.01-.005zM26.695 54.766c.14.005.285.023.425.027l-.123 2.218c-.15-.009-.309-.023-.458-.032l.156-2.213zm27.529-31.901 2.16-.479c.038.151.067.298.095.444l-2.17.45a7.47 7.47 0 0 1-.085-.416zM27.546 54.82l.422.013-.054 2.22c-.154 0-.304-.009-.468-.014l.086-2.214.014-.005zM54.4 23.71l2.182-.407c.029.146.052.301.08.447l-2.19.38c-.02-.142-.053-.279-.072-.42zM28.398 54.85c.14.004.286 0 .427.003l.017 2.223h-.464l.015-2.217.005-.01zm26.145-30.303 2.194-.342c.024.156.043.297.066.452l-2.198.304-.057-.424-.005.01zM29.252 54.834c.145-.005.29-.01.427-.02l.092 2.215c-.154 0-.305.014-.46.014l-.054-2.219-.005.01zm25.41-29.45 2.203-.266c.023.156.037.306.051.457l-2.205.228c-.02-.141-.029-.277-.048-.418zM30.098 54.79c.145-.005.282-.015.418-.025l.162 2.217c-.15.014-.31.024-.455.029l-.13-2.212.005-.01zm24.648-28.563 2.214-.2c.014.15.023.31.037.46l-2.217.163-.034-.423zM30.938 54.731a7.04 7.04 0 0 0 .428-.043l.237 2.21-.451.042-.2-2.213-.014.004zm23.87-27.649 2.221-.125c.014.15.014.305.028.456l-2.215.092c-.005-.146-.014-.282-.02-.427l-.014.004zM31.793 54.644l.424-.057.304 2.198c-.156.023-.306.038-.462.061l-.266-2.202zm23.06-26.717 2.219-.055c0 .155.005.3.005.455l-2.223.017c-.005-.145 0-.286-.01-.422l.009.005zM32.641 54.53c.14-.019.273-.043.419-.071l.379 2.19c-.156.024-.302.052-.457.076l-.341-2.195zm22.228-25.748 2.217.015c0 .155 0 .31-.01.46l-2.22-.054c.005-.14.01-.28.004-.426l.01.005zm-21.376 25.6c.142-.018.279-.052.415-.085l.45 2.17c-.146.028-.306.06-.452.09l-.408-2.183-.005.009zm21.36-24.753 2.215.086c-.01.15-.01.305-.024.464l-2.218-.124c.004-.14.009-.28.018-.43l.009.005zM34.323 54.21l.411-.1.516 2.158a9.007 9.007 0 0 1-.448.103l-.473-2.17-.005.009zM54.8 30.48l2.212.156c-.009.15-.023.309-.032.458l-2.207-.188c.019-.145.023-.285.036-.421l-.009-.005zM35.14 54.02c.137-.034.274-.068.416-.11l.587 2.136c-.151.038-.293.08-.444.118l-.554-2.154-.005.01zm19.582-22.69 2.205.236a7.285 7.285 0 0 1-.056.458l-2.2-.268c.019-.145.032-.28.05-.425zm-18.76 22.466c.138-.034.27-.081.412-.124l.653 2.125c-.147.051-.298.089-.44.132l-.615-2.128-.01-.005zm18.65-21.62 2.194.3a19.09 19.09 0 0 0-.066.453l-2.197-.338c.028-.14.041-.275.06-.42l.009.005zm-17.84 21.377c.132-.047.274-.09.407-.138l.724 2.103c-.147.052-.29.095-.436.147l-.695-2.112zm17.716-20.528 2.191.371c-.023.154-.056.303-.079.457l-2.181-.413c.028-.14.055-.28.069-.415zM37.586 53.278c.133-.048.265-.095.403-.152l.79 2.067c-.146.052-.284.109-.43.16l-.758-2.084-.005.009zm16.75-19.419 2.175.446-.098.447-2.17-.478c.028-.14.065-.275.093-.415zM38.378 52.98c.133-.048.261-.11.394-.158l.861 2.047c-.138.056-.29.117-.427.174l-.828-2.064zm15.773-18.29 2.16.52c-.033.148-.075.292-.108.441l-2.149-.538c.037-.135.065-.275.102-.41l-.005-.014zM39.161 52.65c.129-.061.261-.109.39-.17l.928 2.01c-.143.066-.28.123-.423.189l-.895-2.029zm14.782-17.134 2.139.58c-.042.145-.084.289-.121.447l-2.133-.613.115-.414zM39.946 52.3l.386-.185.99 1.985c-.143.066-.277.137-.42.203l-.956-2.003zm13.763-15.97 2.122.655a6.827 6.827 0 0 1-.14.437l-2.107-.683c.046-.13.088-.274.125-.409zM40.707 51.924c.128-.062.247-.129.38-.2l1.057 1.95c-.133.07-.272.15-.414.217l-1.023-1.967zm12.742-14.782 2.102.715c-.052.14-.098.292-.154.44l-2.091-.756.143-.4zM41.459 51.52c.12-.067.244-.143.377-.214l1.118 1.923c-.138.08-.271.151-.4.237l-1.085-1.94-.01-.006zm11.703-13.58 2.076.784c-.056.148-.107.288-.172.43l-2.065-.826c.055-.125.106-.264.152-.394l.01.005zM42.194 51.082c.125-.076.249-.152.359-.224l1.175 1.883c-.129.085-.267.165-.391.241l-1.157-1.896.014-.004zm10.654-12.361 2.05.854a6.912 6.912 0 0 1-.181.426l-2.03-.891c.055-.125.115-.26.161-.389zm-9.932 11.905c.115-.081.24-.157.354-.238l1.243 1.847-.388.255-1.209-1.864zm9.585-11.128 2.016.919c-.075.138-.126.277-.2.416l-2.01-.952c.07-.129.124-.254.185-.388l.009.005zm-8.886 10.647c.115-.08.23-.161.35-.252l1.305 1.798c-.12.09-.25.175-.37.265l-1.27-1.815-.015.004zm8.52-9.88 1.99.988c-.074.139-.143.268-.208.411l-1.97-1.025c.069-.13.133-.25.203-.378l-.014.004zm-7.825 9.386c.114-.081.22-.167.34-.257l1.363 1.757c-.125.1-.245.19-.365.28l-1.33-1.775-.008-.005zm7.433-8.634 1.955 1.053-.218.406-1.941-1.08.204-.379zm-6.762 8.115c.106-.086.217-.18.332-.262l1.41 1.712c-.124.1-.235.194-.36.294l-1.386-1.735.005-.009zm6.345-7.364 1.92 1.118c-.074.138-.152.263-.236.396l-1.906-1.145c.065-.12.143-.244.217-.36l.005-.008zm-5.686 6.826c.11-.095.216-.18.318-.28l1.473 1.661c-.116.104-.231.209-.351.299l-1.435-1.689-.005.01zm5.256-6.093 1.882 1.168c-.075.138-.163.257-.246.39l-1.862-1.204c.074-.115.152-.24.226-.354zm-4.62 5.531c.11-.095.212-.195.313-.295l1.522 1.617c-.116.104-.222.213-.338.317l-1.497-1.639zm4.153-4.819 1.847 1.233c-.084.133-.172.252-.265.38l-1.817-1.264c.083-.11.161-.234.235-.349zm-3.531 4.238.304-.3 1.57 1.571c-.107.11-.213.218-.329.323l-1.545-1.594zm3.05-3.545 1.804 1.292-.274.376-1.783-1.329c.083-.11.17-.229.254-.339zm-2.45 2.94c.101-.1.193-.205.295-.305l1.622 1.516c-.106.11-.212.219-.31.333l-1.598-1.539-.01-.005zm1.938-2.252 1.759 1.352c-.088.119-.19.242-.278.361l-1.744-1.379c.083-.11.18-.224.263-.334zm-1.367 1.632c.093-.105.185-.21.282-.324l1.667 1.456c-.097.114-.204.224-.306.347l-1.652-1.484.01.005zm.831-.969 1.715 1.412-.296.352-1.691-1.434c.092-.105.19-.22.272-.33z" fill="#fff"/></svg>