<svg width="280" height="42" fill="none" xmlns="http://www.w3.org/2000/svg"><path d="M11.719 40.547H0l13.203-40h14.844l13.203 40H29.531l-8.75-28.984h-.312l-8.75 28.984zM9.53 24.766h22.032v8.125H9.53v-8.125zM79.712.547v40h-9.063L56.196 19.53h-.234v21.016h-10.86v-40h9.22L68.54 21.484h.313V.547h10.859zM95.24 40.547H83.52l13.204-40h14.843l13.204 40h-11.719l-8.75-28.984h-.313l-8.75 28.984zm-2.188-15.781h22.031v8.125H93.052v-8.125zM128.623 40.547v-40h10.859v31.25h16.172v8.75h-27.031zM151.152.547h12.11l7.812 16.25h.313l7.812-16.25h12.11l-14.688 27.422v12.578H165.84V27.969L151.152.547zM216.411 13.047c-.104-1.302-.592-2.318-1.465-3.047-.859-.73-2.168-1.094-3.925-1.094-1.12 0-2.038.137-2.754.41-.704.26-1.224.619-1.563 1.075a2.658 2.658 0 0 0-.527 1.562 2.56 2.56 0 0 0 .254 1.309c.208.377.534.722.976 1.035.443.3 1.009.573 1.699.82.691.248 1.511.469 2.461.664l3.282.703c2.213.47 4.108 1.088 5.683 1.856 1.576.768 2.865 1.673 3.867 2.715 1.003 1.028 1.739 2.187 2.207 3.476.482 1.29.73 2.696.743 4.219-.013 2.63-.671 4.857-1.973 6.68-1.302 1.823-3.164 3.21-5.586 4.16-2.409.95-5.306 1.426-8.691 1.426-3.477 0-6.511-.515-9.102-1.543-2.578-1.029-4.583-2.611-6.016-4.746-1.419-2.149-2.135-4.896-2.148-8.243h10.313c.065 1.224.371 2.253.917 3.086.547.834 1.316 1.465 2.305 1.895 1.003.43 2.194.644 3.574.644 1.159 0 2.129-.143 2.911-.43.781-.286 1.373-.683 1.777-1.19a2.81 2.81 0 0 0 .625-1.739 2.468 2.468 0 0 0-.606-1.602c-.377-.468-1.002-.885-1.875-1.25-.872-.377-2.05-.729-3.535-1.054l-3.984-.86c-3.542-.768-6.335-2.05-8.379-3.847-2.031-1.81-3.04-4.278-3.027-7.403-.013-2.539.664-4.759 2.031-6.66 1.38-1.914 3.288-3.405 5.723-4.472C205.05.534 207.856 0 211.021 0c3.229 0 6.022.54 8.378 1.621 2.357 1.08 4.174 2.604 5.45 4.57 1.289 1.954 1.94 4.239 1.953 6.856h-10.391zM242.339.547v40h-10.86v-40h10.86zM269.048 13.047c-.104-1.302-.593-2.318-1.465-3.047-.859-.73-2.168-1.094-3.926-1.094-1.12 0-2.038.137-2.754.41-.703.26-1.224.619-1.562 1.075a2.653 2.653 0 0 0-.528 1.562 2.57 2.57 0 0 0 .254 1.309c.209.377.534.722.977 1.035.443.3 1.009.573 1.699.82.69.248 1.511.469 2.461.664l3.281.703c2.214.47 4.108 1.088 5.684 1.856 1.575.768 2.865 1.673 3.867 2.715a9.683 9.683 0 0 1 2.207 3.476c.482 1.29.729 2.696.742 4.219-.013 2.63-.67 4.857-1.972 6.68-1.302 1.823-3.164 3.21-5.586 4.16-2.409.95-5.306 1.426-8.692 1.426-3.476 0-6.51-.515-9.101-1.543-2.578-1.029-4.584-2.611-6.016-4.746-1.419-2.149-2.135-4.896-2.148-8.243h10.312c.065 1.224.371 2.253.918 3.086.547.834 1.315 1.465 2.305 1.895 1.002.43 2.194.644 3.574.644 1.159 0 2.129-.143 2.91-.43.782-.286 1.374-.683 1.778-1.19a2.816 2.816 0 0 0 .625-1.739 2.468 2.468 0 0 0-.606-1.602c-.377-.468-1.002-.885-1.875-1.25-.872-.377-2.051-.729-3.535-1.054l-3.984-.86c-3.542-.768-6.335-2.05-8.379-3.847-2.032-1.81-3.041-4.278-3.028-7.403-.013-2.539.664-4.759 2.032-6.66 1.38-1.914 3.287-3.405 5.722-4.472C257.687.534 260.493 0 263.657 0c3.229 0 6.022.54 8.379 1.621 2.357 1.08 4.173 2.604 5.449 4.57 1.289 1.954 1.94 4.239 1.953 6.856h-10.39z" fill="#fff"/></svg>