<svg width="15" height="158" viewBox="0 0 15 158" fill="none" xmlns="http://www.w3.org/2000/svg">
<g opacity="0.3">
<path d="M14.0792 94.6436L14.0792 1.84627e-06L0 0L-1.06213e-05 80.9958L14.0792 94.6436Z" fill="#989898"/>
<path d="M14.0792 107.941L14.0792 99.2007L0 85.2574L-1.18221e-06 94.2727L14.0792 107.941Z" fill="#989898"/>
<path d="M14.0792 120.455L14.0792 111.716L0 97.7723L-1.18221e-06 106.788L14.0792 120.455Z" fill="#989898"/>
<path d="M14.0792 132.97L14.0792 124.23L0 110.287L-1.18221e-06 119.302L14.0792 132.97Z" fill="#989898"/>
<path d="M14.0792 145.485L14.0792 136.745L0 122.802L-1.18221e-06 131.817L14.0792 145.485Z" fill="#989898"/>
<path d="M14.0792 158L14.0792 149.26L0 135.317L-1.18221e-06 144.332L14.0792 158Z" fill="#989898"/>
</g>
</svg>
