<svg width="196" height="260" viewBox="0 0 196 260" fill="none" xmlns="http://www.w3.org/2000/svg">
<path d="M147.49 151.46C147.49 151.46 173.07 115.1 188.97 133.28C204.87 151.46 160.04 209.09 149.57 222.36C137.13 238.12 116.31 256.29 102.47 256.29C94.17 256.29 68.9 256.29 59.91 256.29C36.35 256.29 3.01001 245.99 3.01001 200.54C3.01001 155.09 3.01001 71.47 3.01001 63.59C3.01001 55.71 12 46.62 20.29 46.62C28.59 46.62 36.88 53.89 36.88 58.13C36.88 58.13 37.57 42.98 37.57 38.13C37.57 33.28 43.79 21.57 56.7 21.57C65 21.57 74.9 28.44 74.9 36.92C74.9 32.07 74.9 25.41 74.9 18.74C74.9 12.07 80.43 2.98001 92.87 2.98001C105.31 2.98001 111.54 12.68 111.54 19.34C111.54 26.01 111.54 36.91 111.54 36.91C111.54 36.91 113.84 25.19 132.28 25.19C145.41 25.19 149.56 37.51 149.56 42.97C149.56 48.43 147.49 151.44 147.49 151.44V151.46Z" fill="white"/>
<path d="M36.8801 106.8C35.2201 106.8 33.8701 105.45 33.8701 103.79V56.53C33.8701 54.87 35.2201 53.52 36.8801 53.52C38.5401 53.52 39.8901 54.87 39.8901 56.53V103.79C39.8901 105.45 38.5401 106.8 36.8801 106.8Z" fill="#231814"/>
<path d="M74.6702 98.72C73.0102 98.72 71.6602 97.37 71.6602 95.71V34.51C71.6602 32.85 73.0102 31.5 74.6702 31.5C76.3302 31.5 77.6802 32.85 77.6802 34.51V95.71C77.6802 97.37 76.3302 98.72 74.6702 98.72Z" fill="#231814"/>
<path d="M111.77 98.72C110.11 98.72 108.76 97.38 108.76 95.71L108.64 35.27C108.64 33.61 109.98 32.26 111.64 32.25C113.3 32.25 114.65 33.59 114.65 35.26L114.77 95.7C114.77 97.36 113.43 98.71 111.77 98.72Z" fill="#231814"/>
<path d="M109.73 226.65C108.76 226.65 107.82 226.11 107.36 225.17C105.63 221.64 90.8498 190.48 104.92 182.79C105.35 182.55 105.89 182.27 106.51 181.94C114.43 177.72 135.47 166.51 147.13 148.63C147.92 147.41 149.56 147.07 150.78 147.86C152 148.65 152.34 150.29 151.55 151.51C139.15 170.53 117.24 182.2 108.99 186.59C108.38 186.91 107.87 187.19 107.45 187.42C99.2398 191.91 108.28 215.09 112.09 222.86C112.73 224.17 112.19 225.75 110.89 226.39C110.52 226.57 110.12 226.66 109.73 226.66V226.65Z" fill="#231814"/>
<path d="M26.1902 115.03C25.3602 115.03 24.5302 114.63 24.0202 113.9C23.1902 112.7 23.4902 111.06 24.6802 110.23C43.1102 97.44 67.0902 95.93 86.3602 94.72C87.8102 94.64 89.0602 95.73 89.1602 97.18C89.2502 98.63 88.1502 99.88 86.7002 99.98C68.0802 101.15 44.9202 102.61 27.7002 114.56C27.2402 114.88 26.7202 115.03 26.2002 115.03H26.1902Z" fill="#231814"/>
<path d="M102.47 259.31H59.91C51.14 259.31 34.41 257.83 20.85 247.9C7.02 237.77 0 221.84 0 200.55V63.6C0 53.89 10.43 43.62 20.29 43.62C25.38 43.62 30.51 45.94 34.25 49.02C34.41 44.87 34.56 40.37 34.56 38.15C34.56 31.51 42.37 18.58 56.7 18.58C61.98 18.58 67.72 20.9 71.89 24.66V18.77C71.89 10.98 78.4 0 92.87 0C107.34 0 114.55 11.25 114.55 19.37V27.41C118.08 24.6 123.62 22.22 132.28 22.22C147.46 22.22 152.57 36.49 152.57 43.01C152.57 47.54 151.18 117.47 150.67 142.69C156.88 135.63 167.34 125.77 177.63 125.22C182.87 124.95 187.45 126.99 191.23 131.31C199.01 140.21 195.92 156.52 181.76 181.17C174.39 194 164.35 208.49 151.92 224.23C138.58 241.13 117.41 259.31 102.46 259.31H102.47ZM20.3 49.64C13.76 49.64 6.03001 57.21 6.03001 63.6V200.55C6.03001 248.15 43.71 253.29 59.92 253.29H102.48C114.72 253.29 134.66 236.4 147.22 220.5C181.11 177.6 195.87 145.73 186.72 135.27C184.19 132.37 181.33 131.05 177.98 131.22C167.31 131.78 154.14 147.27 149.97 153.2C149.21 154.28 147.83 154.74 146.57 154.33C145.31 153.92 144.47 152.73 144.5 151.41C144.52 150.38 146.57 48.36 146.57 43C146.57 39.88 144.15 28.24 132.3 28.24C116.78 28.24 114.59 37.18 114.51 37.56C114.21 39.08 112.82 40.11 111.27 39.96C109.73 39.81 108.56 38.49 108.56 36.94V19.37C108.56 14.71 103.97 6.02 92.91 6.02C81.85 6.02 77.95 13.84 77.95 18.76V36.94C77.95 38.6 76.6 39.95 74.94 39.95C73.28 39.95 71.93 38.6 71.93 36.94C71.93 30.29 63.58 24.6 56.74 24.6C45.47 24.6 40.62 34.89 40.62 38.15C40.62 43.01 39.95 57.66 39.93 58.28C39.86 59.91 38.51 61.2 36.85 61.15C35.21 61.11 33.91 59.78 33.91 58.14C33.91 56.12 27.65 49.64 20.33 49.64H20.3Z" fill="#231814"/>
</svg>
