<?xml version="1.0" encoding="utf-8"?>
<!-- Generator: Adobe Illustrator 25.0.0, SVG Export Plug-In . SVG Version: 6.00 Build 0)  -->
<svg version="1.1" xmlns="http://www.w3.org/2000/svg" xmlns:xlink="http://www.w3.org/1999/xlink" x="0px" y="0px"
	 viewBox="0 0 149 144" style="enable-background:new 0 0 149 144;" xml:space="preserve">
<style type="text/css">
	.st0{fill:none;stroke:#000000;stroke-width:6;stroke-linecap:round;}
	.st1{fill:none;stroke:#000000;stroke-width:6;stroke-linecap:round;stroke-dasharray:12,12;}
</style>
<g id="圖層_1">
	<path class="st0" d="M57.2,38.3c3.9-4.2,55.3-14.7,88.6,0"/>
</g>
<g id="圖層_2">
	<path class="st1" d="M4.7,47.7c0,0,2.5-4.5,7.6-9"/>
	<path class="st1" d="M21.8,30.8c0,0,3.8-3.5,10-7"/>
	<path class="st1" d="M41.7,18.1c0,0,5.5-3.6,12-6"/>
	<path class="st1" d="M63.6,8.2c0,0,4.8-1.8,12.3-3.4"/>
	<path class="st1" d="M103.4,11.3c0,0,6-0.4,11.9,0.7"/>
	<path class="st1" d="M126.2,14.4c0,0,9.1,2.4,12.8,4.7"/>
	<path class="st1" d="M91.7,138.7c0,0-8.1-4.9-10.8-7.9"/>
	<path class="st1" d="M73.8,124.1c0,0-6.5-7.1-9.2-11.4"/>
	<path class="st1" d="M59.7,104.8c0,0-3.5-6.2-5.2-11.6"/>
	<path class="st1" d="M51.8,81.5c0,0-1.1-8,0-13.4"/>
</g>
</svg>
