<svg xmlns="http://www.w3.org/2000/svg" viewBox="0 0 149 144" style="enable-background:new 0 0 149 144" xml:space="preserve"><style>.st1{fill:none;stroke:#000;stroke-width:6;stroke-linecap:round;stroke-dasharray:12,12}</style><path d="M57.2 38.3c3.9-4.2 55.3-14.7 88.6 0" style="fill:none;stroke:#000;stroke-width:6;stroke-linecap:round" id="圖層_1"/><g id="圖層_2"><path class="st1" d="M4.7 47.7s2.5-4.5 7.6-9M21.8 30.8s3.8-3.5 10-7M41.7 18.1s5.5-3.6 12-6M63.6 8.2s4.8-1.8 12.3-3.4M103.4 11.3s6-.4 11.9.7M126.2 14.4s9.1 2.4 12.8 4.7M91.7 138.7s-8.1-4.9-10.8-7.9M73.8 124.1s-6.5-7.1-9.2-11.4M59.7 104.8s-3.5-6.2-5.2-11.6M51.8 81.5s-1.1-8 0-13.4"/></g></svg>