<svg width="55" height="55" viewBox="0 0 55 55" fill="none" xmlns="http://www.w3.org/2000/svg">
<path d="M0.589996 21.5L2.66 21.94C2.63 22.07 2.59999 22.2 2.57999 22.34L0.5 21.93C0.53 21.79 0.559996 21.64 0.589996 21.5V21.5ZM0.690002 21.07C0.720002 20.93 0.760009 20.78 0.790009 20.64L2.85001 21.15C2.82001 21.28 2.79001 21.41 2.76001 21.54L0.699982 21.07H0.690002ZM0.419983 22.36L2.51001 22.74C2.49001 22.87 2.46 23.01 2.44 23.14L0.350006 22.79C0.370006 22.65 0.399983 22.5 0.419983 22.36V22.36ZM0.899994 20.21C0.939994 20.07 0.979989 19.93 1.01999 19.79L3.06 20.36C3.02 20.49 2.98998 20.62 2.94998 20.75L0.899994 20.21V20.21ZM0.279999 23.22L2.38 23.53C2.36 23.66 2.34001 23.8 2.32001 23.93L0.220001 23.65C0.240001 23.51 0.259999 23.36 0.279999 23.22ZM1.13998 19.36C1.17998 19.22 1.21999 19.08 1.26999 18.94L3.29001 19.58C3.25001 19.71 3.20998 19.84 3.16998 19.97L1.13998 19.36V19.36ZM0.169983 24.09L2.26999 24.33C2.24999 24.46 2.23998 24.6 2.22998 24.73L0.119995 24.52C0.129995 24.37 0.149983 24.23 0.169983 24.08V24.09ZM1.41 18.52C1.46 18.38 1.49999 18.24 1.54999 18.1L3.54999 18.8C3.49999 18.93 3.45998 19.06 3.41998 19.19L1.41 18.52V18.52ZM0.0899963 24.97L2.19998 25.14C2.18998 25.28 2.17998 25.41 2.16998 25.55L0.0599976 25.41C0.0599976 25.26 0.0799963 25.12 0.0899963 24.97V24.97ZM1.70999 17.69C1.75999 17.55 1.81 17.42 1.87 17.28L3.84 18.05C3.79 18.18 3.73998 18.3 3.69998 18.43L1.70999 17.69V17.69ZM0.0400085 25.85L2.16 25.95C2.16 26.09 2.14998 26.22 2.13998 26.36L0.019989 26.29C0.019989 26.14 0.0300085 26 0.0400085 25.85V25.85ZM2.03 16.87C2.09 16.73 2.13998 16.6 2.19998 16.46L4.14999 17.3C4.09999 17.42 4.04999 17.55 3.98999 17.67L2.03 16.87V16.87ZM0.0100098 26.73L2.13 26.77C2.13 26.91 2.13 27.04 2.13 27.18H0.0100098C0.0100098 27.03 0.0100098 26.89 0.0100098 26.74V26.73ZM2.38 16.06C2.44 15.93 2.5 15.79 2.56 15.66L4.47998 16.56C4.41998 16.68 4.37 16.81 4.31 16.93L2.38 16.07V16.06ZM0.0100098 27.61L2.13 27.58C2.13 27.71 2.13 27.85 2.13 27.98L0.0100098 28.05C0.0100098 27.9 0.01 27.76 0 27.61H0.0100098ZM2.75 15.26C2.81 15.13 2.87998 15 2.94998 14.87L4.84 15.83C4.78 15.95 4.72 16.07 4.66 16.19L2.76001 15.26H2.75ZM0.0299988 28.49L2.14999 28.39C2.14999 28.52 2.15998 28.66 2.16998 28.79L0.0599976 28.93C0.0599976 28.78 0.0400085 28.64 0.0400085 28.49H0.0299988ZM3.13998 14.48C3.20998 14.35 3.28001 14.22 3.35001 14.09L5.20999 15.11C5.14999 15.23 5.07999 15.35 5.01999 15.47L3.14999 14.48H3.13998ZM0.0799866 29.37L2.19 29.2C2.2 29.33 2.20998 29.47 2.22998 29.6L0.119995 29.8C0.109995 29.65 0.0899866 29.51 0.0799866 29.36V29.37ZM3.56 13.71C3.63 13.58 3.71 13.45 3.78 13.33L5.60001 14.41C5.53001 14.53 5.45999 14.64 5.39999 14.76L3.56 13.71V13.71ZM0.169983 30.25L2.28 30.02C2.29 30.15 2.30999 30.29 2.32999 30.42L0.22998 30.7C0.20998 30.55 0.189993 30.41 0.179993 30.26L0.169983 30.25ZM4.01001 12.95C4.09001 12.82 4.16999 12.7 4.23999 12.57L6.03 13.71C5.96 13.82 5.89 13.94 5.81 14.05L4 12.94L4.01001 12.95ZM0.279999 31.12L2.38 30.81C2.4 30.94 2.42 31.08 2.44 31.21L0.350006 31.55C0.330006 31.4 0.299999 31.26 0.279999 31.11V31.12ZM4.47998 12.2C4.55998 12.08 4.63998 11.95 4.72998 11.83L6.47998 13.03C6.39998 13.14 6.33 13.25 6.25 13.37L4.47998 12.2V12.2ZM0.419983 31.99L2.5 31.61C2.52 31.74 2.54999 31.88 2.57999 32.01L0.5 32.42C0.47 32.28 0.449983 32.14 0.419983 31.99ZM4.97998 11.47C5.05998 11.35 5.14999 11.23 5.23999 11.11L6.94998 12.36C6.86998 12.47 6.78999 12.58 6.70999 12.69L4.97998 11.46V11.47ZM0.589996 32.85L2.66 32.41C2.69 32.54 2.72 32.67 2.75 32.8L0.690002 33.28C0.660002 33.14 0.629996 32.99 0.589996 32.85V32.85ZM5.5 10.76C5.59 10.64 5.67999 10.53 5.76999 10.41L7.44 11.72C7.36 11.83 7.27 11.93 7.19 12.04L5.5 10.76ZM0.779999 33.71L2.84 33.2C2.87 33.33 2.91 33.46 2.94 33.59L0.889984 34.13C0.849984 33.99 0.819999 33.85 0.779999 33.71ZM6.04001 10.07C6.13001 9.95998 6.22001 9.83998 6.32001 9.72998L7.94998 11.09C7.85998 11.19 7.78 11.3 7.69 11.41L6.04999 10.07H6.04001ZM1 34.56L3.04001 33.98C3.08001 34.11 3.10999 34.24 3.14999 34.37L1.12 34.98C1.08 34.84 1.04 34.7 1 34.56V34.56ZM6.60001 9.38998C6.70001 9.27998 6.78998 9.17 6.88998 9.06L8.47 10.47C8.38 10.57 8.28998 10.67 8.19998 10.78L6.60001 9.38998V9.38998ZM1.25 35.4L3.26999 34.76C3.30999 34.89 3.34999 35.02 3.39999 35.14L1.38998 35.81C1.33998 35.67 1.3 35.53 1.25 35.39V35.4ZM7.19 8.73999C7.29 8.62999 7.38999 8.51998 7.48999 8.41998L9.01999 9.87997C8.92999 9.97997 8.82999 10.08 8.73999 10.18L7.17999 8.73999H7.19ZM1.53 36.24L3.53 35.53C3.57 35.66 3.61998 35.78 3.66998 35.91L1.67999 36.65C1.62999 36.51 1.58 36.37 1.53 36.24ZM7.79999 8.10999C7.89999 8.00999 8.00999 7.89999 8.10999 7.79999L9.59 9.31C9.49 9.4 9.39999 9.49998 9.29999 9.59998L7.79001 8.10999H7.79999ZM1.84 37.07L3.81 36.3C3.86 36.43 3.90999 36.55 3.95999 36.68L2 37.48C1.94 37.34 1.89 37.21 1.84 37.07ZM8.42999 7.5C8.53999 7.4 8.64 7.29998 8.75 7.19998L10.18 8.75998C10.08 8.84998 9.98 8.93998 9.88 9.03998L8.41998 7.5H8.42999ZM2.16998 37.89L4.12 37.05C4.17 37.17 4.23 37.3 4.28 37.42L2.35001 38.29C2.29001 38.16 2.22998 38.02 2.16998 37.89V37.89ZM9.07999 6.89999C9.18999 6.79999 9.3 6.70999 9.41 6.60999L10.79 8.20999C10.69 8.29999 10.58 8.38998 10.48 8.47998L9.07001 6.89999H9.07999ZM2.53 38.69L4.44998 37.79C4.50998 37.91 4.56 38.03 4.62 38.15L2.72 39.08C2.66 38.95 2.59 38.82 2.53 38.68V38.69ZM9.73999 6.32999C9.84999 6.23999 9.96999 6.13999 10.08 6.04999L11.41 7.69998C11.31 7.77998 11.2 7.86999 11.1 7.95999L9.73999 6.32999V6.32999ZM10.43 5.78C10.55 5.69 10.66 5.59998 10.78 5.50998L12.06 7.19998C11.95 7.27998 11.84 7.36998 11.74 7.44998L10.44 5.78H10.43ZM11.13 5.25C11.25 5.16 11.37 5.07999 11.49 4.98999L12.71 6.72C12.6 6.8 12.49 6.87999 12.38 6.95999L11.13 5.25V5.25ZM11.85 4.73999C11.97 4.65999 12.09 4.58 12.22 4.5L13.39 6.26999C13.28 6.33999 13.16 6.42 13.05 6.5L11.86 4.75L11.85 4.73999ZM12.59 4.25998C12.71 4.17998 12.84 4.1 12.96 4.03L14.07 5.82999C13.95 5.89999 13.84 5.96999 13.72 6.04999L12.58 4.25998H12.59ZM13.34 3.79999C13.47 3.71999 13.59 3.64999 13.72 3.57999L14.77 5.41998C14.65 5.48998 14.54 5.55 14.42 5.62L13.34 3.79999V3.79999ZM14.11 3.35999C14.24 3.28999 14.37 3.21999 14.5 3.14999L15.49 5.01999C15.37 5.07999 15.25 5.14999 15.13 5.20999L14.11 3.34998V3.35999ZM14.89 2.94998C15.02 2.87998 15.15 2.82 15.28 2.75L16.21 4.64999C16.09 4.70999 15.97 4.76999 15.85 4.82999L14.89 2.93997V2.94998ZM15.68 2.56C15.81 2.5 15.94 2.43997 16.08 2.37997L16.95 4.31C16.83 4.37 16.7 4.41998 16.58 4.47998L15.68 2.56ZM16.48 2.19998C16.61 2.13998 16.75 2.09 16.88 2.03L17.68 3.98999C17.55 4.03999 17.43 4.08999 17.3 4.14999L16.47 2.19998H16.48ZM17.29 1.87C17.43 1.82 17.56 1.75999 17.7 1.70999L18.44 3.69998C18.31 3.74998 18.19 3.8 18.06 3.84L17.29 1.87V1.87ZM18.11 1.56C18.25 1.51 18.39 1.45998 18.53 1.41998L19.2 3.42999C19.07 3.46999 18.95 3.52 18.82 3.56L18.11 1.56V1.56ZM18.94 1.28C19.08 1.24 19.22 1.18999 19.36 1.14999L19.97 3.17999C19.84 3.21999 19.71 3.25999 19.58 3.29999L18.94 1.28V1.28ZM19.78 1.03C19.92 0.989999 20.06 0.949973 20.2 0.909973L20.75 2.95999C20.62 2.99999 20.49 3.02998 20.36 3.06998L19.78 1.03V1.03ZM20.63 0.799988C20.77 0.759988 20.91 0.729982 21.06 0.699982L21.54 2.75998C21.41 2.78998 21.28 2.81998 21.15 2.84998L20.64 0.789978L20.63 0.799988ZM21.48 0.599976C21.62 0.569976 21.77 0.539979 21.91 0.509979L22.32 2.59C22.19 2.62 22.06 2.63998 21.92 2.66998L21.48 0.599976V0.599976ZM22.34 0.429993C22.48 0.399993 22.63 0.379976 22.77 0.349976L23.11 2.43997C22.98 2.45997 22.84 2.47998 22.71 2.50998L22.33 0.429993H22.34ZM12.18 49.89L13.35 48.12C13.46 48.19 13.57 48.27 13.69 48.34L12.55 50.13C12.42 50.05 12.3 49.97 12.18 49.89V49.89ZM23.21 0.289978C23.36 0.269978 23.5 0.24998 23.65 0.22998L23.93 2.32999C23.8 2.34999 23.66 2.36998 23.53 2.38998L23.22 0.289978H23.21ZM12.93 50.37L14.04 48.57C14.15 48.64 14.27 48.71 14.39 48.78L13.31 50.6C13.18 50.52 13.06 50.45 12.93 50.37V50.37ZM24.09 0.179993C24.23 0.159993 24.38 0.149974 24.52 0.129974L24.73 2.23999C24.59 2.24999 24.46 2.27 24.32 2.28L24.08 0.169983L24.09 0.179993ZM13.69 50.82L14.75 48.98C14.87 49.05 14.98 49.11 15.1 49.18L14.08 51.04C13.95 50.97 13.82 50.9 13.69 50.82V50.82ZM24.96 0.0899963C25.11 0.0799963 25.25 0.0699976 25.4 0.0599976L25.54 2.16998C25.4 2.16998 25.27 2.18998 25.13 2.19998L24.96 0.0899963V0.0899963ZM14.46 51.24L15.45 49.37C15.57 49.43 15.69 49.49 15.81 49.56L14.85 51.45C14.72 51.38 14.59 51.32 14.46 51.25V51.24ZM25.84 0.0299988C25.99 0.0299988 26.13 0.0199792 26.28 0.00997925L26.34 2.12997C26.21 2.12997 26.07 2.12999 25.94 2.14999L25.84 0.0299988ZM15.25 51.64L16.18 49.74C16.3 49.8 16.42 49.86 16.54 49.91L15.65 51.83C15.52 51.77 15.38 51.7 15.25 51.64V51.64ZM26.72 3.54476e-10C26.87 3.54476e-10 27.01 3.54476e-10 27.16 3.54476e-10V2.12C27.03 2.12 26.89 2.12 26.75 2.12L26.72 3.54476e-10ZM16.05 52.01L16.92 50.08C17.04 50.14 17.17 50.19 17.29 50.24L16.45 52.19C16.32 52.13 16.18 52.07 16.05 52.01V52.01ZM27.6 3.54476e-10C27.75 3.54476e-10 27.89 -2.07517e-05 28.04 0.00997925L27.97 2.12997C27.83 2.12997 27.7 2.13 27.56 2.12L27.59 3.54476e-10H27.6ZM16.86 52.36L17.66 50.4C17.79 50.45 17.91 50.5 18.04 50.55L17.27 52.52C17.13 52.47 17 52.41 16.86 52.36ZM28.48 0.0299988C28.63 0.0299988 28.77 0.0499976 28.92 0.0599976L28.78 2.16998C28.64 2.16998 28.51 2.14999 28.38 2.14999L28.48 0.0299988V0.0299988ZM17.68 52.68L18.42 50.69C18.55 50.74 18.67 50.78 18.8 50.83L18.09 52.83C17.95 52.78 17.81 52.73 17.68 52.68ZM29.36 0.0899963C29.51 0.0999963 29.65 0.109974 29.8 0.129974L29.59 2.23999C29.46 2.22999 29.32 2.20998 29.19 2.19998L29.36 0.0899963V0.0899963ZM18.51 52.97L19.18 50.96C19.31 51 19.44 51.04 19.57 51.09L18.93 53.11C18.79 53.07 18.65 53.02 18.51 52.97ZM30.24 0.169983C30.39 0.189983 30.53 0.200001 30.68 0.220001L30.4 2.31998C30.27 2.29998 30.13 2.28999 30 2.26999L30.24 0.169983V0.169983ZM19.35 53.23L19.96 51.2C20.09 51.24 20.22 51.28 20.35 51.31L19.77 53.35C19.63 53.31 19.49 53.27 19.35 53.23V53.23ZM31.11 0.279999C31.25 0.299999 31.4 0.319976 31.54 0.349976L31.2 2.43997C31.07 2.41997 30.93 2.39997 30.8 2.37997L31.11 0.279999V0.279999ZM20.2 53.47L20.74 51.42C20.87 51.45 21 51.49 21.14 51.52L20.63 53.58C20.49 53.54 20.35 53.51 20.21 53.47H20.2ZM31.98 0.419983C32.12 0.449983 32.27 0.47 32.41 0.5L32 2.57999C31.87 2.54999 31.73 2.53 31.6 2.5L31.98 0.419983ZM21.05 53.68L21.52 51.62C21.65 51.65 21.78 51.68 21.92 51.71H21.98L21.54 53.8H21.48C21.34 53.76 21.19 53.72 21.05 53.69V53.68ZM32.84 0.589996H32.87C33 0.629996 33.13 0.649993 33.27 0.679993L32.8 2.73999C32.68 2.70999 32.56 2.68997 32.43 2.65997L32.84 0.579987V0.589996ZM22.38 51.8C22.51 51.83 22.64 51.85 22.78 51.87L22.41 53.96C22.27 53.93 22.12 53.91 21.98 53.88L22.39 51.8H22.38ZM33.19 2.84998L33.7 0.789978C33.84 0.829978 33.99 0.859994 34.13 0.899994L33.59 2.94998C33.46 2.91998 33.33 2.87998 33.2 2.84998H33.19ZM23.18 51.94C23.31 51.96 23.45 51.98 23.58 52L23.28 54.1C23.13 54.08 22.99 54.06 22.84 54.03L23.18 51.94V51.94ZM33.97 3.04999L34.54 1.00998C34.68 1.04998 34.82 1.08997 34.96 1.12997L34.36 3.15997C34.23 3.11997 34.1 3.07999 33.97 3.04999V3.04999ZM23.98 52.05C24.11 52.07 24.25 52.08 24.38 52.1L24.14 54.2C23.99 54.18 23.85 54.17 23.7 54.15L23.97 52.05H23.98ZM34.75 3.28L35.39 1.25998C35.53 1.29998 35.67 1.34999 35.81 1.39999L35.14 3.40997C35.01 3.36997 34.88 3.33 34.75 3.28ZM24.79 52.14C24.93 52.15 25.06 52.16 25.2 52.18L25.03 54.29C24.88 54.28 24.74 54.27 24.59 54.25L24.79 52.14ZM35.52 3.53L36.22 1.53C36.36 1.58 36.5 1.62999 36.64 1.67999L35.9 3.66998C35.77 3.61998 35.65 3.58 35.52 3.53ZM25.59 52.2C25.73 52.2 25.86 52.22 26 52.22L25.9 54.34C25.75 54.34 25.61 54.32 25.46 54.32L25.59 52.21V52.2ZM36.28 3.81L37.05 1.82999C37.19 1.87999 37.32 1.93999 37.46 1.98999L36.66 3.94998C36.54 3.89998 36.41 3.84999 36.28 3.79999V3.81ZM26.41 52.24C26.55 52.24 26.68 52.24 26.82 52.24L26.79 54.36C26.64 54.36 26.5 54.36 26.35 54.35L26.42 52.23L26.41 52.24ZM37.04 4.12L37.87 2.16998C38.01 2.22998 38.14 2.28998 38.27 2.34998L37.41 4.28C37.29 4.23 37.16 4.17 37.04 4.12V4.12ZM27.22 52.26C27.36 52.26 27.49 52.26 27.63 52.26L27.67 54.38C27.52 54.38 27.38 54.38 27.23 54.38V52.26H27.22ZM37.77 4.44998L38.66 2.53C38.79 2.59 38.93 2.66 39.06 2.72L38.13 4.62C38.01 4.56 37.89 4.49998 37.76 4.44998H37.77ZM28.03 52.24C28.16 52.24 28.3 52.24 28.43 52.22L28.54 54.34C28.39 54.34 28.25 54.35 28.1 54.36L28.03 52.24ZM38.5 4.79999L39.45 2.90997C39.58 2.97997 39.71 3.03999 39.84 3.10999L38.85 4.97998C38.73 4.91998 38.61 4.85998 38.49 4.78998L38.5 4.79999ZM28.84 52.2C28.98 52.2 29.11 52.18 29.25 52.17L29.42 54.28C29.27 54.29 29.13 54.3 28.98 54.31L28.84 52.2V52.2ZM39.22 5.17999L40.24 3.31998C40.37 3.38998 40.5 3.46 40.62 3.53L39.57 5.37C39.45 5.3 39.33 5.23998 39.22 5.16998V5.17999ZM29.65 52.13C29.78 52.12 29.92 52.1 30.05 52.09L30.29 54.2C30.14 54.22 30 54.23 29.85 54.25L29.65 52.14V52.13ZM39.93 5.57999L41.01 3.75998C41.14 3.83998 41.26 3.90999 41.39 3.98999L40.28 5.79999C40.17 5.72999 40.05 5.66 39.93 5.59V5.57999ZM30.46 52.04C30.59 52.02 30.73 52 30.86 51.98L31.17 54.08C31.02 54.1 30.88 54.12 30.73 54.14L30.46 52.04ZM40.63 6.00998L41.77 4.22C41.89 4.3 42.02 4.37999 42.14 4.45999L40.97 6.22998C40.86 6.15998 40.74 6.07998 40.63 6.00998V6.00998ZM31.26 51.92C31.39 51.9 31.53 51.87 31.66 51.85L32.04 53.93C31.9 53.96 31.75 53.98 31.61 54.01L31.26 51.92V51.92ZM41.31 6.44998L42.5 4.69998C42.62 4.77998 42.74 4.86998 42.86 4.94998L41.64 6.67999C41.53 6.59999 41.42 6.51998 41.31 6.44998ZM32.06 51.77C32.19 51.74 32.32 51.72 32.46 51.69L32.91 53.76C32.77 53.79 32.62 53.82 32.48 53.85L32.06 51.77V51.77ZM41.97 6.91998L43.22 5.20999C43.34 5.29999 43.46 5.39 43.58 5.47L42.3 7.15997C42.19 7.07997 42.08 6.99998 41.98 6.91998H41.97ZM32.85 51.6C32.98 51.57 33.11 51.54 33.24 51.5L33.76 53.55C33.62 53.59 33.48 53.62 33.33 53.65L32.85 51.59V51.6ZM42.62 7.40997L43.93 5.73999C44.05 5.82999 44.16 5.91999 44.28 6.01999L42.95 7.66998C42.84 7.57998 42.74 7.49998 42.63 7.41998L42.62 7.40997ZM33.63 51.4C33.76 51.37 33.89 51.33 34.02 51.29L34.6 53.33C34.46 53.37 34.32 53.41 34.18 53.45L33.63 51.4V51.4ZM43.25 7.91998L44.61 6.29999C44.72 6.38999 44.83 6.49 44.95 6.59L43.56 8.18997C43.46 8.09997 43.35 8.00999 43.25 7.92999V7.91998ZM34.41 51.18C34.54 51.14 34.67 51.1 34.8 51.06L35.44 53.08C35.3 53.12 35.16 53.17 35.02 53.21L34.41 51.18V51.18ZM43.87 8.45999L45.28 6.87997C45.39 6.97997 45.5 7.07999 45.61 7.17999L44.17 8.72998C44.07 8.63998 43.97 8.54999 43.87 8.45999V8.45999ZM35.19 50.94C35.32 50.9 35.44 50.85 35.57 50.81L36.28 52.8C36.14 52.85 36 52.9 35.86 52.94L35.18 50.93L35.19 50.94ZM44.47 9.00998L45.93 7.47998C46.04 7.57998 46.14 7.67998 46.25 7.78998L44.76 9.29999C44.66 9.20999 44.57 9.10999 44.47 9.01999V9.00998ZM35.95 50.66C36.08 50.61 36.2 50.57 36.33 50.52L37.11 52.49C36.97 52.54 36.84 52.6 36.7 52.65L35.96 50.66H35.95ZM45.05 9.57999L46.56 8.09998C46.66 8.19998 46.76 8.30998 46.87 8.41998L45.34 9.87997C45.25 9.77997 45.15 9.68 45.06 9.59L45.05 9.57999ZM36.71 50.37C36.83 50.32 36.96 50.27 37.08 50.21L37.92 52.16C37.78 52.22 37.65 52.28 37.51 52.33L36.71 50.37V50.37ZM45.61 10.17L47.17 8.72998C47.27 8.83998 47.37 8.95 47.47 9.06L45.89 10.47C45.8 10.37 45.71 10.27 45.62 10.17H45.61ZM37.45 50.05C37.57 49.99 37.7 49.94 37.82 49.88L38.72 51.8C38.59 51.86 38.45 51.92 38.32 51.98L37.45 50.05ZM46.15 10.78L47.75 9.39999C47.85 9.50999 47.94 9.61998 48.03 9.72998L46.41 11.09C46.32 10.99 46.23 10.88 46.15 10.78ZM38.19 49.71C38.31 49.65 38.43 49.59 38.55 49.53L39.51 51.42C39.38 51.49 39.25 51.55 39.11 51.62L38.18 49.72L38.19 49.71ZM46.68 11.41L48.33 10.08C48.42 10.19 48.51 10.31 48.6 10.42L46.93 11.73C46.85 11.62 46.76 11.52 46.68 11.41V11.41ZM38.92 49.35C39.04 49.29 39.16 49.22 39.28 49.16L40.3 51.02C40.17 51.09 40.04 51.16 39.91 51.23L38.92 49.36V49.35ZM47.18 12.05L48.87 10.77C48.96 10.89 49.04 11 49.13 11.12L47.42 12.37C47.34 12.26 47.26 12.15 47.18 12.04V12.05ZM39.63 48.95C39.75 48.88 39.87 48.81 39.98 48.74L41.06 50.56C40.93 50.63 40.81 50.71 40.68 50.78L39.63 48.94V48.95ZM47.66 12.7L49.39 11.48C49.48 11.6 49.56 11.72 49.64 11.84L47.89 13.03C47.81 12.92 47.74 12.81 47.66 12.7ZM40.32 48.53C40.44 48.46 40.55 48.39 40.66 48.32L41.8 50.11C41.68 50.19 41.55 50.27 41.43 50.34L40.32 48.54V48.53ZM48.11 13.37L49.88 12.2C49.96 12.32 50.04 12.45 50.12 12.57L48.33 13.71C48.26 13.6 48.18 13.48 48.11 13.37V13.37ZM41 48.1C41.11 48.03 41.23 47.95 41.34 47.87L42.54 49.62C42.42 49.7 42.3 49.78 42.18 49.86L41.01 48.09L41 48.1ZM48.55 14.06L50.36 12.95C50.44 13.07 50.51 13.2 50.59 13.32L48.77 14.4C48.7 14.28 48.63 14.17 48.56 14.05L48.55 14.06ZM41.68 47.64C41.79 47.56 41.9 47.48 42.01 47.4L43.26 49.11C43.14 49.2 43.02 49.28 42.9 49.37L41.68 47.64V47.64ZM48.97 14.75L50.81 13.7C50.88 13.83 50.95 13.95 51.02 14.08L49.16 15.1C49.09 14.98 49.03 14.86 48.96 14.75H48.97ZM42.34 47.16C42.45 47.08 42.55 47 42.66 46.91L43.97 48.58C43.85 48.67 43.74 48.76 43.62 48.85L42.34 47.16ZM49.37 15.46L51.24 14.47C51.31 14.6 51.38 14.73 51.44 14.86L49.55 15.82C49.49 15.7 49.43 15.58 49.36 15.46H49.37ZM42.99 46.65C43.1 46.57 43.2 46.48 43.3 46.39L44.66 48.01C44.55 48.1 44.43 48.2 44.32 48.29L42.99 46.64V46.65ZM49.74 16.18L51.64 15.25C51.7 15.38 51.77 15.51 51.83 15.65L49.91 16.55C49.85 16.43 49.79 16.31 49.73 16.18H49.74ZM43.61 46.13C43.71 46.04 43.81 45.95 43.91 45.86L45.32 47.44C45.21 47.54 45.1 47.64 44.99 47.73L43.61 46.12V46.13ZM50.08 16.92L52.01 16.05C52.07 16.18 52.13 16.32 52.19 16.45L50.25 17.29C50.2 17.16 50.14 17.04 50.09 16.92H50.08ZM44.21 45.6C44.31 45.51 44.41 45.42 44.51 45.32L45.97 46.85C45.86 46.95 45.76 47.05 45.65 47.15L44.21 45.59V45.6ZM50.4 17.67L52.36 16.87C52.42 17.01 52.47 17.14 52.52 17.28L50.55 18.05C50.5 17.92 50.45 17.8 50.4 17.67ZM44.8 45.04C44.9 44.95 44.99 44.85 45.09 44.75L46.6 46.24C46.5 46.35 46.39 46.45 46.29 46.55L44.81 45.04H44.8ZM50.69 18.43L52.67 17.69C52.72 17.83 52.77 17.97 52.82 18.1L50.82 18.81C50.78 18.68 50.73 18.56 50.68 18.43H50.69ZM45.37 44.47C45.46 44.37 45.56 44.27 45.65 44.17L47.21 45.61C47.11 45.72 47.01 45.82 46.91 45.93L45.37 44.47V44.47ZM50.97 19.2L52.98 18.52C53.03 18.66 53.07 18.8 53.12 18.94L51.1 19.58C51.06 19.45 51.02 19.32 50.97 19.2ZM45.93 43.87C46.02 43.77 46.11 43.67 46.2 43.56L47.8 44.94C47.7 45.05 47.61 45.16 47.51 45.27L45.93 43.86V43.87ZM51.22 19.97L53.25 19.36C53.29 19.5 53.33 19.64 53.37 19.78L51.33 20.36C51.29 20.23 51.26 20.1 51.22 19.97V19.97ZM46.46 43.26C46.55 43.16 46.63 43.05 46.72 42.95L48.37 44.28C48.28 44.39 48.18 44.51 48.09 44.62L46.46 43.26V43.26ZM51.44 20.75L53.49 20.21C53.53 20.35 53.56 20.49 53.6 20.63L51.55 21.15C51.52 21.02 51.48 20.89 51.45 20.76L51.44 20.75ZM46.97 42.63C47.05 42.52 47.14 42.42 47.22 42.31L48.91 43.58C48.82 43.7 48.73 43.81 48.64 43.93L46.97 42.63ZM51.64 21.54L53.7 21.06C53.73 21.2 53.76 21.34 53.8 21.49L51.73 21.94C51.7 21.81 51.67 21.68 51.64 21.54V21.54ZM47.47 41.98C47.55 41.87 47.63 41.76 47.71 41.65L49.44 42.87C49.35 42.99 49.27 43.11 49.18 43.23L47.47 41.98V41.98ZM51.81 22.33L53.89 21.92C53.92 22.06 53.95 22.21 53.97 22.35L51.89 22.73C51.87 22.6 51.84 22.46 51.81 22.33ZM47.94 41.32C48.02 41.21 48.09 41.1 48.17 40.98L49.94 42.14C49.86 42.26 49.78 42.39 49.69 42.51L47.94 41.32V41.32ZM51.96 23.13L54.05 22.78C54.07 22.92 54.1 23.07 54.12 23.22L52.02 23.53C52 23.4 51.98 23.26 51.96 23.13V23.13ZM48.39 40.64C48.46 40.53 48.53 40.41 48.61 40.29L50.42 41.4C50.34 41.53 50.26 41.65 50.19 41.78L48.4 40.64H48.39ZM52.08 23.93L54.18 23.65C54.2 23.8 54.22 23.94 54.23 24.09L52.12 24.33C52.11 24.2 52.09 24.06 52.07 23.93H52.08ZM48.81 39.94C48.88 39.82 48.95 39.7 49.01 39.59L50.85 40.64C50.78 40.77 50.7 40.9 50.63 41.02L48.8 39.95L48.81 39.94ZM52.17 24.73L54.28 24.52C54.3 24.67 54.31 24.81 54.32 24.96L52.21 25.13C52.2 25 52.19 24.86 52.17 24.73V24.73ZM49.21 39.23C49.27 39.11 49.34 38.99 49.4 38.87L51.28 39.86C51.21 39.99 51.14 40.12 51.07 40.25L49.21 39.23ZM52.23 25.54L54.34 25.4C54.34 25.55 54.36 25.69 54.36 25.84L52.24 25.95C52.24 25.81 52.23 25.68 52.22 25.54H52.23ZM49.58 38.51C49.64 38.39 49.7 38.27 49.76 38.14L51.67 39.06C51.61 39.19 51.54 39.32 51.48 39.45L49.59 38.5L49.58 38.51ZM52.27 26.35L54.39 26.28C54.39 26.43 54.39 26.57 54.4 26.72L52.28 26.75C52.28 26.61 52.28 26.48 52.28 26.34L52.27 26.35ZM49.94 37.78C50 37.66 50.05 37.54 50.11 37.41L52.05 38.27C51.99 38.41 51.93 38.54 51.87 38.67L49.95 37.78H49.94ZM52.28 27.16H54.4C54.4 27.31 54.4 27.45 54.4 27.6L52.28 27.57C52.28 27.43 52.28 27.3 52.28 27.16ZM50.27 37.04C50.32 36.92 50.37 36.79 50.43 36.67L52.39 37.47C52.33 37.61 52.28 37.74 52.22 37.88L50.27 37.05V37.04ZM52.27 27.98L54.39 28.05C54.39 28.2 54.38 28.34 54.37 28.49L52.25 28.39C52.25 28.26 52.26 28.12 52.27 27.99V27.98ZM50.58 36.29C50.63 36.16 50.68 36.04 50.72 35.91L52.71 36.64C52.66 36.78 52.61 36.92 52.55 37.05L50.58 36.28V36.29ZM52.24 28.79L54.35 28.92C54.35 29.07 54.33 29.21 54.32 29.36L52.21 29.19C52.22 29.06 52.23 28.92 52.24 28.79ZM50.86 35.53C50.91 35.4 50.95 35.27 50.99 35.14L53 35.81C52.95 35.95 52.91 36.09 52.86 36.23L50.86 35.53V35.53ZM52.17 29.6L54.28 29.8C54.27 29.95 54.25 30.09 54.23 30.24L52.13 30C52.15 29.87 52.16 29.73 52.17 29.6ZM51.12 34.76C51.16 34.63 51.2 34.5 51.24 34.37L53.27 34.98C53.23 35.12 53.19 35.26 53.14 35.4L51.12 34.76V34.76ZM52.08 30.4L54.18 30.67C54.16 30.82 54.14 30.96 54.12 31.11L52.02 30.8C52.04 30.67 52.06 30.53 52.08 30.4ZM51.35 33.98C51.39 33.85 51.42 33.72 51.46 33.59L53.51 34.13C53.47 34.27 53.43 34.41 53.4 34.55L51.36 33.98H51.35ZM51.96 31.21L54.05 31.55C54.03 31.69 54 31.84 53.98 31.98L51.89 31.61C51.91 31.48 51.94 31.34 51.96 31.21ZM51.55 33.2C51.58 33.07 51.61 32.94 51.64 32.8L53.7 33.27C53.67 33.41 53.63 33.55 53.6 33.7L51.54 33.2H51.55ZM51.81 32.01L53.89 32.42C53.86 32.56 53.83 32.71 53.8 32.85L51.73 32.41C51.76 32.28 51.79 32.14 51.81 32.01V32.01Z" fill="#989898"/>
</svg>
