<svg width="55" height="55" fill="none" xmlns="http://www.w3.org/2000/svg"><path d="m.59 21.5 2.07.44c-.03.13-.06.26-.08.4L.5 21.93l.09-.43zm.1-.43c.03-.14.07-.29.1-.43l2.06.51-.09.39-2.06-.47H.69zm-.27 1.29 2.09.38c-.02.13-.05.27-.07.4l-2.09-.35c.02-.14.05-.29.07-.43zm.48-2.15.12-.42 2.04.57c-.04.13-.07.26-.11.39L.9 20.21zm-.62 3.01 2.1.31-.06.4-2.1-.28.06-.43zm.86-3.86c.04-.14.08-.28.13-.42l2.02.64-.12.39-2.03-.61zm-.97 4.73 2.1.24c-.02.13-.03.27-.04.4l-2.11-.21c.01-.15.03-.29.05-.44v.01zm1.24-5.57c.05-.14.09-.28.14-.42l2 .7c-.05.13-.09.26-.13.39l-2.01-.67zM.09 24.97l2.11.17-.03.41-2.11-.14c0-.15.02-.29.03-.44zm1.62-7.28c.05-.14.1-.27.16-.41l1.97.77c-.05.13-.1.25-.14.38l-1.99-.74zM.04 25.85l2.12.1c0 .14-.01.27-.02.41l-2.12-.07c0-.15.01-.29.02-.44zm1.99-8.98c.06-.14.11-.27.17-.41l1.95.84c-.05.12-.1.25-.16.37l-1.96-.8zM.01 26.73l2.12.04v.41H.01v-.45zm2.37-10.67c.06-.13.12-.27.18-.4l1.92.9c-.06.12-.11.25-.17.37l-1.93-.86v-.01zM.01 27.61l2.12-.03v.4l-2.12.07c0-.15 0-.29-.01-.44h.01zm2.74-12.35c.06-.13.13-.26.2-.39l1.89.96-.18.36-1.9-.93h-.01zM.03 28.49l2.12-.1c0 .13.01.27.02.4l-2.11.14c0-.15-.02-.29-.02-.44H.03zm3.11-14.01.21-.39 1.86 1.02c-.06.12-.13.24-.19.36l-1.87-.99h-.01zM.08 29.37l2.11-.17c.01.13.02.27.04.4l-2.11.2c-.01-.15-.03-.29-.04-.44v.01zm3.48-15.66c.07-.13.15-.26.22-.38l1.82 1.08c-.07.12-.14.23-.2.35l-1.84-1.05zM.17 30.25l2.11-.23c.01.13.03.27.05.4l-2.1.28c-.02-.15-.04-.29-.05-.44l-.01-.01zm3.84-17.3c.08-.13.16-.25.23-.38l1.79 1.14c-.07.11-.14.23-.22.34L4 12.94l.01.01zM.28 31.12l2.1-.31.06.4-2.09.34c-.02-.15-.05-.29-.07-.44v.01zm4.2-18.92c.08-.12.16-.25.25-.37l1.75 1.2c-.08.11-.15.22-.23.34L4.48 12.2zM.42 31.99l2.08-.38c.02.13.05.27.08.4l-2.08.41c-.03-.14-.05-.28-.08-.43zm4.56-20.52c.08-.12.17-.24.26-.36l1.71 1.25-.24.33-1.73-1.23v.01zM.59 32.85l2.07-.44.09.39-2.06.48c-.03-.14-.06-.29-.1-.43zM5.5 10.76c.09-.12.18-.23.27-.35l1.67 1.31c-.08.11-.17.21-.25.32L5.5 10.76zM.78 33.71l2.06-.51c.03.13.07.26.1.39l-2.05.54c-.04-.14-.07-.28-.11-.42zm5.26-23.64c.09-.11.18-.23.28-.34l1.63 1.36c-.09.1-.17.21-.26.32l-1.64-1.34h-.01zM1 34.56l2.04-.58c.04.13.07.26.11.39l-2.03.61-.12-.42zM6.6 9.39c.1-.11.19-.22.29-.33l1.58 1.41c-.09.1-.18.2-.27.31L6.6 9.39zM1.25 35.4l2.02-.64c.04.13.08.26.13.38l-2.01.67c-.05-.14-.09-.28-.14-.42v.01zM7.19 8.74c.1-.11.2-.22.3-.32l1.53 1.46c-.09.1-.19.2-.28.3L7.18 8.74h.01zm-5.66 27.5 2-.71c.04.13.09.25.14.38l-1.99.74c-.05-.14-.1-.28-.15-.41zM7.8 8.11l.31-.31 1.48 1.51c-.1.09-.19.19-.29.29L7.79 8.11h.01zM1.84 37.07l1.97-.77c.05.13.1.25.15.38l-1.96.8c-.06-.14-.11-.27-.16-.41zM8.43 7.5c.11-.1.21-.2.32-.3l1.43 1.56c-.1.09-.2.18-.3.28L8.42 7.5h.01zM2.17 37.89l1.95-.84c.05.12.11.25.16.37l-1.93.87c-.06-.13-.12-.27-.18-.4zM9.08 6.9c.11-.1.22-.19.33-.29l1.38 1.6c-.1.09-.21.18-.31.27L9.07 6.9h.01zM2.53 38.69l1.92-.9c.06.12.11.24.17.36l-1.9.93c-.06-.13-.13-.26-.19-.4v.01zM9.74 6.33l.34-.28 1.33 1.65c-.1.08-.21.17-.31.26L9.74 6.33zm.69-.55c.12-.09.23-.18.35-.27l1.28 1.69c-.11.08-.22.17-.32.25l-1.3-1.67h-.01zm.7-.53c.12-.09.24-.17.36-.26l1.22 1.73-.33.24-1.25-1.71zm.72-.51c.12-.08.24-.16.37-.24l1.17 1.77c-.11.07-.23.15-.34.23l-1.19-1.75-.01-.01zm.74-.48c.12-.08.25-.16.37-.23l1.11 1.8c-.12.07-.23.14-.35.22l-1.14-1.79h.01zm.75-.46c.13-.08.25-.15.38-.22l1.05 1.84c-.12.07-.23.13-.35.2L13.34 3.8zm.77-.44.39-.21.99 1.87c-.12.06-.24.13-.36.19l-1.02-1.86v.01zm.78-.41c.13-.07.26-.13.39-.2l.93 1.9-.36.18-.96-1.89v.01zm.79-.39c.13-.06.26-.12.4-.18l.87 1.93c-.12.06-.25.11-.37.17l-.9-1.92zm.8-.36c.13-.06.27-.11.4-.17l.8 1.96c-.13.05-.25.1-.38.16l-.83-1.95h.01zm.81-.33c.14-.05.27-.11.41-.16l.74 1.99c-.13.05-.25.1-.38.14l-.77-1.97zm.82-.31c.14-.05.28-.1.42-.14l.67 2.01c-.13.04-.25.09-.38.13l-.71-2zm.83-.28c.14-.04.28-.09.42-.13l.61 2.03-.39.12-.64-2.02zm.84-.25.42-.12.55 2.05c-.13.04-.26.07-.39.11l-.58-2.04zm.85-.23c.14-.04.28-.07.43-.1l.48 2.06-.39.09-.51-2.06-.01.01zm.85-.2.43-.09.41 2.08c-.13.03-.26.05-.4.08L21.48.6zm.86-.17c.14-.03.29-.05.43-.08l.34 2.09c-.13.02-.27.04-.4.07L22.33.43h.01zM12.18 49.89l1.17-1.77c.11.07.22.15.34.22l-1.14 1.79c-.13-.08-.25-.16-.37-.24zM23.21.29l.44-.06.28 2.1-.4.06-.31-2.1h-.01zM12.93 50.37l1.11-1.8c.11.07.23.14.35.21l-1.08 1.82c-.13-.08-.25-.15-.38-.23zM24.09.18c.14-.02.29-.03.43-.05l.21 2.11c-.14.01-.27.03-.41.04L24.08.17l.01.01zm-10.4 50.64 1.06-1.84c.12.07.23.13.35.2l-1.02 1.86c-.13-.07-.26-.14-.39-.22zM24.96.09l.44-.03.14 2.11c-.14 0-.27.02-.41.03L24.96.09zm-10.5 51.15.99-1.87c.12.06.24.12.36.19l-.96 1.89c-.13-.07-.26-.13-.39-.2v-.01zM25.84.03c.15 0 .29-.01.44-.02l.06 2.12c-.13 0-.27 0-.4.02l-.1-2.12zM15.25 51.64l.93-1.9c.12.06.24.12.36.17l-.89 1.92c-.13-.06-.27-.13-.4-.19zM26.72 0h.44v2.12h-.41L26.72 0zM16.05 52.01l.87-1.93c.12.06.25.11.37.16l-.84 1.95c-.13-.06-.27-.12-.4-.18zM27.6 0c.15 0 .29 0 .44.01l-.07 2.12c-.14 0-.27 0-.41-.01L27.59 0h.01zM16.86 52.36l.8-1.96c.13.05.25.1.38.15l-.77 1.97c-.14-.05-.27-.11-.41-.16zM28.48.03c.15 0 .29.02.44.03l-.14 2.11c-.14 0-.27-.02-.4-.02l.1-2.12zm-10.8 52.65.74-1.99c.13.05.25.09.38.14l-.71 2c-.14-.05-.28-.1-.41-.15zM29.36.09c.15.01.29.02.44.04l-.21 2.11c-.13-.01-.27-.03-.4-.04l.17-2.11zM18.51 52.97l.67-2.01c.13.04.26.08.39.13l-.64 2.02c-.14-.04-.28-.09-.42-.14zM30.24.17c.15.02.29.03.44.05l-.28 2.1c-.13-.02-.27-.03-.4-.05l.24-2.1zM19.35 53.23l.61-2.03c.13.04.26.08.39.11l-.58 2.04-.42-.12zM31.11.28c.14.02.29.04.43.07l-.34 2.09-.4-.06.31-2.1zM20.2 53.47l.54-2.05c.13.03.26.07.4.1l-.51 2.06c-.14-.04-.28-.07-.42-.11h-.01zM31.98.42c.14.03.29.05.43.08L32 2.58c-.13-.03-.27-.05-.4-.08l.38-2.08zM21.05 53.68l.47-2.06c.13.03.26.06.4.09h.06l-.44 2.09h-.06a6.78 6.78 0 0 0-.43-.11v-.01zM32.84.59h.03c.13.04.26.06.4.09l-.47 2.06c-.12-.03-.24-.05-.37-.08l.41-2.08v.01zM22.38 51.8c.13.03.26.05.4.07l-.37 2.09c-.14-.03-.29-.05-.43-.08l.41-2.08h-.01zM33.19 2.85 33.7.79c.14.04.29.07.43.11l-.54 2.05c-.13-.03-.26-.07-.39-.1h-.01zM23.18 51.94l.4.06-.3 2.1c-.15-.02-.29-.04-.44-.07l.34-2.09zM33.97 3.05l.57-2.04.42.12-.6 2.03c-.13-.04-.26-.08-.39-.11zm-9.99 49c.13.02.27.03.4.05l-.24 2.1c-.15-.02-.29-.03-.44-.05l.27-2.1h.01zM34.75 3.28l.64-2.02c.14.04.28.09.42.14l-.67 2.01c-.13-.04-.26-.08-.39-.13zm-9.96 48.86c.14.01.27.02.41.04l-.17 2.11c-.15-.01-.29-.02-.44-.04l.2-2.11zM35.52 3.53l.7-2 .42.15-.74 1.99c-.13-.05-.25-.09-.38-.14zM25.59 52.2c.14 0 .27.02.41.02l-.1 2.12c-.15 0-.29-.02-.44-.02l.13-2.11v-.01zM36.28 3.81l.77-1.98c.14.05.27.11.41.16l-.8 1.96c-.12-.05-.25-.1-.38-.15v.01zm-9.87 48.43h.41l-.03 2.12c-.15 0-.29 0-.44-.01l.07-2.12-.01.01zM37.04 4.12l.83-1.95c.14.06.27.12.4.18l-.86 1.93c-.12-.05-.25-.11-.37-.16zm-9.82 48.14h.41l.04 2.12h-.44v-2.12h-.01zM37.77 4.45l.89-1.92c.13.06.27.13.4.19l-.93 1.9c-.12-.06-.24-.12-.37-.17h.01zm-9.74 47.79c.13 0 .27 0 .4-.02l.11 2.12c-.15 0-.29.01-.44.02l-.07-2.12zM38.5 4.8l.95-1.89c.13.07.26.13.39.2l-.99 1.87c-.12-.06-.24-.12-.36-.19l.01.01zm-9.66 47.4c.14 0 .27-.02.41-.03l.17 2.11-.44.03-.14-2.11zM39.22 5.18l1.02-1.86c.13.07.26.14.38.21l-1.05 1.84c-.12-.07-.24-.13-.35-.2v.01zm-9.57 46.95c.13-.01.27-.03.4-.04l.24 2.11c-.15.02-.29.03-.44.05l-.2-2.11v-.01zM39.93 5.58l1.08-1.82c.13.08.25.15.38.23L40.28 5.8c-.11-.07-.23-.14-.35-.21v-.01zm-9.47 46.46.4-.06.31 2.1-.44.06-.27-2.1zM40.63 6.01l1.14-1.79c.12.08.25.16.37.24l-1.17 1.77-.34-.22zm-9.37 45.91c.13-.02.27-.05.4-.07l.38 2.08c-.14.03-.29.05-.43.08l-.35-2.09zM41.31 6.45 42.5 4.7c.12.08.24.17.36.25l-1.22 1.73c-.11-.08-.22-.16-.33-.23zm-9.25 45.32c.13-.03.26-.05.4-.08l.45 2.07-.43.09-.42-2.08zm9.91-44.85 1.25-1.71c.12.09.24.18.36.26L42.3 7.16c-.11-.08-.22-.16-.32-.24h-.01zM32.85 51.6c.13-.03.26-.06.39-.1l.52 2.05c-.14.04-.28.07-.43.1l-.48-2.06v.01zm9.77-44.19 1.31-1.67c.12.09.23.18.35.28l-1.33 1.65c-.11-.09-.21-.17-.32-.25l-.01-.01zM33.63 51.4c.13-.03.26-.07.39-.11l.58 2.04-.42.12-.55-2.05zm9.62-43.48 1.36-1.62c.11.09.22.19.34.29l-1.39 1.6c-.1-.09-.21-.18-.31-.26v-.01zm-8.84 43.26.39-.12.64 2.02c-.14.04-.28.09-.42.13l-.61-2.03zm9.46-42.72 1.41-1.58.33.3-1.44 1.55-.3-.27zm-8.68 42.48c.13-.04.25-.09.38-.13l.71 1.99c-.14.05-.28.1-.42.14l-.68-2.01.01.01zm9.28-41.93 1.46-1.53c.11.1.21.2.32.31L44.76 9.3c-.1-.09-.19-.19-.29-.28v-.01zm-8.52 41.65c.13-.05.25-.09.38-.14l.78 1.97c-.14.05-.27.11-.41.16l-.74-1.99h-.01zm9.1-41.08 1.51-1.48c.1.1.2.21.31.32l-1.53 1.46c-.09-.1-.19-.2-.28-.29l-.01-.01zm-8.34 40.79c.12-.05.25-.1.37-.16l.84 1.95c-.14.06-.27.12-.41.17l-.8-1.96zm8.9-40.2 1.56-1.44.3.33-1.58 1.41-.27-.3h-.01zm-8.16 39.88c.12-.06.25-.11.37-.17l.9 1.92c-.13.06-.27.12-.4.18l-.87-1.93zm8.7-39.27 1.6-1.38c.1.11.19.22.28.33l-1.62 1.36c-.09-.1-.18-.21-.26-.31zm-7.96 38.93.36-.18.96 1.89c-.13.07-.26.13-.4.2l-.93-1.9.01-.01zm8.49-38.3 1.65-1.33c.09.11.18.23.27.34l-1.67 1.31c-.08-.11-.17-.21-.25-.32zm-7.76 37.94c.12-.06.24-.13.36-.19l1.02 1.86-.39.21-.99-1.87v-.01zm8.26-37.3 1.69-1.28.26.35-1.71 1.25-.24-.33v.01zm-7.55 36.9c.12-.07.24-.14.35-.21l1.08 1.82c-.13.07-.25.15-.38.22l-1.05-1.84v.01zm8.03-36.25 1.73-1.22c.09.12.17.24.25.36l-1.75 1.19c-.08-.11-.15-.22-.23-.33zm-7.34 35.83c.12-.07.23-.14.34-.21l1.14 1.79c-.12.08-.25.16-.37.23l-1.11-1.8v-.01zm7.79-35.16 1.77-1.17c.08.12.16.25.24.37l-1.79 1.14-.22-.34zM41 48.1c.11-.07.23-.15.34-.23l1.2 1.75-.36.24-1.17-1.77-.01.01zm7.55-34.04 1.81-1.11c.08.12.15.25.23.37l-1.82 1.08c-.07-.12-.14-.23-.21-.35l-.01.01zm-6.87 33.58.33-.24 1.25 1.71c-.12.09-.24.17-.36.26l-1.22-1.73zm7.29-32.89 1.84-1.05c.07.13.14.25.21.38l-1.86 1.02c-.07-.12-.13-.24-.2-.35h.01zm-6.63 32.41c.11-.08.21-.16.32-.25l1.31 1.67c-.12.09-.23.18-.35.27l-1.28-1.69zm7.03-31.7 1.87-.99c.07.13.14.26.2.39l-1.89.96c-.06-.12-.12-.24-.19-.36h.01zm-6.38 31.19c.11-.08.21-.17.31-.26l1.36 1.62-.34.28-1.33-1.65v.01zm6.75-30.47 1.9-.93c.06.13.13.26.19.4l-1.92.9c-.06-.12-.12-.24-.18-.37h.01zm-6.13 29.95.3-.27 1.41 1.58c-.11.1-.22.2-.33.29l-1.38-1.61v.01zm6.47-29.21 1.93-.87c.06.13.12.27.18.4l-1.94.84c-.05-.13-.11-.25-.16-.37h-.01zM44.21 45.6c.1-.09.2-.18.3-.28l1.46 1.53c-.11.1-.21.2-.32.3l-1.44-1.56v.01zm6.19-27.93 1.96-.8c.06.14.11.27.16.41l-1.97.77c-.05-.13-.1-.25-.15-.38zm-5.6 27.37c.1-.09.19-.19.29-.29l1.51 1.49c-.1.11-.21.21-.31.31l-1.48-1.51h-.01zm5.89-26.61 1.98-.74c.05.14.1.28.15.41l-2 .71c-.04-.13-.09-.25-.14-.38h.01zm-5.32 26.04c.09-.1.19-.2.28-.3l1.56 1.44c-.1.11-.2.21-.3.32l-1.54-1.46zm5.6-25.27 2.01-.68c.05.14.09.28.14.42l-2.02.64c-.04-.13-.08-.26-.13-.38zm-5.04 24.67c.09-.1.18-.2.27-.31l1.6 1.38c-.1.11-.19.22-.29.33l-1.58-1.41v.01zm5.29-23.9 2.03-.61.12.42-2.04.58c-.04-.13-.07-.26-.11-.39zm-4.76 23.29c.09-.1.17-.21.26-.31l1.65 1.33-.28.34-1.63-1.36zm4.98-22.51 2.05-.54c.04.14.07.28.11.42l-2.05.52c-.03-.13-.07-.26-.1-.39l-.01-.01zm-4.47 21.88c.08-.11.17-.21.25-.32l1.69 1.27c-.09.12-.18.23-.27.35l-1.67-1.3zm4.67-21.09 2.06-.48c.03.14.06.28.1.43l-2.07.45c-.03-.13-.06-.26-.09-.4zm-4.17 20.44.24-.33 1.73 1.22c-.09.12-.17.24-.26.36l-1.71-1.25zm4.34-19.65 2.08-.41c.03.14.06.29.08.43l-2.08.38c-.02-.13-.05-.27-.08-.4zm-3.87 18.99c.08-.11.15-.22.23-.34l1.77 1.16c-.08.12-.16.25-.25.37l-1.75-1.19zm4.02-18.19 2.09-.35c.02.14.05.29.07.44l-2.1.31-.06-.4zm-3.57 17.51c.07-.11.14-.23.22-.35l1.81 1.11c-.08.13-.16.25-.23.38l-1.79-1.14h-.01zm3.69-16.71 2.1-.28c.02.15.04.29.05.44l-2.11.24a5.46 5.46 0 0 0-.05-.4h.01zm-3.27 16.01c.07-.12.14-.24.2-.35l1.84 1.05c-.07.13-.15.26-.22.38l-1.83-1.07.01-.01zm3.36-15.21 2.11-.21c.02.15.03.29.04.44l-2.11.17c-.01-.13-.02-.27-.04-.4zm-2.96 14.5c.06-.12.13-.24.19-.36l1.88.99-.21.39-1.86-1.02zm3.02-13.69 2.11-.14c0 .15.02.29.02.44l-2.12.11c0-.14-.01-.27-.02-.41h.01zm-2.65 12.97c.06-.12.12-.24.18-.37l1.91.92c-.06.13-.13.26-.19.39l-1.89-.95-.01.01zm2.69-12.16 2.12-.07c0 .15 0 .29.01.44l-2.12.03v-.41l-.01.01zm-2.33 11.43c.06-.12.11-.24.17-.37l1.94.86c-.06.14-.12.27-.18.4l-1.92-.89h-.01zm2.34-10.62h2.12v.44l-2.12-.03v-.41zm-2.01 9.88c.05-.12.1-.25.16-.37l1.96.8c-.06.14-.11.27-.17.41l-1.95-.83v-.01zm2-9.06 2.12.07c0 .15-.01.29-.02.44l-2.12-.1c0-.13.01-.27.02-.4v-.01zm-1.69 8.31c.05-.13.1-.25.14-.38l1.99.73c-.05.14-.1.28-.16.41l-1.97-.77v.01zm1.66-7.5 2.11.13c0 .15-.02.29-.03.44l-2.11-.17.03-.4zm-1.38 6.74c.05-.13.09-.26.13-.39l2.01.67c-.05.14-.09.28-.14.42l-2-.7zm1.31-5.93 2.11.2c-.01.15-.03.29-.05.44l-2.1-.24c.02-.13.03-.27.04-.4zm-1.05 5.16.12-.39 2.03.61c-.04.14-.08.28-.13.42l-2.02-.64zm.96-4.36 2.1.27-.06.44-2.1-.31.06-.4zm-.73 3.58c.04-.13.07-.26.11-.39l2.05.54c-.04.14-.08.28-.11.42l-2.04-.57h-.01zm.61-2.77 2.09.34c-.02.14-.05.29-.07.43l-2.09-.37c.02-.13.05-.27.07-.4zm-.41 1.99c.03-.13.06-.26.09-.4l2.06.47c-.03.14-.07.28-.1.43l-2.06-.5h.01zm.26-1.19 2.08.41-.09.43-2.07-.44c.03-.13.06-.27.08-.4z" fill="#989898"/></svg>