<svg width="750" height="126" viewBox="0 0 750 126" fill="none" xmlns="http://www.w3.org/2000/svg">
<rect width="748" height="126" fill="#F8EC2C"/>
<path d="M96.6185 192.616H51.3114L-44 82H1.38274L96.6185 192.616Z" fill="#E1E1E1"/>
<path d="M161.157 192.616H116.952L24.1888 82H68.3934L161.157 192.616Z" fill="#E1E1E1"/>
<path d="M229.346 192.616H185.141L92.3775 82H136.508L229.346 192.616Z" fill="#E1E1E1"/>
<path d="M297.534 192.616H253.329L160.566 82H204.697L297.534 192.616Z" fill="#E1E1E1"/>
<path d="M365.649 192.616H321.518L228.681 82H272.886L365.649 192.616Z" fill="#E1E1E1"/>
<path d="M433.838 192.616H389.633L296.87 82H341.074L433.838 192.616Z" fill="#E1E1E1"/>
<path d="M502.027 192.616H457.822L365.059 82H409.19L502.027 192.616Z" fill="#E1E1E1"/>
<path d="M570.216 192.616H526.011L433.174 82H477.379L570.216 192.616Z" fill="#E1E1E1"/>
<path d="M638.331 192.616H594.2L501.363 82H545.567L638.331 192.616Z" fill="#E1E1E1"/>
<path d="M706.52 192.616H662.315L569.552 82H613.756L706.52 192.616Z" fill="#E1E1E1"/>
<path d="M774.708 192.616H730.503L637.74 82H681.871L774.708 192.616Z" fill="#E1E1E1"/>
<path d="M842.897 192.616H798.692L705.855 82H750.06L842.897 192.616Z" fill="#E1E1E1"/>
</svg>
