<svg width="750" height="126" fill="none" xmlns="http://www.w3.org/2000/svg"><path fill="#F8EC2C" d="M0 0h748v126H0z"/><path d="M96.618 192.616H51.311L-44 82H1.383l95.236 110.616zM161.157 192.616h-44.205L24.189 82h44.204l92.764 110.616zM229.346 192.616h-44.205L92.378 82h44.13l92.838 110.616zM297.534 192.616h-44.205L160.566 82h44.131l92.837 110.616zM365.649 192.616h-44.131L228.681 82h44.205l92.763 110.616zM433.838 192.616h-44.205L296.87 82h44.204l92.764 110.616zM502.027 192.616h-44.205L365.059 82h44.131l92.837 110.616zM570.216 192.616h-44.205L433.174 82h44.205l92.837 110.616zM638.331 192.616H594.2L501.363 82h44.204l92.764 110.616zM706.52 192.616h-44.205L569.552 82h44.204l92.764 110.616zM774.708 192.616h-44.205L637.74 82h44.131l92.837 110.616zM842.897 192.616h-44.205L705.855 82h44.205l92.837 110.616z" fill="#E1E1E1"/></svg>