<svg width="92" height="60" fill="none" xmlns="http://www.w3.org/2000/svg"><path d="M76.765 12.89h-6.784V9.68h7.443c.02-.43.043-.815.043-1.199V6.51h-6.656V3.298h16.948V6.51h-7.017v2.014c0 .363 0 .748-.02 1.157h7.846v3.212h-7.103c1.51 3.062 4.167 5.29 8.186 6.297-.722.686-1.66 2.034-2.126 2.913-3.871-1.221-6.379-3.47-8.145-6.681-1.276 2.677-3.7 5.204-8.23 6.768-.382-.771-1.36-2.078-2.02-2.698 2.604-.834 4.4-2.015 5.643-3.344M4.763 9.851c-1.008 1.553-1.807 2.89-2.147 3.276C2.34 12.356 1.511 10.622 1 9.851c1.828-1.864 3.593-4.82 4.614-7.774l2.913.92a38.09 38.09 0 0 1-1.935 4.305v15.013H3.658v-7.71m7.693-2.399 1.875.39c-.575 2.676-1.637 5.418-2.786 7.13-.574-.493-1.892-1.306-2.615-1.67.87-1.107 1.573-2.775 2.046-4.52m8.972-.742 1.806-.615c1.042 2.185 1.701 4.374 1.977 6.28l-2.977 1.049c-.107-1.182-.364-2.446-.85-4.01m1.04-4.796h2.785V5.638l-9.038.037c.383-.942.702-1.929.978-2.914l-3.04-.707c-.723 2.87-2.064 5.76-3.7 7.496.701.471 1.935 1.5 2.487 2.057.681-.835 1.36-1.885 1.978-3.063h2.042V18.91c0 .278-.107.342-.383.342-.298 0-1.19 0-2.02-.02.447.835.915 2.226 1.042 3.126 1.404 0 2.487-.128 3.338-.622.87-.514 1.085-1.37 1.085-2.784V8.544m11.729 5.537h2.785v4.872h-2.785m0-10.772h2.785v3.223h-2.785m8.146 2.34c.483.875.904 1.707 1.225 2.466l2.614-1.606c-.495-.982-1.755-3.023-2.483-4.147m-.002 0-2.484 1.341m.016-3.703h6.13c-.17 7.066-.426 10.216-1.042 10.88-.276.3-.51.385-.935.385-.424 0-2.946 0-3.893-.052 0 0-.045 2.109-.003 2.944 1.276.044 4.3.065 5.15-.085.935-.172 1.596-.429 2.255-1.37.893-1.178 1.105-4.647 1.36-14.177.021-.365.021-1.35.021-1.35h-6.273V2.079h-2.786v3.137m11.424.356C48.866 4.374 50.28 2.43 50.939 1l2.822.768c-1.102 2.06-2.801 4.357-4.367 5.887m6 .971c1.232-.582 8.259-5.33 8.259-5.33l2.696 1.371c-2.175 2.331-11.165 7.338-11.165 7.338h11.373V9.552h-3.524m-10.124 8.34V10.43c.595-.877 1.126-1.8 1.573-2.698l-2.722-.984c-.978 2.013-2.679 4.004-4.317 5.268.51.686 1.318 2.27 1.573 2.934.319-.278.659-.578.978-.9v8.31h2.913m1.715.107c2.083-.43 3.623-1.05 5.303-1.906 1.617.836 3.509 1.456 5.679 1.864.383-.792 1.19-2.056 1.828-2.697-1.723-.237-3.253-.6-4.635-1.093 1.382-1.242 3.017-3.355 3.76-5.281l-9.82-.031c-1.003 1.676-2.324 3.43-2.324 3.43l2.77 1.99c-.902.342-3.212 1.01-4.236 1.228m5.64-4.376h3.274c-.51.643-1.15 1.198-1.872 1.713M55.591 6.432s3.07-1.706 6.334-3.86l-1.94-1.529c-2.203 1.397-3.44 2.254-4.192 2.695M3.836 40.852c-.858-.853-1.49-1.195-2.584-1.878 2.278-2.798 4.17-7.475 5.176-12.082l4.467 1.16a47.535 47.535 0 0 1-1.3 4.437h3.786v-5.937h4.497v5.937h9.672v4.847h-7.185m-2.487-1.89v7.112h8.49v4.779h-8.49v5.87H29.12v4.846H2.197v-4.846H13.38v-5.87H5.717v-4.78h7.662v-5.221H7.7m32.6 14.229h-3.635v-5.097H40.3m11.208 4.923c.878.032.924.032 1.269.032.345 0 .47-.094.47-.41v-4.389h-3.387V58.97h-4.483V42.584h12.257v8.524c0 1.894-.281 3.031-1.537 3.693-1.19.664-2.696.695-4.576.695m-6.51-23.385c-2.32 2.284-6.93 6.245-13.113 8.734l-1.694-4.268c7.817-3.146 12.947-9.151 12.997-9.21l.683-.81 2.254-.003.683.814c.048.058 5.178 6.063 12.995 9.209l-1.694 4.268M45.55 34.921h8.52v4.44H41.583m20.517-5.69c1.847-2.33 4.517-6.202 4.517-6.202l3.16 2.173-6.56 9.268 3.157 2.051m7.385 9.025h1.912c-.425 1.101-.965 2.137-1.618 3.023-.005.007-.007.015-.012.022-.295.426-.771.928-.927 1.09-.008.01-.019.018-.027.029l-.024.024h-.005a7.07 7.07 0 0 1-.977.811c.752.775 1.855 2.29 2.346 3.258 2.925-2.623 5.725-7.18 5.725-11.641v-.373l-6.39.015m7.075 5.16v2.92c0 .354-.116.451-.464.451-.347.033-.321.033-1.22-.033 0 0 .338 3 .483 4.258 1.825 0 2.677-.064 3.777-.742 1.13-.709 1.42-1.87 1.42-3.837v-.903c.956 1.742 2.085 3.225 3.446 4.322L91 54.098c-1.563-.968-2.867-2.418-3.938-4.16 1.13-.904 1.858-1.653 3.191-2.718l-2.7-2.586c-1.101 1.118-2.72 2.724-2.72 2.724v-3.612h3.926V31.683H78.305v-3.61h-3.88v15.673h6.412m-2.534-4.808h6.372v2h-6.371m0-6.66h6.371v2.002h-6.371M69.386 50.49H61.55v4.032h7.837m.906-10.79h1.787v3.965h-10.53v-3.966l2.176-2.602m3.119-3.582 2.411-3.27 3.57 2.11c-1.699 2.517-4.529 6.679-5.981 8.809M29.122 5.482V2.077h-2.786v19.595h8.357V5.482h-5.571zm3.404 37.04v12.99h10.94v-12.99h-10.94z" stroke="#000" stroke-width=".5" stroke-linecap="round" stroke-linejoin="round"/></svg>