<svg width="69" height="69" fill="none" xmlns="http://www.w3.org/2000/svg"><path d="M1.016 27.29C4.964 8.845 23.199-2.943 41.643 1.006c5.36 1.144 10.224 3.471 14.44 6.923l-2.556 3.129c-3.72-3.033-7.992-5.074-12.723-6.104-16.27-3.49-32.35 6.905-35.82 23.175-3.491 16.27 6.904 32.35 23.174 35.82 16.27 3.472 32.35-6.904 35.821-23.174.858-3.987.897-8.011.153-11.979l3.967-.762c.858 4.5.801 9.079-.153 13.58C63.998 60.06 45.763 71.846 27.32 67.898 8.874 63.95-2.913 45.715 1.035 27.271l-.02.019z" fill="#fff"/></svg>