<svg width="326" height="34" fill="none" xmlns="http://www.w3.org/2000/svg"><path d="M0 33.547V.453h14.357c2.469 0 4.629.485 6.48 1.455 1.852.97 3.292 2.332 4.32 4.088 1.03 1.756 1.543 3.809 1.543 6.157 0 2.37-.53 4.423-1.591 6.157-1.05 1.734-2.528 3.07-4.434 4.008-1.895.937-4.11 1.405-6.643 1.405H5.457v-6.98h6.756c1.061 0 1.966-.184 2.713-.55.758-.377 1.337-.91 1.737-1.6.412-.69.618-1.503.618-2.44 0-.948-.206-1.756-.618-2.424-.4-.679-.98-1.196-1.737-1.551-.748-.366-1.652-.55-2.713-.55H9.03v25.92H0zM47.944 10.795c-.087-1.078-.493-1.918-1.218-2.521-.715-.604-1.803-.905-3.265-.905-.93 0-1.694.113-2.29.34-.584.215-1.017.51-1.299.888a2.19 2.19 0 0 0-.438 1.293c-.022.398.048.76.21 1.082.174.313.445.598.813.857.368.248.839.474 1.413.679.574.204 1.256.387 2.046.549l2.729.582c1.84.388 3.416.9 4.726 1.535 1.31.636 2.382 1.384 3.215 2.246a8.007 8.007 0 0 1 1.836 2.877c.4 1.066.606 2.23.617 3.49-.011 2.176-.558 4.018-1.64 5.527-1.083 1.508-2.632 2.655-4.645 3.442-2.004.786-4.413 1.18-7.228 1.18-2.89 0-5.414-.426-7.568-1.277-2.144-.851-3.811-2.16-5.002-3.927-1.18-1.778-1.776-4.05-1.787-6.82h8.575c.054 1.013.309 1.864.764 2.554.454.69 1.093 1.212 1.916 1.567.834.356 1.825.534 2.972.534.964 0 1.77-.119 2.42-.356.65-.237 1.142-.566 1.478-.986.336-.42.509-.9.52-1.438a2.037 2.037 0 0 0-.504-1.325c-.314-.388-.833-.733-1.559-1.034-.725-.313-1.705-.604-2.94-.873l-3.313-.71c-2.945-.636-5.267-1.698-6.967-3.184-1.69-1.498-2.528-3.54-2.517-6.125-.011-2.1.552-3.937 1.689-5.51 1.147-1.584 2.734-2.818 4.758-3.7C38.497.441 40.831 0 43.461 0c2.686 0 5.008.447 6.968 1.341 1.96.894 3.47 2.155 4.531 3.782 1.072 1.616 1.613 3.506 1.624 5.672h-8.64zM59.11.452h10.07l6.495 13.445h.26L82.432.452h10.07L80.287 23.141v10.407h-8.965V23.14L59.11.452zM124.176 12.863h-9.16a6.17 6.17 0 0 0-.52-2.052 4.643 4.643 0 0 0-1.137-1.584 4.745 4.745 0 0 0-1.738-1.034c-.682-.248-1.456-.372-2.322-.372-1.516 0-2.799.367-3.849 1.1-1.04.732-1.83 1.782-2.372 3.15-.53 1.369-.795 3.011-.795 4.929 0 2.025.27 3.722.812 5.09.552 1.358 1.348 2.381 2.387 3.07 1.039.68 2.29 1.019 3.752 1.019.833 0 1.581-.103 2.241-.307a5.283 5.283 0 0 0 1.722-.921 4.775 4.775 0 0 0 1.185-1.439 5.77 5.77 0 0 0 .634-1.923l9.16.065c-.109 1.4-.504 2.828-1.186 4.282-.682 1.444-1.651 2.78-2.907 4.008-1.245 1.217-2.788 2.198-4.629 2.941-1.841.743-3.979 1.115-6.415 1.115-3.053 0-5.793-.652-8.218-1.955-2.415-1.304-4.326-3.222-5.733-5.753-1.397-2.532-2.095-5.63-2.095-9.292 0-3.684.714-6.787 2.144-9.308 1.429-2.532 3.356-4.444 5.781-5.737C103.344.652 106.05 0 109.039 0c2.1 0 4.033.285 5.798.856 1.765.571 3.313 1.406 4.645 2.505 1.332 1.088 2.404 2.43 3.216 4.024.812 1.594 1.304 3.42 1.478 5.478zM128.272 33.547V.453h9.03V13.38h11.954V.452h9.03v33.096h-9.03V20.62h-11.954v12.927h-9.03zM194.796 17c0 3.684-.72 6.793-2.16 9.324-1.44 2.521-3.384 4.433-5.831 5.737C184.358 33.354 181.63 34 178.62 34c-3.032 0-5.771-.652-8.218-1.955-2.436-1.315-4.374-3.232-5.814-5.753-1.43-2.532-2.144-5.63-2.144-9.292 0-3.684.714-6.787 2.144-9.308 1.44-2.532 3.378-4.444 5.814-5.737C172.849.652 175.588 0 178.62 0c3.01 0 5.738.652 8.185 1.955 2.447 1.293 4.391 3.205 5.831 5.737 1.44 2.52 2.16 5.624 2.16 9.308zm-9.29 0c0-1.982-.265-3.652-.796-5.01-.519-1.368-1.294-2.402-2.322-3.102-1.018-.711-2.274-1.067-3.768-1.067-1.494 0-2.756.356-3.784 1.067-1.018.7-1.792 1.734-2.323 3.103-.519 1.357-.779 3.027-.779 5.009 0 1.982.26 3.657.779 5.026.531 1.357 1.305 2.391 2.323 3.102 1.028.7 2.29 1.05 3.784 1.05 1.494 0 2.75-.35 3.768-1.05 1.028-.71 1.803-1.745 2.322-3.102.531-1.369.796-3.044.796-5.026zM198.974 33.547V.453h9.03v25.856h13.448v7.24h-22.478zM256.029 17c0 3.684-.72 6.793-2.16 9.324-1.44 2.521-3.383 4.433-5.83 5.737-2.447 1.293-5.176 1.939-8.186 1.939-3.032 0-5.771-.652-8.218-1.955-2.436-1.315-4.374-3.232-5.814-5.753-1.43-2.532-2.144-5.63-2.144-9.292 0-3.684.714-6.787 2.144-9.308 1.44-2.532 3.378-4.444 5.814-5.737C234.082.652 236.821 0 239.853 0c3.01 0 5.739.652 8.186 1.955 2.447 1.293 4.39 3.205 5.83 5.737 1.44 2.52 2.16 5.624 2.16 9.308zm-9.29 0c0-1.982-.265-3.652-.796-5.01-.519-1.368-1.293-2.402-2.322-3.102-1.018-.711-2.274-1.067-3.768-1.067-1.494 0-2.756.356-3.784 1.067-1.018.7-1.792 1.734-2.323 3.103-.519 1.357-.779 3.027-.779 5.009 0 1.982.26 3.657.779 5.026.531 1.357 1.305 2.391 2.323 3.102 1.028.7 2.29 1.05 3.784 1.05 1.494 0 2.75-.35 3.768-1.05 1.029-.71 1.803-1.745 2.322-3.102.531-1.369.796-3.044.796-5.026zM281.808 11.376a4.432 4.432 0 0 0-.666-1.502 4.134 4.134 0 0 0-1.137-1.115 4.68 4.68 0 0 0-1.559-.695 7.245 7.245 0 0 0-1.933-.243c-1.516 0-2.809.361-3.881 1.083-1.061.722-1.873 1.761-2.437 3.119-.552 1.357-.828 2.995-.828 4.912 0 1.94.265 3.599.796 4.978.531 1.378 1.321 2.434 2.371 3.167 1.05.732 2.355 1.099 3.914 1.099 1.375 0 2.518-.2 3.427-.598.921-.399 1.608-.964 2.063-1.697.455-.733.682-1.594.682-2.585l1.559.161h-7.601v-6.4h14.747v4.59c0 3.017-.644 5.597-1.933 7.74-1.277 2.134-3.042 3.771-5.294 4.913-2.241 1.131-4.813 1.697-7.715 1.697-3.237 0-6.079-.684-8.526-2.052-2.447-1.369-4.358-3.318-5.733-5.85-1.365-2.532-2.047-5.543-2.047-9.033 0-2.737.417-5.16 1.251-7.272.844-2.112 2.014-3.895 3.508-5.35a14.833 14.833 0 0 1 5.181-3.312C271.977.377 274.077 0 276.318 0c1.971 0 3.801.28 5.49.84 1.7.55 3.199 1.336 4.499 2.36a12.286 12.286 0 0 1 3.167 3.603 11.422 11.422 0 0 1 1.461 4.573h-9.127zM292.608.452h10.07l6.496 13.445h.26L315.931.452H326l-12.213 22.689v10.407h-8.965V23.14L292.608.452z" fill="#F8EC2C"/></svg>