<svg width="169" height="169" fill="none" xmlns="http://www.w3.org/2000/svg"><path d="m83.692.323.07 6.546c-.412-.003-.825-.005-1.261.029L82.333.342c.443-.004.916-.015 1.359-.02zm1.366.01c.443-.003.923.016 1.366.012l-.147 6.563-1.239-.008.027-6.536-.007-.03zM80.98.392l.265 6.566c-.406.028-.849.032-1.255.06L79.634.47c.436-.035.91-.046 1.346-.08zm6.817-.005 1.35.078-.342 6.544c-.42-.033-.833-.036-1.253-.068l.245-6.554zM78.288.55l.484 6.55c-.406.027-.843.061-1.249.089L76.95.659c.436-.033.903-.075 1.34-.109zM90.526.535c.45.027.9.053 1.357.109l-.567 6.53-1.26-.098.47-6.54zm-14.94.271.696 6.502c-.406.028-.836.092-1.235.15L74.254.946c.46-.07.896-.105 1.363-.146l-.03.006zm17.66-.024c.456.057.906.083 1.363.139l-.762 6.51a18.373 18.373 0 0 0-1.266-.128l.665-6.52zm-20.371.378.913 6.485-1.258.186-1.004-6.464c.453-.101.89-.136 1.349-.207zm23.08-.033c.457.056.883.119 1.346.205L96.308 7.8c-.427-.063-.823-.133-1.242-.166l.889-6.507zm-25.771.477 1.131 6.468c-.423.094-.822.152-1.252.217l-1.222-6.447c.453-.102.883-.166 1.343-.238zm28.463-.066c.464.087.89.15 1.354.236l-1.219 6.455c-.396-.07-.822-.133-1.225-.233l1.09-6.458zm-31.141.571 1.313 6.427-1.239.277-1.433-6.4 1.329-.297.03-.007zm33.824-.062c.433.093.897.18 1.33.273l-1.42 6.404c-.403-.1-.829-.163-1.232-.263l1.292-6.407.03-.007zm-36.481.657 1.523 6.38-1.207.27-1.645-6.352c.453-.102.875-.196 1.322-.328l.007.03zm39.147-.081c.433.093.873.216 1.313.34l-1.621 6.354-1.209-.3 1.524-6.364-.007-.03zm-41.791.737 1.735 6.332c-.393.088-.809.213-1.195.33l-1.849-6.274c.453-.102.862-.257 1.315-.358l-.006-.03zm44.41-.088 1.32.37-1.823 6.305c-.402-.1-.812-.23-1.215-.33l1.725-6.314-.007-.03zm-47.034.834 1.94 6.255c-.386.118-.802.242-1.181.39l-2.03-6.234c.445-.131.855-.286 1.301-.418l-.03.007zm49.644-.086c.44.123.886.277 1.296.407l-2.031 6.224c-.41-.13-.789-.267-1.192-.367l1.927-6.264zm-52.24.953 2.12 6.214c-.386.118-.795.273-1.174.421l-2.265-6.15c.44-.162.849-.317 1.295-.448l.023-.037zm54.839-.109c.447.154.863.314 1.303.437l-2.232 6.175c-.38-.137-.79-.267-1.176-.434l2.129-6.215-.024.037zm-57.393 1.03 2.356 6.129c-.379.148-.788.303-1.167.452l-2.44-6.08c.44-.161.842-.347 1.282-.509l-.03.007zm59.976-.119c.416.16.863.314 1.286.505l-2.441 6.094c-.386-.167-.765-.304-1.182-.464l2.337-6.135zm-62.508 1.13 2.553 6.021c-.379.149-.781.334-1.153.512l-2.645-6.001c.403-.186.812-.34 1.245-.533zm65.05-.114c.417.16.84.351 1.263.542l-2.619 6.007-1.158-.501 2.544-6.055-.03.007zM49.417 8l2.728 5.951-1.117.536-2.843-5.894c.403-.185.836-.377 1.231-.593zm70.028-.118c.423.19.816.387 1.239.578l-2.827 5.927c-.386-.167-.749-.37-1.135-.538l2.723-5.967zM46.948 9.154l2.933 5.874c-.373.178-.738.387-1.11.566L45.754 9.77c.396-.215.798-.4 1.194-.616zm74.946-.11c.393.197.816.388 1.216.615l-3.005 5.84c-.363-.203-.749-.37-1.142-.568l2.938-5.857-.007-.03zm-77.364 1.35 3.13 5.765c-.365.21-.737.388-1.103.596l-3.215-5.715 1.188-.647zm79.796-.12c.4.228.793.426 1.192.653l-3.189 5.723c-.363-.204-.726-.408-1.119-.605l3.116-5.77zm-82.164 1.442 3.299 5.665c-.366.209-.732.418-1.06.65l-3.383-5.615c.39-.245.785-.46 1.174-.707l-.03.007zm84.526-.1c.399.228.799.455 1.169.69l-3.375 5.606c-.363-.205-.732-.439-1.095-.643l3.294-5.683.007.03zM39.815 13.13l3.496 5.557c-.366.209-.694.44-1.053.68l-3.58-5.507c.389-.246.778-.492 1.137-.73zm89.188-.099 1.145.727-3.559 5.489c-.339-.241-.702-.445-1.072-.68l3.479-5.566.007.03zm-91.485 1.596 3.657 5.426c-.359.239-.687.47-1.046.71l-3.741-5.376c.382-.276.74-.515 1.13-.76zm93.753-.106c.376.264.746.498 1.122.763l-3.744 5.372c-.34-.241-.679-.482-1.049-.716l3.664-5.45.007.03zm-96.006 1.656 3.855 5.319c-.329.232-.68.501-1.01.733l-3.932-5.238c.352-.268.735-.544 1.087-.814zm98.257-.1c.376.264.723.536 1.099.8l-3.899 5.248c-.339-.24-.685-.512-1.025-.753l3.818-5.325.007.03zm-100.43 1.728 4.016 5.188c-.322.262-.65.494-.972.756l-4.093-5.106c.352-.27.697-.569 1.08-.844l-.03.006zm102.598-.121c.346.271.729.566 1.075.837l-4.084 5.13a22.092 22.092 0 0 0-.994-.759l4.003-5.208zm2.127 1.71c.353.302.699.574 1.052.875l-4.238 5.007c-.316-.278-.662-.55-.971-.797l4.164-5.054-.007-.03zm2.074 1.756c.353.301.675.61 1.028.91l-4.399 4.853-.948-.833 4.319-4.93zm2.027 1.828c.322.308.645.616.975.955l-4.554 4.729a21.148 21.148 0 0 0-.925-.871l4.48-4.776.024-.037zm1.95 1.91c.322.307.652.646.944.96l-4.685 4.569a20.41 20.41 0 0 0-.901-.908l4.635-4.652.007.03zm1.896 1.952c.329.339.622.654.921.999l-4.847 4.414c-.292-.315-.548-.607-.84-.922l4.766-4.49zm1.849 2.027.898 1.035-4.978 4.254c-.262-.322-.555-.637-.817-.958l4.927-4.338-.03.007zm1.766 2.078c.299.345.568.697.867 1.042l-5.109 4.092-.787-.965 5.059-4.176-.03.007zm1.711 2.12c.27.352.539.704.815 1.086l-5.241 3.932c-.262-.322-.501-.68-.763-1.002l5.189-4.016zm1.629 2.172c.269.352.514.74.783 1.093l-5.378 3.74a19.113 19.113 0 0 0-.74-1.039l5.328-3.824.007.03zm1.544 2.222c.245.389.514.74.76 1.13l-5.509 3.58c-.239-.36-.471-.688-.68-1.053l5.429-3.657zm1.49 2.266c.246.389.492.777.707 1.173l-5.617 3.382c-.209-.366-.441-.694-.649-1.06l5.559-3.495zm1.407 2.316c.215.396.461.784.677 1.18l-5.718 3.214-.626-1.096 5.667-3.298zm1.323 2.367.646 1.186-5.819 3.047c-.208-.365-.387-.737-.595-1.103l5.768-3.13zm1.269 2.41c.216.396.401.798.593 1.23l-5.896 2.843-.536-1.117 5.876-2.933-.037-.023zm1.179 2.43c.185.403.377.836.562 1.238l-6.004 2.644c-.178-.372-.327-.75-.512-1.153l5.954-2.728zm1.095 2.482c.185.402.347.841.532 1.244l-6.082 2.44c-.148-.38-.303-.788-.481-1.16l6.024-2.554.007.03zM5.794 54.512l6.136 2.334c-.137.38-.304.766-.434 1.176L5.319 55.79c.154-.447.315-.863.475-1.28zm157.243-.25c.161.439.317.848.478 1.287l-6.152 2.266c-.148-.38-.303-.788-.452-1.167l6.132-2.356-.006-.03zM4.852 57.1l6.186 2.134c-.137.379-.268.788-.398 1.198l-6.226-2.03c.154-.446.284-.855.438-1.302zm159.112-.257c.155.41.286.856.442 1.265l-6.23 2.06c-.125-.415-.274-.794-.398-1.21l6.209-2.151-.023.036zM4.006 59.7l6.274 1.955c-.13.41-.237.782-.368 1.192l-6.306-1.821c.123-.44.247-.88.4-1.326zm160.818-.29c.131.446.256.862.388 1.308l-6.277 1.85c-.095-.423-.243-.802-.368-1.218l6.257-1.94zM3.259 62.307l6.316 1.724c-.1.403-.2.806-.33 1.215l-6.357-1.62c.124-.44.217-.872.34-1.312l.03-.007zm162.341-.282c.101.453.226.869.358 1.315l-6.362 1.615c-.088-.393-.182-.815-.331-1.194l6.335-1.736zM2.585 64.963l6.366 1.522c-.1.403-.2.806-.27 1.202l-6.4-1.388c.094-.433.21-.903.304-1.336zm163.7-.302.298 1.328-6.402 1.434-.277-1.237 6.381-1.525zM2.008 67.628l6.417 1.32c-.1.404-.163.83-.233 1.226l-6.457-1.217c.094-.433.18-.896.273-1.33zm164.872-.31c.102.453.197.875.268 1.335l-6.45 1.222c-.094-.422-.182-.815-.247-1.244l6.423-1.344.006.03zM1.5 70.31l6.459 1.09c-.063.425-.133.822-.196 1.248l-6.47-.992c.056-.457.15-.89.206-1.346zm165.885-.316c.101.453.135.89.207 1.349l-6.467 1.004c-.094-.422-.122-.828-.21-1.22l6.47-1.133zM1.087 73.002l6.51.888c-.063.426-.103.815-.166 1.241l-6.52-.79c.057-.457.113-.913.176-1.34zm166.712-.31c.071.459.135.888.176 1.355l-6.514.793c-.057-.4-.092-.835-.149-1.235l6.487-.913zM.773 75.703l6.522.663c-.032.42-.065.84-.128 1.266l-6.533-.566c.026-.45.082-.906.139-1.363zm167.379-.3c.041.465.105.895.146 1.361l-6.531.575c-.027-.406-.091-.835-.119-1.241l6.504-.696zM.555 78.414l6.543.468c-.033.42-.066.84-.068 1.252l-6.553-.371.078-1.349zm167.853-.312c.034.436.075.902.079 1.345l-6.541.387c-.027-.406-.062-.842-.089-1.248l6.551-.484zM.405 81.143l6.556.244c-.003.412-.036.832-.032 1.275l-6.565-.146c.026-.45.022-.893.048-1.343l-.007-.03zm168.168-.32c.005.444.045.91.05 1.353l-6.559.17c.003-.414-.032-.85-.029-1.263l6.538-.26zM.346 83.852l6.538.026c-.002.412-.005.825-.001 1.268l.04.181-6.608.086-.04-.182c.025-.45.045-.93.04-1.372l.03-.007zm168.295-.316.021.09c-.033.42-.006.826-.002 1.269l-6.538-.026c.009-.382-.011-.758-.009-1.17l6.559-.17-.031.007zM6.922 86.595c-.002.412.025.818.06 1.254l-6.562.297c-.004-.443-.045-.91-.05-1.352l6.559-.17-.007-.03zm155.131-.475 6.566.146c-.026.45-.015.923-.041 1.373l-6.556-.244c.002-.413.035-.832.038-1.245l-.007-.03zM7.04 89.104c.028.406.062.842.09 1.248l-6.545.515A20.72 20.72 0 0 1 .5 89.491l6.541-.387zm154.937-.494 6.546.34-.079 1.35-6.536-.438c.033-.42.066-.84.069-1.252zM7.249 91.594c.028.406.092.835.12 1.241l-6.504.696c-.041-.467-.106-.896-.147-1.362l6.524-.605.007.03zm154.56-.474 6.533.566c-.026.45-.082.906-.139 1.362l-6.522-.663c.032-.42.065-.839.128-1.265zM7.525 94.1c.064.43.122.828.156 1.264l-6.486.914c-.072-.46-.136-.889-.177-1.355l6.507-.823zm154.05-.486 6.513.76-.169 1.37-6.51-.889c.063-.426.103-.815.166-1.241zM7.885 96.555c.094.423.122.829.216 1.251l-6.47 1.133c-.1-.453-.135-.89-.236-1.342l6.46-1.035.03-.007zm153.358-.458 6.5.986c-.056.456-.149.889-.206 1.345l-6.46-1.089c.07-.396.133-.822.197-1.248l-.031.006zM8.318 99.057l.277 1.238-6.422 1.344a20.08 20.08 0 0 1-.267-1.335l6.45-1.223-.038-.023zm152.503-.456 6.45 1.187c-.087.463-.18.896-.273 1.329l-6.41-1.29c.07-.397.163-.83.233-1.226zM8.805 101.516l.278 1.238-6.375 1.555-.298-1.329 6.402-1.433-.006-.031zm151.513-.488 6.4 1.388c-.093.433-.21.903-.303 1.336l-6.367-1.522c.1-.403.2-.806.263-1.232l.007.03zm-150.905 2.92c.088.393.183.815.331 1.194l-6.327 1.766c-.102-.453-.227-.869-.358-1.315l6.354-1.645zm150.342-.48 6.349 1.59c-.123.44-.216.873-.34 1.313l-6.316-1.724c.1-.403.2-.806.33-1.215l-.023.036zm-149.673 2.898c.095.423.243.802.368 1.218l-6.257 1.94c-.132-.446-.257-.862-.388-1.308l6.277-1.85zm149.012-.467 6.306 1.821c-.123.44-.247.88-.377 1.289l-6.266-1.925c.13-.409.23-.812.367-1.192l-.03.007zm-148.253 2.865c.118.386.273.795.391 1.181l-6.21 2.151c-.161-.439-.286-.855-.448-1.294l6.237-2.031.03-.007zm147.525-.451 6.226 2.029c-.153.447-.284.856-.437 1.303l-6.217-2.127c.137-.379.267-.789.398-1.198l.03-.007zM11.66 111.148c.149.379.304.788.452 1.167l-6.132 2.356c-.162-.439-.317-.848-.479-1.287l6.16-2.236zm145.881-.431 6.176 2.231c-.161.416-.314.862-.475 1.279l-6.136-2.335c.137-.379.298-.796.435-1.175zm-144.977 2.765c.148.379.333.782.482 1.16l-6.025 2.554c-.185-.402-.347-.841-.532-1.244l6.075-2.47zm144.108-.415 6.089 2.409c-.16.416-.351.839-.512 1.256l-6.049-2.513c.167-.386.335-.772.472-1.152zm-143.114 2.729c.178.372.326.751.512 1.153l-5.947 2.759c-.186-.403-.378-.835-.563-1.238l5.997-2.674zm142.141-.419 6.009 2.617c-.191.423-.382.847-.542 1.263l-5.969-2.721c.167-.386.334-.772.508-1.128l-.006-.031zm-141.094 2.689c.179.372.357.744.566 1.109l-5.84 2.957c-.215-.396-.4-.798-.592-1.231l5.896-2.842-.03.007zm140.053-.395 5.929 2.825a26.85 26.85 0 0 1-.609 1.246l-5.882-2.899c.198-.393.372-.749.539-1.135l.023-.037zm-138.922 2.614c.179.372.387.737.596 1.103l-5.768 3.131-.647-1.187 5.82-3.047zm137.808-.367 5.812 3.01c-.198.392-.425.792-.646 1.222l-5.772-3.114c.205-.363.402-.755.576-1.111l.03-.007zm-136.616 2.573.626 1.096-5.667 3.298c-.216-.395-.461-.784-.677-1.18l5.718-3.214zm135.405-.336 5.724 3.187-.683 1.2-5.654-3.299.613-1.088zM18.18 124.683c.209.366.441.694.65 1.059l-5.53 3.49c-.245-.389-.491-.778-.707-1.174l5.61-3.412-.023.037zm132.897-.345 5.608 3.372c-.228.4-.462.77-.72 1.176l-5.567-3.477c.204-.362.445-.702.649-1.064l.03-.007zm-131.537 2.45c.239.359.44.694.68 1.052l-5.422 3.687c-.246-.388-.515-.74-.76-1.129l5.508-3.58-.006-.03zm130.208-.314 5.49 3.558c-.234.369-.499.745-.756 1.152l-5.444-3.631a24.5 24.5 0 0 0 .687-1.042l.023-.037zm-128.819 2.412c.232.329.471.687.734 1.009l-5.321 3.854c-.276-.382-.545-.733-.79-1.122l5.377-3.741zm127.416-.322 5.403 3.735-.793 1.129-5.327-3.816.724-1.018-.007-.03zm-125.95 2.34c.263.321.502.68.764 1.002l-5.19 4.015c-.268-.352-.544-.734-.813-1.086l5.24-3.931zm124.473-.297 5.249 3.896c-.264.376-.536.723-.807 1.069l-5.202-3.971c.241-.339.512-.685.76-.994zm-122.945 2.3.787.965-5.059 4.177c-.299-.345-.568-.697-.874-1.072l5.109-4.093.037.023zm121.401-.274 5.132 4.081c-.272.346-.573.699-.844 1.045l-5.086-4.155c.279-.316.52-.656.798-.971zm-119.82 2.235c.262.321.554.636.817.958l-4.928 4.337-.897-1.035 4.977-4.254.03-.006zm118.225-.293 5.008 4.236c-.301.353-.579.669-.881 1.021l-4.931-4.316.834-.948-.03.007zM27.192 136.74c.292.315.585.63.87.915l-4.766 4.491c-.299-.345-.622-.653-.92-.998l4.846-4.414-.03.006zm114.899-.277 4.854 4.398c-.302.353-.61.675-.919.998l-4.776-4.478c.278-.316.563-.602.841-.918zm-113.165 2.076c.293.315.579.6.865.885l-4.635 4.652a22.911 22.911 0 0 1-.945-.962l4.685-4.568.03-.007zm111.446-.264 4.73 4.552c-.309.323-.647.652-.955.975l-4.653-4.633c.285-.286.593-.608.878-.894zm-109.687 2.026c.286.285.608.593.924.871l-4.473 4.806-.968-.924 4.554-4.729-.037-.024zm107.9-.231 4.576 4.713c-.308.323-.653.622-.962.945l-4.492-4.764c.315-.292.6-.578.915-.871l-.037-.023zm-106.051 1.973.947.834-4.318 4.93c-.353-.302-.676-.61-1.029-.911l4.4-4.853zm104.252-.238 4.415 4.844c-.346.299-.661.592-1.006.891l-4.338-4.925c.315-.293.637-.555.922-.841l.007.031zm-102.357 1.906c.316.278.626.525.972.797l-4.158 5.084c-.353-.302-.699-.573-1.052-.874l4.238-5.007zm100.483-.219 4.254 4.976c-.345.299-.69.598-1.042.867l-4.177-5.056c.321-.262.643-.525.958-.817l.007.03zm-98.503 1.836c.316.278.655.519.995.76l-3.973 5.201c-.346-.271-.73-.566-1.075-.837l4.083-5.131-.03.007zm96.579-.232 4.093 5.107c-.352.269-.697.568-1.08.844l-4.015-5.187c.321-.263.643-.525.995-.794l.007.03zm-94.59 1.752 1.019.723-3.818 5.325c-.377-.265-.753-.529-1.1-.8l3.93-5.255-.03.007zm92.585-.225 3.932 5.238c-.352.269-.734.545-1.086.814l-3.848-5.289c.358-.238.68-.501 1.009-.733l-.007-.03zm-90.578 1.678c.34.241.678.482 1.048.716l-3.633 5.442c-.377-.264-.746-.499-1.123-.763l3.738-5.402-.03.007zm88.53-.205 3.741 5.376c-.383.276-.741.515-1.13.76l-3.658-5.426c.359-.239.688-.471 1.047-.71zm-86.44 1.607c.34.241.702.445 1.072.679l-3.48 5.566c-.399-.227-.775-.492-1.145-.726l3.56-5.489-.007-.03zm84.341-.217 3.573 5.476c-.389.246-.778.492-1.137.73l-3.496-5.557c.365-.208.694-.441 1.053-.679l.007.03zm-82.235 1.552c.363.204.733.438 1.096.642l-3.294 5.684c-.4-.228-.77-.462-1.17-.69l3.368-5.636zm80.099-.186 3.412 5.607c-.389.246-.785.462-1.174.707l-3.298-5.665a13.12 13.12 0 0 0 1.06-.649zm-77.908 1.471c.363.204.726.408 1.119.605l-3.086 5.763c-.4-.227-.793-.424-1.193-.652l3.19-5.723-.03.007zm75.751-.196 3.215 5.716-1.187.646-3.131-5.766c.365-.209.738-.387 1.103-.596zm-73.55 1.383c.362.204.748.371 1.111.575l-2.9 5.881c-.394-.197-.824-.418-1.217-.615l3.005-5.841zm71.343-.191 3.017 5.823c-.396.216-.798.401-1.194.616l-2.956-5.837c.372-.178.738-.387 1.11-.565l.023-.037zm-69.096 1.305c.386.167.749.371 1.135.538l-2.693 5.961c-.423-.191-.816-.388-1.239-.579l2.797-5.92zm66.846-.167 2.842 5.894c-.402.185-.805.37-1.231.593l-2.758-5.945c.372-.178.745-.357 1.147-.542zm-64.545 1.236 1.159.502-2.515 6.047c-.423-.19-.84-.351-1.263-.541l2.619-6.008zm62.274-.189 2.645 6.002a20.79 20.79 0 0 1-1.245.533l-2.554-6.023c.379-.148.782-.333 1.154-.512zm-59.963 1.162c.386.167.765.304 1.182.464l-2.306 6.128c-.417-.16-.864-.314-1.287-.505l2.41-6.087zm57.649-.168 2.47 6.073c-.409.155-.842.347-1.282.509l-2.356-6.13c.379-.148.789-.303 1.168-.452zm-55.292 1.066c.38.137.79.267 1.206.428l-2.128 6.214c-.447-.153-.864-.314-1.303-.437l2.232-6.175-.007-.03zm52.957-.162 2.265 6.15c-.439.162-.848.317-1.295.448l-2.151-6.207a16.95 16.95 0 0 0 1.174-.421l.007.03zm-50.559.957c.41.13.82.26 1.192.367l-1.926 6.264c-.44-.123-.887-.277-1.297-.407l1.994-6.248.037.024zm48.204-.145 2.061 6.228c-.44.162-.856.287-1.302.418l-1.94-6.254c.386-.118.802-.243 1.181-.392zm-45.79.872c.404.1.813.23 1.216.33l-1.718 6.345-1.32-.37 1.823-6.305zm43.384-.143 1.85 6.275c-.453.102-.862.257-1.315.358l-1.766-6.325c.423-.095.809-.213 1.225-.338l.006.03zm-40.959.773c.403.1.806.2 1.24.293l-1.488 6.388c-.433-.093-.873-.216-1.306-.31l1.591-6.348-.037-.023zm38.54-.104 1.645 6.352c-.453.102-.876.197-1.322.328l-1.524-6.379 1.238-.278-.037-.023zm-36.092.697c.403.1.8.17 1.232.263l-1.285 6.438c-.463-.087-.897-.18-1.33-.273l1.39-6.398-.007-.03zm33.653-.119 1.433 6.4-1.328.297-1.343-6.42 1.238-.277zm-31.195.615c.396.069.822.132 1.225.232l-1.09 6.458c-.464-.086-.89-.149-1.353-.236l1.188-6.448.03-.006zm28.712-.091 1.222 6.448c-.453.101-.883.166-1.342.237l-1.132-6.468c.393-.088.823-.152 1.222-.21l.03-.007zm-26.238.519c.427.063.823.133 1.243.166l-.86 6.501a15.414 15.414 0 0 1-1.346-.206l.993-6.468-.03.007zm23.772-.061 1.034 6.457c-.453.102-.89.136-1.35.207l-.912-6.484c.399-.058.828-.123 1.228-.18zm-21.287.392c.426.063.846.096 1.265.129l-.664 6.521c-.457-.056-.906-.082-1.363-.139l.762-6.511zm18.793-.056.823 6.505c-.46.071-.896.106-1.363.147l-.695-6.502c.406-.027.836-.092 1.235-.15zm-16.292.321 1.259.098-.47 6.541c-.45-.026-.9-.052-1.356-.109l.567-6.53zm13.816-.051.604 6.522c-.466.041-.903.075-1.37.116l-.483-6.549c.406-.027.842-.062 1.248-.089zm-11.305.217c.42.033.832.036 1.252.069l-.245 6.553c-.45-.026-.9-.052-1.343-.048l.343-6.544-.007-.03zm8.777-.032.387 6.539c-.437.035-.91.046-1.346.08l-.296-6.56c.406-.027.85-.031 1.255-.059zm-6.286.108c.412.003.825.006 1.268.002l-.026 6.536c-.443.004-.893-.022-1.366-.011l.117-6.557.007.03zm3.769-.019.168 6.556c-.443.004-.916.015-1.36.019l-.07-6.546c.413.002.856-.002 1.262-.029z" fill="#fff"/></svg>