<svg width="169" height="169" viewBox="0 0 169 169" fill="none" xmlns="http://www.w3.org/2000/svg">
<path d="M83.6919 0.322603L83.7628 6.86902C83.3499 6.86638 82.937 6.86371 82.5007 6.89802L82.3326 0.341751C82.7756 0.337624 83.2489 0.326729 83.6919 0.322603ZM85.0581 0.33365C85.5012 0.329524 85.9812 0.348846 86.4243 0.34472L86.2769 6.90829C85.864 6.90565 85.4512 6.90301 85.0383 6.90037L85.0649 0.363775L85.0581 0.33365ZM80.9799 0.391025L81.2454 6.95731C80.8393 6.98486 80.3963 6.98896 79.9902 7.01651L79.6341 0.470606C80.0704 0.436293 80.5436 0.425338 80.9799 0.391025ZM87.7972 0.385914C88.247 0.411975 88.6968 0.438013 89.1467 0.464074L88.8046 7.00788C88.3849 6.97505 87.972 6.97238 87.5524 6.93955L87.7972 0.385914ZM78.2882 0.550116L78.7718 7.09918C78.3657 7.12673 77.9294 7.16105 77.5233 7.1886L76.9491 0.659824C77.3854 0.62551 77.8519 0.58443 78.2882 0.550116ZM90.5263 0.535484C90.9761 0.561545 91.426 0.587612 91.8826 0.643861L91.3156 7.17467C90.8959 7.14185 90.4763 7.10896 90.0566 7.07613L90.5263 0.535484ZM75.5865 0.806425L76.2816 7.30814C75.8755 7.33569 75.446 7.40016 75.0466 7.4579L74.2542 0.94635C74.7139 0.875085 75.1502 0.840733 75.6167 0.799656L75.5865 0.806425ZM93.2456 0.782476C93.7021 0.838725 94.152 0.864729 94.6086 0.920978L93.8468 7.43194C93.4204 7.36892 93.0009 7.33607 92.5812 7.30325L93.2456 0.782476ZM72.8749 1.16016L73.7882 7.64465C73.3586 7.70915 72.9593 7.76689 72.5297 7.83139L71.526 1.36717C71.979 1.26572 72.4152 1.23142 72.8749 1.16016ZM95.9549 1.12668C96.4115 1.18293 96.8378 1.24597 97.3012 1.33241L96.3078 7.80014C95.8814 7.73713 95.4852 7.66731 95.0656 7.63448L95.9549 1.12668ZM70.1837 1.60442L71.3151 8.0718C70.8923 8.16649 70.4929 8.22417 70.0634 8.28867L68.8415 1.84159C69.2944 1.74013 69.724 1.67569 70.1837 1.60442ZM98.6475 1.53812C99.1108 1.62455 99.5372 1.68751 100.001 1.77395L98.7823 8.22868C98.3861 8.15891 97.9597 8.09588 97.5568 7.99592L98.6475 1.53812ZM67.506 2.10906L68.8185 8.53586C68.3957 8.63054 68.0031 8.71847 67.5803 8.81316L66.147 2.41342C66.6 2.31197 67.0228 2.21728 67.4757 2.11583L67.506 2.10906ZM101.33 2.04686C101.763 2.14006 102.227 2.22646 102.66 2.31966L101.24 8.72434C100.837 8.62438 100.411 8.56141 100.008 8.46145L101.3 2.05361L101.33 2.04686ZM64.8485 2.70424L66.3724 9.0837C65.9798 9.17162 65.557 9.26631 65.1645 9.35423L63.5197 3.00184C63.9727 2.90039 64.3955 2.80567 64.8417 2.67403L64.8485 2.70424ZM103.996 2.62269C104.429 2.71589 104.869 2.83923 105.309 2.96262L103.688 9.3174C103.285 9.21743 102.882 9.11748 102.479 9.01752L104.003 2.65291L103.996 2.62269ZM62.2045 3.35978L63.9398 9.69188C63.5472 9.7798 63.1312 9.90464 62.7454 10.0228L60.896 3.74793C61.349 3.64648 61.7583 3.49145 62.2112 3.38999L62.2045 3.35978ZM106.615 3.27241C107.055 3.39579 107.495 3.51926 107.935 3.64265L106.112 9.94735C105.71 9.84739 105.3 9.71724 104.897 9.61728L106.622 3.30262L106.615 3.27241ZM59.5808 4.10587L61.5208 10.3605C61.135 10.4786 60.7189 10.6034 60.3399 10.7517L58.3093 4.51747C58.7555 4.38583 59.1648 4.23074 59.611 4.0991L59.5808 4.10587ZM109.225 4.01954C109.665 4.14293 110.111 4.2965 110.521 4.42666L108.49 10.6513C108.08 10.5211 107.701 10.3842 107.298 10.2842L109.225 4.01954ZM56.9841 4.97273L59.1053 11.1868C58.7195 11.3049 58.3103 11.4599 57.9312 11.6082L55.6658 5.4582C56.1053 5.29637 56.5145 5.14134 56.9608 5.0097L56.9841 4.97273ZM111.824 4.86399C112.271 5.01756 112.687 5.17784 113.127 5.30122L110.895 11.4759C110.515 11.3389 110.105 11.2088 109.719 11.0417L111.848 4.827L111.824 4.86399ZM54.4312 5.89327L56.7872 12.023C56.4082 12.1713 55.9989 12.3264 55.6198 12.4747L53.1801 6.39542C53.6195 6.2336 54.022 6.04832 54.4615 5.88649L54.4312 5.89327ZM114.407 5.77545C114.823 5.93579 115.27 6.08937 115.693 6.27989L113.252 12.3743C112.866 12.2072 112.487 12.0704 112.07 11.91L114.407 5.77545ZM51.8986 6.90426L54.4525 12.9263C54.0734 13.0746 53.6709 13.2598 53.2986 13.4383L50.6542 7.43664C51.0567 7.25139 51.4659 7.09628 51.8986 6.90426ZM116.949 6.79111C117.366 6.95144 117.789 7.14199 118.212 7.33251L115.593 13.34C115.207 13.1729 114.821 13.0058 114.435 12.8387L116.979 6.78434L116.949 6.79111ZM49.4165 7.99914L52.1448 13.9504C51.7725 14.1289 51.4002 14.3074 51.0279 14.4858L48.1855 8.59188C48.588 8.40663 49.0208 8.21458 49.4165 7.99914ZM119.445 7.88069C119.868 8.07122 120.261 8.26847 120.684 8.459L117.857 14.3864C117.471 14.2193 117.108 14.0152 116.722 13.8481L119.445 7.88069ZM46.9479 9.15438L49.8808 15.0281C49.5085 15.2065 49.1429 15.4153 48.7706 15.5937L45.7539 9.77045C46.1497 9.55501 46.5521 9.36982 46.9479 9.15438ZM121.894 9.04416C122.287 9.24145 122.71 9.43198 123.11 9.65946L120.105 15.4998C119.742 15.2957 119.356 15.1287 118.963 14.9314L121.901 9.07429L121.894 9.04416ZM44.5297 10.3934L47.6605 16.1594C47.295 16.3681 46.9226 16.5465 46.5571 16.7552L43.3425 11.0397C43.7383 10.8243 44.134 10.6088 44.5297 10.3934ZM124.326 10.2747C124.726 10.5022 125.119 10.6995 125.518 10.9269L122.329 16.6503C121.966 16.4462 121.603 16.2421 121.21 16.0448L124.326 10.2747ZM42.1621 11.7162L45.4605 17.3812C45.095 17.5899 44.7294 17.7986 44.4009 18.0307L41.0185 12.4161C41.4075 12.1705 41.8033 11.9551 42.1923 11.7095L42.1621 11.7162ZM126.688 11.6162C127.087 11.8437 127.487 12.0711 127.857 12.3053L124.482 17.9115C124.119 17.7074 123.75 17.4732 123.387 17.2692L126.681 11.586L126.688 11.6162ZM39.8147 13.1296L43.311 18.6869C42.9454 18.8956 42.6169 19.1276 42.2581 19.3665L38.6779 13.8597C39.0669 13.6141 39.4559 13.3685 39.8147 13.1296ZM129.003 13.0315C129.372 13.2657 129.779 13.5234 130.148 13.7576L126.589 19.2467C126.25 19.0057 125.887 18.8016 125.517 18.5673L128.996 13.0013L129.003 13.0315ZM37.5178 14.6268L41.175 20.0529C40.8162 20.2918 40.4876 20.5239 40.1289 20.7627L36.3879 15.3871C36.7701 15.1113 37.1289 14.8724 37.5178 14.6268ZM131.271 14.5207C131.647 14.7852 132.017 15.0194 132.393 15.2838L128.649 20.6557C128.309 20.4147 127.97 20.1738 127.6 19.9395L131.264 14.4905L131.271 14.5207ZM35.2646 16.1775L39.1197 21.496C38.7911 21.7281 38.4391 21.9972 38.1105 22.2293L34.1784 16.9915C34.5304 16.7225 34.9126 16.4466 35.2646 16.1775ZM133.522 16.0771C133.898 16.3415 134.245 16.6128 134.621 16.8772L130.722 22.1252C130.383 21.8842 130.037 21.613 129.697 21.3719L133.515 16.047L133.522 16.0771ZM33.0922 17.8054L37.1081 22.9926C36.7863 23.2549 36.4577 23.4871 36.1359 23.7494L32.0428 18.6428C32.3949 18.3737 32.7401 18.0745 33.1223 17.7986L33.0922 17.8054ZM135.69 17.684C136.036 17.9551 136.419 18.2498 136.765 18.5209L132.681 23.6519C132.372 23.4041 132.026 23.133 131.687 22.892L135.69 17.684ZM137.817 19.3949C138.17 19.6963 138.516 19.9675 138.869 20.2689L134.631 25.2759C134.315 24.9979 133.969 24.7267 133.66 24.479L137.824 19.4251L137.817 19.3949ZM139.891 21.1496C140.244 21.451 140.566 21.7591 140.919 22.0605L136.52 26.9134C136.204 26.6355 135.888 26.3576 135.572 26.0796L139.891 21.1496ZM141.918 22.9782C142.24 23.2863 142.563 23.5945 142.893 23.9328L138.339 28.6618C138.053 28.3771 137.73 28.069 137.414 27.791L141.894 23.0151L141.918 22.9782ZM143.868 24.8874C144.19 25.1955 144.52 25.5338 144.812 25.8488L140.127 30.417C139.835 30.1021 139.549 29.8174 139.226 29.5092L143.861 24.8572L143.868 24.8874ZM145.764 26.8403C146.093 27.1787 146.386 27.4936 146.685 27.8387L141.838 32.2528C141.546 31.9379 141.29 31.6464 140.998 31.3315L145.764 26.8403ZM147.613 28.8671C147.912 29.2122 148.212 29.5574 148.511 29.9025L143.533 34.1558C143.271 33.8341 142.978 33.5192 142.716 33.1976L147.643 28.8604L147.613 28.8671ZM149.379 30.9445C149.678 31.2895 149.947 31.6415 150.246 31.9866L145.137 36.079C144.875 35.7574 144.613 35.4357 144.35 35.1141L149.409 30.9377L149.379 30.9445ZM151.09 33.0655C151.36 33.4174 151.629 33.7692 151.905 34.1513L146.664 38.0829C146.402 37.7613 146.163 37.4026 145.901 37.081L151.09 33.0655ZM152.719 35.237C152.988 35.5889 153.233 35.9777 153.502 36.3296L148.124 40.0702C147.885 39.7116 147.653 39.3831 147.384 39.0313L152.712 35.2069L152.719 35.237ZM154.263 37.4591C154.508 37.8479 154.777 38.1997 155.023 38.5885L149.514 42.1683C149.275 41.8097 149.043 41.4813 148.834 41.1159L154.263 37.4591ZM155.753 39.7247C155.999 40.1135 156.245 40.5024 156.46 40.8979L150.843 44.2799C150.634 43.9145 150.402 43.5862 150.194 43.2208L155.753 39.7247ZM157.16 42.041C157.375 42.4365 157.621 42.8253 157.837 43.2209L152.119 46.4353C151.91 46.07 151.701 45.7045 151.493 45.3391L157.16 42.041ZM158.483 44.4076C158.698 44.8032 158.914 45.1987 159.129 45.5943L153.31 48.6412C153.102 48.2758 152.923 47.9036 152.715 47.5382L158.483 44.4076ZM159.752 46.818C159.968 47.2136 160.153 47.6159 160.345 48.0484L154.449 50.8907C154.27 50.5186 154.092 50.1464 153.913 49.7742L159.789 46.8414L159.752 46.818ZM160.931 49.2486C161.116 49.6509 161.308 50.0835 161.493 50.4859L155.489 53.1304C155.311 52.7582 155.162 52.3792 154.977 51.9769L160.931 49.2486ZM162.026 51.7298C162.211 52.1321 162.373 52.5714 162.558 52.9737L156.476 55.4137C156.328 55.0347 156.173 54.6257 155.995 54.2535L162.019 51.6996L162.026 51.7298ZM5.79402 54.5115L11.9302 56.8463C11.7932 57.2257 11.6259 57.6119 11.4957 58.0215L5.31944 55.7907C5.47313 55.3441 5.63356 54.9278 5.79402 54.5115ZM163.037 54.2614C163.198 54.7007 163.354 55.1098 163.515 55.5491L157.363 57.8147C157.215 57.4358 157.06 57.0267 156.911 56.6478L163.043 54.2916L163.037 54.2614ZM4.85152 57.1002L11.0378 59.2336C10.9008 59.613 10.7705 60.0225 10.6402 60.4321L4.41393 58.4029C4.56763 57.9563 4.69782 57.5467 4.85152 57.1002ZM163.964 56.8435C164.119 57.2526 164.25 57.6986 164.406 58.1077L158.176 60.1688C158.051 59.7529 157.902 59.3741 157.778 58.9582L163.987 56.8066L163.964 56.8435ZM4.00648 59.6988L10.2797 61.6542C10.1494 62.0638 10.0426 62.4365 9.91232 62.846L3.60578 61.0249C3.72928 60.5851 3.85278 60.1453 4.00648 59.6988ZM164.824 59.409C164.955 59.855 165.08 60.2709 165.212 60.7169L158.935 62.5667C158.84 62.1441 158.692 61.7651 158.567 61.3493L164.824 59.409ZM3.25869 62.3073L9.57515 64.031C9.47509 64.4339 9.37504 64.8368 9.24478 65.2464L2.88823 63.6267C3.01173 63.1869 3.10497 62.7538 3.22847 62.314L3.25869 62.3073ZM165.6 62.0249C165.701 62.4777 165.826 62.8936 165.958 63.3396L159.596 64.9546C159.508 64.5622 159.414 64.1396 159.265 63.7607L165.6 62.0249ZM2.58489 64.9627L8.95138 66.485C8.85132 66.8878 8.75132 67.2907 8.68146 67.6868L2.28154 66.2986C2.37483 65.8656 2.49159 65.3957 2.58489 64.9627ZM166.285 64.6611C166.387 65.1139 166.482 65.5366 166.583 65.9894L160.181 67.4232C160.093 67.0308 159.998 66.6082 159.904 66.1855L166.285 64.6611ZM2.00842 67.6279L8.42495 68.9488C8.32489 69.3516 8.26179 69.778 8.19193 70.1741L1.73531 68.9571C1.8286 68.5241 1.91512 68.0609 2.00842 67.6279ZM166.88 67.3176C166.982 67.7705 167.077 68.1931 167.148 68.6527L160.698 69.8752C160.604 69.4526 160.516 69.0601 160.451 68.6307L166.874 67.2874L166.88 67.3176ZM1.49909 70.3098L7.95889 71.3992C7.89579 71.8254 7.82595 72.2215 7.76285 72.6478L1.2931 71.6557C1.34944 71.1992 1.44275 70.7662 1.49909 70.3098ZM167.385 69.9944C167.486 70.4472 167.52 70.8833 167.592 71.3429L161.125 72.3474C161.031 71.9248 161.003 71.5189 160.915 71.1264L167.385 69.9944ZM1.08712 73.0016L7.59702 73.8895C7.53392 74.3158 7.49421 74.7051 7.43111 75.1313L0.911367 74.3408C0.967706 73.8843 1.02402 73.4279 1.08712 73.0016ZM167.799 72.6915C167.87 73.151 167.934 73.5804 167.975 74.0468L161.461 74.8399C161.404 74.4407 161.369 74.0046 161.312 73.6054L167.799 72.6915ZM0.772508 75.7034L7.29544 76.3664C7.26254 76.7859 7.22964 77.2054 7.16653 77.6317L0.633731 77.0659C0.659871 76.6162 0.716168 76.1598 0.772508 75.7034ZM168.152 75.4021C168.193 75.8684 168.257 76.2978 168.298 76.7642L161.767 77.3392C161.74 76.9333 161.676 76.5039 161.648 76.0979L168.152 75.4021ZM0.555321 78.415L7.09806 78.8834C7.06516 79.3028 7.03222 79.7224 7.02952 80.1351L0.476904 79.7639C0.503045 79.3143 0.52918 78.8646 0.555321 78.415ZM168.408 78.1028C168.442 78.5389 168.483 79.0053 168.487 79.4482L161.946 79.8354C161.919 79.4294 161.884 78.9933 161.857 78.5873L168.408 78.1028ZM0.405163 81.1432L6.96104 81.3868C6.95834 81.7995 6.92541 82.219 6.92947 82.6619L0.363759 82.5157C0.3899 82.066 0.38579 81.623 0.411931 81.1734L0.405163 81.1432ZM168.573 80.8238C168.578 81.2667 168.618 81.7331 168.623 82.176L162.064 82.3451C162.067 81.9324 162.032 81.4963 162.035 81.0835L168.573 80.8238ZM0.345702 83.8511L6.88439 83.8767C6.88168 84.2894 6.87899 84.7021 6.88305 85.145L6.92362 85.3261L0.314638 85.4115L0.274053 85.2303C0.300194 84.7807 0.319626 84.3008 0.315568 83.8579L0.345702 83.8511ZM168.641 83.5349L168.662 83.6255C168.629 84.045 168.656 84.4509 168.66 84.8938L162.122 84.8683C162.131 84.4858 162.111 84.11 162.113 83.6973L168.672 83.5282L168.641 83.5349ZM6.92229 86.5946C6.91959 87.0073 6.94706 87.4133 6.98132 87.8494L0.41965 88.1461C0.415592 87.7032 0.374617 87.2367 0.370559 86.7938L6.92904 86.6247L6.92229 86.5946ZM162.053 86.12L168.619 86.2663C168.593 86.7159 168.604 87.1891 168.578 87.6388L162.022 87.3952C162.024 86.9824 162.057 86.5629 162.06 86.1502L162.053 86.12ZM7.04042 89.1042C7.06792 89.5102 7.10209 89.9464 7.12958 90.3523L0.585126 90.867C0.544108 90.4007 0.509778 89.9646 0.498959 89.4915L7.04042 89.1042ZM161.977 88.6099L168.523 88.9509C168.496 89.4006 168.47 89.8502 168.444 90.2999L161.908 89.8616C161.941 89.4421 161.974 89.0227 161.977 88.6099ZM7.24906 91.5936C7.27656 91.9996 7.34108 92.429 7.36857 92.835L0.864555 93.5308C0.823537 93.0644 0.759045 92.635 0.718027 92.1687L7.24231 91.5635L7.24906 91.5936ZM161.809 91.1201L168.342 91.6859C168.316 92.1355 168.26 92.592 168.203 93.0485L161.681 92.3853C161.713 91.9658 161.746 91.5464 161.809 91.1201ZM7.52495 94.0998C7.58941 94.5291 7.64705 94.9283 7.68131 95.3644L1.19451 96.2784C1.12329 95.8188 1.05878 95.3894 1.01776 94.9231L7.52495 94.0998ZM161.575 93.6136L168.088 94.3741C168.032 94.8305 167.975 95.2869 167.919 95.7434L161.409 94.8554C161.472 94.4292 161.512 94.0399 161.575 93.6136ZM7.88464 96.5553C7.97929 96.9779 8.00672 97.3839 8.10138 97.8065L1.63168 98.9385C1.53026 98.4857 1.49606 98.0495 1.39464 97.5967L7.85441 96.5621L7.88464 96.5553ZM161.243 96.0973L167.743 97.0825C167.687 97.539 167.594 97.972 167.537 98.4284L161.077 97.3391C161.147 96.943 161.21 96.5168 161.274 96.0905L161.243 96.0973ZM8.31822 99.0578C8.41287 99.4804 8.50077 99.8728 8.59542 100.295L2.17304 101.639C2.07163 101.186 1.977 100.763 1.90578 100.304L8.35519 99.0811L8.31822 99.0578ZM160.821 98.6012L167.271 99.7879C167.184 100.251 167.091 100.684 166.998 101.117L160.588 99.8264C160.658 99.4303 160.751 98.9973 160.821 98.6012ZM8.8055 101.516C8.90015 101.939 8.98805 102.332 9.0827 102.754L2.70763 104.309C2.60622 103.856 2.51156 103.433 2.41015 102.98L8.81225 101.547L8.8055 101.516ZM160.318 101.028L166.718 102.416C166.625 102.849 166.508 103.319 166.415 103.752L160.048 102.23C160.148 101.827 160.248 101.424 160.311 100.998L160.318 101.028ZM9.4135 103.948C9.50139 104.341 9.596 104.763 9.7443 105.142L3.41659 106.908C3.31518 106.455 3.19035 106.039 3.05873 105.593L9.4135 103.948ZM159.755 103.468L166.104 105.058C165.981 105.498 165.888 105.931 165.764 106.371L159.448 104.647C159.548 104.244 159.648 103.841 159.778 103.432L159.755 103.468ZM10.082 106.366C10.1766 106.789 10.3249 107.168 10.4498 107.584L4.19272 109.524C4.06111 109.078 3.93625 108.662 3.80464 108.216L10.082 106.366ZM159.094 105.899L165.4 107.72C165.277 108.16 165.153 108.6 165.023 109.009L158.757 107.084C158.887 106.675 158.987 106.272 159.124 105.892L159.094 105.899ZM10.841 108.764C10.9591 109.15 11.1141 109.559 11.2322 109.945L5.02258 112.096C4.86077 111.657 4.73586 111.241 4.57405 110.802L10.8108 108.771L10.841 108.764ZM158.366 108.313L164.592 110.342C164.439 110.789 164.308 111.198 164.155 111.645L157.938 109.518C158.075 109.139 158.205 108.729 158.336 108.32L158.366 108.313ZM11.6604 111.148C11.8087 111.527 11.9638 111.936 12.112 112.315L5.9799 114.671C5.81809 114.232 5.66304 113.823 5.50123 113.384L11.6604 111.148ZM157.541 110.717L163.717 112.948C163.556 113.364 163.403 113.81 163.242 114.227L157.106 111.892C157.243 111.513 157.404 111.096 157.541 110.717ZM12.5637 113.482C12.712 113.861 12.8972 114.264 13.0455 114.642L7.02109 117.196C6.83584 116.794 6.67404 116.355 6.48879 115.952L12.5637 113.482ZM156.672 113.067L162.761 115.476C162.601 115.892 162.41 116.315 162.249 116.732L156.2 114.219C156.367 113.833 156.535 113.447 156.672 113.067ZM13.5575 115.796C13.736 116.168 13.8843 116.547 14.0696 116.949L8.12271 119.708C7.93746 119.305 7.74544 118.873 7.56019 118.47L13.5575 115.796ZM155.699 115.377L161.708 117.994C161.517 118.417 161.326 118.841 161.166 119.257L155.197 116.536C155.364 116.15 155.531 115.764 155.705 115.408L155.699 115.377ZM14.6051 118.066C14.7836 118.438 14.962 118.81 15.1706 119.175L9.33155 122.132C9.1161 121.736 8.93081 121.334 8.7388 120.901L14.6352 118.059L14.6051 118.066ZM154.658 117.671L160.587 120.496C160.396 120.919 160.199 121.312 159.978 121.742L154.096 118.843C154.294 118.45 154.468 118.094 154.635 117.708L154.658 117.671ZM15.7363 120.285C15.9148 120.657 16.1235 121.022 16.3322 121.388L10.5638 124.519C10.3484 124.123 10.1329 123.727 9.91749 123.332L15.7363 120.285ZM153.544 119.918L159.356 122.928C159.158 123.32 158.931 123.72 158.71 124.15L152.938 121.036C153.143 120.673 153.34 120.281 153.514 119.925L153.544 119.918ZM16.9281 122.491C17.1368 122.856 17.3454 123.222 17.5541 123.587L11.8867 126.885C11.6713 126.49 11.4256 126.101 11.2102 125.705L16.9281 122.491ZM152.333 122.155L158.057 125.342C157.83 125.742 157.602 126.142 157.374 126.542L151.72 123.243C151.924 122.88 152.128 122.517 152.333 122.155ZM18.1802 124.683C18.3889 125.049 18.621 125.377 18.8297 125.742L13.3002 129.232C13.0546 128.843 12.809 128.454 12.5935 128.058L18.2036 124.646L18.1802 124.683ZM151.077 124.338L156.685 127.71C156.457 128.11 156.223 128.48 155.965 128.886L150.398 125.409C150.602 125.047 150.843 124.707 151.047 124.345L151.077 124.338ZM19.5396 126.788C19.7785 127.147 19.9804 127.482 20.2193 127.84L14.7975 131.527C14.5519 131.139 14.2828 130.787 14.0371 130.398L19.5464 126.818L19.5396 126.788ZM149.748 126.474L155.238 130.032C155.004 130.401 154.739 130.777 154.482 131.184L149.038 127.553C149.279 127.213 149.514 126.844 149.725 126.511L149.748 126.474ZM20.9292 128.886C21.1613 129.215 21.4002 129.573 21.6625 129.895L16.3418 133.749C16.0659 133.367 15.7968 133.016 15.5511 132.627L20.9292 128.886ZM148.345 128.564L153.748 132.299C153.484 132.675 153.219 133.052 152.955 133.428L147.628 129.612C147.869 129.273 148.111 128.933 148.352 128.594L148.345 128.564ZM22.3959 130.904C22.6582 131.225 22.8971 131.584 23.1594 131.906L17.9698 135.921C17.7007 135.569 17.4248 135.187 17.1558 134.835L22.3959 130.904ZM146.868 130.607L152.117 134.503C151.853 134.879 151.581 135.226 151.31 135.572L146.108 131.601C146.349 131.262 146.62 130.916 146.868 130.607ZM23.9229 132.907C24.1852 133.229 24.4475 133.551 24.7099 133.872L19.6514 138.049C19.3522 137.704 19.083 137.352 18.777 136.977L23.8859 132.884L23.9229 132.907ZM145.324 132.633L150.456 136.714C150.184 137.06 149.883 137.413 149.612 137.759L144.526 133.604C144.805 133.288 145.046 132.948 145.324 132.633ZM25.5037 134.868C25.766 135.189 26.0585 135.504 26.3208 135.826L21.3935 140.163C21.0942 139.818 20.7949 139.473 20.4957 139.128L25.4734 134.874L25.5037 134.868ZM143.729 134.575L148.737 138.811C148.436 139.164 148.158 139.48 147.856 139.832L142.925 135.516C143.203 135.2 143.481 134.884 143.759 134.568L143.729 134.575ZM27.1916 136.74C27.4842 137.055 27.7766 137.37 28.0624 137.655L23.2964 142.146C22.9971 141.801 22.6744 141.493 22.3751 141.148L27.2219 136.734L27.1916 136.74ZM142.091 136.463L146.945 140.861C146.643 141.214 146.335 141.536 146.026 141.859L141.25 137.381C141.528 137.065 141.813 136.779 142.091 136.463ZM28.9264 138.539C29.219 138.854 29.5048 139.139 29.7905 139.424L25.1557 144.076C24.833 143.768 24.5035 143.429 24.211 143.114L28.8963 138.546L28.9264 138.539ZM140.372 138.275L145.102 142.827C144.793 143.15 144.455 143.479 144.147 143.802L139.494 139.169C139.779 138.883 140.087 138.561 140.372 138.275ZM30.6848 140.301C30.9706 140.586 31.2932 140.894 31.6092 141.172L27.1357 145.978C26.813 145.67 26.4903 145.362 26.1676 145.054L30.7217 140.325L30.6848 140.301ZM138.585 140.07L143.161 144.783C142.853 145.106 142.508 145.405 142.199 145.728L137.707 140.964C138.022 140.672 138.307 140.386 138.622 140.093L138.585 140.07ZM32.5336 142.043C32.8496 142.321 33.1655 142.599 33.4815 142.877L29.1627 147.807C28.8098 147.505 28.487 147.197 28.1341 146.896L32.5336 142.043ZM136.786 141.805L141.201 146.649C140.855 146.948 140.54 147.241 140.195 147.54L135.857 142.615C136.172 142.322 136.494 142.06 136.779 141.774L136.786 141.805ZM34.4294 143.711C34.7454 143.989 35.0546 144.236 35.4008 144.508L31.2432 149.592C30.8903 149.29 30.5442 149.019 30.1913 148.718L34.4294 143.711ZM134.912 143.492L139.166 148.468C138.821 148.767 138.476 149.066 138.124 149.335L133.947 144.279C134.268 144.017 134.59 143.754 134.905 143.462L134.912 143.492ZM36.409 145.328C36.7249 145.606 37.0644 145.847 37.4038 146.088L33.4311 151.289C33.0849 151.018 32.7018 150.723 32.3557 150.452L36.4392 145.321L36.409 145.328ZM132.988 145.096L137.081 150.203C136.729 150.472 136.384 150.771 136.001 151.047L131.986 145.86C132.307 145.597 132.629 145.335 132.981 145.066L132.988 145.096ZM38.3985 146.848C38.7379 147.089 39.0773 147.33 39.4167 147.571L35.5987 152.896C35.2223 152.631 34.8459 152.367 34.4998 152.096L38.4287 146.841L38.3985 146.848ZM130.983 146.623L134.915 151.861C134.563 152.13 134.181 152.406 133.829 152.675L129.981 147.386C130.339 147.148 130.661 146.885 130.99 146.653L130.983 146.623ZM40.4047 148.301C40.7441 148.542 41.0835 148.783 41.4531 149.017L37.8198 154.459C37.4435 154.195 37.0738 153.96 36.6975 153.696L40.4349 148.294L40.4047 148.301ZM128.935 148.096L132.676 153.472C132.293 153.748 131.935 153.987 131.546 154.232L127.888 148.806C128.247 148.567 128.576 148.335 128.935 148.096ZM42.4947 149.703C42.8341 149.944 43.1969 150.148 43.5665 150.382L40.0879 155.948C39.6881 155.721 39.3117 155.456 38.9421 155.222L42.5015 149.733L42.4947 149.703ZM126.836 149.486L130.409 154.962C130.02 155.208 129.631 155.454 129.272 155.692L125.776 150.135C126.141 149.927 126.47 149.694 126.829 149.456L126.836 149.486ZM44.6014 151.038C44.9642 151.242 45.3339 151.476 45.6967 151.68L42.4028 157.364C42.003 157.136 41.6334 156.902 41.2336 156.674L44.6014 151.038ZM124.7 150.852L128.112 156.459C127.723 156.705 127.327 156.921 126.938 157.166L123.64 151.501C124.005 151.293 124.371 151.084 124.7 150.852ZM46.7919 152.323C47.1548 152.527 47.5176 152.731 47.9106 152.928L44.825 158.691C44.4252 158.464 44.0322 158.267 43.6324 158.039L46.8222 152.316L46.7919 152.323ZM122.543 152.127L125.758 157.843C125.362 158.058 124.966 158.274 124.571 158.489L121.44 152.723C121.805 152.514 122.178 152.336 122.543 152.127ZM48.9924 153.51C49.3552 153.714 49.7415 153.881 50.1044 154.085L47.2034 159.966C46.8104 159.769 46.3804 159.548 45.9874 159.351L48.9924 153.51ZM120.336 153.319L123.353 159.142C122.957 159.358 122.555 159.543 122.159 159.758L119.203 153.921C119.575 153.743 119.941 153.534 120.313 153.356L120.336 153.319ZM51.2398 154.624C51.626 154.791 51.9888 154.995 52.3751 155.162L49.6825 161.123C49.2593 160.932 48.8662 160.735 48.443 160.544L51.2398 154.624ZM118.086 154.457L120.928 160.351C120.526 160.536 120.123 160.721 119.697 160.944L116.939 154.999C117.311 154.821 117.684 154.642 118.086 154.457ZM53.5407 155.693C53.927 155.86 54.3132 156.028 54.6995 156.195L52.1849 162.242C51.7617 162.052 51.3452 161.891 50.922 161.701L53.5407 155.693ZM115.815 155.504L118.46 161.506C118.057 161.691 117.625 161.883 117.215 162.039L114.661 156.016C115.04 155.868 115.443 155.683 115.815 155.504ZM55.8516 156.666C56.2379 156.833 56.6174 156.97 57.0338 157.13L54.7275 163.258C54.311 163.098 53.8644 162.944 53.4411 162.753L55.8516 156.666ZM113.501 156.498L115.971 162.571C115.562 162.726 115.129 162.918 114.689 163.08L112.333 156.95C112.712 156.802 113.122 156.647 113.501 156.498ZM58.2093 157.564C58.5888 157.701 58.9986 157.831 59.415 157.992L57.2867 164.206C56.84 164.053 56.4235 163.892 55.9836 163.769L58.2161 157.594L58.2093 157.564ZM111.166 157.402L113.431 163.552C112.992 163.714 112.583 163.869 112.136 164L109.985 157.793C110.371 157.675 110.78 157.52 111.159 157.372L111.166 157.402ZM60.6072 158.359C61.0169 158.489 61.4266 158.619 61.7993 158.726L59.8725 164.99C59.4326 164.867 58.9859 164.713 58.5762 164.583L60.5702 158.335L60.6072 158.359ZM108.811 158.214L110.872 164.442C110.432 164.604 110.016 164.729 109.57 164.86L107.63 158.606C108.016 158.488 108.432 158.363 108.811 158.214ZM63.0217 159.086C63.4247 159.186 63.8344 159.316 64.2373 159.416L62.5187 165.761C62.0788 165.638 61.6389 165.514 61.199 165.391L63.0217 159.086ZM106.405 158.943L108.255 165.218C107.802 165.32 107.393 165.475 106.94 165.576L105.174 159.251C105.597 159.156 105.983 159.038 106.399 158.913L106.405 158.943ZM65.4462 159.716C65.8491 159.816 66.2521 159.916 66.6852 160.009L65.1983 166.397C64.7651 166.304 64.3253 166.181 63.8921 166.087L65.4831 159.739L65.4462 159.716ZM103.986 159.612L105.631 165.964C105.178 166.066 104.755 166.161 104.309 166.292L102.785 159.913C103.208 159.818 103.601 159.73 104.023 159.635L103.986 159.612ZM67.894 160.309C68.297 160.409 68.6933 160.479 69.1264 160.572L67.8409 167.01C67.3776 166.923 66.9444 166.83 66.5113 166.737L67.9008 160.339L67.894 160.309ZM101.547 160.19L102.98 166.59C102.527 166.691 102.105 166.786 101.652 166.887L100.309 160.467C100.732 160.373 101.124 160.285 101.547 160.19ZM70.3519 160.805C70.7481 160.874 71.1745 160.937 71.5774 161.037L70.4866 167.495C70.0233 167.409 69.597 167.346 69.1336 167.259L70.3217 160.811L70.3519 160.805ZM99.0641 160.714L100.286 167.162C99.833 167.263 99.4035 167.328 98.9437 167.399L97.8124 160.931C98.205 160.843 98.6345 160.779 99.0338 160.721L99.0641 160.714ZM72.8264 161.233C73.2528 161.296 73.649 161.366 74.0686 161.399L73.2095 167.9C72.7529 167.844 72.2963 167.787 71.8632 167.694L72.8565 161.226L72.8264 161.233ZM96.5977 161.172L97.6317 167.629C97.1787 167.731 96.7424 167.765 96.2827 167.836L95.3695 161.352C95.7688 161.294 96.1984 161.229 96.5977 161.172ZM75.3107 161.564C75.7371 161.627 76.1568 161.66 76.5764 161.693L75.912 168.214C75.4555 168.158 75.0057 168.132 74.5491 168.075L75.3107 161.564ZM94.1043 161.508L94.9269 168.013C94.4671 168.084 94.0308 168.119 93.5643 168.16L92.8692 161.658C93.2753 161.631 93.7049 161.566 94.1043 161.508ZM77.8119 161.829C78.2315 161.861 78.6511 161.894 79.0707 161.927L78.6011 168.468C78.1513 168.442 77.7014 168.416 77.2448 168.359L77.8119 161.829ZM91.6275 161.778L92.232 168.3C91.7655 168.341 91.3292 168.375 90.8627 168.416L90.379 161.867C90.7851 161.84 91.2214 161.805 91.6275 161.778ZM80.3229 161.995C80.7425 162.028 81.1553 162.031 81.5749 162.064L81.3303 168.617C80.8805 168.591 80.4306 168.565 79.9875 168.569L80.3296 162.025L80.3229 161.995ZM89.1003 161.963L89.4866 168.502C89.0503 168.537 88.577 168.548 88.1407 168.582L87.845 162.022C88.2511 161.995 88.6942 161.991 89.1003 161.963ZM82.8136 162.071C83.2264 162.074 83.6393 162.077 84.0824 162.073L84.0558 168.609C83.6127 168.613 83.1629 168.587 82.6897 168.598L82.8068 162.041L82.8136 162.071ZM86.583 162.052L86.7511 168.608C86.3081 168.612 85.8348 168.623 85.3918 168.627L85.321 162.081C85.7339 162.083 86.1769 162.079 86.583 162.052Z" fill="white"/>
</svg>
