<?xml version="1.0" encoding="utf-8"?>
<!-- Generator: Adobe Illustrator 25.0.0, SVG Export Plug-In . SVG Version: 6.00 Build 0)  -->
<svg version="1.1" id="圖層_1" xmlns="http://www.w3.org/2000/svg" xmlns:xlink="http://www.w3.org/1999/xlink" x="0px" y="0px"
	 viewBox="0 0 335.2 326" style="enable-background:new 0 0 335.2 326;" xml:space="preserve">
<style type="text/css">
	.st0{fill:#F8EC2C;stroke:#989898;}
	.st1{fill:#FFFFFF;}
	.st2{fill:#989898;}
	.st3{fill:#FAEC32;}
</style>
<path class="st0" d="M335.2,281.3H172.4h-0.3l-0.1,0.2L149,315H0.5V0.5h298.8L335,35.2L335.2,281.3z"/>
<path class="st1" d="M173.1,280H0.5v45h142.8L173.1,280z"/>
<path class="st2" d="M110.8,307.6l-2.8,7.7c0,0.1,0,0.2,0.1,0.2h1.9c0.1,0,0.1,0,0.1-0.1l0.4-1.4h2.7l0.4,1.4c0,0,0.1,0.1,0.1,0.1
	h1.9c0.1,0,0.1-0.1,0.1-0.2l-2.8-7.7c0,0-0.1-0.1-0.1-0.1L110.8,307.6C110.8,307.6,110.8,307.6,110.8,307.6 M110.9,312.5l0.9-2.9
	l0.9,2.9H110.9L110.9,312.5z"/>
<path class="st2" d="M106.9,311.9c-0.4-0.5-0.8-0.7-0.8-0.7c0.2-0.2,0.9-0.5,0.9-1.6c0-0.6-0.2-1.1-0.6-1.5
	c-0.4-0.4-1.1-0.5-2.1-0.5h-3.9c-0.1,0-0.1,0-0.1,0.1v7.7c0,0.1,0.1,0.1,0.1,0.1h3.8c1,0,1.8-0.2,2.2-0.7c0.5-0.4,0.7-1,0.7-1.8
	C107.2,312.6,107.1,312.2,106.9,311.9 M102.2,309.1h2c0.3,0,0.6,0.1,0.7,0.2c0.1,0.2,0.2,0.3,0.2,0.6c0,0.2-0.1,0.4-0.2,0.6
	c-0.1,0.1-0.4,0.2-0.7,0.2h-2L102.2,309.1L102.2,309.1z M105,313.7c-0.2,0.2-0.4,0.3-0.7,0.3h-2.1v-1.9h2.1c0.3,0,0.6,0.1,0.7,0.3
	c0.2,0.2,0.2,0.4,0.2,0.7S105.2,313.5,105,313.7"/>
<path class="st2" d="M123.8,315.4v-7.7c0-0.1-0.1-0.1-0.1-0.1H122c-0.1,0-0.1,0.1-0.1,0.1v4.4l-3.2-4.5c0,0-0.1-0.1-0.1-0.1H117
	c-0.1,0-0.1,0.1-0.1,0.1v7.7c0,0.1,0,0.1,0.1,0.1h1.7c0.1,0,0.1,0,0.1-0.1v-4.6l3.4,4.6c0,0,0.1,0,0.1,0h1.5
	C123.7,315.5,123.8,315.5,123.8,315.4"/>
<path class="st2" d="M130.2,315.5h2.1c0.1,0,0.1-0.1,0.1-0.2l-2.6-5l2.2-2.5c0.1-0.1,0-0.2-0.1-0.2h-2.1c0,0-0.1,0-0.1,0l-2.4,2.9
	v-2.8c0-0.1-0.1-0.1-0.1-0.1h-1.8c-0.1,0-0.1,0-0.1,0.1v7.7c0,0.1,0.1,0.1,0.1,0.1h1.8c0.1,0,0.1,0,0.1-0.1v-2l1-1.2l1.7,3.2
	C130.1,315.5,130.2,315.5,130.2,315.5"/>
<path class="st2" d="M87.7,307.6h-2c0,0-0.1,0-0.1,0l-1.3,2.1l-1.3-2.1c0,0-0.1-0.1-0.1-0.1h-2c-0.1,0-0.2,0.1-0.1,0.2l2.4,3.7
	l-2.5,3.8c0,0.1,0,0.2,0.1,0.2h2c0,0,0.1,0,0.1-0.1l1.4-2.2l1.4,2.2c0,0,0.1,0.1,0.1,0.1h2c0.1,0,0.2-0.1,0.1-0.2l-2.5-3.9l2.4-3.7
	C87.8,307.7,87.8,307.6,87.7,307.6"/>
<path class="st2" d="M95.8,307.6H89c-0.1,0-0.1,0-0.1,0.1v1.5c0,0.1,0,0.1,0.1,0.1h2.4v6.1c0,0.1,0.1,0.1,0.1,0.1h1.8
	c0.1,0,0.1-0.1,0.1-0.1v-6.1h2.4c0.1,0,0.1,0,0.1-0.1v-1.5C95.9,307.6,95.8,307.6,95.8,307.6"/>
<path class="st2" d="M72,315.4v-7.7c0-0.1,0-0.1-0.1-0.1h-1.7c-0.1,0-0.1,0.1-0.1,0.1v4.4l-3.2-4.5c0,0-0.1-0.1-0.1-0.1h-1.6
	c-0.1,0-0.1,0.1-0.1,0.1v7.7c0,0.1,0.1,0.1,0.1,0.1h1.7c0.1,0,0.1,0,0.1-0.1v-4.6l3.4,4.6c0,0,0.1,0,0.1,0h1.5
	C71.9,315.5,72,315.5,72,315.4"/>
<path class="st2" d="M79.5,309.1v-1.4c0-0.1,0-0.1-0.1-0.1h-5.8c-0.1,0-0.1,0-0.1,0.1v7.7c0,0.1,0.1,0.1,0.1,0.1h5.8
	c0.1,0,0.1,0,0.1-0.1V314c0-0.1,0-0.1-0.1-0.1h-3.9v-1.7h2.3c0.1,0,0.1,0,0.1-0.1v-1.4c0-0.1-0.1-0.1-0.1-0.1h-2.3v-1.4h3.9
	C79.5,309.2,79.5,309.1,79.5,309.1"/>
<path class="st2" d="M25.2,288.6h-1c-2.1,0-3.8,1.7-3.8,3.8v12l11.1,11.1v-12c0-2.1,1.7-3.8,3.8-3.8h1L25.2,288.6z"/>
<path class="st3" d="M47.3,315.5h1c2.1,0,3.8-1.7,3.8-3.8v-12L41,288.6v12c0,2.1-1.7,3.8-3.8,3.8h-1L47.3,315.5z"/>
<path class="st2" d="M96.7,296.5l-1.1,1.1c-0.1,0.1-0.1,0.1-0.2,0c-0.4-0.4-1-1-1.9-1.7c-0.3,0.5-0.6,0.9-1,1.2c0,0-0.1,0-0.2,0
	c-0.3-0.3-0.7-0.5-1.1-0.7c0.7,0.9,1.6,1.8,2.6,2.5c1,0.7,2,1.3,3.1,1.7c0.1,0,0.1,0.1,0,0.2c-0.4,0.4-0.8,0.9-1.2,1.5
	c0,0-0.1,0.1-0.2,0c-1.8-0.9-3.5-2.2-4.9-3.9v4.4c0,0.1-0.1,0.1-0.1,0.1H89c-0.1,0-0.1-0.1-0.1-0.1v-4.3c-1.4,1.7-3,2.9-4.9,3.8
	c-0.1,0-0.1,0-0.2,0c-0.3-0.5-0.7-0.9-1.1-1.4c-0.1-0.1,0-0.2,0-0.2c1.2-0.5,2.3-1.2,3.4-2c1.1-0.9,2-1.9,2.7-2.9v-3.6h-5.5
	c-0.1,0-0.1-0.1-0.1-0.1v-1.6c0-0.1,0.1-0.1,0.1-0.1h5.5v-1.8c0-0.1,0.1-0.1,0.1-0.1h1.7c0.1,0,0.1,0.1,0.1,0.1v1.8h5.7
	c0.1,0,0.1,0.1,0.1,0.1v1.6c0,0.1-0.1,0.1-0.1,0.1h-5.7v3.5c0,0,0.1,0.1,0.1,0.2c0.1,0.1,0.1,0.1,0.1,0.2c1-0.8,1.6-2,1.9-3.6
	c0-0.1,0.1-0.1,0.1-0.1l1.6,0.3c0.1,0,0.1,0.1,0.1,0.1c-0.1,0.5-0.3,1-0.5,1.5c1.2,1,2,1.6,2.4,1.9
	C96.8,296.4,96.8,296.5,96.7,296.5 M85.9,292.4l1.5,0.3c0.1,0,0.1,0.1,0.1,0.2c-0.1,0.5-0.3,1-0.5,1.5c0.7,0.6,1.2,1,1.4,1.3
	c0.1,0.1,0.1,0.1,0,0.2l-1.1,1.1c-0.1,0-0.1,0-0.2,0c-0.2-0.2-0.5-0.6-1-1c-0.5,0.9-1.1,1.5-1.7,2c-0.1,0-0.1,0-0.2,0
	c-0.3-0.3-0.7-0.6-1.2-1c-0.1,0-0.1-0.1,0-0.2c1.3-1,2.1-2.4,2.6-4.3C85.8,292.5,85.8,292.4,85.9,292.4"/>
<path class="st2" d="M113.6,296.7l1.1,1.1c0.1,0,0.1,0.1,0,0.2c-0.6,0.4-1.2,0.9-2,1.4c0.6,1,1.3,1.7,2.3,2.2c0.1,0,0.1,0.1,0,0.2
	c-0.2,0.2-0.3,0.4-0.5,0.6c-0.2,0.2-0.4,0.5-0.5,0.7c0,0.1-0.1,0.1-0.2,0c-1.1-0.6-2-1.7-2.6-2.8l0.2,1.4c0,0.1,0,0.1-0.1,0.1
	c-1.5,0.4-3,0.7-4.6,1.1c-0.1,0-0.1,0-0.2-0.1l-0.3-1c-1.9,0.4-3.6,0.7-5.2,0.9c-0.1,0-0.1,0-0.1-0.1l-0.3-1.4c0-0.1,0-0.1,0.1-0.1
	c0.7-0.1,1.4-0.2,2.3-0.3v-4.1h-2.1c-0.1,0-0.1-0.1-0.1-0.1v-1.3c0-0.1,0.1-0.1,0.1-0.1h2.1V294h-1.5c-0.1,0-0.1-0.1-0.1-0.1v-0.6
	c0,0,0-0.1,0-0.1l-1-0.7c-0.1,0-0.1-0.1,0-0.2l2.7-3.5c0,0,0.1-0.1,0.1-0.1h1.4c0,0,0.1,0,0.1,0.1l2.5,3.5c0,0,0,0.1,0,0.2l-0.7,0.6
	c0,0,0,0.1,0,0.1v0.8c0,0.1-0.1,0.1-0.1,0.1h-1.6v1.1h1.9c0.1,0,0.1,0.1,0.1,0.1v1.3c0,0.1-0.1,0.1-0.1,0.1h-1.9v3.8
	c0.2,0,0.6-0.1,1.1-0.2c0.4-0.1,0.7-0.1,0.9-0.1c0.1,0,0.1,0,0.1,0.1l0,0.7l0.5-0.1v-11.6c0-0.1,0.1-0.1,0.1-0.1h6.7
	c0.1,0,0.1,0.1,0.1,0.1v6.7c0,0.1-0.1,0.1-0.1,0.1h-2.5c0.1,0.7,0.3,1.2,0.5,1.8c0.6-0.4,1-0.8,1.4-1.3
	C113.4,296.6,113.5,296.6,113.6,296.7 M101,297.5l1-0.2c0.1,0,0.1,0,0.2,0.1l0.5,2.4c0,0.1,0,0.1-0.1,0.1l-1,0.3
	c-0.1,0-0.1,0-0.2-0.1l-0.5-2.4C100.9,297.6,100.9,297.6,101,297.5 M102.2,292.5h3l-1.5-2.1L102.2,292.5L102.2,292.5z M105.6,300
	l-0.8-0.2c-0.1,0-0.1-0.1-0.1-0.2l0.5-2.4c0-0.1,0.1-0.1,0.2-0.1l1.2,0.3c0.1,0,0.1,0.1,0.1,0.2l-0.8,2.3
	C105.8,300,105.7,300,105.6,300 M112.4,290.8h-3.4v1.1h3.4V290.8z M108.9,294.6h3.4v-1.1h-3.4V294.6z M108.9,296.2v4.4
	c0.2,0,0.5-0.1,1-0.2c0.5-0.1,0.8-0.2,1.1-0.2c-0.5-1.1-0.9-2.4-1.2-3.9H108.9L108.9,296.2z"/>
<path class="st2" d="M122.2,292l1.5,0.6c0.1,0,0.1,0.1,0.1,0.2c-0.5,0.7-1,1.5-1.6,2.2v8c0,0.1-0.1,0.1-0.1,0.1h-1.6
	c-0.1,0-0.1-0.1-0.1-0.1V297c-0.5,0.4-0.8,0.8-1.2,1.1c-0.1,0-0.1,0-0.2,0c-0.4-0.6-0.8-1-1.1-1.4c-0.1-0.1,0-0.1,0-0.2
	c0.8-0.5,1.5-1.2,2.2-2c0.7-0.8,1.4-1.6,1.8-2.4C122.1,292,122.2,292,122.2,292 M121.6,288.6l1.5,0.6c0.1,0,0.1,0.1,0,0.2
	c-0.5,0.7-1.2,1.4-1.9,2.1c-0.7,0.7-1.5,1.3-2.2,1.8c-0.1,0-0.1,0-0.2,0c-0.3-0.5-0.6-1-0.8-1.3c-0.1-0.1,0-0.1,0-0.2
	c0.6-0.4,1.2-0.9,1.8-1.5c0.6-0.6,1.1-1.1,1.5-1.7C121.5,288.6,121.6,288.6,121.6,288.6 M132.4,293.9v1.5c0,0.1-0.1,0.1-0.1,0.1h-2
	v6c0,0.9-0.7,1.6-1.6,1.6h-2.2c-0.1,0-0.1,0-0.1-0.1l-0.5-1.6c0-0.1,0-0.2,0.1-0.2h2.1c0.2,0,0.4-0.2,0.4-0.4v-5.3H124
	c-0.1,0-0.1-0.1-0.1-0.1v-1.5c0-0.1,0.1-0.1,0.1-0.1h8.3C132.4,293.8,132.4,293.8,132.4,293.9 M132,289.6v1.5c0,0.1-0.1,0.1-0.1,0.1
	h-7.3c-0.1,0-0.1-0.1-0.1-0.1v-1.5c0-0.1,0.1-0.1,0.1-0.1h7.3C132,289.5,132,289.5,132,289.6z"/>
<path class="st2" d="M79.5,296.6v1.4c0,0.1-0.1,0.1-0.1,0.1h-1.6v3.4c0,0.9-0.7,1.6-1.6,1.6h-1.6c-0.1,0-0.1,0-0.1-0.1
	c-0.1-0.4-0.3-1.2-0.5-1.5c0-0.1,0-0.2,0.1-0.2h1.5c0.2,0,0.4-0.2,0.4-0.4V298h-5.2c-0.1,0-0.1-0.1-0.1-0.1v-1.4
	c0-0.1,0.1-0.1,0.1-0.1h0.7c-0.2-0.4-0.4-0.7-0.7-1.1c-0.1-0.1,0-0.2,0.1-0.2c0.8-0.2,1.6-0.5,2.3-0.8c-0.4-0.5-0.8-0.9-1.4-1.3
	c-0.1,0-0.3,0.2-0.5,0.2c0,0-0.1,0-0.2,0c-0.4-0.4-0.7-0.7-0.9-0.9V303c0,0.1-0.1,0.1-0.1,0.1h-1.4c-0.1,0-0.1-0.1-0.1-0.1v-5.1h-1
	v0c0,2.2-0.4,3.9-1.1,5.1c0,0.1-0.1,0.1-0.2,0c-0.3-0.3-0.7-0.5-1.1-0.7c-0.1,0-0.1-0.1-0.1-0.2c0.6-1,0.9-2.4,0.9-4.3h-0.6
	c-0.1,0-0.1-0.1-0.1-0.1v-1.3c0-0.1,0.1-0.1,0.1-0.1h3.3v-0.9l-1.3-2.5v2.1c0,0.1-0.1,0.1-0.1,0.1h-1.2c-0.1,0-0.1-0.1-0.1-0.1v-5
	c0-0.1,0.1-0.1,0.1-0.1h1.2c0,0,0.1,0,0.1,0.1l1.4,2.6v-3.3c0-0.1,0.1-0.1,0.1-0.1h1.4c0.1,0,0.1,0.1,0.1,0.1v2.9
	c0.9-0.4,1.7-0.8,2.4-1.5c0.7-0.6,1.3-1.2,1.8-1.8c0,0,0.1-0.1,0.1-0.1l1.5,0.4c0.1,0,0.1,0.1,0.1,0.2c-0.2,0.2-0.3,0.4-0.5,0.6h2.4
	c0,0,0,0,0.1,0l1,0.5c0.1,0,0.1,0.1,0.1,0.2c-1.2,2.9-3.7,4.9-7.4,6h4.3v-1.7c0-0.1,0.1-0.1,0.1-0.1h1.5c0.1,0,0.1,0.1,0.1,0.1v1.7
	h1.6C79.5,296.5,79.5,296.5,79.5,296.6 M71.6,298.9l1.2-0.7c0.1,0,0.1,0,0.2,0c0.8,0.8,1.3,1.5,1.6,2c0,0.1,0,0.1,0,0.2l-1.3,0.8
	c-0.1,0-0.1,0-0.2,0c-0.3-0.6-0.7-1.2-1.4-2C71.6,299.1,71.6,299,71.6,298.9 M73,292.3c0.6,0.5,1.1,0.9,1.4,1.3
	c0.3-0.2,0.5-0.3,0.7-0.5c-0.4-0.5-1-0.9-1.6-1.3c-0.1,0-0.2,0.1-0.3,0.2C73.1,292.2,73,292.2,73,292.3z M77,291h-2.4
	c0.7,0.4,1.2,0.8,1.6,1.2C76.5,291.8,76.8,291.4,77,291z"/>
</svg>
