<svg width="285" height="43" fill="none" xmlns="http://www.w3.org/2000/svg"><path d="M17.36 8.64c3.28 1.72 7.4 4.44 9.24 6.44l3.44-4.12C28 9 23.76 6.48 20.52 4.96l-3.16 3.68zm-2.64 16.24v4.6h20.76v-4.6H14.72zm-2.88 11.88v4.56H37.8v-4.56H11.84zm1.44-23v4.56h23.68v-4.56H13.28zm9.12 1.52V38.8h5V15.28h-5zM2.76 8.76c2.6 1.12 5.88 3.04 7.44 4.48L13 9.32c-1.68-1.44-5.08-3.16-7.64-4.08l-2.6 3.52zM.08 19.64c2.64 1.04 6.04 2.84 7.64 4.2l2.64-4c-1.72-1.32-5.2-2.96-7.8-3.84L.08 19.64zM1.8 38.88l4.04 3.24c2.4-3.88 4.96-8.44 7.08-12.68L9.4 26.28c-2.4 4.6-5.48 9.6-7.6 12.6zm48.6-10.72v-1.72h17.36v1.72H50.4zm0-4.52v-1.72h17.36v1.72H50.4zm22.12-4.68H45.88v12.16h26.64V18.96zm-3.24-8-5-.92c-.32 1.08-.96 2.6-1.48 3.72l4.24.92c.6-.96 1.36-2.2 2.24-3.72zm-15.64-.92-4.4.88c.56 1.2 1.08 2.76 1.24 3.84l4.56-1.04c-.24-1-.8-2.52-1.4-3.68zm7.72-5h-4.84v4.8h4.84v-4.8zm15.08 8.72H41.68v3.72h34.76v-3.72zm-2.16-6.6H43.6v3.72h30.68V7.16zM49.36 33.92l-4-1.48c-.96 2.68-2.76 5.28-5.28 6.84l3.72 2.52c2.84-1.88 4.48-4.84 5.56-7.88zm21.96-1.96-3.72 2.08c2.44 2.2 5.16 5.36 6.28 7.52l4-2.32c-1.28-2.24-4.12-5.2-6.56-7.28zM57.4 30.24l-2.56 2.52c2.24 1.08 5.08 2.76 6.48 3.96l2.76-2.8c-1.52-1.2-4.44-2.76-6.68-3.68zm-2.32 6.92V33H50.4v4.2c0 3.8 1.24 5 6.32 5h6.48c3.76 0 5.04-1.12 5.52-5.64-1.2-.24-3.08-.88-4.04-1.52-.2 2.84-.48 3.28-1.92 3.28h-5.52c-1.84 0-2.16-.12-2.16-1.16zm41.84-8.44h4.12l1.04-13.68.2-5.96h-6.6l.2 5.96 1.04 13.68zM99 39.4c2 0 3.52-1.48 3.52-3.56S101 32.32 99 32.32c-2.04 0-3.56 1.44-3.56 3.52S96.92 39.4 99 39.4zM199.36 8.64c3.28 1.72 7.4 4.44 9.24 6.44l3.44-4.12c-2.04-1.96-6.28-4.48-9.52-6l-3.16 3.68zm-2.64 16.24v4.6h20.76v-4.6h-20.76zm-2.88 11.88v4.56h25.96v-4.56h-25.96zm1.44-23v4.56h23.68v-4.56h-23.68zm9.12 1.52V38.8h5V15.28h-5zm-19.64-6.52c2.6 1.12 5.88 3.04 7.44 4.48l2.8-3.92c-1.68-1.44-5.08-3.16-7.64-4.08l-2.6 3.52zm-2.68 10.88c2.64 1.04 6.04 2.84 7.64 4.2l2.64-4c-1.72-1.32-5.2-2.96-7.8-3.84l-2.48 3.64zm1.72 19.24 4.04 3.24c2.4-3.88 4.96-8.44 7.08-12.68l-3.52-3.16c-2.4 4.6-5.48 9.6-7.6 12.6zm48.6-10.72v-1.72h17.36v1.72H232.4zm0-4.52v-1.72h17.36v1.72H232.4zm22.12-4.68h-26.64v12.16h26.64V18.96zm-3.24-8-5-.92c-.32 1.08-.96 2.6-1.48 3.72l4.24.92c.6-.96 1.36-2.2 2.24-3.72zm-15.64-.92-4.4.88c.56 1.2 1.08 2.76 1.24 3.84l4.56-1.04c-.24-1-.8-2.52-1.4-3.68zm7.72-5h-4.84v4.8h4.84v-4.8zm15.08 8.72h-34.76v3.72h34.76v-3.72zm-2.16-6.6H225.6v3.72h30.68V7.16zm-24.92 26.76-4-1.48c-.96 2.68-2.76 5.28-5.28 6.84l3.72 2.52c2.84-1.88 4.48-4.84 5.56-7.88zm21.96-1.96-3.72 2.08c2.44 2.2 5.16 5.36 6.28 7.52l4-2.32c-1.28-2.24-4.12-5.2-6.56-7.28zm-13.92-1.72-2.56 2.52c2.24 1.08 5.08 2.76 6.48 3.96l2.76-2.8c-1.52-1.2-4.44-2.76-6.68-3.68zm-2.32 6.92V33h-4.68v4.2c0 3.8 1.24 5 6.32 5h6.48c3.76 0 5.04-1.12 5.52-5.64-1.2-.24-3.08-.88-4.04-1.52-.2 2.84-.48 3.28-1.92 3.28h-5.52c-1.84 0-2.16-.12-2.16-1.16zm41.84-8.44h4.12l1.04-13.68.2-5.96h-6.6l.2 5.96 1.04 13.68zM281 39.4c2 0 3.52-1.48 3.52-3.56S283 32.32 281 32.32c-2.04 0-3.56 1.44-3.56 3.52s1.48 3.56 3.56 3.56zM143.94 31.01a2 2 0 1 1-4 .001 2 2 0 0 1 4-.002zm-.5-16.5a1.501 1.501 0 0 0-3 0v9a1.498 1.498 0 0 0 1.5 1.5 1.5 1.5 0 0 0 1.5-1.5v-9z" fill="#989898"/><path fill-rule="evenodd" clip-rule="evenodd" d="M137.612 2.498c1.926-3.33 6.73-3.33 8.656 0l17.934 31.008c1.926 3.334-.48 7.504-4.33 7.504h-35.864c-3.852 0-6.256-4.17-4.33-7.505l17.934-31.008zm6.06 1.501a1.996 1.996 0 0 0-1.732-1 2 2 0 0 0-1.732 1l-17.932 31.008a2.008 2.008 0 0 0-.001 2.002 2.005 2.005 0 0 0 1.733 1h35.864a2 2 0 0 0 1.732-3L143.672 4z" fill="#989898"/></svg>