<svg width="196" height="260" fill="none" xmlns="http://www.w3.org/2000/svg"><path d="M147.49 151.46s25.58-36.36 41.48-18.18c15.9 18.18-28.93 75.81-39.4 89.08-12.44 15.76-33.26 33.93-47.1 33.93H59.91c-23.56 0-56.9-10.3-56.9-55.75V63.59c0-7.88 8.99-16.97 17.28-16.97 8.3 0 16.59 7.27 16.59 11.51 0 0 .69-15.15.69-20s6.22-16.56 19.13-16.56c8.3 0 18.2 6.87 18.2 15.35V18.74c0-6.67 5.53-15.76 17.97-15.76 12.44 0 18.67 9.7 18.67 16.36v17.57s2.3-11.72 20.74-11.72c13.13 0 17.28 12.32 17.28 17.78 0 5.46-2.07 108.47-2.07 108.47v.02z" fill="#fff"/><path d="M36.88 106.8c-1.66 0-3.01-1.35-3.01-3.01V56.53c0-1.66 1.35-3.01 3.01-3.01 1.66 0 3.01 1.35 3.01 3.01v47.26c0 1.66-1.35 3.01-3.01 3.01zM74.67 98.72c-1.66 0-3.01-1.35-3.01-3.01v-61.2c0-1.66 1.35-3.01 3.01-3.01 1.66 0 3.01 1.35 3.01 3.01v61.2c0 1.66-1.35 3.01-3.01 3.01zM111.77 98.72c-1.66 0-3.01-1.34-3.01-3.01l-.12-60.44a3.02 3.02 0 0 1 3-3.02c1.66 0 3.01 1.34 3.01 3.01l.12 60.44a3.02 3.02 0 0 1-3 3.02zM109.73 226.65c-.97 0-1.91-.54-2.37-1.48-1.73-3.53-16.51-34.69-2.44-42.38.43-.24.97-.52 1.59-.85 7.92-4.22 28.96-15.43 40.62-33.31a2.642 2.642 0 0 1 3.65-.77c1.22.79 1.56 2.43.77 3.65-12.4 19.02-34.31 30.69-42.56 35.08-.61.32-1.12.6-1.54.83-8.21 4.49.83 27.67 4.64 35.44.64 1.31.1 2.89-1.2 3.53-.37.18-.77.27-1.16.27v-.01z" fill="#231814"/><path d="M26.19 115.03c-.83 0-1.66-.4-2.17-1.13-.83-1.2-.53-2.84.66-3.67 18.43-12.79 42.41-14.3 61.68-15.51 1.45-.08 2.7 1.01 2.8 2.46.09 1.45-1.01 2.7-2.46 2.8-18.62 1.17-41.78 2.63-59 14.58-.46.32-.98.47-1.5.47h-.01z" fill="#231814"/><path d="M102.47 259.31H59.91c-8.77 0-25.5-1.48-39.06-11.41C7.02 237.77 0 221.84 0 200.55V63.6c0-9.71 10.43-19.98 20.29-19.98 5.09 0 10.22 2.32 13.96 5.4.16-4.15.31-8.65.31-10.87 0-6.64 7.81-19.57 22.14-19.57 5.28 0 11.02 2.32 15.19 6.08v-5.89C71.89 10.98 78.4 0 92.87 0s21.68 11.25 21.68 19.37v8.04c3.53-2.81 9.07-5.19 17.73-5.19 15.18 0 20.29 14.27 20.29 20.79 0 4.53-1.39 74.46-1.9 99.68 6.21-7.06 16.67-16.92 26.96-17.47 5.24-.27 9.82 1.77 13.6 6.09 7.78 8.9 4.69 25.21-9.47 49.86-7.37 12.83-17.41 27.32-29.84 43.06-13.34 16.9-34.51 35.08-49.46 35.08h.01zM20.3 49.64c-6.54 0-14.27 7.57-14.27 13.96v136.95c0 47.6 37.68 52.74 53.89 52.74h42.56c12.24 0 32.18-16.89 44.74-32.79 33.89-42.9 48.65-74.77 39.5-85.23-2.53-2.9-5.39-4.22-8.74-4.05-10.67.56-23.84 16.05-28.01 21.98a3.017 3.017 0 0 1-3.4 1.13c-1.26-.41-2.1-1.6-2.07-2.92.02-1.03 2.07-103.05 2.07-108.41 0-3.12-2.42-14.76-14.27-14.76-15.52 0-17.71 8.94-17.79 9.32a2.989 2.989 0 0 1-3.24 2.4c-1.54-.15-2.71-1.47-2.71-3.02V19.37c0-4.66-4.59-13.35-15.65-13.35s-14.96 7.82-14.96 12.74v18.18c0 1.66-1.35 3.01-3.01 3.01-1.66 0-3.01-1.35-3.01-3.01 0-6.65-8.35-12.34-15.19-12.34-11.27 0-16.12 10.29-16.12 13.55 0 4.86-.67 19.51-.69 20.13a2.988 2.988 0 0 1-3.08 2.87 3.005 3.005 0 0 1-2.94-3.01c0-2.02-6.26-8.5-13.58-8.5h-.03z" fill="#231814"/></svg>