<svg width="239" height="38" fill="none" xmlns="http://www.w3.org/2000/svg"><path d="M37.377 37.256H25.453L.43.627h11.924l25.023 36.63zM55.772 37.256H43.847L18.824.627h11.924l25.024 36.63zM74.166 37.256H62.242L37.218.627h11.905l25.043 36.63zM92.54 37.256H80.636L55.593.627h11.924l25.023 36.63zM110.935 37.256H99.01L73.987.627H85.91l25.024 36.63zM129.329 37.256h-11.925L92.381.627h11.904l25.044 36.63zM147.723 37.256h-11.924L110.775.627h11.905l25.043 36.63zM166.097 37.256h-11.904L129.149.627h11.925l25.023 36.63zM184.492 37.256h-11.925L147.544.627h11.924l25.024 36.63zM202.886 37.256h-11.925L165.938.627h11.905l25.043 36.63zM221.28 37.256h-11.924L184.333.627h11.904l25.043 36.63zM239.654 37.256H227.75L202.707.627h11.924l25.023 36.63z" fill="#F8EC2C"/></svg>