<svg width="239" height="38" viewBox="0 0 239 38" fill="none" xmlns="http://www.w3.org/2000/svg">
<path d="M37.3775 37.2564H25.453L0.429688 0.627197H12.3541L37.3775 37.2564Z" fill="#F8EC2C"/>
<path d="M55.7715 37.2564H43.8471L18.8237 0.627197H30.7481L55.7715 37.2564Z" fill="#F8EC2C"/>
<path d="M74.166 37.2564H62.2416L37.2183 0.627197H49.1228L74.166 37.2564Z" fill="#F8EC2C"/>
<path d="M92.5405 37.2564H80.636L55.5928 0.627197H67.5172L92.5405 37.2564Z" fill="#F8EC2C"/>
<path d="M110.935 37.2564H99.0102L73.9868 0.627197H85.9113L110.935 37.2564Z" fill="#F8EC2C"/>
<path d="M129.329 37.2564H117.404L92.3809 0.627197H104.285L129.329 37.2564Z" fill="#F8EC2C"/>
<path d="M147.723 37.2564H135.799L110.775 0.627197H122.68L147.723 37.2564Z" fill="#F8EC2C"/>
<path d="M166.097 37.2564H154.193L129.149 0.627197H141.074L166.097 37.2564Z" fill="#F8EC2C"/>
<path d="M184.492 37.2564H172.567L147.544 0.627197H159.468L184.492 37.2564Z" fill="#F8EC2C"/>
<path d="M202.886 37.2564H190.961L165.938 0.627197H177.843L202.886 37.2564Z" fill="#F8EC2C"/>
<path d="M221.28 37.2564H209.356L184.333 0.627197H196.237L221.28 37.2564Z" fill="#F8EC2C"/>
<path d="M239.654 37.2564H227.75L202.707 0.627197H214.631L239.654 37.2564Z" fill="#F8EC2C"/>
</svg>
