<svg width="110" height="143" viewBox="0 0 110 143" fill="none" xmlns="http://www.w3.org/2000/svg">
<path d="M1.52002 1.5H108.52V142.5H1.52002V1.5Z" fill="#C9C9C9" stroke="white"/>
<path d="M7.73 1.07996H1V7.80997H7.73V1.07996Z" stroke="white" stroke-width="0.25" stroke-miterlimit="10"/>
<path d="M14.46 1.07996H7.72998V7.80997H14.46V1.07996Z" stroke="white" stroke-width="0.25" stroke-miterlimit="10"/>
<path d="M21.19 1.07996H14.46V7.80997H21.19V1.07996Z" stroke="white" stroke-width="0.25" stroke-miterlimit="10"/>
<path d="M27.9199 1.07996H21.1899V7.80997H27.9199V1.07996Z" stroke="white" stroke-width="0.25" stroke-miterlimit="10"/>
<path d="M34.6499 1.07996H27.9199V7.80997H34.6499V1.07996Z" stroke="white" stroke-width="0.25" stroke-miterlimit="10"/>
<path d="M41.3799 1.07996H34.6499V7.80997H41.3799V1.07996Z" stroke="white" stroke-width="0.25" stroke-miterlimit="10"/>
<path d="M48.1099 1.07996H41.3799V7.80997H48.1099V1.07996Z" stroke="white" stroke-width="0.25" stroke-miterlimit="10"/>
<path d="M54.8401 1.07996H48.1101V7.80997H54.8401V1.07996Z" stroke="white" stroke-width="0.25" stroke-miterlimit="10"/>
<path d="M7.73 7.79993H1V14.53H7.73V7.79993Z" stroke="white" stroke-width="0.25" stroke-miterlimit="10"/>
<path d="M14.46 7.79993H7.72998V14.53H14.46V7.79993Z" stroke="white" stroke-width="0.25" stroke-miterlimit="10"/>
<path d="M21.19 7.79993H14.46V14.53H21.19V7.79993Z" stroke="white" stroke-width="0.25" stroke-miterlimit="10"/>
<path d="M27.9199 7.79993H21.1899V14.53H27.9199V7.79993Z" stroke="white" stroke-width="0.25" stroke-miterlimit="10"/>
<path d="M34.6499 7.79993H27.9199V14.53H34.6499V7.79993Z" stroke="white" stroke-width="0.25" stroke-miterlimit="10"/>
<path d="M41.3799 7.79993H34.6499V14.53H41.3799V7.79993Z" stroke="white" stroke-width="0.25" stroke-miterlimit="10"/>
<path d="M48.1099 7.79993H41.3799V14.53H48.1099V7.79993Z" stroke="white" stroke-width="0.25" stroke-miterlimit="10"/>
<path d="M54.8401 7.79993H48.1101V14.53H54.8401V7.79993Z" stroke="white" stroke-width="0.25" stroke-miterlimit="10"/>
<path d="M7.73 14.53H1V21.26H7.73V14.53Z" stroke="white" stroke-width="0.25" stroke-miterlimit="10"/>
<path d="M14.46 14.53H7.72998V21.26H14.46V14.53Z" stroke="white" stroke-width="0.25" stroke-miterlimit="10"/>
<path d="M21.19 14.53H14.46V21.26H21.19V14.53Z" stroke="white" stroke-width="0.25" stroke-miterlimit="10"/>
<path d="M27.9199 14.53H21.1899V21.26H27.9199V14.53Z" stroke="white" stroke-width="0.25" stroke-miterlimit="10"/>
<path d="M34.6499 14.53H27.9199V21.26H34.6499V14.53Z" stroke="white" stroke-width="0.25" stroke-miterlimit="10"/>
<path d="M41.3799 14.53H34.6499V21.26H41.3799V14.53Z" stroke="white" stroke-width="0.25" stroke-miterlimit="10"/>
<path d="M48.1099 14.53H41.3799V21.26H48.1099V14.53Z" stroke="white" stroke-width="0.25" stroke-miterlimit="10"/>
<path d="M54.8401 14.53H48.1101V21.26H54.8401V14.53Z" stroke="white" stroke-width="0.25" stroke-miterlimit="10"/>
<path d="M7.73 21.26H1V27.99H7.73V21.26Z" stroke="white" stroke-width="0.25" stroke-miterlimit="10"/>
<path d="M14.46 21.26H7.72998V27.99H14.46V21.26Z" stroke="white" stroke-width="0.25" stroke-miterlimit="10"/>
<path d="M21.19 21.26H14.46V27.99H21.19V21.26Z" stroke="white" stroke-width="0.25" stroke-miterlimit="10"/>
<path d="M27.9199 21.26H21.1899V27.99H27.9199V21.26Z" stroke="white" stroke-width="0.25" stroke-miterlimit="10"/>
<path d="M34.6499 21.26H27.9199V27.99H34.6499V21.26Z" stroke="white" stroke-width="0.25" stroke-miterlimit="10"/>
<path d="M41.3799 21.26H34.6499V27.99H41.3799V21.26Z" stroke="white" stroke-width="0.25" stroke-miterlimit="10"/>
<path d="M48.1099 21.26H41.3799V27.99H48.1099V21.26Z" stroke="white" stroke-width="0.25" stroke-miterlimit="10"/>
<path d="M54.8401 21.26H48.1101V27.99H54.8401V21.26Z" stroke="white" stroke-width="0.25" stroke-miterlimit="10"/>
<path d="M7.73 28.0499H1V34.78H7.73V28.0499Z" stroke="white" stroke-width="0.25" stroke-miterlimit="10"/>
<path d="M14.46 28.0499H7.72998V34.78H14.46V28.0499Z" stroke="white" stroke-width="0.25" stroke-miterlimit="10"/>
<path d="M21.19 28.0499H14.46V34.78H21.19V28.0499Z" stroke="white" stroke-width="0.25" stroke-miterlimit="10"/>
<path d="M27.9199 28.0499H21.1899V34.78H27.9199V28.0499Z" stroke="white" stroke-width="0.25" stroke-miterlimit="10"/>
<path d="M34.6499 28.0499H27.9199V34.78H34.6499V28.0499Z" stroke="white" stroke-width="0.25" stroke-miterlimit="10"/>
<path d="M41.3799 28.0499H34.6499V34.78H41.3799V28.0499Z" stroke="white" stroke-width="0.25" stroke-miterlimit="10"/>
<path d="M48.1099 28.0499H41.3799V34.78H48.1099V28.0499Z" stroke="white" stroke-width="0.25" stroke-miterlimit="10"/>
<path d="M54.8401 28.0499H48.1101V34.78H54.8401V28.0499Z" stroke="white" stroke-width="0.25" stroke-miterlimit="10"/>
<path d="M7.73 34.78H1V41.51H7.73V34.78Z" stroke="white" stroke-width="0.25" stroke-miterlimit="10"/>
<path d="M14.46 34.78H7.72998V41.51H14.46V34.78Z" stroke="white" stroke-width="0.25" stroke-miterlimit="10"/>
<path d="M21.19 34.78H14.46V41.51H21.19V34.78Z" stroke="white" stroke-width="0.25" stroke-miterlimit="10"/>
<path d="M27.9199 34.78H21.1899V41.51H27.9199V34.78Z" stroke="white" stroke-width="0.25" stroke-miterlimit="10"/>
<path d="M34.6499 34.78H27.9199V41.51H34.6499V34.78Z" stroke="white" stroke-width="0.25" stroke-miterlimit="10"/>
<path d="M41.3799 34.78H34.6499V41.51H41.3799V34.78Z" stroke="white" stroke-width="0.25" stroke-miterlimit="10"/>
<path d="M48.1099 34.78H41.3799V41.51H48.1099V34.78Z" stroke="white" stroke-width="0.25" stroke-miterlimit="10"/>
<path d="M54.8401 34.78H48.1101V41.51H54.8401V34.78Z" stroke="white" stroke-width="0.25" stroke-miterlimit="10"/>
<path d="M7.73 41.5H1V48.23H7.73V41.5Z" stroke="white" stroke-width="0.25" stroke-miterlimit="10"/>
<path d="M14.46 41.5H7.72998V48.23H14.46V41.5Z" stroke="white" stroke-width="0.25" stroke-miterlimit="10"/>
<path d="M21.19 41.5H14.46V48.23H21.19V41.5Z" stroke="white" stroke-width="0.25" stroke-miterlimit="10"/>
<path d="M27.9199 41.5H21.1899V48.23H27.9199V41.5Z" stroke="white" stroke-width="0.25" stroke-miterlimit="10"/>
<path d="M34.6499 41.5H27.9199V48.23H34.6499V41.5Z" stroke="white" stroke-width="0.25" stroke-miterlimit="10"/>
<path d="M41.3799 41.5H34.6499V48.23H41.3799V41.5Z" stroke="white" stroke-width="0.25" stroke-miterlimit="10"/>
<path d="M48.1099 41.5H41.3799V48.23H48.1099V41.5Z" stroke="white" stroke-width="0.25" stroke-miterlimit="10"/>
<path d="M54.8401 41.5H48.1101V48.23H54.8401V41.5Z" stroke="white" stroke-width="0.25" stroke-miterlimit="10"/>
<path d="M7.73 48.23H1V54.96H7.73V48.23Z" stroke="white" stroke-width="0.25" stroke-miterlimit="10"/>
<path d="M14.46 48.23H7.72998V54.96H14.46V48.23Z" stroke="white" stroke-width="0.25" stroke-miterlimit="10"/>
<path d="M21.19 48.23H14.46V54.96H21.19V48.23Z" stroke="white" stroke-width="0.25" stroke-miterlimit="10"/>
<path d="M27.9199 48.23H21.1899V54.96H27.9199V48.23Z" stroke="white" stroke-width="0.25" stroke-miterlimit="10"/>
<path d="M34.6499 48.23H27.9199V54.96H34.6499V48.23Z" stroke="white" stroke-width="0.25" stroke-miterlimit="10"/>
<path d="M41.3799 48.23H34.6499V54.96H41.3799V48.23Z" stroke="white" stroke-width="0.25" stroke-miterlimit="10"/>
<path d="M48.1099 48.23H41.3799V54.96H48.1099V48.23Z" stroke="white" stroke-width="0.25" stroke-miterlimit="10"/>
<path d="M54.8401 48.23H48.1101V54.96H54.8401V48.23Z" stroke="white" stroke-width="0.25" stroke-miterlimit="10"/>
<path d="M7.73 54.96H1V61.6899H7.73V54.96Z" stroke="white" stroke-width="0.25" stroke-miterlimit="10"/>
<path d="M14.46 54.96H7.72998V61.6899H14.46V54.96Z" stroke="white" stroke-width="0.25" stroke-miterlimit="10"/>
<path d="M21.19 54.96H14.46V61.6899H21.19V54.96Z" stroke="white" stroke-width="0.25" stroke-miterlimit="10"/>
<path d="M27.9199 54.96H21.1899V61.6899H27.9199V54.96Z" stroke="white" stroke-width="0.25" stroke-miterlimit="10"/>
<path d="M34.6499 54.96H27.9199V61.6899H34.6499V54.96Z" stroke="white" stroke-width="0.25" stroke-miterlimit="10"/>
<path d="M41.3799 54.96H34.6499V61.6899H41.3799V54.96Z" stroke="white" stroke-width="0.25" stroke-miterlimit="10"/>
<path d="M48.1099 54.96H41.3799V61.6899H48.1099V54.96Z" stroke="white" stroke-width="0.25" stroke-miterlimit="10"/>
<path d="M54.8401 54.96H48.1101V61.6899H54.8401V54.96Z" stroke="white" stroke-width="0.25" stroke-miterlimit="10"/>
<path d="M7.73 61.6899H1V68.4199H7.73V61.6899Z" stroke="white" stroke-width="0.25" stroke-miterlimit="10"/>
<path d="M14.46 61.6899H7.72998V68.4199H14.46V61.6899Z" stroke="white" stroke-width="0.25" stroke-miterlimit="10"/>
<path d="M21.19 61.6899H14.46V68.4199H21.19V61.6899Z" stroke="white" stroke-width="0.25" stroke-miterlimit="10"/>
<path d="M27.9199 61.6899H21.1899V68.4199H27.9199V61.6899Z" stroke="white" stroke-width="0.25" stroke-miterlimit="10"/>
<path d="M34.6499 61.6899H27.9199V68.4199H34.6499V61.6899Z" stroke="white" stroke-width="0.25" stroke-miterlimit="10"/>
<path d="M41.3799 61.6899H34.6499V68.4199H41.3799V61.6899Z" stroke="white" stroke-width="0.25" stroke-miterlimit="10"/>
<path d="M48.1099 61.6899H41.3799V68.4199H48.1099V61.6899Z" stroke="white" stroke-width="0.25" stroke-miterlimit="10"/>
<path d="M54.8401 61.6899H48.1101V68.4199H54.8401V61.6899Z" stroke="white" stroke-width="0.25" stroke-miterlimit="10"/>
<path d="M7.73 68.4199H1V75.15H7.73V68.4199Z" stroke="white" stroke-width="0.25" stroke-miterlimit="10"/>
<path d="M14.46 68.4199H7.72998V75.15H14.46V68.4199Z" stroke="white" stroke-width="0.25" stroke-miterlimit="10"/>
<path d="M21.19 68.4199H14.46V75.15H21.19V68.4199Z" stroke="white" stroke-width="0.25" stroke-miterlimit="10"/>
<path d="M27.9199 68.4199H21.1899V75.15H27.9199V68.4199Z" stroke="white" stroke-width="0.25" stroke-miterlimit="10"/>
<path d="M34.6499 68.4199H27.9199V75.15H34.6499V68.4199Z" stroke="white" stroke-width="0.25" stroke-miterlimit="10"/>
<path d="M41.3799 68.4199H34.6499V75.15H41.3799V68.4199Z" stroke="white" stroke-width="0.25" stroke-miterlimit="10"/>
<path d="M48.1099 68.4199H41.3799V75.15H48.1099V68.4199Z" stroke="white" stroke-width="0.25" stroke-miterlimit="10"/>
<path d="M54.8401 68.4199H48.1101V75.15H54.8401V68.4199Z" stroke="white" stroke-width="0.25" stroke-miterlimit="10"/>
<path d="M7.73 75.15H1V81.88H7.73V75.15Z" stroke="white" stroke-width="0.25" stroke-miterlimit="10"/>
<path d="M14.46 75.15H7.72998V81.88H14.46V75.15Z" stroke="white" stroke-width="0.25" stroke-miterlimit="10"/>
<path d="M21.19 75.15H14.46V81.88H21.19V75.15Z" stroke="white" stroke-width="0.25" stroke-miterlimit="10"/>
<path d="M27.9199 75.15H21.1899V81.88H27.9199V75.15Z" stroke="white" stroke-width="0.25" stroke-miterlimit="10"/>
<path d="M34.6499 75.15H27.9199V81.88H34.6499V75.15Z" stroke="white" stroke-width="0.25" stroke-miterlimit="10"/>
<path d="M41.3799 75.15H34.6499V81.88H41.3799V75.15Z" stroke="white" stroke-width="0.25" stroke-miterlimit="10"/>
<path d="M48.1099 75.15H41.3799V81.88H48.1099V75.15Z" stroke="white" stroke-width="0.25" stroke-miterlimit="10"/>
<path d="M54.8401 75.15H48.1101V81.88H54.8401V75.15Z" stroke="white" stroke-width="0.25" stroke-miterlimit="10"/>
<path d="M7.73 81.9299H1V88.6599H7.73V81.9299Z" stroke="white" stroke-width="0.25" stroke-miterlimit="10"/>
<path d="M14.46 81.9299H7.72998V88.6599H14.46V81.9299Z" stroke="white" stroke-width="0.25" stroke-miterlimit="10"/>
<path d="M21.19 81.9299H14.46V88.6599H21.19V81.9299Z" stroke="white" stroke-width="0.25" stroke-miterlimit="10"/>
<path d="M27.9199 81.9299H21.1899V88.6599H27.9199V81.9299Z" stroke="white" stroke-width="0.25" stroke-miterlimit="10"/>
<path d="M34.6499 81.9299H27.9199V88.6599H34.6499V81.9299Z" stroke="white" stroke-width="0.25" stroke-miterlimit="10"/>
<path d="M41.3799 81.9299H34.6499V88.6599H41.3799V81.9299Z" stroke="white" stroke-width="0.25" stroke-miterlimit="10"/>
<path d="M48.1099 81.9299H41.3799V88.6599H48.1099V81.9299Z" stroke="white" stroke-width="0.25" stroke-miterlimit="10"/>
<path d="M54.8401 81.9299H48.1101V88.6599H54.8401V81.9299Z" stroke="white" stroke-width="0.25" stroke-miterlimit="10"/>
<path d="M7.73 88.6599H1V95.39H7.73V88.6599Z" stroke="white" stroke-width="0.25" stroke-miterlimit="10"/>
<path d="M14.46 88.6599H7.72998V95.39H14.46V88.6599Z" stroke="white" stroke-width="0.25" stroke-miterlimit="10"/>
<path d="M21.19 88.6599H14.46V95.39H21.19V88.6599Z" stroke="white" stroke-width="0.25" stroke-miterlimit="10"/>
<path d="M27.9199 88.6599H21.1899V95.39H27.9199V88.6599Z" stroke="white" stroke-width="0.25" stroke-miterlimit="10"/>
<path d="M34.6499 88.6599H27.9199V95.39H34.6499V88.6599Z" stroke="white" stroke-width="0.25" stroke-miterlimit="10"/>
<path d="M41.3799 88.6599H34.6499V95.39H41.3799V88.6599Z" stroke="white" stroke-width="0.25" stroke-miterlimit="10"/>
<path d="M48.1099 88.6599H41.3799V95.39H48.1099V88.6599Z" stroke="white" stroke-width="0.25" stroke-miterlimit="10"/>
<path d="M54.8401 88.6599H48.1101V95.39H54.8401V88.6599Z" stroke="white" stroke-width="0.25" stroke-miterlimit="10"/>
<path d="M7.73 95.39H1V102.12H7.73V95.39Z" stroke="white" stroke-width="0.25" stroke-miterlimit="10"/>
<path d="M14.46 95.39H7.72998V102.12H14.46V95.39Z" stroke="white" stroke-width="0.25" stroke-miterlimit="10"/>
<path d="M21.19 95.39H14.46V102.12H21.19V95.39Z" stroke="white" stroke-width="0.25" stroke-miterlimit="10"/>
<path d="M27.9199 95.39H21.1899V102.12H27.9199V95.39Z" stroke="white" stroke-width="0.25" stroke-miterlimit="10"/>
<path d="M34.6499 95.39H27.9199V102.12H34.6499V95.39Z" stroke="white" stroke-width="0.25" stroke-miterlimit="10"/>
<path d="M41.3799 95.39H34.6499V102.12H41.3799V95.39Z" stroke="white" stroke-width="0.25" stroke-miterlimit="10"/>
<path d="M48.1099 95.39H41.3799V102.12H48.1099V95.39Z" stroke="white" stroke-width="0.25" stroke-miterlimit="10"/>
<path d="M54.8401 95.39H48.1101V102.12H54.8401V95.39Z" stroke="white" stroke-width="0.25" stroke-miterlimit="10"/>
<path d="M7.73 102.12H1V108.85H7.73V102.12Z" stroke="white" stroke-width="0.25" stroke-miterlimit="10"/>
<path d="M14.46 102.12H7.72998V108.85H14.46V102.12Z" stroke="white" stroke-width="0.25" stroke-miterlimit="10"/>
<path d="M21.19 102.12H14.46V108.85H21.19V102.12Z" stroke="white" stroke-width="0.25" stroke-miterlimit="10"/>
<path d="M27.9199 102.12H21.1899V108.85H27.9199V102.12Z" stroke="white" stroke-width="0.25" stroke-miterlimit="10"/>
<path d="M34.6499 102.12H27.9199V108.85H34.6499V102.12Z" stroke="white" stroke-width="0.25" stroke-miterlimit="10"/>
<path d="M41.3799 102.12H34.6499V108.85H41.3799V102.12Z" stroke="white" stroke-width="0.25" stroke-miterlimit="10"/>
<path d="M48.1099 102.12H41.3799V108.85H48.1099V102.12Z" stroke="white" stroke-width="0.25" stroke-miterlimit="10"/>
<path d="M54.8401 102.12H48.1101V108.85H54.8401V102.12Z" stroke="white" stroke-width="0.25" stroke-miterlimit="10"/>
<path d="M61.7801 1.07996H55.05V7.80997H61.7801V1.07996Z" stroke="white" stroke-width="0.25" stroke-miterlimit="10"/>
<path d="M68.51 1.07996H61.78V7.80997H68.51V1.07996Z" stroke="white" stroke-width="0.25" stroke-miterlimit="10"/>
<path d="M75.24 1.07996H68.51V7.80997H75.24V1.07996Z" stroke="white" stroke-width="0.25" stroke-miterlimit="10"/>
<path d="M81.96 1.07996H75.23V7.80997H81.96V1.07996Z" stroke="white" stroke-width="0.25" stroke-miterlimit="10"/>
<path d="M88.69 1.07996H81.96V7.80997H88.69V1.07996Z" stroke="white" stroke-width="0.25" stroke-miterlimit="10"/>
<path d="M95.4199 1.07996H88.6899V7.80997H95.4199V1.07996Z" stroke="white" stroke-width="0.25" stroke-miterlimit="10"/>
<path d="M102.15 1.07996H95.4199V7.80997H102.15V1.07996Z" stroke="white" stroke-width="0.25" stroke-miterlimit="10"/>
<path d="M108.88 1.07996H102.15V7.80997H108.88V1.07996Z" stroke="white" stroke-width="0.25" stroke-miterlimit="10"/>
<path d="M61.7801 7.79993H55.05V14.53H61.7801V7.79993Z" stroke="white" stroke-width="0.25" stroke-miterlimit="10"/>
<path d="M68.51 7.79993H61.78V14.53H68.51V7.79993Z" stroke="white" stroke-width="0.25" stroke-miterlimit="10"/>
<path d="M75.24 7.79993H68.51V14.53H75.24V7.79993Z" stroke="white" stroke-width="0.25" stroke-miterlimit="10"/>
<path d="M81.96 7.79993H75.23V14.53H81.96V7.79993Z" stroke="white" stroke-width="0.25" stroke-miterlimit="10"/>
<path d="M88.69 7.79993H81.96V14.53H88.69V7.79993Z" stroke="white" stroke-width="0.25" stroke-miterlimit="10"/>
<path d="M95.4199 7.79993H88.6899V14.53H95.4199V7.79993Z" stroke="white" stroke-width="0.25" stroke-miterlimit="10"/>
<path d="M102.15 7.79993H95.4199V14.53H102.15V7.79993Z" stroke="white" stroke-width="0.25" stroke-miterlimit="10"/>
<path d="M108.88 7.79993H102.15V14.53H108.88V7.79993Z" stroke="white" stroke-width="0.25" stroke-miterlimit="10"/>
<path d="M61.7801 14.53H55.05V21.26H61.7801V14.53Z" stroke="white" stroke-width="0.25" stroke-miterlimit="10"/>
<path d="M68.51 14.53H61.78V21.26H68.51V14.53Z" stroke="white" stroke-width="0.25" stroke-miterlimit="10"/>
<path d="M75.24 14.53H68.51V21.26H75.24V14.53Z" stroke="white" stroke-width="0.25" stroke-miterlimit="10"/>
<path d="M81.96 14.53H75.23V21.26H81.96V14.53Z" stroke="white" stroke-width="0.25" stroke-miterlimit="10"/>
<path d="M88.69 14.53H81.96V21.26H88.69V14.53Z" stroke="white" stroke-width="0.25" stroke-miterlimit="10"/>
<path d="M95.4199 14.53H88.6899V21.26H95.4199V14.53Z" stroke="white" stroke-width="0.25" stroke-miterlimit="10"/>
<path d="M102.15 14.53H95.4199V21.26H102.15V14.53Z" stroke="white" stroke-width="0.25" stroke-miterlimit="10"/>
<path d="M108.88 14.53H102.15V21.26H108.88V14.53Z" stroke="white" stroke-width="0.25" stroke-miterlimit="10"/>
<path d="M61.7801 21.26H55.05V27.99H61.7801V21.26Z" stroke="white" stroke-width="0.25" stroke-miterlimit="10"/>
<path d="M68.51 21.26H61.78V27.99H68.51V21.26Z" stroke="white" stroke-width="0.25" stroke-miterlimit="10"/>
<path d="M75.24 21.26H68.51V27.99H75.24V21.26Z" stroke="white" stroke-width="0.25" stroke-miterlimit="10"/>
<path d="M81.96 21.26H75.23V27.99H81.96V21.26Z" stroke="white" stroke-width="0.25" stroke-miterlimit="10"/>
<path d="M88.69 21.26H81.96V27.99H88.69V21.26Z" stroke="white" stroke-width="0.25" stroke-miterlimit="10"/>
<path d="M95.4199 21.26H88.6899V27.99H95.4199V21.26Z" stroke="white" stroke-width="0.25" stroke-miterlimit="10"/>
<path d="M102.15 21.26H95.4199V27.99H102.15V21.26Z" stroke="white" stroke-width="0.25" stroke-miterlimit="10"/>
<path d="M108.88 21.26H102.15V27.99H108.88V21.26Z" stroke="white" stroke-width="0.25" stroke-miterlimit="10"/>
<path d="M61.7801 28.0499H55.05V34.78H61.7801V28.0499Z" stroke="white" stroke-width="0.25" stroke-miterlimit="10"/>
<path d="M68.51 28.0499H61.78V34.78H68.51V28.0499Z" stroke="white" stroke-width="0.25" stroke-miterlimit="10"/>
<path d="M75.24 28.0499H68.51V34.78H75.24V28.0499Z" stroke="white" stroke-width="0.25" stroke-miterlimit="10"/>
<path d="M81.96 28.0499H75.23V34.78H81.96V28.0499Z" stroke="white" stroke-width="0.25" stroke-miterlimit="10"/>
<path d="M88.69 28.0499H81.96V34.78H88.69V28.0499Z" stroke="white" stroke-width="0.25" stroke-miterlimit="10"/>
<path d="M95.4199 28.0499H88.6899V34.78H95.4199V28.0499Z" stroke="white" stroke-width="0.25" stroke-miterlimit="10"/>
<path d="M102.15 28.0499H95.4199V34.78H102.15V28.0499Z" stroke="white" stroke-width="0.25" stroke-miterlimit="10"/>
<path d="M108.88 28.0499H102.15V34.78H108.88V28.0499Z" stroke="white" stroke-width="0.25" stroke-miterlimit="10"/>
<path d="M61.7801 34.78H55.05V41.51H61.7801V34.78Z" stroke="white" stroke-width="0.25" stroke-miterlimit="10"/>
<path d="M68.51 34.78H61.78V41.51H68.51V34.78Z" stroke="white" stroke-width="0.25" stroke-miterlimit="10"/>
<path d="M75.24 34.78H68.51V41.51H75.24V34.78Z" stroke="white" stroke-width="0.25" stroke-miterlimit="10"/>
<path d="M81.96 34.78H75.23V41.51H81.96V34.78Z" stroke="white" stroke-width="0.25" stroke-miterlimit="10"/>
<path d="M88.69 34.78H81.96V41.51H88.69V34.78Z" stroke="white" stroke-width="0.25" stroke-miterlimit="10"/>
<path d="M95.4199 34.78H88.6899V41.51H95.4199V34.78Z" stroke="white" stroke-width="0.25" stroke-miterlimit="10"/>
<path d="M102.15 34.78H95.4199V41.51H102.15V34.78Z" stroke="white" stroke-width="0.25" stroke-miterlimit="10"/>
<path d="M108.88 34.78H102.15V41.51H108.88V34.78Z" stroke="white" stroke-width="0.25" stroke-miterlimit="10"/>
<path d="M61.7801 41.5H55.05V48.23H61.7801V41.5Z" stroke="white" stroke-width="0.25" stroke-miterlimit="10"/>
<path d="M68.51 41.5H61.78V48.23H68.51V41.5Z" stroke="white" stroke-width="0.25" stroke-miterlimit="10"/>
<path d="M75.24 41.5H68.51V48.23H75.24V41.5Z" stroke="white" stroke-width="0.25" stroke-miterlimit="10"/>
<path d="M81.96 41.5H75.23V48.23H81.96V41.5Z" stroke="white" stroke-width="0.25" stroke-miterlimit="10"/>
<path d="M88.69 41.5H81.96V48.23H88.69V41.5Z" stroke="white" stroke-width="0.25" stroke-miterlimit="10"/>
<path d="M95.4199 41.5H88.6899V48.23H95.4199V41.5Z" stroke="white" stroke-width="0.25" stroke-miterlimit="10"/>
<path d="M102.15 41.5H95.4199V48.23H102.15V41.5Z" stroke="white" stroke-width="0.25" stroke-miterlimit="10"/>
<path d="M108.88 41.5H102.15V48.23H108.88V41.5Z" stroke="white" stroke-width="0.25" stroke-miterlimit="10"/>
<path d="M61.7801 48.23H55.05V54.96H61.7801V48.23Z" stroke="white" stroke-width="0.25" stroke-miterlimit="10"/>
<path d="M68.51 48.23H61.78V54.96H68.51V48.23Z" stroke="white" stroke-width="0.25" stroke-miterlimit="10"/>
<path d="M75.24 48.23H68.51V54.96H75.24V48.23Z" stroke="white" stroke-width="0.25" stroke-miterlimit="10"/>
<path d="M81.96 48.23H75.23V54.96H81.96V48.23Z" stroke="white" stroke-width="0.25" stroke-miterlimit="10"/>
<path d="M88.69 48.23H81.96V54.96H88.69V48.23Z" stroke="white" stroke-width="0.25" stroke-miterlimit="10"/>
<path d="M95.4199 48.23H88.6899V54.96H95.4199V48.23Z" stroke="white" stroke-width="0.25" stroke-miterlimit="10"/>
<path d="M102.15 48.23H95.4199V54.96H102.15V48.23Z" stroke="white" stroke-width="0.25" stroke-miterlimit="10"/>
<path d="M108.88 48.23H102.15V54.96H108.88V48.23Z" stroke="white" stroke-width="0.25" stroke-miterlimit="10"/>
<path d="M61.7801 54.96H55.05V61.6899H61.7801V54.96Z" stroke="white" stroke-width="0.25" stroke-miterlimit="10"/>
<path d="M68.51 54.96H61.78V61.6899H68.51V54.96Z" stroke="white" stroke-width="0.25" stroke-miterlimit="10"/>
<path d="M75.24 54.96H68.51V61.6899H75.24V54.96Z" stroke="white" stroke-width="0.25" stroke-miterlimit="10"/>
<path d="M81.96 54.96H75.23V61.6899H81.96V54.96Z" stroke="white" stroke-width="0.25" stroke-miterlimit="10"/>
<path d="M88.69 54.96H81.96V61.6899H88.69V54.96Z" stroke="white" stroke-width="0.25" stroke-miterlimit="10"/>
<path d="M95.4199 54.96H88.6899V61.6899H95.4199V54.96Z" stroke="white" stroke-width="0.25" stroke-miterlimit="10"/>
<path d="M102.15 54.96H95.4199V61.6899H102.15V54.96Z" stroke="white" stroke-width="0.25" stroke-miterlimit="10"/>
<path d="M108.88 54.96H102.15V61.6899H108.88V54.96Z" stroke="white" stroke-width="0.25" stroke-miterlimit="10"/>
<path d="M61.7801 61.6899H55.05V68.4199H61.7801V61.6899Z" stroke="white" stroke-width="0.25" stroke-miterlimit="10"/>
<path d="M68.51 61.6899H61.78V68.4199H68.51V61.6899Z" stroke="white" stroke-width="0.25" stroke-miterlimit="10"/>
<path d="M75.24 61.6899H68.51V68.4199H75.24V61.6899Z" stroke="white" stroke-width="0.25" stroke-miterlimit="10"/>
<path d="M81.96 61.6899H75.23V68.4199H81.96V61.6899Z" stroke="white" stroke-width="0.25" stroke-miterlimit="10"/>
<path d="M88.69 61.6899H81.96V68.4199H88.69V61.6899Z" stroke="white" stroke-width="0.25" stroke-miterlimit="10"/>
<path d="M95.4199 61.6899H88.6899V68.4199H95.4199V61.6899Z" stroke="white" stroke-width="0.25" stroke-miterlimit="10"/>
<path d="M102.15 61.6899H95.4199V68.4199H102.15V61.6899Z" stroke="white" stroke-width="0.25" stroke-miterlimit="10"/>
<path d="M108.88 61.6899H102.15V68.4199H108.88V61.6899Z" stroke="white" stroke-width="0.25" stroke-miterlimit="10"/>
<path d="M61.7801 68.4199H55.05V75.15H61.7801V68.4199Z" stroke="white" stroke-width="0.25" stroke-miterlimit="10"/>
<path d="M68.51 68.4199H61.78V75.15H68.51V68.4199Z" stroke="white" stroke-width="0.25" stroke-miterlimit="10"/>
<path d="M75.24 68.4199H68.51V75.15H75.24V68.4199Z" stroke="white" stroke-width="0.25" stroke-miterlimit="10"/>
<path d="M81.96 68.4199H75.23V75.15H81.96V68.4199Z" stroke="white" stroke-width="0.25" stroke-miterlimit="10"/>
<path d="M88.69 68.4199H81.96V75.15H88.69V68.4199Z" stroke="white" stroke-width="0.25" stroke-miterlimit="10"/>
<path d="M95.4199 68.4199H88.6899V75.15H95.4199V68.4199Z" stroke="white" stroke-width="0.25" stroke-miterlimit="10"/>
<path d="M102.15 68.4199H95.4199V75.15H102.15V68.4199Z" stroke="white" stroke-width="0.25" stroke-miterlimit="10"/>
<path d="M108.88 68.4199H102.15V75.15H108.88V68.4199Z" stroke="white" stroke-width="0.25" stroke-miterlimit="10"/>
<path d="M61.7801 75.15H55.05V81.88H61.7801V75.15Z" stroke="white" stroke-width="0.25" stroke-miterlimit="10"/>
<path d="M68.51 75.15H61.78V81.88H68.51V75.15Z" stroke="white" stroke-width="0.25" stroke-miterlimit="10"/>
<path d="M75.24 75.15H68.51V81.88H75.24V75.15Z" stroke="white" stroke-width="0.25" stroke-miterlimit="10"/>
<path d="M81.96 75.15H75.23V81.88H81.96V75.15Z" stroke="white" stroke-width="0.25" stroke-miterlimit="10"/>
<path d="M88.69 75.15H81.96V81.88H88.69V75.15Z" stroke="white" stroke-width="0.25" stroke-miterlimit="10"/>
<path d="M95.4199 75.15H88.6899V81.88H95.4199V75.15Z" stroke="white" stroke-width="0.25" stroke-miterlimit="10"/>
<path d="M102.15 75.15H95.4199V81.88H102.15V75.15Z" stroke="white" stroke-width="0.25" stroke-miterlimit="10"/>
<path d="M108.88 75.15H102.15V81.88H108.88V75.15Z" stroke="white" stroke-width="0.25" stroke-miterlimit="10"/>
<path d="M61.7801 81.9299H55.05V88.6599H61.7801V81.9299Z" stroke="white" stroke-width="0.25" stroke-miterlimit="10"/>
<path d="M68.51 81.9299H61.78V88.6599H68.51V81.9299Z" stroke="white" stroke-width="0.25" stroke-miterlimit="10"/>
<path d="M75.24 81.9299H68.51V88.6599H75.24V81.9299Z" stroke="white" stroke-width="0.25" stroke-miterlimit="10"/>
<path d="M81.96 81.9299H75.23V88.6599H81.96V81.9299Z" stroke="white" stroke-width="0.25" stroke-miterlimit="10"/>
<path d="M88.69 81.9299H81.96V88.6599H88.69V81.9299Z" stroke="white" stroke-width="0.25" stroke-miterlimit="10"/>
<path d="M95.4199 81.9299H88.6899V88.6599H95.4199V81.9299Z" stroke="white" stroke-width="0.25" stroke-miterlimit="10"/>
<path d="M102.15 81.9299H95.4199V88.6599H102.15V81.9299Z" stroke="white" stroke-width="0.25" stroke-miterlimit="10"/>
<path d="M108.88 81.9299H102.15V88.6599H108.88V81.9299Z" stroke="white" stroke-width="0.25" stroke-miterlimit="10"/>
<path d="M61.7801 88.6599H55.05V95.39H61.7801V88.6599Z" stroke="white" stroke-width="0.25" stroke-miterlimit="10"/>
<path d="M68.51 88.6599H61.78V95.39H68.51V88.6599Z" stroke="white" stroke-width="0.25" stroke-miterlimit="10"/>
<path d="M75.24 88.6599H68.51V95.39H75.24V88.6599Z" stroke="white" stroke-width="0.25" stroke-miterlimit="10"/>
<path d="M81.96 88.6599H75.23V95.39H81.96V88.6599Z" stroke="white" stroke-width="0.25" stroke-miterlimit="10"/>
<path d="M88.69 88.6599H81.96V95.39H88.69V88.6599Z" stroke="white" stroke-width="0.25" stroke-miterlimit="10"/>
<path d="M95.4199 88.6599H88.6899V95.39H95.4199V88.6599Z" stroke="white" stroke-width="0.25" stroke-miterlimit="10"/>
<path d="M102.15 88.6599H95.4199V95.39H102.15V88.6599Z" stroke="white" stroke-width="0.25" stroke-miterlimit="10"/>
<path d="M108.88 88.6599H102.15V95.39H108.88V88.6599Z" stroke="white" stroke-width="0.25" stroke-miterlimit="10"/>
<path d="M61.7801 95.39H55.05V102.12H61.7801V95.39Z" stroke="white" stroke-width="0.25" stroke-miterlimit="10"/>
<path d="M68.51 95.39H61.78V102.12H68.51V95.39Z" stroke="white" stroke-width="0.25" stroke-miterlimit="10"/>
<path d="M75.24 95.39H68.51V102.12H75.24V95.39Z" stroke="white" stroke-width="0.25" stroke-miterlimit="10"/>
<path d="M81.96 95.39H75.23V102.12H81.96V95.39Z" stroke="white" stroke-width="0.25" stroke-miterlimit="10"/>
<path d="M88.69 95.39H81.96V102.12H88.69V95.39Z" stroke="white" stroke-width="0.25" stroke-miterlimit="10"/>
<path d="M95.4199 95.39H88.6899V102.12H95.4199V95.39Z" stroke="white" stroke-width="0.25" stroke-miterlimit="10"/>
<path d="M102.15 95.39H95.4199V102.12H102.15V95.39Z" stroke="white" stroke-width="0.25" stroke-miterlimit="10"/>
<path d="M108.88 95.39H102.15V102.12H108.88V95.39Z" stroke="white" stroke-width="0.25" stroke-miterlimit="10"/>
<path d="M61.7801 102.12H55.05V108.85H61.7801V102.12Z" stroke="white" stroke-width="0.25" stroke-miterlimit="10"/>
<path d="M68.51 102.12H61.78V108.85H68.51V102.12Z" stroke="white" stroke-width="0.25" stroke-miterlimit="10"/>
<path d="M75.24 102.12H68.51V108.85H75.24V102.12Z" stroke="white" stroke-width="0.25" stroke-miterlimit="10"/>
<path d="M81.96 102.12H75.23V108.85H81.96V102.12Z" stroke="white" stroke-width="0.25" stroke-miterlimit="10"/>
<path d="M88.69 102.12H81.96V108.85H88.69V102.12Z" stroke="white" stroke-width="0.25" stroke-miterlimit="10"/>
<path d="M95.4199 102.12H88.6899V108.85H95.4199V102.12Z" stroke="white" stroke-width="0.25" stroke-miterlimit="10"/>
<path d="M102.15 102.12H95.4199V108.85H102.15V102.12Z" stroke="white" stroke-width="0.25" stroke-miterlimit="10"/>
<path d="M108.88 102.12H102.15V108.85H108.88V102.12Z" stroke="white" stroke-width="0.25" stroke-miterlimit="10"/>
<path d="M7.73 108.85H1V115.58H7.73V108.85Z" stroke="white" stroke-width="0.25" stroke-miterlimit="10"/>
<path d="M14.46 108.85H7.72998V115.58H14.46V108.85Z" stroke="white" stroke-width="0.25" stroke-miterlimit="10"/>
<path d="M21.19 108.85H14.46V115.58H21.19V108.85Z" stroke="white" stroke-width="0.25" stroke-miterlimit="10"/>
<path d="M27.9199 108.85H21.1899V115.58H27.9199V108.85Z" stroke="white" stroke-width="0.25" stroke-miterlimit="10"/>
<path d="M34.6499 108.85H27.9199V115.58H34.6499V108.85Z" stroke="white" stroke-width="0.25" stroke-miterlimit="10"/>
<path d="M41.3799 108.85H34.6499V115.58H41.3799V108.85Z" stroke="white" stroke-width="0.25" stroke-miterlimit="10"/>
<path d="M48.1099 108.85H41.3799V115.58H48.1099V108.85Z" stroke="white" stroke-width="0.25" stroke-miterlimit="10"/>
<path d="M54.8401 108.85H48.1101V115.58H54.8401V108.85Z" stroke="white" stroke-width="0.25" stroke-miterlimit="10"/>
<path d="M7.73 115.63H1V122.36H7.73V115.63Z" stroke="white" stroke-width="0.25" stroke-miterlimit="10"/>
<path d="M14.46 115.63H7.72998V122.36H14.46V115.63Z" stroke="white" stroke-width="0.25" stroke-miterlimit="10"/>
<path d="M21.19 115.63H14.46V122.36H21.19V115.63Z" stroke="white" stroke-width="0.25" stroke-miterlimit="10"/>
<path d="M27.9199 115.63H21.1899V122.36H27.9199V115.63Z" stroke="white" stroke-width="0.25" stroke-miterlimit="10"/>
<path d="M34.6499 115.63H27.9199V122.36H34.6499V115.63Z" stroke="white" stroke-width="0.25" stroke-miterlimit="10"/>
<path d="M41.3799 115.63H34.6499V122.36H41.3799V115.63Z" stroke="white" stroke-width="0.25" stroke-miterlimit="10"/>
<path d="M48.1099 115.63H41.3799V122.36H48.1099V115.63Z" stroke="white" stroke-width="0.25" stroke-miterlimit="10"/>
<path d="M54.8401 115.63H48.1101V122.36H54.8401V115.63Z" stroke="white" stroke-width="0.25" stroke-miterlimit="10"/>
<path d="M7.73 122.36H1V129.09H7.73V122.36Z" stroke="white" stroke-width="0.25" stroke-miterlimit="10"/>
<path d="M14.46 122.36H7.72998V129.09H14.46V122.36Z" stroke="white" stroke-width="0.25" stroke-miterlimit="10"/>
<path d="M21.19 122.36H14.46V129.09H21.19V122.36Z" stroke="white" stroke-width="0.25" stroke-miterlimit="10"/>
<path d="M27.9199 122.36H21.1899V129.09H27.9199V122.36Z" stroke="white" stroke-width="0.25" stroke-miterlimit="10"/>
<path d="M34.6499 122.36H27.9199V129.09H34.6499V122.36Z" stroke="white" stroke-width="0.25" stroke-miterlimit="10"/>
<path d="M41.3799 122.36H34.6499V129.09H41.3799V122.36Z" stroke="white" stroke-width="0.25" stroke-miterlimit="10"/>
<path d="M48.1099 122.36H41.3799V129.09H48.1099V122.36Z" stroke="white" stroke-width="0.25" stroke-miterlimit="10"/>
<path d="M54.8401 122.36H48.1101V129.09H54.8401V122.36Z" stroke="white" stroke-width="0.25" stroke-miterlimit="10"/>
<path d="M7.73 129.09H1V135.82H7.73V129.09Z" stroke="white" stroke-width="0.25" stroke-miterlimit="10"/>
<path d="M14.46 129.09H7.72998V135.82H14.46V129.09Z" stroke="white" stroke-width="0.25" stroke-miterlimit="10"/>
<path d="M21.19 129.09H14.46V135.82H21.19V129.09Z" stroke="white" stroke-width="0.25" stroke-miterlimit="10"/>
<path d="M27.9199 129.09H21.1899V135.82H27.9199V129.09Z" stroke="white" stroke-width="0.25" stroke-miterlimit="10"/>
<path d="M34.6499 129.09H27.9199V135.82H34.6499V129.09Z" stroke="white" stroke-width="0.25" stroke-miterlimit="10"/>
<path d="M41.3799 129.09H34.6499V135.82H41.3799V129.09Z" stroke="white" stroke-width="0.25" stroke-miterlimit="10"/>
<path d="M48.1099 129.09H41.3799V135.82H48.1099V129.09Z" stroke="white" stroke-width="0.25" stroke-miterlimit="10"/>
<path d="M54.8401 129.09H48.1101V135.82H54.8401V129.09Z" stroke="white" stroke-width="0.25" stroke-miterlimit="10"/>
<path d="M7.73 135.82H1V142.55H7.73V135.82Z" stroke="white" stroke-width="0.25" stroke-miterlimit="10"/>
<path d="M14.46 135.82H7.72998V142.55H14.46V135.82Z" stroke="white" stroke-width="0.25" stroke-miterlimit="10"/>
<path d="M21.19 135.82H14.46V142.55H21.19V135.82Z" stroke="white" stroke-width="0.25" stroke-miterlimit="10"/>
<path d="M27.9199 135.82H21.1899V142.55H27.9199V135.82Z" stroke="white" stroke-width="0.25" stroke-miterlimit="10"/>
<path d="M34.6499 135.82H27.9199V142.55H34.6499V135.82Z" stroke="white" stroke-width="0.25" stroke-miterlimit="10"/>
<path d="M41.3799 135.82H34.6499V142.55H41.3799V135.82Z" stroke="white" stroke-width="0.25" stroke-miterlimit="10"/>
<path d="M48.1099 135.82H41.3799V142.55H48.1099V135.82Z" stroke="white" stroke-width="0.25" stroke-miterlimit="10"/>
<path d="M54.8401 135.82H48.1101V142.55H54.8401V135.82Z" stroke="white" stroke-width="0.25" stroke-miterlimit="10"/>
<path d="M61.7801 108.85H55.05V115.58H61.7801V108.85Z" stroke="white" stroke-width="0.25" stroke-miterlimit="10"/>
<path d="M68.51 108.85H61.78V115.58H68.51V108.85Z" stroke="white" stroke-width="0.25" stroke-miterlimit="10"/>
<path d="M75.24 108.85H68.51V115.58H75.24V108.85Z" stroke="white" stroke-width="0.25" stroke-miterlimit="10"/>
<path d="M81.96 108.85H75.23V115.58H81.96V108.85Z" stroke="white" stroke-width="0.25" stroke-miterlimit="10"/>
<path d="M88.69 108.85H81.96V115.58H88.69V108.85Z" stroke="white" stroke-width="0.25" stroke-miterlimit="10"/>
<path d="M95.4199 108.85H88.6899V115.58H95.4199V108.85Z" stroke="white" stroke-width="0.25" stroke-miterlimit="10"/>
<path d="M102.15 108.85H95.4199V115.58H102.15V108.85Z" stroke="white" stroke-width="0.25" stroke-miterlimit="10"/>
<path d="M108.88 108.85H102.15V115.58H108.88V108.85Z" stroke="white" stroke-width="0.25" stroke-miterlimit="10"/>
<path d="M61.7801 115.63H55.05V122.36H61.7801V115.63Z" stroke="white" stroke-width="0.25" stroke-miterlimit="10"/>
<path d="M68.51 115.63H61.78V122.36H68.51V115.63Z" stroke="white" stroke-width="0.25" stroke-miterlimit="10"/>
<path d="M75.24 115.63H68.51V122.36H75.24V115.63Z" stroke="white" stroke-width="0.25" stroke-miterlimit="10"/>
<path d="M81.96 115.63H75.23V122.36H81.96V115.63Z" stroke="white" stroke-width="0.25" stroke-miterlimit="10"/>
<path d="M88.69 115.63H81.96V122.36H88.69V115.63Z" stroke="white" stroke-width="0.25" stroke-miterlimit="10"/>
<path d="M95.4199 115.63H88.6899V122.36H95.4199V115.63Z" stroke="white" stroke-width="0.25" stroke-miterlimit="10"/>
<path d="M102.15 115.63H95.4199V122.36H102.15V115.63Z" stroke="white" stroke-width="0.25" stroke-miterlimit="10"/>
<path d="M108.88 115.63H102.15V122.36H108.88V115.63Z" stroke="white" stroke-width="0.25" stroke-miterlimit="10"/>
<path d="M61.7801 122.36H55.05V129.09H61.7801V122.36Z" stroke="white" stroke-width="0.25" stroke-miterlimit="10"/>
<path d="M68.51 122.36H61.78V129.09H68.51V122.36Z" stroke="white" stroke-width="0.25" stroke-miterlimit="10"/>
<path d="M75.24 122.36H68.51V129.09H75.24V122.36Z" stroke="white" stroke-width="0.25" stroke-miterlimit="10"/>
<path d="M81.96 122.36H75.23V129.09H81.96V122.36Z" stroke="white" stroke-width="0.25" stroke-miterlimit="10"/>
<path d="M88.69 122.36H81.96V129.09H88.69V122.36Z" stroke="white" stroke-width="0.25" stroke-miterlimit="10"/>
<path d="M95.4199 122.36H88.6899V129.09H95.4199V122.36Z" stroke="white" stroke-width="0.25" stroke-miterlimit="10"/>
<path d="M102.15 122.36H95.4199V129.09H102.15V122.36Z" stroke="white" stroke-width="0.25" stroke-miterlimit="10"/>
<path d="M108.88 122.36H102.15V129.09H108.88V122.36Z" stroke="white" stroke-width="0.25" stroke-miterlimit="10"/>
<path d="M61.7801 129.09H55.05V135.82H61.7801V129.09Z" stroke="white" stroke-width="0.25" stroke-miterlimit="10"/>
<path d="M68.51 129.09H61.78V135.82H68.51V129.09Z" stroke="white" stroke-width="0.25" stroke-miterlimit="10"/>
<path d="M75.24 129.09H68.51V135.82H75.24V129.09Z" stroke="white" stroke-width="0.25" stroke-miterlimit="10"/>
<path d="M81.96 129.09H75.23V135.82H81.96V129.09Z" stroke="white" stroke-width="0.25" stroke-miterlimit="10"/>
<path d="M88.69 129.09H81.96V135.82H88.69V129.09Z" stroke="white" stroke-width="0.25" stroke-miterlimit="10"/>
<path d="M95.4199 129.09H88.6899V135.82H95.4199V129.09Z" stroke="white" stroke-width="0.25" stroke-miterlimit="10"/>
<path d="M102.15 129.09H95.4199V135.82H102.15V129.09Z" stroke="white" stroke-width="0.25" stroke-miterlimit="10"/>
<path d="M108.88 129.09H102.15V135.82H108.88V129.09Z" stroke="white" stroke-width="0.25" stroke-miterlimit="10"/>
<path d="M61.7801 135.82H55.05V142.55H61.7801V135.82Z" stroke="white" stroke-width="0.25" stroke-miterlimit="10"/>
<path d="M68.51 135.82H61.78V142.55H68.51V135.82Z" stroke="white" stroke-width="0.25" stroke-miterlimit="10"/>
<path d="M75.24 135.82H68.51V142.55H75.24V135.82Z" stroke="white" stroke-width="0.25" stroke-miterlimit="10"/>
<path d="M81.96 135.82H75.23V142.55H81.96V135.82Z" stroke="white" stroke-width="0.25" stroke-miterlimit="10"/>
<path d="M88.69 135.82H81.96V142.55H88.69V135.82Z" stroke="white" stroke-width="0.25" stroke-miterlimit="10"/>
<path d="M95.4199 135.82H88.6899V142.55H95.4199V135.82Z" stroke="white" stroke-width="0.25" stroke-miterlimit="10"/>
<path d="M102.15 135.82H95.4199V142.55H102.15V135.82Z" stroke="white" stroke-width="0.25" stroke-miterlimit="10"/>
<path d="M108.88 135.82H102.15V142.55H108.88V135.82Z" stroke="white" stroke-width="0.25" stroke-miterlimit="10"/>
<path d="M48.02 1H1.02002V8H48.02V1Z" fill="white"/>
<path d="M109.02 129H62.02V143H109.02V129Z" fill="white"/>
<path d="M108.02 2H95.02V15H108.02V2Z" fill="#F8EC2C"/>
<path d="M15.02 129H2.02002V142H15.02V129Z" fill="#F8EC2C"/>
<path d="M38.2899 56.23C37.6499 56.23 37.1299 55.71 37.1299 55.07V36.82C37.1299 36.18 37.6499 35.66 38.2899 35.66C38.9299 35.66 39.4499 36.18 39.4499 36.82V55.07C39.4499 55.71 38.9299 56.23 38.2899 56.23Z" fill="#989898"/>
<path d="M52.8797 53.11C52.2397 53.11 51.7197 52.59 51.7197 51.95V28.32C51.7197 27.68 52.2397 27.16 52.8797 27.16C53.5197 27.16 54.0397 27.68 54.0397 28.32V51.95C54.0397 52.59 53.5197 53.11 52.8797 53.11Z" fill="#989898"/>
<path d="M67.2097 53.11C66.5697 53.11 66.0497 52.59 66.0497 51.95L65.9998 28.61C65.9998 27.97 66.5198 27.45 67.1598 27.45C67.7998 27.45 68.3197 27.97 68.3197 28.61L68.3698 51.95C68.3698 52.59 67.8497 53.11 67.2097 53.11Z" fill="#989898"/>
<path d="M66.4198 102.52C66.0398 102.52 65.6798 102.31 65.5098 101.95C64.8398 100.59 59.1298 88.56 64.5698 85.58C64.7398 85.49 64.9398 85.38 65.1798 85.25C68.2398 83.62 76.3598 79.29 80.8698 72.39C81.1798 71.92 81.8098 71.79 82.2798 72.09C82.7498 72.4 82.8798 73.03 82.5798 73.5C77.7898 80.84 69.3298 85.35 66.1498 87.05C65.9198 87.17 65.7198 87.28 65.5598 87.37C62.3898 89.1 65.8798 98.05 67.3498 101.05C67.5998 101.55 67.3898 102.16 66.8798 102.41C66.7398 102.48 66.5798 102.51 66.4298 102.51L66.4198 102.52Z" fill="#989898"/>
<path d="M34.1599 59.41C33.8399 59.41 33.5198 59.26 33.3198 58.97C32.9998 58.51 33.1098 57.87 33.5798 57.55C40.6998 52.61 49.9599 52.03 57.3999 51.56C57.9599 51.53 58.4398 51.95 58.4798 52.51C58.5198 53.07 58.0899 53.55 57.5299 53.59C50.3399 54.04 41.3899 54.61 34.7499 59.22C34.5699 59.34 34.3698 59.4 34.1698 59.4L34.1599 59.41Z" fill="#989898"/>
<path d="M63.6198 115.13H47.1798C43.7998 115.13 37.3298 114.56 32.0998 110.72C26.7598 106.81 24.0498 100.66 24.0498 92.44V39.55C24.0498 35.8 28.0798 31.84 31.8898 31.84C33.8598 31.84 35.8398 32.73 37.2798 33.92C37.3398 32.32 37.3998 30.58 37.3998 29.72C37.3998 27.15 40.4198 22.16 45.9498 22.16C47.9898 22.16 50.1998 23.06 51.8198 24.51V22.23C51.8198 19.22 54.3298 14.98 59.9198 14.98C65.5098 14.98 68.2898 19.32 68.2898 22.46V25.56C69.6498 24.48 71.7898 23.56 75.1398 23.56C80.9998 23.56 82.9798 29.07 82.9798 31.59C82.9798 33.34 82.4398 60.34 82.2498 70.08C84.6498 67.35 88.6898 63.54 92.6598 63.34C94.6798 63.24 96.4498 64.02 97.9098 65.69C100.92 69.13 99.7198 75.43 94.2498 84.95C91.4098 89.9 87.5298 95.5 82.7298 101.58C77.5798 108.1 69.3998 115.13 63.6298 115.13H63.6198ZM31.8898 34.16C29.3698 34.16 26.3798 37.08 26.3798 39.55V92.44C26.3798 110.82 40.9298 112.81 47.1898 112.81H63.6298C68.3598 112.81 76.0598 106.29 80.9098 100.15C93.9998 83.58 99.6998 71.28 96.1598 67.24C95.1798 66.12 94.0798 65.61 92.7798 65.68C88.6598 65.9 83.5798 71.88 81.9598 74.17C81.6698 74.59 81.1298 74.77 80.6498 74.61C80.1598 74.45 79.8398 73.99 79.8498 73.48C79.8498 73.08 80.6498 33.69 80.6498 31.62C80.6498 30.42 79.7098 25.92 75.1398 25.92C69.1498 25.92 68.2998 29.37 68.2698 29.52C68.1498 30.11 67.6198 30.5 67.0198 30.45C66.4198 30.39 65.9698 29.88 65.9698 29.29V22.5C65.9698 20.7 64.1998 17.34 59.9198 17.34C55.6398 17.34 54.1398 20.36 54.1398 22.26V29.28C54.1398 29.92 53.6198 30.44 52.9798 30.44C52.3398 30.44 51.8198 29.92 51.8198 29.28C51.8198 26.71 48.5898 24.51 45.9498 24.51C41.5998 24.51 39.7298 28.48 39.7298 29.74C39.7298 31.62 39.4698 37.28 39.4598 37.52C39.4298 38.15 38.9098 38.65 38.2698 38.63C37.6398 38.62 37.1298 38.1 37.1298 37.47C37.1298 36.69 34.7098 34.19 31.8898 34.19V34.16Z" fill="#989898"/>
</svg>
