<svg width="101" height="16" fill="none" xmlns="http://www.w3.org/2000/svg"><g clip-path="url(#a)" fill="#fff"><path d="M68.989 19.635h10.15L100.44-2.364H90.306L68.99 19.635zM53.348 19.635H63.48L84.8-2.364H74.65L53.348 19.635zM37.69 19.635h10.15L69.141-2.364h-10.15L37.69 19.635zM22.032 19.635h10.15L53.484-2.364h-10.15l-21.3 21.999zM6.374 19.635h10.15L37.827-2.364H27.692L6.374 19.635zM-9.266 19.635H.867L22.185-2.364h-10.15L-9.267 19.635zM-24.924 19.635h10.15l21.3-21.999h-10.15l-21.3 21.999z"/></g><defs><clipPath id="a"><path fill="#fff" transform="translate(.44 .61)" d="M0 0h100v15H0z"/></clipPath></defs></svg>