<svg width="82" height="283" fill="none" xmlns="http://www.w3.org/2000/svg"><path d="M31.816 238.465c-6.58 1.766-17.654 2.809-27.324 3.21.442 1.043 1.044 3.009 1.164 4.213 9.83-.321 21.385-1.324 29.65-3.45l-3.49-3.973zM4.853 249.86v4.614h31.738v-4.614H4.852zm-2.768 9.349v4.694h36.873v-4.694H2.085zm15.969-15.086v26.28c0 .803-.361 1.083-1.284 1.083s-4.293.041-7.262-.08c.722 1.244 1.645 3.411 1.966 4.775 4.092.04 7.021-.08 8.947-.843 1.926-.722 2.648-2.006 2.648-4.855v-26.36h-5.015zm43.413 6.098v4.334H75.83v-4.334H61.467zm.04 9.469v4.374H75.87v-4.374H61.507zm-.04 9.509v4.334H75.87v-4.334H61.467zm-2.288-28.487V275.9h4.615v-30.654h9.469v30.413h4.854v-34.947H59.18zm-16.851 6.099v4.574h15.447v-4.574H42.328zm5.818-8.265v37.675h4.614v-37.675h-4.614zm-.281 11.354c-1.083 5.136-3.651 11.395-6.54 14.886.722 1.204 1.846 3.17 2.287 4.534 3.17-4.173 5.818-11.877 7.142-18.416l-2.89-1.004zm4.534 3.531-2.207 2.207c1.444 2.006 4.293 6.379 5.457 8.747l2.728-3.892c-.883-1.083-4.815-5.938-5.978-7.062z" fill="#989898" opacity=".15"/><path d="M1.77.61h23.35v8.991c0 1.728-.338 3.201-1.014 4.418-.669 1.216-1.6 2.144-2.793 2.782-1.186.645-2.554.968-4.105.968-1.55 0-2.919-.327-4.104-.98-1.186-.652-2.11-1.598-2.77-2.837-.662-1.232-.993-2.723-.993-4.473V3.748h3.956V8.7c0 .927.164 1.691.49 2.292.335.608.795 1.06 1.38 1.358.593.304 1.273.456 2.041.456.775 0 1.452-.152 2.03-.456a3.083 3.083 0 0 0 1.356-1.358c.327-.608.49-1.38.49-2.315V5.428H1.772V.61zM18.405 33.261c.92-.089 1.634-.471 2.144-1.146.509-.675.764-1.591.764-2.749 0-.786-.114-1.45-.342-1.991-.22-.542-.529-.957-.924-1.247a2.26 2.26 0 0 0-1.345-.423c-.418-.014-.783.07-1.095.256a2.706 2.706 0 0 0-.81.79 5.94 5.94 0 0 0-.58 1.158c-.16.437-.297.905-.411 1.402l-.502 2.047a14.206 14.206 0 0 1-.912 2.738c-.38.83-.848 1.55-1.402 2.158a5.822 5.822 0 0 1-1.962 1.413c-.752.342-1.615.516-2.588.523-1.429-.007-2.668-.363-3.716-1.068-1.042-.697-1.851-1.706-2.429-3.026-.57-1.313-.855-2.897-.855-4.752 0-1.84.289-3.442.866-4.807.578-1.357 1.433-2.418 2.566-3.182 1.14-.757 2.55-1.154 4.23-1.191v4.662c-.783.052-1.437.271-1.961.657-.517.393-.909.916-1.175 1.569-.258.66-.387 1.406-.387 2.236 0 .817.121 1.525.365 2.126.243.608.581 1.08 1.014 1.413.433.334.931.5 1.494.5.524 0 .965-.151 1.322-.455.358-.297.662-.735.913-1.314.25-.57.478-1.272.684-2.103l.638-2.481c.479-1.921 1.228-3.439 2.246-4.551 1.019-1.113 2.39-1.666 4.116-1.658 1.414-.008 2.649.36 3.706 1.101 1.056.75 1.88 1.777 2.474 3.083.593 1.305.889 2.789.889 4.45 0 1.692-.297 3.168-.89 4.43-.592 1.268-1.417 2.255-2.474 2.96-1.056.704-2.28 1.068-3.67 1.09v-4.618zM25.12 40.096v5.397L15.066 50.69v.222L25.12 56.11v5.396l-15.096-8.312H1.771v-4.785h8.254l15.096-8.312zM16.946 82.868v-4.874a4.97 4.97 0 0 0 1.721-.545c.51-.275.943-.627 1.3-1.058.358-.43.631-.927.821-1.49.19-.557.285-1.162.285-1.814 0-1.18-.3-2.207-.9-3.083-.593-.875-1.46-1.554-2.6-2.036-1.133-.482-2.508-.723-4.127-.723-1.665 0-3.063.24-4.196.723-1.133.49-1.988 1.172-2.565 2.047-.578.876-.867 1.888-.867 3.038 0 .646.088 1.243.262 1.792.175.556.43 1.05.764 1.48.342.43.757.786 1.243 1.068.486.29 1.041.49 1.665.6l-.023 4.875a9.194 9.194 0 0 1-3.101-.946 9.295 9.295 0 0 1-2.657-2.014c-.775-.838-1.39-1.84-1.847-3.005-.448-1.157-.673-2.466-.673-3.928 0-2.032.472-3.85 1.414-5.452.943-1.595 2.307-2.856 4.093-3.784 1.786-.92 3.949-1.38 6.488-1.38 2.546 0 4.712.468 6.499 1.403 1.786.934 3.146 2.203 4.081 3.805.943 1.603 1.414 3.405 1.414 5.408 0 1.32-.19 2.545-.57 3.672a9.243 9.243 0 0 1-1.665 3.016 8.52 8.52 0 0 1-2.656 2.136c-1.05.557-2.25.913-3.603 1.069zM1.77 86.323h23.35v4.818h-9.634v9.781h9.635v4.807H1.77v-4.807h9.645v-9.781H1.771v-4.818zM13.446 130.644c-2.547 0-4.713-.471-6.5-1.413-1.785-.935-3.15-2.211-4.092-3.828-.935-1.61-1.403-3.42-1.403-5.43 0-2.026.472-3.843 1.414-5.453.943-1.61 2.307-2.882 4.093-3.817 1.786-.934 3.949-1.402 6.488-1.402 2.546 0 4.712.468 6.499 1.402 1.786.935 3.146 2.207 4.081 3.817.943 1.61 1.414 3.427 1.414 5.453 0 2.01-.471 3.82-1.414 5.43-.935 1.617-2.295 2.893-4.081 3.828-1.787.942-3.953 1.413-6.5 1.413zm0-4.885c1.649 0 3.04-.241 4.173-.723 1.132-.475 1.991-1.147 2.576-2.015.586-.867.878-1.884.878-3.048 0-1.165-.292-2.181-.878-3.049-.585-.868-1.444-1.543-2.576-2.026-1.133-.474-2.524-.712-4.173-.712-1.65 0-3.04.238-4.173.712-1.133.483-1.992 1.158-2.577 2.026-.585.868-.878 1.884-.878 3.049 0 1.164.293 2.181.878 3.048.585.868 1.444 1.54 2.577 2.015 1.132.482 2.523.723 4.173.723zM1.77 134.213h23.35v4.818H5.84v9.77H1.77v-14.588zM13.446 172.047c-2.547 0-4.713-.471-6.5-1.413-1.785-.935-3.15-2.211-4.092-3.828-.935-1.61-1.403-3.42-1.403-5.431 0-2.025.472-3.842 1.414-5.452.943-1.61 2.307-2.882 4.093-3.817s3.949-1.402 6.488-1.402c2.546 0 4.712.467 6.499 1.402 1.786.935 3.146 2.207 4.081 3.817.943 1.61 1.414 3.427 1.414 5.452 0 2.011-.471 3.821-1.414 5.431-.935 1.617-2.295 2.893-4.081 3.828-1.787.942-3.953 1.413-6.5 1.413zm0-4.885c1.649 0 3.04-.241 4.173-.724 1.132-.474 1.991-1.146 2.576-2.014.586-.868.878-1.884.878-3.049 0-1.164-.292-2.181-.878-3.049-.585-.868-1.444-1.543-2.576-2.025-1.133-.475-2.524-.712-4.173-.712-1.65 0-3.04.237-4.173.712-1.133.482-1.992 1.157-2.577 2.025-.585.868-.878 1.885-.878 3.049 0 1.165.293 2.181.878 3.049.585.868 1.444 1.54 2.577 2.014 1.132.483 2.523.724 4.173.724zM17.573 190.727a5.21 5.21 0 0 0 1.47-.656 4.112 4.112 0 0 0 1.095-1.035c.304-.401.536-.861.696-1.38.16-.512.24-1.079.24-1.703 0-1.164-.297-2.188-.89-3.071-.593-.875-1.456-1.558-2.588-2.047-1.125-.49-2.501-.735-4.128-.735-1.626 0-3.01.241-4.15.724-1.14.482-2.01 1.164-2.61 2.047-.593.883-.89 1.925-.89 3.127 0 1.09.198 2.021.593 2.793.403.779.97 1.372 1.699 1.78.73.416 1.592.623 2.588.623l-.148.98v-5.876h3.716v9.537h-2.941c-2.052 0-3.816-.423-5.29-1.269a8.739 8.739 0 0 1-3.398-3.494c-.79-1.484-1.186-3.182-1.186-5.096 0-2.137.483-4.014 1.448-5.631.973-1.617 2.353-2.878 4.139-3.783 1.794-.898 3.922-1.347 6.385-1.347 1.893 0 3.58.267 5.062.801 1.49.542 2.752 1.299 3.785 2.271a9.796 9.796 0 0 1 2.36 3.393c.54 1.291.81 2.69.81 4.195 0 1.291-.194 2.493-.582 3.606a9.536 9.536 0 0 1-1.619 2.96 8.706 8.706 0 0 1-2.496 2.125 8.629 8.629 0 0 1-3.17 1.057v-4.896zM25.12 197.201v5.396l-10.055 5.197v.223l10.056 5.196v5.397l-15.096-8.312H1.771v-4.785h8.254l15.096-8.312z" fill="#989898" fill-opacity=".2"/><g opacity=".3" fill="#fff"><path d="M58.304 7.372h18.288v12.109h-3.188v-8.242h-4.357v7.438h-3.188V11.24h-7.555V7.372zM76.592 33.378v3.867H64.716c-1.334 0-2.5-.319-3.5-.956-1-.63-1.78-1.515-2.34-2.652-.554-1.137-.83-2.462-.83-3.974 0-1.518.276-2.845.83-3.983.56-1.136 1.34-2.02 2.34-2.652 1-.63 2.166-.946 3.5-.946h11.876v3.866H65.046c-.696 0-1.316.152-1.857.456a3.32 3.32 0 0 0-1.277 1.304c-.31.56-.465 1.211-.465 1.955 0 .75.155 1.402.465 1.956.31.56.735.991 1.277 1.295.541.31 1.16.464 1.857.464h11.546zM73.404 39.73h3.188v15.02h-3.188v-5.6h-15.1v-3.822h15.1V39.73zM76.592 68.519v3.867H64.716c-1.334 0-2.5-.319-3.5-.956-1-.631-1.78-1.515-2.34-2.652-.554-1.137-.83-2.462-.83-3.974 0-1.518.276-2.845.83-3.983.56-1.137 1.34-2.02 2.34-2.652 1-.63 2.166-.946 3.5-.946h11.876v3.866H65.046c-.696 0-1.316.152-1.857.456-.542.31-.968.744-1.277 1.304-.31.56-.465 1.211-.465 1.955 0 .75.155 1.402.465 1.956.31.56.735.991 1.277 1.295.541.31 1.16.464 1.857.464h11.546zM58.304 75.567h18.288v7.215c0 1.381-.247 2.56-.74 3.536-.489.983-1.183 1.73-2.082 2.242-.892.518-1.943.777-3.152.777-1.214 0-2.259-.262-3.134-.786-.87-.524-1.536-1.283-2-2.277-.465-.989-.697-2.185-.697-3.59v-4.831h3.108v4.206c0 .738.1 1.351.303 1.84.203.487.506.85.911 1.089.405.244.908.366 1.51.366.606 0 1.118-.122 1.535-.366.417-.238.732-.605.947-1.099.22-.488.33-1.104.33-1.848v-2.608H58.304v-3.866zm8.323 9.876-8.323 4.545V85.72l8.323-4.447v4.17zM58.304 92.07h18.288v12.322h-3.188v-8.456h-4.357v7.822h-3.188v-7.822h-4.367v8.492h-3.188V92.069zM32.699 6.61h18.288v7.215c0 1.387-.265 2.57-.795 3.545-.523.977-1.253 1.72-2.187 2.233-.93.518-2 .777-3.215.777-1.215 0-2.286-.262-3.215-.786-.929-.524-1.652-1.283-2.17-2.277-.518-.988-.777-2.185-.777-3.59V9.128h3.099v3.974c0 .744.128 1.357.384 1.84.262.488.622.85 1.08 1.089.465.244.998.366 1.599.366.607 0 1.137-.122 1.59-.366a2.445 2.445 0 0 0 1.062-1.09c.256-.488.384-1.107.384-1.857v-2.607H32.699V6.61zM32.699 22.891h18.288v12.323H47.8v-8.456h-4.358v7.822h-3.188v-7.822h-4.366v8.492h-3.188V22.891zM32.699 38.288h18.288v7.216c0 1.38-.247 2.56-.741 3.536-.488.982-1.182 1.73-2.08 2.241-.894.518-1.944.777-3.153.777-1.214 0-2.26-.262-3.134-.786-.87-.524-1.536-1.283-2-2.277-.465-.988-.697-2.185-.697-3.59v-4.83h3.107v4.205c0 .739.102 1.352.304 1.84s.506.851.911 1.09c.405.243.908.365 1.51.365.606 0 1.118-.122 1.535-.366.417-.238.732-.604.947-1.098.22-.488.33-1.104.33-1.848v-2.608H32.699v-3.867zm8.323 9.877-8.323 4.545v-4.268l8.323-4.447v4.17zM45.727 64.712c.72-.072 1.28-.378 1.68-.92.398-.542.598-1.277.598-2.206 0-.63-.09-1.164-.268-1.598-.173-.435-.414-.768-.724-1a1.74 1.74 0 0 0-1.053-.34 1.505 1.505 0 0 0-.858.206 2.144 2.144 0 0 0-.634.634 4.818 4.818 0 0 0-.455.928 9.634 9.634 0 0 0-.322 1.126l-.392 1.643c-.179.797-.417 1.53-.715 2.196a6.674 6.674 0 0 1-1.098 1.733 4.566 4.566 0 0 1-1.536 1.134c-.59.274-1.265.414-2.027.42-1.12-.006-2.09-.292-2.911-.858-.816-.56-1.45-1.369-1.902-2.429-.447-1.053-.67-2.324-.67-3.813 0-1.476.226-2.762.679-3.857.452-1.09 1.122-1.941 2.009-2.554.893-.607 1.997-.926 3.313-.956v3.742c-.613.042-1.125.217-1.536.527a2.93 2.93 0 0 0-.92 1.259c-.202.53-.303 1.128-.303 1.795 0 .655.095 1.223.285 1.705.19.489.456.867.795 1.134.34.268.73.402 1.17.402.41 0 .756-.122 1.036-.366.28-.238.517-.59.714-1.054.197-.458.375-1.02.536-1.687l.5-1.992c.375-1.541.961-2.759 1.759-3.652.798-.893 1.872-1.336 3.224-1.33 1.107-.006 2.074.288 2.902.884.827.6 1.473 1.425 1.938 2.473.464 1.048.696 2.239.696 3.572 0 1.357-.232 2.542-.696 3.554-.465 1.018-1.11 1.81-1.938 2.375-.828.566-1.786.858-2.876.876v-3.706zM41.843 88.074c-1.994 0-3.691-.378-5.09-1.134-1.399-.75-2.468-1.774-3.206-3.072-.732-1.291-1.098-2.744-1.098-4.357 0-1.626.369-3.084 1.107-4.376.738-1.292 1.807-2.313 3.206-3.063s3.093-1.125 5.081-1.125c1.994 0 3.691.375 5.09 1.125s2.465 1.771 3.197 3.063c.738 1.292 1.107 2.75 1.107 4.376 0 1.613-.369 3.066-1.107 4.357-.732 1.298-1.798 2.322-3.197 3.072-1.399.756-3.096 1.134-5.09 1.134zm0-3.92c1.292 0 2.381-.193 3.268-.58.887-.381 1.56-.92 2.018-1.617.459-.696.688-1.512.688-2.446 0-.935-.23-1.75-.688-2.447-.458-.697-1.13-1.238-2.018-1.625-.887-.381-1.976-.572-3.268-.572-1.292 0-2.381.19-3.268.572-.887.387-1.56.928-2.018 1.625-.459.696-.688 1.512-.688 2.447 0 .934.23 1.75.688 2.446.458.697 1.13 1.236 2.018 1.617.887.387 1.976.58 3.268.58zM50.987 106.235H32.7v-3.34l11.51-7.956v-.134H32.7v-3.867h18.288v3.394l-11.502 7.894v.16h11.502v3.849zM32.699 112.582v-4.143l18.288 6.313v4.983L32.7 126.039v-4.143l14.109-4.581v-.143l-14.11-4.59zm7.188-.259v9.787H36.87v-9.787h3.018zM32.699 128.24h18.288v3.867h-15.1v7.84h-3.188V128.24zM50.987 146.375H32.7v-3.867h18.288v3.867zM47.8 148.859h3.187v15.02H47.8v-5.599H32.7v-3.822h15.1v-5.599zM50.987 165.281v4.331l-7.876 4.17v.179l7.876 4.17v4.331l-11.823-6.67H32.7v-3.84h6.465l11.823-6.671z"/></g></svg>