<svg width="79" height="38" fill="none" xmlns="http://www.w3.org/2000/svg"><path opacity=".5" d="M7.76 14.72v4.68H29.4v-4.68H7.76zm20.08 0v.88c-.36 11.12-.8 15.6-1.76 16.64-.44.44-.88.56-1.6.56-1 0-3.08-.04-5.32-.24.88 1.36 1.52 3.44 1.6 4.84 2.36.08 4.68.12 6.08-.08 1.52-.24 2.64-.6 3.64-1.96 1.4-1.64 1.88-6.4 2.32-18.56.04-.6.08-2.08.08-2.08h-5.04zM12.28.56C9.88 6.64 5.44 12.24.4 15.56c1.16.92 3.24 2.84 4.16 3.88 5.04-3.96 9.92-10.4 12.92-17.36L12.28.56zM27.52.48 22.8 2.36c3.16 6.12 8.08 12.6 12.6 16.76.92-1.36 2.76-3.32 4.08-4.36-4.4-3.36-9.44-9.2-11.96-14.28zm-12.6 15.6c-.64 7.12-1.6 13.88-12.32 17.4 1.12 1.04 2.52 3.08 3.12 4.4 11.92-4.44 13.64-12.8 14.4-21.8h-5.2zm46.56-2.52v4.52h17.4v-4.52h-17.4zM59.04 2.84v11.64c0 5.96-.44 14.04-4.92 19.92 1.16.56 3 2.12 3.68 3.16 5.2-6.64 5.92-16.6 5.92-23v-9.4c.72-.12 1-.36 1.04-.72l-5.72-1.6zM73.56.44c-3.28 1.6-8.6 3.08-13.52 4.04.6 1 1.32 2.8 1.56 3.92 5.28-.84 11.4-2.24 16-4.2L73.56.44zm-4.64 14.52v22.6h4.76v-22.6h-4.76zM41.76 8.28v4.56h14.96V8.28H41.76zM47.28.04V37.6h4.6V.04h-4.6zm-.24 11.32C46 16.48 43.48 22.72 40.72 26.2c.72 1.2 1.84 3.16 2.28 4.48 3.08-4.12 5.6-11.88 6.88-18.32l-2.84-1zm4.48 3.52-2.2 2.16c1.36 2 4.08 6.44 5.16 8.84l2.68-3.8c-.8-1.16-4.6-6.08-5.64-7.2z" fill="#fff"/></svg>