<svg width="79" height="38" viewBox="0 0 79 38" fill="none" xmlns="http://www.w3.org/2000/svg">
<path opacity="0.5" d="M7.76 14.72V19.4H29.4V14.72H7.76ZM27.84 14.72V15.6C27.48 26.72 27.04 31.2 26.08 32.24C25.64 32.68 25.2 32.8 24.48 32.8C23.48 32.8 21.4 32.76 19.16 32.56C20.04 33.92 20.68 36 20.76 37.4C23.12 37.48 25.44 37.52 26.84 37.32C28.36 37.08 29.48 36.72 30.48 35.36C31.88 33.72 32.36 28.96 32.8 16.8C32.84 16.2 32.88 14.72 32.88 14.72H27.84ZM12.28 0.559999C9.88 6.64 5.44 12.24 0.4 15.56C1.56 16.48 3.64 18.4 4.56 19.44C9.6 15.48 14.48 9.04 17.48 2.08L12.28 0.559999ZM27.52 0.479998L22.8 2.36C25.96 8.48 30.88 14.96 35.4 19.12C36.32 17.76 38.16 15.8 39.48 14.76C35.08 11.4 30.04 5.56 27.52 0.479998ZM14.92 16.08C14.28 23.2 13.32 29.96 2.6 33.48C3.72 34.52 5.12 36.56 5.72 37.88C17.64 33.44 19.36 25.08 20.12 16.08H14.92ZM61.48 13.56V18.08H78.88V13.56H61.48ZM59.04 2.84V14.48C59.04 20.44 58.6 28.52 54.12 34.4C55.28 34.96 57.12 36.52 57.8 37.56C63 30.92 63.72 20.96 63.72 14.56V5.16C64.44 5.04 64.72 4.8 64.76 4.44L59.04 2.84ZM73.56 0.439998C70.28 2.04 64.96 3.52 60.04 4.48C60.64 5.48 61.36 7.28 61.6 8.4C66.88 7.56 73 6.16 77.6 4.2L73.56 0.439998ZM68.92 14.96V37.56H73.68V14.96H68.92ZM41.76 8.28V12.84H56.72V8.28H41.76ZM47.28 0.0399985V37.6H51.88V0.0399985H47.28ZM47.04 11.36C46 16.48 43.48 22.72 40.72 26.2C41.44 27.4 42.56 29.36 43 30.68C46.08 26.56 48.6 18.8 49.88 12.36L47.04 11.36ZM51.52 14.88L49.32 17.04C50.68 19.04 53.4 23.48 54.48 25.88L57.16 22.08C56.36 20.92 52.56 16 51.52 14.88Z" fill="white"/>
</svg>
