<svg width="221" height="44" viewBox="0 0 221 44" fill="none" xmlns="http://www.w3.org/2000/svg">
<path d="M0.221246 43.8401H-14.0267L-44 0H-29.7281L0.221246 43.8401Z" fill="#989898"/>
<path d="M22.2364 43.8401H7.98835L-21.9849 0H-7.71305L22.2364 43.8401Z" fill="#989898"/>
<path d="M44.2515 43.8401H29.9797L0.0302734 0H14.3021L44.2515 43.8401Z" fill="#989898"/>
<path d="M66.2671 43.8401H51.9953L22.0459 0H36.2939L66.2671 43.8401Z" fill="#989898"/>
<path d="M88.2583 43.8401H74.0103L44.0371 0H58.3089L88.2583 43.8401Z" fill="#989898"/>
<path d="M110.274 43.8401H96.026L66.0527 0H80.3246L110.274 43.8401Z" fill="#989898"/>
<path d="M132.289 43.8401H118.017L88.0679 0H102.34L132.289 43.8401Z" fill="#989898"/>
<path d="M154.305 43.8401H140.033L110.083 0H124.332L154.305 43.8401Z" fill="#989898"/>
<path d="M176.296 43.8401H162.048L132.075 0H146.347L176.296 43.8401Z" fill="#989898"/>
<path d="M198.312 43.8401H184.04L154.09 0H168.362L198.312 43.8401Z" fill="#989898"/>
<path d="M220.327 43.8401H206.055L176.105 0H190.377L220.327 43.8401Z" fill="#989898"/>
</svg>
