<svg width="375" height="36" viewBox="0 0 375 36" fill="none" xmlns="http://www.w3.org/2000/svg">
<path d="M375.85 0H-2.52991V35.91H375.85V0Z" fill="#F8EC2C"/>
<path d="M288.499 28.92H281.375L266.388 7H273.524L288.499 28.92Z" fill="#989898"/>
<path d="M299.507 28.92H292.383L277.396 7H284.532L299.507 28.92Z" fill="#989898"/>
<path d="M310.514 28.92H303.378L288.404 7H295.539L310.514 28.92Z" fill="#989898"/>
<path d="M321.522 28.92H314.386L299.411 7H306.535L321.522 28.92Z" fill="#989898"/>
<path d="M332.518 28.92H325.394L310.407 7H317.543L332.518 28.92Z" fill="#989898"/>
<path d="M343.525 28.92H336.401L321.415 7H328.551L343.525 28.92Z" fill="#989898"/>
<path d="M354.533 28.92H347.397L332.422 7H339.558L354.533 28.92Z" fill="#989898"/>
<path d="M365.541 28.92H358.405L343.43 7H350.554L365.541 28.92Z" fill="#989898"/>
<path d="M376.536 28.92H369.412L354.426 7H361.562L376.536 28.92Z" fill="#989898"/>
<path d="M387.544 28.92H380.408L365.433 7H372.569L387.544 28.92Z" fill="#989898"/>
<path d="M0.110498 28.92H-7.01348L-22.0001 7H-14.8642L0.110498 28.92Z" fill="#989898"/>
<path d="M11.1181 28.92H3.99411L-10.9925 7H-3.85659L11.1181 28.92Z" fill="#989898"/>
<path d="M22.1258 28.92H14.9899L0.0151978 7H7.1511L22.1258 28.92Z" fill="#989898"/>
<path d="M33.1334 28.92H25.9975L11.0228 7H18.1468L33.1334 28.92Z" fill="#989898"/>
<path d="M44.1292 28.92H37.0052L22.0186 7H29.1545L44.1292 28.92Z" fill="#989898"/>
<path d="M55.1368 28.92H48.0128L33.0262 7H40.1621L55.1368 28.92Z" fill="#989898"/>
<path d="M66.1446 28.92H59.0087L44.034 7H51.1699L66.1446 28.92Z" fill="#989898"/>
<path d="M77.1522 28.92H70.0163L55.0416 7H62.1656L77.1522 28.92Z" fill="#989898"/>
<path d="M88.148 28.92H81.024L66.0374 7H73.1733L88.148 28.92Z" fill="#989898"/>
<path d="M99.1556 28.92H92.0197L77.045 7H84.1809L99.1556 28.92Z" fill="#989898"/>
<path d="M110.163 28.92H103.027L88.0527 7H95.1886L110.163 28.92Z" fill="#989898"/>
<path d="M125.18 10.82C126.82 11.68 128.88 13.04 129.8 14.04L131.52 11.98C130.5 11 128.38 9.74 126.76 8.98L125.18 10.82ZM123.86 18.94V21.24H134.24V18.94H123.86ZM122.42 24.88V27.16H135.4V24.88H122.42ZM123.14 13.38V15.66H134.98V13.38H123.14ZM127.7 14.14V25.9H130.2V14.14H127.7ZM117.88 10.88C119.18 11.44 120.82 12.4 121.6 13.12L123 11.16C122.16 10.44 120.46 9.58 119.18 9.12L117.88 10.88ZM116.54 16.32C117.86 16.84 119.56 17.74 120.36 18.42L121.68 16.42C120.82 15.76 119.08 14.94 117.78 14.5L116.54 16.32ZM117.4 25.94L119.42 27.56C120.62 25.62 121.9 23.34 122.96 21.22L121.2 19.64C120 21.94 118.46 24.44 117.4 25.94ZM141.7 20.58V19.72H150.38V20.58H141.7ZM141.7 18.32V17.46H150.38V18.32H141.7ZM152.76 15.98H139.44V22.06H152.76V15.98ZM151.14 11.98L148.64 11.52C148.48 12.06 148.16 12.82 147.9 13.38L150.02 13.84C150.32 13.36 150.7 12.74 151.14 11.98ZM143.32 11.52L141.12 11.96C141.4 12.56 141.66 13.34 141.74 13.88L144.02 13.36C143.9 12.86 143.62 12.1 143.32 11.52ZM147.18 9.02H144.76V11.42H147.18V9.02ZM154.72 13.38H137.34V15.24H154.72V13.38ZM153.64 10.08H138.3V11.94H153.64V10.08ZM141.18 23.46L139.18 22.72C138.7 24.06 137.8 25.36 136.54 26.14L138.4 27.4C139.82 26.46 140.64 24.98 141.18 23.46ZM152.16 22.48L150.3 23.52C151.52 24.62 152.88 26.2 153.44 27.28L155.44 26.12C154.8 25 153.38 23.52 152.16 22.48ZM145.2 21.62L143.92 22.88C145.04 23.42 146.46 24.26 147.16 24.86L148.54 23.46C147.78 22.86 146.32 22.08 145.2 21.62ZM144.04 25.08V23H141.7V25.1C141.7 27 142.32 27.6 144.86 27.6C145.36 27.6 147.56 27.6 148.1 27.6C149.98 27.6 150.62 27.04 150.86 24.78C150.26 24.66 149.32 24.34 148.84 24.02C148.74 25.44 148.6 25.66 147.88 25.66C147.32 25.66 145.54 25.66 145.12 25.66C144.2 25.66 144.04 25.6 144.04 25.08ZM164.96 20.86H167.02L167.54 14.02L167.64 11.04H164.34L164.44 14.02L164.96 20.86ZM166 26.2C167 26.2 167.76 25.46 167.76 24.42C167.76 23.38 167 22.66 166 22.66C164.98 22.66 164.22 23.38 164.22 24.42C164.22 25.46 164.96 26.2 166 26.2Z" fill="#989898"/>
<path d="M216.18 10.82C217.82 11.68 219.88 13.04 220.8 14.04L222.52 11.98C221.5 11 219.38 9.74 217.76 8.98L216.18 10.82ZM214.86 18.94V21.24H225.24V18.94H214.86ZM213.42 24.88V27.16H226.4V24.88H213.42ZM214.14 13.38V15.66H225.98V13.38H214.14ZM218.7 14.14V25.9H221.2V14.14H218.7ZM208.88 10.88C210.18 11.44 211.82 12.4 212.6 13.12L214 11.16C213.16 10.44 211.46 9.58 210.18 9.12L208.88 10.88ZM207.54 16.32C208.86 16.84 210.56 17.74 211.36 18.42L212.68 16.42C211.82 15.76 210.08 14.94 208.78 14.5L207.54 16.32ZM208.4 25.94L210.42 27.56C211.62 25.62 212.9 23.34 213.96 21.22L212.2 19.64C211 21.94 209.46 24.44 208.4 25.94ZM232.7 20.58V19.72H241.38V20.58H232.7ZM232.7 18.32V17.46H241.38V18.32H232.7ZM243.76 15.98H230.44V22.06H243.76V15.98ZM242.14 11.98L239.64 11.52C239.48 12.06 239.16 12.82 238.9 13.38L241.02 13.84C241.32 13.36 241.7 12.74 242.14 11.98ZM234.32 11.52L232.12 11.96C232.4 12.56 232.66 13.34 232.74 13.88L235.02 13.36C234.9 12.86 234.62 12.1 234.32 11.52ZM238.18 9.02H235.76V11.42H238.18V9.02ZM245.72 13.38H228.34V15.24H245.72V13.38ZM244.64 10.08H229.3V11.94H244.64V10.08ZM232.18 23.46L230.18 22.72C229.7 24.06 228.8 25.36 227.54 26.14L229.4 27.4C230.82 26.46 231.64 24.98 232.18 23.46ZM243.16 22.48L241.3 23.52C242.52 24.62 243.88 26.2 244.44 27.28L246.44 26.12C245.8 25 244.38 23.52 243.16 22.48ZM236.2 21.62L234.92 22.88C236.04 23.42 237.46 24.26 238.16 24.86L239.54 23.46C238.78 22.86 237.32 22.08 236.2 21.62ZM235.04 25.08V23H232.7V25.1C232.7 27 233.32 27.6 235.86 27.6C236.36 27.6 238.56 27.6 239.1 27.6C240.98 27.6 241.62 27.04 241.86 24.78C241.26 24.66 240.32 24.34 239.84 24.02C239.74 25.44 239.6 25.66 238.88 25.66C238.32 25.66 236.54 25.66 236.12 25.66C235.2 25.66 235.04 25.6 235.04 25.08ZM255.96 20.86H258.02L258.54 14.02L258.64 11.04H255.34L255.44 14.02L255.96 20.86ZM257 26.2C258 26.2 258.76 25.46 258.76 24.42C258.76 23.38 258 22.66 257 22.66C255.98 22.66 255.22 23.38 255.22 24.42C255.22 25.46 255.96 26.2 257 26.2Z" fill="#989898"/>
<path d="M188.47 22.5048C188.47 22.77 188.365 23.0243 188.177 23.2119C187.99 23.3994 187.735 23.5047 187.47 23.5047C187.205 23.5047 186.951 23.3994 186.763 23.2119C186.576 23.0243 186.47 22.77 186.47 22.5048C186.47 22.2395 186.576 21.9852 186.763 21.7976C186.951 21.6101 187.205 21.5048 187.47 21.5048C187.735 21.5048 187.99 21.6101 188.177 21.7976C188.365 21.9852 188.47 22.2395 188.47 22.5048ZM188.22 14.2548C188.22 14.0558 188.141 13.8651 188.001 13.7244C187.86 13.5838 187.669 13.5048 187.47 13.5048C187.271 13.5048 187.081 13.5838 186.94 13.7244C186.799 13.8651 186.72 14.0558 186.72 14.2548V18.7548C186.72 18.9537 186.799 19.1444 186.94 19.2851C187.081 19.4257 187.271 19.5048 187.47 19.5048C187.669 19.5048 187.86 19.4257 188.001 19.2851C188.141 19.1444 188.22 18.9537 188.22 18.7548V14.2548Z" fill="#989898"/>
<path fill-rule="evenodd" clip-rule="evenodd" d="M185.306 8.24875C186.269 6.58375 188.671 6.58375 189.634 8.24875L198.601 23.7527C199.564 25.4197 198.361 27.5047 196.436 27.5047H178.504C176.578 27.5047 175.376 25.4197 176.339 23.7527L185.306 8.24875ZM188.336 8.99975C188.248 8.84774 188.122 8.72152 187.97 8.63376C187.818 8.546 187.646 8.49979 187.47 8.49979C187.295 8.49979 187.122 8.546 186.97 8.63376C186.818 8.72152 186.692 8.84774 186.604 8.99975L177.638 24.5037C177.55 24.6558 177.504 24.8283 177.504 25.004C177.504 25.1797 177.55 25.3523 177.637 25.5045C177.725 25.6567 177.852 25.783 178.004 25.8708C178.156 25.9587 178.329 26.0048 178.504 26.0047H196.436C196.612 26.0047 196.784 25.9585 196.936 25.8708C197.088 25.783 197.214 25.6568 197.302 25.5047C197.39 25.3527 197.436 25.1803 197.436 25.0047C197.436 24.8292 197.39 24.6568 197.302 24.5047L188.336 8.99975Z" fill="#989898"/>
</svg>
