<svg width="342" height="82" fill="none" xmlns="http://www.w3.org/2000/svg"><path d="m275.283 58.019-8.532 23.493a.36.36 0 0 0 .335.488h5.729c.152 0 .305-.092.335-.244l1.28-4.144h8.166l1.28 4.144s.183.244.335.244h5.79a.359.359 0 0 0 .335-.488l-8.532-23.493s-.183-.244-.335-.244h-5.912s-.274.091-.335.244m.579 14.9 2.682-8.714 2.681 8.715H275.801zM263.491 71.09c-1.128-1.584-2.408-2.193-2.469-2.254.64-.488 2.743-1.615 2.743-4.967 0-1.98-.61-3.474-1.889-4.51-1.28-1.066-3.444-1.584-6.43-1.584h-11.762a.37.37 0 0 0-.366.365v23.494a.37.37 0 0 0 .366.366h11.701c3.047 0 5.333-.67 6.795-2.011 1.463-1.31 2.194-3.2 2.194-5.637 0-1.341-.274-2.438-.853-3.23m-14.413-8.716h6.125c.975 0 1.676.244 2.072.732.365.457.548 1.036.548 1.676 0 .7-.213 1.28-.609 1.737-.396.457-1.097.7-2.042.7h-6.125v-4.845h.031zm8.623 14.14c-.487.578-1.249.853-2.224.853h-6.399v-5.76h6.429c.945 0 1.676.275 2.164.793.487.518.731 1.188.731 2.042 0 .853-.244 1.523-.731 2.072M315.018 81.634V58.171a.352.352 0 0 0-.365-.366h-5.059a.37.37 0 0 0-.365.366v13.377l-9.751-13.59s-.183-.153-.305-.153h-4.906a.352.352 0 0 0-.366.366v23.463c0 .183.153.366.366.366h5.058a.37.37 0 0 0 .366-.366V67.71l10.239 14.139s.182.152.274.152h4.449a.37.37 0 0 0 .365-.366zM334.612 81.97h6.46c.274 0 .427-.275.305-.519l-7.953-15.327 6.612-7.77c.213-.244.031-.58-.274-.58h-6.338s-.214.062-.275.123l-7.282 8.867V58.14a.371.371 0 0 0-.366-.365h-5.485a.37.37 0 0 0-.366.365v23.494c0 .183.153.366.366.366h5.485a.37.37 0 0 0 .366-.366v-5.972l3.108-3.748 5.302 9.873s.183.182.305.182M204.893 57.775h-5.973s-.243.06-.304.152l-3.962 6.277-3.93-6.277s-.183-.183-.305-.183h-6.155a.359.359 0 0 0-.305.549l7.283 11.396-7.557 11.701c-.153.244 0 .549.304.549h5.973s.244-.061.304-.183l4.267-6.795 4.205 6.795s.182.183.304.183h6.156a.359.359 0 0 0 .304-.549l-7.557-11.823 7.283-11.244c.153-.244 0-.548-.305-.548M229.575 57.775h-20.538a.37.37 0 0 0-.365.365v4.45c0 .213.152.365.365.365h7.192v18.649a.37.37 0 0 0 .365.365h5.363a.37.37 0 0 0 .366-.365V62.955h7.283a.37.37 0 0 0 .365-.365v-4.45a.37.37 0 0 0-.365-.365M157.144 81.634V58.171a.352.352 0 0 0-.366-.366h-5.058a.37.37 0 0 0-.366.366v13.377l-9.751-13.59s-.183-.153-.305-.153h-4.906a.352.352 0 0 0-.365.366v23.463a.37.37 0 0 0 .365.366h5.059a.37.37 0 0 0 .365-.366V67.71l10.239 14.139s.183.152.274.152h4.449a.37.37 0 0 0 .366-.366zM180.089 62.376V58.14a.371.371 0 0 0-.366-.365H162.11a.37.37 0 0 0-.365.365v23.494a.37.37 0 0 0 .365.366h17.613a.37.37 0 0 0 .366-.366V77.4a.371.371 0 0 0-.366-.366h-11.975v-5.18h7.039a.37.37 0 0 0 .365-.366v-4.144a.352.352 0 0 0-.365-.366h-7.039v-4.235h11.975a.37.37 0 0 0 .366-.366zM14.474.061h-2.986C5.15.061 0 5.211 0 11.549v36.688L33.763 82V45.312c0-6.338 5.15-11.488 11.488-11.488h2.986L14.474.06z" fill="#989898"/><path d="M81.97 81.97h2.985c6.339 0 11.488-5.15 11.488-11.489V33.793L62.681.031v36.688c0 6.338-5.15 11.488-11.488 11.488h-2.987L81.97 81.969z" fill="#FAEC32"/><path d="m232.409 24.195-3.352 3.352a.386.386 0 0 1-.548 0c-1.189-1.25-3.108-2.987-5.82-5.211-.823 1.432-1.798 2.712-2.926 3.809-.121.122-.365.152-.487 0-1.006-.793-2.164-1.524-3.413-2.194 2.133 2.834 4.784 5.424 7.984 7.74a40.9 40.9 0 0 0 9.476 5.24.352.352 0 0 1 .122.61c-1.28 1.22-2.468 2.682-3.534 4.419-.092.152-.305.244-.488.152-5.637-2.65-10.635-6.581-14.992-11.792v13.346a.371.371 0 0 1-.366.366h-5.15a.37.37 0 0 1-.365-.366V30.594c-4.327 5.058-9.264 8.928-14.81 11.518-.182.092-.365 0-.487-.152-.914-1.432-2.042-2.803-3.383-4.114-.182-.183-.121-.518.122-.61 3.627-1.492 7.07-3.534 10.33-6.124 3.413-2.712 6.156-5.668 8.228-8.867v-10.94h-16.76a.37.37 0 0 1-.365-.366V6.216c0-.213.182-.396.365-.396h16.76V.396c0-.213.183-.396.365-.396h5.15c.213 0 .366.183.366.396V5.82h17.43c.213 0 .365.183.365.396v4.723a.37.37 0 0 1-.365.366h-17.43V21.91s.183.304.365.517c.183.244.305.396.366.518 2.895-2.529 4.845-6.185 5.881-10.97.031-.182.244-.335.427-.304l4.723.822c.213.03.366.244.305.458-.366 1.462-.854 3.016-1.463 4.692 3.809 2.956 6.247 4.937 7.405 5.912.152.152.183.396 0 .548m-33.062-12.432 4.692.883c.214.03.366.244.305.488a53.823 53.823 0 0 1-1.584 4.723 165.478 165.478 0 0 1 4.357 3.87c.152.152.152.396 0 .518l-3.23 3.352c-.152.152-.427.152-.548 0-.61-.7-1.555-1.706-2.926-2.986-1.615 2.59-3.321 4.662-5.119 6.216-.152.122-.396.122-.518-.03-.884-.975-2.133-1.981-3.687-3.078a.37.37 0 0 1 0-.61c3.87-2.956 6.49-7.282 7.892-13.041.061-.183.244-.336.427-.275M283.815 24.56l3.2 3.23a.425.425 0 0 1 0 .58c-1.676 1.31-3.718 2.742-6.125 4.296 1.767 2.986 4.083 5.21 6.887 6.643.243.122.274.426.091.61a17.123 17.123 0 0 0-1.585 1.828 16.39 16.39 0 0 0-1.432 2.133c-.091.182-.335.244-.518.152-3.443-1.92-6.125-5.058-7.922-8.532l.548 4.297c0 .182-.091.365-.274.426-4.419 1.128-9.203 2.255-13.926 3.322a.411.411 0 0 1-.457-.275l-.823-3.047c-5.698 1.097-11.03 2.072-15.967 2.834-.213.03-.396-.092-.427-.305l-.944-4.266a.367.367 0 0 1 .305-.457c2.011-.274 4.296-.61 6.886-1.006V24.561h-6.247a.37.37 0 0 1-.365-.366v-3.992a.37.37 0 0 1 .365-.366h6.247v-3.443h-4.692a.37.37 0 0 1-.366-.366v-1.95s-.061-.244-.152-.305l-2.987-2.163c-.183-.122-.213-.366-.091-.549L251.241.274s.183-.152.305-.152h4.174s.244.06.305.152l7.709 10.574a.38.38 0 0 1-.061.518l-2.163 1.828s-.122.183-.122.275v2.529a.37.37 0 0 1-.366.365h-4.814v3.444h5.85a.37.37 0 0 1 .366.365v3.992a.37.37 0 0 1-.366.366h-5.85v11.701a162.51 162.51 0 0 1 3.321-.518c1.219-.183 2.164-.335 2.864-.457a.368.368 0 0 1 .427.366l.122 2.102 1.524-.274V2.133a.37.37 0 0 1 .365-.366h20.295a.37.37 0 0 1 .365.366v20.538a.37.37 0 0 1-.365.366h-7.771c.427 2.042.945 3.809 1.554 5.363 1.676-1.25 3.169-2.56 4.388-3.87a.387.387 0 0 1 .549 0m-38.212 2.682 2.956-.762c.213-.061.426.06.457.274l1.584 7.344c.031.183-.061.396-.274.457l-3.139.883c-.213.061-.426-.06-.487-.304l-1.432-7.436c-.031-.182.091-.395.274-.426m3.504-15.54h9.172l-4.57-6.46-4.571 6.46h-.031zm10.574 23.036-2.59-.762a.41.41 0 0 1-.274-.457l1.554-7.191c.03-.213.244-.335.457-.274l3.504.823c.213.06.335.274.274.487l-2.468 7.13c-.061.183-.274.305-.457.244zm20.538-28.034h-10.452v3.26h10.452v-3.26zm-10.452 11.427h10.452v-3.443h-10.452v3.443zm0 4.936v13.317c.518-.122 1.524-.336 2.986-.671 1.463-.335 2.591-.579 3.383-.762-1.615-3.23-2.864-7.19-3.748-11.884h-2.621zM310.174 10.33l4.662 1.798c.213.091.305.366.183.548a75.14 75.14 0 0 1-4.845 6.857v24.225a.37.37 0 0 1-.366.365h-4.875a.37.37 0 0 1-.366-.365v-18.07a82.271 82.271 0 0 1-3.565 3.23c-.183.152-.427.091-.549-.092a42.432 42.432 0 0 0-3.291-4.235c-.152-.183-.122-.427.061-.549 2.347-1.645 4.632-3.687 6.856-6.125 2.255-2.468 4.145-4.966 5.638-7.465.091-.152.274-.213.457-.152M308.345.121l4.693 1.92a.37.37 0 0 1 .152.579c-1.615 2.041-3.565 4.144-5.789 6.277-2.255 2.133-4.449 3.961-6.582 5.485a.398.398 0 0 1-.549-.122c-.944-1.645-1.797-2.925-2.59-3.87-.152-.183-.122-.427.092-.549 1.828-1.188 3.687-2.681 5.576-4.479 1.92-1.798 3.443-3.504 4.571-5.12.091-.152.274-.182.457-.121m32.91 15.937v4.54a.37.37 0 0 1-.366.366h-6.064v18.13a4.825 4.825 0 0 1-4.815 4.815h-6.764c-.183 0-.305-.122-.366-.274l-1.463-4.967c-.061-.244.122-.488.366-.488h6.247c.609 0 1.097-.487 1.097-1.097v-16.15h-13.53a.37.37 0 0 1-.365-.366v-4.54a.37.37 0 0 1 .365-.365h25.322a.37.37 0 0 1 .366.365m-1.188-13.011v4.601a.37.37 0 0 1-.366.366h-22.153a.371.371 0 0 1-.366-.366V3.017a.37.37 0 0 1 .366-.366h22.153c.213 0 .366.183.366.366zM180.089 24.317v4.113a.371.371 0 0 1-.366.366h-4.875v10.452a4.825 4.825 0 0 1-4.815 4.814h-4.845a.36.36 0 0 1-.365-.304c-.244-1.31-1.036-3.596-1.372-4.632a.388.388 0 0 1 .366-.518h4.693c.609 0 1.097-.487 1.097-1.097v-8.745H153.7a.37.37 0 0 1-.365-.366v-4.114a.37.37 0 0 1 .365-.366h1.981c-.548-1.127-1.28-2.224-2.255-3.32-.213-.214-.091-.58.183-.64a35.07 35.07 0 0 0 7.161-2.56c-1.189-1.433-2.59-2.773-4.205-4.023-.153.061-.945.488-1.371.731-.153.092-.336.03-.458-.091-1.158-1.31-2.102-2.255-2.833-2.864v32.544a.37.37 0 0 1-.366.365h-4.388a.371.371 0 0 1-.366-.365V28.064h-3.169v.061c0 6.765-1.097 12.007-3.321 15.663a.395.395 0 0 1-.549.092 16.423 16.423 0 0 0-3.413-2.225.376.376 0 0 1-.182-.518c1.736-3.017 2.62-7.374 2.62-13.073h-1.92a.37.37 0 0 1-.365-.365v-4.022a.37.37 0 0 1 .365-.366h9.934V20.63l-4.113-7.588v6.308a.37.37 0 0 1-.366.365h-3.748a.371.371 0 0 1-.366-.365V4.023a.37.37 0 0 1 .366-.366h3.656s.275.06.336.183l4.266 7.953V1.646a.37.37 0 0 1 .365-.366h4.388a.37.37 0 0 1 .366.366v8.745a28.37 28.37 0 0 0 7.374-4.51c2.225-1.828 4.053-3.596 5.394-5.607a.396.396 0 0 1 .396-.152l4.632 1.188c.274.061.365.366.213.61-.457.64-.914 1.219-1.371 1.767h7.313s.122 0 .152.03l3.047 1.372c.183.091.275.304.183.487-3.626 8.928-11.305 14.932-22.701 18.375h13.042v-5.12a.37.37 0 0 1 .365-.365h4.51a.37.37 0 0 1 .366.366v5.119h4.875a.37.37 0 0 1 .366.366zm-24.042 7.13 3.595-2.102a.415.415 0 0 1 .488.06c2.346 2.469 3.931 4.51 4.754 6.095.091.183 0 .396-.153.487l-3.931 2.316c-.182.122-.426.03-.518-.152-.792-1.737-2.224-3.779-4.266-6.125-.152-.183-.122-.457.092-.579m4.022-20.233c1.95 1.493 3.413 2.834 4.418 4.022a25.775 25.775 0 0 0 2.133-1.463c-1.31-1.401-2.894-2.681-4.753-3.84-.183.123-.488.336-.884.64a9.015 9.015 0 0 1-.914.64zm12.25-3.84h-7.436c2.073 1.341 3.657 2.56 4.754 3.596 1.158-1.34 2.072-2.56 2.682-3.596z" fill="#989898"/></svg>