<?xml version="1.0" encoding="utf-8"?>
<!-- Generator: Adobe Illustrator 25.0.0, SVG Export Plug-In . SVG Version: 6.00 Build 0)  -->
<svg version="1.1" id="圖層_1" xmlns="http://www.w3.org/2000/svg" xmlns:xlink="http://www.w3.org/1999/xlink" x="0px" y="0px"
	 viewBox="0 0 349 489" style="enable-background:new 0 0 349 489;" xml:space="preserve">
<style type="text/css">
	.st0{fill:#F8EC2C;}
	.st1{fill:none;stroke:#FFFFFF;stroke-miterlimit:10;}
	.st2{fill:#FFFFFF;}
</style>
<path class="st0" d="M0,453.4h218.4l17.1,23.6H343V1H45.1L0.3,47L0,453.4z"/>
<path class="st1" d="M1,452.6h217.5l17.1,24.4H343V1H45.7L1,47V452.6z"/>
<path class="st2" d="M246.4,472.8h-6l-12.6-18.4h6L246.4,472.8z"/>
<path class="st2" d="M255.7,472.8h-6l-12.6-18.4h6L255.7,472.8z"/>
<path class="st2" d="M264.9,472.8h-6l-12.6-18.4h6L264.9,472.8z"/>
<path class="st2" d="M274.2,472.8h-6l-12.6-18.4h6L274.2,472.8z"/>
<path class="st2" d="M283.4,472.8h-6l-12.6-18.4h6L283.4,472.8z"/>
<path class="st2" d="M292.6,472.8h-6l-12.6-18.4h6L292.6,472.8z"/>
<path class="st2" d="M301.9,472.8h-6l-12.6-18.4h6L301.9,472.8z"/>
<path class="st2" d="M311.1,472.8h-6l-12.6-18.4h6L311.1,472.8z"/>
<path class="st2" d="M320.3,472.8h-6l-12.6-18.4h6L320.3,472.8z"/>
<path class="st2" d="M329.6,472.8h-6L311,454.4h6L329.6,472.8z"/>
<path class="st2" d="M338.8,472.8h-6l-12.6-18.4h6L338.8,472.8z"/>
<path class="st2" d="M348.1,472.8h-6l-12.6-18.4h6L348.1,472.8z"/>
<path class="st1" d="M333.8,487.8l-59-87.8"/>
</svg>
