<svg version="1.1" id="圖層_1" xmlns="http://www.w3.org/2000/svg" x="0" y="0" viewBox="0 0 349 489" style="enable-background:new 0 0 349 489" xml:space="preserve"><style>.st1{fill:none;stroke:#fff;stroke-miterlimit:10}.st2{fill:#fff}</style><path d="M0 453.4h218.4l17.1 23.6H343V1H45.1L.3 47 0 453.4z" style="fill:#f8ec2c"/><path class="st1" d="M1 452.6h217.5l17.1 24.4H343V1H45.7L1 47v405.6z"/><path class="st2" d="M246.4 472.8h-6l-12.6-18.4h6l12.6 18.4zM255.7 472.8h-6l-12.6-18.4h6l12.6 18.4zM264.9 472.8h-6l-12.6-18.4h6l12.6 18.4zM274.2 472.8h-6l-12.6-18.4h6l12.6 18.4zM283.4 472.8h-6l-12.6-18.4h6l12.6 18.4zM292.6 472.8h-6L274 454.4h6l12.6 18.4zM301.9 472.8h-6l-12.6-18.4h6l12.6 18.4zM311.1 472.8h-6l-12.6-18.4h6l12.6 18.4zM320.3 472.8h-6l-12.6-18.4h6l12.6 18.4zM329.6 472.8h-6L311 454.4h6l12.6 18.4zM338.8 472.8h-6l-12.6-18.4h6l12.6 18.4zM348.1 472.8h-6l-12.6-18.4h6l12.6 18.4z"/><path class="st1" d="m333.8 487.8-59-87.8"/></svg>