<svg width="349" height="489" viewBox="0 0 349 489" fill="none" xmlns="http://www.w3.org/2000/svg">
<path d="M0 453.424H218.412L235.555 477H343V1H45.0755L0.280221 47.0252L0 453.424Z" fill="#F8EC2C"/>
<path d="M1 452.635H218.496L235.589 477H343V1H45.6647L1 47.0252V452.635Z" stroke="white" stroke-miterlimit="10"/>
<path d="M246.44 472.81H240.46L227.88 454.4H233.87L246.44 472.81Z" fill="white"/>
<path d="M255.68 472.81H249.69L237.12 454.4H243.11L255.68 472.81Z" fill="white"/>
<path d="M264.92 472.81H258.93L246.36 454.4H252.34L264.92 472.81Z" fill="white"/>
<path d="M274.16 472.81H268.17L255.6 454.4H261.58L274.16 472.81Z" fill="white"/>
<path d="M283.39 472.81H277.41L264.83 454.4H270.82L283.39 472.81Z" fill="white"/>
<path d="M292.63 472.81H286.64L274.07 454.4H280.06L292.63 472.81Z" fill="white"/>
<path d="M301.87 472.81H295.88L283.31 454.4H289.29L301.87 472.81Z" fill="white"/>
<path d="M311.11 472.81H305.12L292.54 454.4H298.53L311.11 472.81Z" fill="white"/>
<path d="M320.34 472.81H314.36L301.78 454.4H307.77L320.34 472.81Z" fill="white"/>
<path d="M329.58 472.81H323.59L311.02 454.4H317.01L329.58 472.81Z" fill="white"/>
<path d="M338.82 472.81H332.83L320.26 454.4H326.24L338.82 472.81Z" fill="white"/>
<path d="M348.06 472.81H342.07L329.49 454.4H335.48L348.06 472.81Z" fill="white"/>
<path d="M333.77 487.77L274.74 399.97" stroke="white" stroke-miterlimit="10"/>
</svg>
