<svg width="47" height="47" fill="none" xmlns="http://www.w3.org/2000/svg"><path fill-rule="evenodd" clip-rule="evenodd" d="M6.84 8.64c0 1.688.558 3.246 1.5 4.5h-3.5a3.5 3.5 0 0 0-3.5 3.5v5c0 1.396.818 2.6 2 3.164V41.64c0 1.932 1.568 3.5 3.5 3.5h33a3.5 3.5 0 0 0 3.5-3.5V24.804a3.503 3.503 0 0 0 2-3.164v-5a3.5 3.5 0 0 0-3.5-3.5h-3.5a7.499 7.499 0 0 0-6-12c-2.912 0-6.872 1.802-9 6.22-2.128-4.418-6.09-6.22-9-6.22a7.5 7.5 0 0 0-7.5 7.5zm14.94 4.5c-.574-6.986-5.14-9-7.44-9a4.5 4.5 0 0 0 0 9h7.44zm18.56 12v16.5a.5.5 0 0 1-.5.5h-15v-17h15.5zm-18.5 17v-17H6.34v16.5a.5.5 0 0 0 .5.5h15zm20-20a.5.5 0 0 0 .5-.5v-5a.5.5 0 0 0-.5-.5h-17v6h17zm-37 0h17v-6h-17a.5.5 0 0 0-.5.5v5a.5.5 0 0 0 .5.5zm32-13.5a4.5 4.5 0 0 1-4.5 4.5H24.9c.574-6.986 5.14-9 7.44-9a4.5 4.5 0 0 1 4.5 4.5z" fill="#000" stroke="#000" stroke-width="2"/></svg>