<svg width="378" height="567" fill="none" xmlns="http://www.w3.org/2000/svg"><path d="M0 543.424h217L237.5 567H335V0H59L.274 46.025 0 543.424z" fill="#F2F2F2"/><path d="m217.377 543.096-.149-.172H.5L.774 46.269 59.173.5H334.5v566h-96.772l-20.351-23.404z" stroke="#989898" stroke-opacity=".5"/><path d="M251.645 561.6h-7.618L228 543h7.631l16.014 18.6zM262.497 561.6h-7.433L239.466 543h7.433l15.598 18.6zM273.963 561.6h-7.433L250.932 543h7.42l15.611 18.6zM285.429 561.6h-7.433L262.398 543h7.42l15.611 18.6zM296.882 561.6h-7.42L273.851 543h7.433l15.598 18.6zM308.348 561.6h-7.433L285.317 543h7.433l15.598 18.6zM319.814 561.6h-7.433L296.783 543h7.421l15.61 18.6zM331.28 561.6h-7.433l-15.61-18.6h7.433l15.61 18.6zM342.733 561.6h-7.42L319.702 543h7.433l15.598 18.6zM354.199 561.6h-7.433L331.168 543h7.433l15.598 18.6zM365.665 561.6h-7.433L342.634 543h7.421l15.61 18.6zM377.131 561.6h-7.433l-15.61-18.6h7.433l15.61 18.6z" fill="#F8EC2C"/></svg>