<?xml version="1.0" encoding="utf-8"?>
<!-- Generator: Adobe Illustrator 25.0.0, SVG Export Plug-In . SVG Version: 6.00 Build 0)  -->
<svg version="1.1" id="圖層_1" xmlns="http://www.w3.org/2000/svg" xmlns:xlink="http://www.w3.org/1999/xlink" x="0px" y="0px"
	 viewBox="0 0 378 567" style="enable-background:new 0 0 378 567;" xml:space="preserve">
<style type="text/css">
	.st0{fill:none;stroke:#FFFFFF;stroke-opacity:0.5;}
	.st1{fill:#F8EC2C;}
</style>
<path class="st0" d="M217.4,543.1l-0.1-0.2H217H0.5L0.8,46.3L59.2,0.5h275.3v566h-96.8L217.4,543.1z"/>
<path class="st1" d="M251.6,561.6H244L228,543h7.6L251.6,561.6z"/>
<path class="st1" d="M262.5,561.6h-7.4L239.5,543h7.4L262.5,561.6z"/>
<path class="st1" d="M274,561.6h-7.4L250.9,543h7.4L274,561.6z"/>
<path class="st1" d="M285.4,561.6H278L262.4,543h7.4L285.4,561.6z"/>
<path class="st1" d="M296.9,561.6h-7.4L273.9,543h7.4L296.9,561.6z"/>
<path class="st1" d="M308.3,561.6h-7.4L285.3,543h7.4L308.3,561.6z"/>
<path class="st1" d="M319.8,561.6h-7.4L296.8,543h7.4L319.8,561.6z"/>
<path class="st1" d="M331.3,561.6h-7.4L308.2,543h7.4L331.3,561.6z"/>
<path class="st1" d="M342.7,561.6h-7.4L319.7,543h7.4L342.7,561.6z"/>
<path class="st1" d="M354.2,561.6h-7.4L331.2,543h7.4L354.2,561.6z"/>
<path class="st1" d="M365.7,561.6h-7.4L342.6,543h7.4L365.7,561.6z"/>
<path class="st1" d="M377.1,561.6h-7.4L354.1,543h7.4L377.1,561.6z"/>
</svg>
