<svg version="1.1" id="圖層_1" xmlns="http://www.w3.org/2000/svg" x="0" y="0" viewBox="0 0 378 567" style="enable-background:new 0 0 378 567" xml:space="preserve"><style>.st1{fill:#f8ec2c}</style><path d="m217.4 543.1-.1-.2H.5L.8 46.3 59.2.5h275.3v566h-96.8l-20.3-23.4z" style="fill:none;stroke:#fff;stroke-opacity:.5"/><path class="st1" d="M251.6 561.6H244L228 543h7.6l16 18.6zM262.5 561.6h-7.4L239.5 543h7.4l15.6 18.6zM274 561.6h-7.4L250.9 543h7.4l15.7 18.6zM285.4 561.6H278L262.4 543h7.4l15.6 18.6zM296.9 561.6h-7.4L273.9 543h7.4l15.6 18.6zM308.3 561.6h-7.4L285.3 543h7.4l15.6 18.6zM319.8 561.6h-7.4L296.8 543h7.4l15.6 18.6zM331.3 561.6h-7.4L308.2 543h7.4l15.7 18.6zM342.7 561.6h-7.4L319.7 543h7.4l15.6 18.6zM354.2 561.6h-7.4L331.2 543h7.4l15.6 18.6zM365.7 561.6h-7.4L342.6 543h7.4l15.7 18.6zM377.1 561.6h-7.4L354.1 543h7.4l15.6 18.6z"/></svg>