<svg width="58" height="58" viewBox="0 0 58 58" fill="none" xmlns="http://www.w3.org/2000/svg">
<path d="M6.87451 10.1248L8.56538 11.5587C8.47314 11.6637 8.38087 11.7687 8.29289 11.8879L6.57793 10.4767C6.67514 10.3625 6.7773 10.239 6.87451 10.1248V10.1248ZM7.18033 9.77778C7.27754 9.66354 7.38893 9.54506 7.48614 9.43082L9.13299 10.9244C9.04075 11.0294 8.94853 11.1344 8.85629 11.2394L7.18954 9.78274L7.18033 9.77778ZM6.29056 10.8336L8.02968 12.2221C7.94667 12.3321 7.84946 12.4463 7.76645 12.5563L6.01246 11.1955C6.10044 11.0763 6.20258 10.9528 6.29056 10.8336V10.8336ZM7.80115 9.08882C7.90758 8.97955 8.01401 8.87026 8.12044 8.76099L9.71906 10.3C9.61759 10.4 9.52533 10.505 9.42387 10.6051L7.80115 9.08882V9.08882ZM5.7343 11.5573L7.5174 12.8863C7.43438 12.9963 7.34641 13.1155 7.26339 13.2254L5.4654 11.9242C5.55338 11.805 5.64632 11.6765 5.7343 11.5573ZM8.44469 8.42396C8.55112 8.31469 8.65756 8.20541 8.77321 8.10111L10.3186 9.69473C10.2172 9.79478 10.1157 9.89482 10.0142 9.99487L8.44469 8.42396V8.42396ZM5.20073 12.3052L7.01859 13.5696C6.93558 13.6795 6.85682 13.8037 6.78303 13.9186L4.94106 12.677C5.02478 12.5436 5.11275 12.4244 5.2057 12.296L5.20073 12.3052ZM9.11095 7.78325C9.2266 7.67895 9.33302 7.56966 9.44868 7.46535L10.9458 9.10438C10.8351 9.19945 10.7337 9.29948 10.6322 9.39953L9.11095 7.78325V7.78325ZM4.68988 13.0772L6.55172 14.2819C6.47297 14.4061 6.39918 14.5211 6.32042 14.6452L4.4437 13.4681C4.51819 13.3298 4.60616 13.2106 4.68988 13.0772V13.0772ZM9.7999 7.16663C9.91555 7.06233 10.0262 6.96727 10.1511 6.86794L11.5858 8.55661C11.4751 8.65169 11.3694 8.73754 11.2679 8.83759L9.7999 7.16663V7.16663ZM4.20672 13.8641L6.11255 15.0092C6.04302 15.1384 5.96921 15.2533 5.89045 15.3775L3.96973 14.26C4.04422 14.1216 4.123 13.9974 4.20672 13.8641V13.8641ZM10.5023 6.56922C10.6272 6.46988 10.7379 6.37479 10.8628 6.27545L12.2443 8.01877C12.1385 8.10462 12.0279 8.1997 11.9129 8.28058L10.5023 6.56922V6.56922ZM3.74199 14.6609L5.67761 15.7507C5.60808 15.8798 5.54351 15.9998 5.47398 16.1289L3.51848 15.076C3.59298 14.9376 3.66252 14.8085 3.73702 14.6701L3.74199 14.6609ZM11.2275 5.9959C11.3474 5.90579 11.4723 5.80643 11.5922 5.71631L12.9162 7.50009C12.8012 7.58098 12.6906 7.67606 12.5756 7.75695L11.2225 6.00511L11.2275 5.9959ZM3.30492 15.4726L5.27532 16.4978C5.21075 16.6178 5.14122 16.7469 5.07666 16.8668L3.08639 15.8785C3.16089 15.7401 3.23041 15.611 3.29569 15.4676L3.30492 15.4726ZM11.9661 5.44172C12.086 5.35161 12.2151 5.26647 12.3443 5.18132L13.6108 7.00553C13.4959 7.08642 13.3809 7.16729 13.266 7.24818L11.9753 5.4467L11.9661 5.44172ZM2.88629 16.2942L4.89146 17.2549C4.82689 17.3748 4.76658 17.5089 4.71124 17.6338L2.69543 16.715C2.76993 16.5766 2.82103 16.4376 2.89553 16.2992L2.88629 16.2942ZM12.7132 4.91594C12.8424 4.83079 12.9715 4.74567 13.1006 4.66053L14.3097 6.52516C14.1948 6.60604 14.0706 6.68198 13.9556 6.76287L12.7224 4.92091L12.7132 4.91594ZM2.49534 17.1308L4.52607 18.0219C4.47073 18.1468 4.4104 18.2809 4.36428 18.4108L2.31868 17.5473C2.38396 17.404 2.43503 17.2649 2.50031 17.1216L2.49534 17.1308ZM13.4831 4.4143C13.6122 4.32916 13.7506 4.24897 13.8747 4.17305L15.0171 6.07317C14.893 6.14909 14.7737 6.21579 14.6588 6.29668L13.4831 4.4143V4.4143ZM2.14128 17.9872L4.20181 18.823C4.14647 18.9479 4.09538 19.087 4.04926 19.2168L1.97314 18.4321C2.02919 18.2838 2.08029 18.1447 2.14556 18.0014L2.14128 17.9872ZM14.2756 3.93677C14.414 3.85659 14.5474 3.78562 14.6765 3.70047L15.7614 5.64106C15.6422 5.70776 15.518 5.78368 15.3896 5.84541L14.2714 3.92256L14.2756 3.93677ZM1.81067 18.8443L3.90169 19.6014C3.85557 19.7312 3.80449 19.8703 3.75837 20.0002L1.66168 19.2757C1.71773 19.1274 1.75959 18.9834 1.81564 18.8351L1.81067 18.8443ZM15.0816 3.47838C15.215 3.40742 15.3534 3.32725 15.496 3.26126L16.5142 5.23732C16.3858 5.29905 16.2666 5.36576 16.1332 5.43671L15.0816 3.47838V3.47838ZM1.5077 19.7164L3.61505 20.3989C3.56893 20.5288 3.52706 20.6728 3.49017 20.8076L1.36794 20.1527C1.4098 20.0087 1.46087 19.8696 1.5077 19.7164ZM15.9054 3.05337C16.0388 2.98242 16.1814 2.91642 16.324 2.85043L17.2805 4.85273C17.1521 4.91446 17.0237 4.97618 16.8952 5.03791L15.9104 3.04414L15.9054 3.05337ZM1.2374 20.5941L3.36532 21.2163C3.32842 21.3511 3.29152 21.4859 3.25462 21.6207L1.11607 21.0404C1.15793 20.8963 1.20476 20.7431 1.2374 20.5941V20.5941ZM16.7377 2.65672C16.8803 2.59073 17.018 2.53395 17.1606 2.46796L18.0504 4.50578C17.9219 4.56751 17.7893 4.61503 17.6608 4.67676L16.7377 2.65672ZM0.985518 21.4817L3.13898 22.0344C3.10208 22.1692 3.07441 22.309 3.03752 22.4438L0.878379 21.9237C0.911015 21.7747 0.952881 21.6307 0.985518 21.4817ZM17.5785 2.28846C17.7162 2.23169 17.8588 2.16571 18.0056 2.11391L18.8337 4.17794C18.701 4.22549 18.5726 4.28721 18.4349 4.34397L17.5877 2.29342L17.5785 2.28846ZM0.766282 22.375L2.93607 22.8532C2.9084 22.993 2.87149 23.1278 2.84382 23.2676L0.668376 22.822C0.701012 22.673 0.733645 22.524 0.766282 22.375V22.375ZM18.4328 1.93936C18.5796 1.88756 18.7173 1.8308 18.8641 1.779L19.6213 3.86433C19.4886 3.91187 19.3559 3.9594 19.2182 4.01617L18.4328 1.93936V1.93936ZM0.579688 23.274L2.76081 23.6869C2.73314 23.8267 2.70547 23.9665 2.69199 24.102L0.505177 23.7217C0.528589 23.5678 0.561247 23.4187 0.58466 23.2648L0.579688 23.274ZM19.2998 1.63283C19.4467 1.58103 19.5936 1.52922 19.7355 1.48665L20.4216 3.59325C20.2889 3.64079 20.147 3.68338 20.0143 3.73092L19.2906 1.62786L19.2998 1.63283ZM0.420766 24.1879L2.6182 24.5263C2.59053 24.6661 2.57705 24.8016 2.55861 24.9463L0.355487 24.6406C0.3789 24.4866 0.40232 24.3326 0.420766 24.1879ZM20.1754 1.35467C20.3173 1.31209 20.4734 1.26526 20.6153 1.22269L21.2305 3.3506C21.0935 3.38395 20.9609 3.43146 20.819 3.47404L20.1662 1.34971L20.1754 1.35467ZM0.294486 25.1074L2.49405 25.3756C2.47561 25.5204 2.46212 25.6559 2.44367 25.8006L0.238441 25.5651C0.252629 25.4062 0.271073 25.2614 0.294486 25.1074ZM21.0595 1.10491C21.2106 1.0673 21.3525 1.02472 21.5036 0.987109L22.0479 3.13629C21.9109 3.16964 21.774 3.20299 21.6321 3.24557L21.0502 1.09994L21.0595 1.10491ZM0.1916 26.0277L2.4075 26.2214C2.39402 26.3569 2.3848 26.5066 2.37132 26.6421L0.158993 26.4861C0.168215 26.3364 0.182379 26.1774 0.1916 26.0277V26.0277ZM21.957 0.874291C22.1081 0.836683 22.2543 0.8083 22.4055 0.770692L22.8837 2.93195C22.7468 2.9653 22.6006 2.99366 22.4637 3.02701L21.9478 0.869335L21.957 0.874291ZM0.126357 26.9444L2.34435 27.0679C2.3401 27.2083 2.32663 27.3439 2.32237 27.4844L0.107911 27.3986C0.117132 27.2488 0.117125 27.0942 0.131313 26.9352L0.126357 26.9444ZM22.8489 0.676312C22.9951 0.647928 23.1554 0.615286 23.3016 0.586903L23.7089 2.76944C23.5769 2.79356 23.4308 2.82196 23.2938 2.85531L22.8489 0.676312V0.676312ZM23.7585 0.511698C23.9139 0.488281 24.0601 0.459883 24.2155 0.436466L24.5568 2.63106C24.4156 2.65022 24.2694 2.6786 24.1375 2.70273L23.7678 0.51667L23.7585 0.511698ZM24.6675 0.370494C24.8228 0.347077 24.9733 0.332868 25.1286 0.309451L25.3947 2.51115C25.2535 2.53031 25.1124 2.54947 24.9712 2.56863L24.6675 0.370494V0.370494ZM25.5849 0.257656C25.7353 0.243463 25.8857 0.229276 26.0454 0.22005L26.2455 2.43379C26.1092 2.44372 25.9588 2.45793 25.8176 2.47709L25.5891 0.271845L25.5849 0.257656ZM26.5059 0.182416C26.6563 0.168223 26.8159 0.159013 26.9614 0.154044L27.0913 2.36567C26.9458 2.37064 26.8096 2.38057 26.6592 2.39476L26.4966 0.177445L26.5059 0.182416ZM27.4261 0.130614C27.5858 0.121388 27.7312 0.116421 27.8859 0.116418L27.9406 2.33513C27.7951 2.3401 27.6638 2.34082 27.5184 2.34579L27.4261 0.130614V0.130614ZM28.3549 0.107178C28.5096 0.107176 28.6643 0.107189 28.819 0.107187L28.8034 2.32377C28.6629 2.31952 28.5174 2.3245 28.3769 2.32024L28.3599 0.0979454L28.3549 0.107178ZM29.278 0.116385C29.4327 0.116383 29.5824 0.125629 29.7371 0.125626L29.6513 2.34009C29.5108 2.33583 29.3703 2.33158 29.2298 2.32732L29.283 0.107152L29.278 0.116385ZM30.2004 0.149029C30.3501 0.158251 30.4998 0.167448 30.6588 0.181637L30.5027 2.394C30.3622 2.38974 30.2175 2.37128 30.077 2.36703L30.2004 0.149029ZM31.1171 0.214272C31.2668 0.223494 31.4208 0.246935 31.5705 0.256156L31.335 2.46139C31.1903 2.44294 31.0547 2.42947 30.905 2.42024L31.1079 0.209316L31.1171 0.214272ZM32.0282 0.312202C32.1822 0.335614 32.3319 0.344819 32.4858 0.368232L32.1801 2.57135C32.0353 2.55291 31.8998 2.53944 31.76 2.51177L32.0282 0.312202V0.312202ZM32.9385 0.43351C33.0925 0.456923 33.2465 0.480328 33.3955 0.512965L33.0152 2.69977C32.8754 2.6721 32.7399 2.65863 32.6001 2.63096L32.9385 0.43351V0.43351ZM33.8432 0.587476C33.9922 0.620113 34.1462 0.643512 34.2952 0.676149L33.8496 2.8516C33.7098 2.82393 33.57 2.79625 33.4303 2.76858L33.8432 0.587476V0.587476ZM34.7422 0.77407C34.8912 0.806706 35.0402 0.839311 35.1892 0.871947L34.6784 3.03607C34.5386 3.0084 34.4038 2.97149 34.264 2.94382L34.7422 0.77407V0.77407ZM35.6405 0.984073C35.7895 1.01671 35.9335 1.05856 36.0868 1.10539L35.5064 3.24395C35.3716 3.20705 35.2368 3.17015 35.102 3.13325L35.6546 0.979796L35.6405 0.984073ZM36.5238 1.22173C36.6679 1.26359 36.8211 1.31043 36.9652 1.35229L36.3103 3.47455C36.1755 3.43766 36.0456 3.39151 35.9016 3.34965L36.5238 1.22173V1.22173ZM37.4015 1.49208C37.5456 1.53394 37.6939 1.58997 37.8379 1.63183L37.1135 3.72852C36.9837 3.6824 36.8446 3.63133 36.7098 3.59443L37.3923 1.4871L37.4015 1.49208ZM3.46494 42.0682L5.42326 41.0166C5.48996 41.1358 5.55168 41.2643 5.62761 41.3884L3.68703 42.4733C3.60685 42.335 3.5359 42.2016 3.46494 42.0682V42.0682ZM38.2736 1.79502C38.4219 1.85107 38.5609 1.90216 38.7092 1.95821L37.9245 4.03433C37.7947 3.98822 37.6556 3.93713 37.5257 3.89101L38.2828 1.79999L38.2736 1.79502ZM3.91834 42.8835L5.83623 41.7744C5.90293 41.8936 5.97882 42.0178 6.05474 42.142L4.15464 43.2843C4.07446 43.146 3.99852 43.0218 3.91834 42.8835V42.8835ZM39.1399 2.13063C39.279 2.18172 39.4223 2.24697 39.5614 2.29806L38.7071 4.34865C38.573 4.28834 38.4432 4.24224 38.3091 4.18193L39.1357 2.11643L39.1399 2.13063ZM4.39589 43.676L6.2875 42.5052C6.36342 42.6294 6.43508 42.7394 6.51101 42.8636L4.64635 44.0726C4.5612 43.9435 4.47607 43.8143 4.39589 43.676V43.676ZM39.9871 2.47972C40.1304 2.54499 40.2645 2.6053 40.4079 2.67058L39.4891 4.68638C39.3599 4.61685 39.2301 4.57073 39.096 4.51042L39.9871 2.47972V2.47972ZM4.89753 44.4458L6.73946 43.2126C6.82035 43.3276 6.90125 43.4425 6.97717 43.5667L5.15299 44.8332C5.06784 44.7041 4.9777 44.5842 4.89256 44.4551L4.89753 44.4458ZM40.8286 2.86144C40.967 2.93594 41.1011 2.99623 41.2444 3.06151L40.2468 5.0468C40.1269 4.98224 39.9978 4.91272 39.8679 4.86661L40.8286 2.86144ZM5.42758 45.2072L7.22906 43.9165C7.30995 44.0314 7.39086 44.1464 7.47672 44.2521L5.70217 45.5811C5.61205 45.4612 5.51769 45.3271 5.42758 45.2072V45.2072ZM41.6552 3.27083C41.7936 3.34533 41.9227 3.41487 42.0611 3.48937L41.0082 5.44486C40.8883 5.3803 40.7591 5.31076 40.63 5.24123L41.6552 3.27083ZM5.98173 45.9458L7.74277 44.5976C7.82366 44.7126 7.91876 44.8233 8.00462 44.929L6.26129 46.3105C6.17117 46.1905 6.07184 46.0657 5.98173 45.9458V45.9458ZM42.467 3.7079C42.6053 3.7824 42.7345 3.85191 42.8679 3.93564L41.7504 5.85636C41.6212 5.78683 41.5013 5.72228 41.3771 5.64353L42.4577 3.70293L42.467 3.7079ZM6.55504 46.6709L8.26644 45.2603C8.36152 45.371 8.44738 45.4767 8.54246 45.5874L6.85376 47.0221C6.74946 46.9065 6.65934 46.7866 6.55504 46.6709ZM43.2638 4.17262C43.4021 4.24712 43.5213 4.3351 43.6547 4.41883L42.4776 6.29556C42.3485 6.22603 42.2385 6.14303 42.1186 6.07846L43.2638 4.17262V4.17262ZM7.15248 47.3734L8.82342 45.9053C8.9185 46.016 9.00932 46.1125 9.1044 46.2232L7.45618 47.7153C7.35187 47.5997 7.24756 47.484 7.15248 47.3734ZM44.0457 4.66503C44.1791 4.74875 44.3033 4.82749 44.4317 4.92044L43.19 6.76244C43.0751 6.68865 42.9559 6.60066 42.8409 6.52687L44.0457 4.66503V4.66503ZM7.77406 48.0531L9.39035 46.5318C9.4904 46.6333 9.59046 46.7347 9.68554 46.8454L8.09193 48.3908C7.98266 48.2844 7.87836 48.1688 7.77406 48.0531ZM44.8177 5.17588C44.9461 5.26882 45.0703 5.3476 45.1987 5.44055L43.8974 7.23851C43.7875 7.1555 43.6633 7.07675 43.5533 6.99374L44.8177 5.17588V5.17588ZM8.41975 48.7101L9.99063 47.1406C10.0907 47.242 10.1907 47.3435 10.2957 47.4358L8.74755 49.0294C8.63828 48.9229 8.52903 48.8165 8.41975 48.7101V48.7101ZM45.5655 5.70945C45.6847 5.79743 45.8132 5.89037 45.9274 5.98757L44.5758 7.74652C44.4658 7.66351 44.3466 7.57553 44.2366 7.49252L45.5655 5.70945V5.70945ZM9.08457 49.3536L10.6008 47.7309C10.7059 47.8231 10.8059 47.9246 10.9201 48.0218L9.4266 49.6687C9.31733 49.5622 9.20307 49.4651 9.0938 49.3586L9.08457 49.3536ZM46.2985 6.27067C46.4127 6.36787 46.5412 6.46085 46.6554 6.55805L45.2442 8.27301C45.1392 8.18077 45.0199 8.09281 44.9149 8.00057L46.2985 6.27067ZM9.76432 49.9695L11.221 48.3028C11.326 48.395 11.431 48.4873 11.5452 48.5845L11.6006 48.6143L10.1567 50.3236L10.1014 50.2938C9.99208 50.1873 9.87361 50.0759 9.75937 49.9787L9.76432 49.9695ZM47.0073 6.85463L47.035 6.86952C47.1351 6.97099 47.245 7.05399 47.3593 7.1512L45.9026 8.81792C45.8068 8.73065 45.7061 8.65259 45.6011 8.56035L47.0123 6.84539L47.0073 6.85463ZM11.9249 48.896C12.0299 48.9882 12.1399 49.0712 12.2591 49.1592L10.8797 50.9033C10.7655 50.8061 10.6371 50.7131 10.5228 50.6159L11.9341 48.9009L11.9249 48.896ZM46.2077 9.11308L47.7013 7.46621C47.8105 7.57264 47.934 7.67484 48.0433 7.78127L46.527 9.40399C46.422 9.31175 46.322 9.21027 46.2169 9.11804L46.2077 9.11308ZM12.5933 49.4224C12.7032 49.5054 12.8224 49.5934 12.9324 49.6764L11.6127 51.4645C11.4843 51.3715 11.3651 51.2836 11.2416 51.1814L12.5933 49.4224V49.4224ZM46.8279 9.68497L48.3668 8.08635C48.4761 8.19278 48.5854 8.2992 48.6946 8.40563L47.133 9.98011C47.0329 9.87865 46.9329 9.77721 46.8279 9.68497V9.68497ZM13.2765 49.9212C13.3865 50.0042 13.5107 50.083 13.6207 50.166L12.3563 51.9838C12.2279 51.8909 12.1037 51.8121 11.9753 51.7192L13.2673 49.9162L13.2765 49.9212ZM47.4331 10.2845L49.0267 8.73911C49.136 8.84554 49.2403 8.96121 49.3446 9.07686L47.7283 10.5981C47.6282 10.4966 47.5282 10.3952 47.4331 10.2845ZM13.979 50.4065C14.1032 50.4853 14.2181 50.5591 14.3373 50.6471L13.1326 52.5089C12.9992 52.4252 12.875 52.3464 12.7465 52.2535L13.979 50.4065ZM48.0192 10.8976L49.6582 9.40041C49.7625 9.51607 49.8668 9.6317 49.9711 9.74736L48.3002 11.2154C48.2051 11.1047 48.1143 11.0082 48.0192 10.8976ZM14.6871 50.8592C14.8163 50.9287 14.9262 51.0118 15.0554 51.0813L13.9102 52.9871C13.7718 52.9126 13.6526 52.8246 13.5143 52.7501L14.6822 50.8684L14.6871 50.8592ZM48.5812 11.5333L50.2748 10.0893C50.3791 10.205 50.4692 10.3249 50.5735 10.4406L48.8622 11.8512C48.7763 11.7454 48.6812 11.6347 48.5861 11.5241L48.5812 11.5333ZM15.4236 51.3034C15.5528 51.3729 15.6727 51.4375 15.8018 51.507L14.7212 53.4476C14.5829 53.3731 14.4537 53.3036 14.3203 53.2198L15.4378 51.2991L15.4236 51.3034ZM49.1282 12.1967L50.8623 10.8102C50.9617 10.9351 51.0518 11.055 51.1419 11.1749L49.3901 12.5281C49.3042 12.4223 49.2141 12.3024 49.1282 12.1967V12.1967ZM16.1609 51.7241C16.29 51.7936 16.4099 51.8582 16.539 51.9277L15.523 53.9031C15.3846 53.8286 15.2555 53.7591 15.1171 53.6846L16.1701 51.7291L16.1609 51.7241ZM49.6377 12.8636L51.4122 11.5347C51.5023 11.6546 51.5967 11.7887 51.6868 11.9086L49.8853 13.1993C49.8044 13.0843 49.7236 12.9694 49.6285 12.8587L49.6377 12.8636ZM16.9179 52.108C17.0378 52.1725 17.167 52.2421 17.2968 52.2882L16.3454 54.2983C16.207 54.2238 16.0729 54.1635 15.9296 54.0982L16.9179 52.108ZM50.1372 13.5491L51.9522 12.2775C52.0373 12.4067 52.1274 12.5266 52.2126 12.6557L50.3707 13.8889C50.2898 13.774 50.2089 13.659 50.133 13.5349L50.1372 13.5491ZM17.6849 52.4734C17.8141 52.5429 17.9439 52.589 18.078 52.6493L17.1869 54.68C17.0435 54.6148 16.9094 54.5544 16.7661 54.4892L17.6849 52.4734V52.4734ZM50.6126 14.2572L52.4773 13.0481C52.5624 13.1772 52.6475 13.3064 52.7235 13.4305L50.8411 14.6063C50.7652 14.4821 50.6843 14.3671 50.6176 14.2479L50.6126 14.2572ZM18.4669 52.8111C18.5917 52.8664 18.7308 52.9175 18.8557 52.9729L18.0291 55.0383C17.8808 54.9823 17.7467 54.922 17.5984 54.8659L18.4619 52.8203L18.4669 52.8111ZM51.0689 14.9788L52.969 13.8364C53.0492 13.9747 53.1251 14.0989 53.2052 14.2373L51.2824 15.3555C51.2157 15.2363 51.1398 15.1122 51.0639 14.988L51.0689 14.9788ZM19.2587 53.1304C19.3886 53.1765 19.5276 53.2276 19.6575 53.2737L18.9004 55.3647C18.7521 55.3086 18.613 55.2576 18.4648 55.2015L19.2587 53.1304ZM51.501 15.7231L53.4415 14.6382C53.5125 14.7716 53.5927 14.9099 53.6636 15.0433L51.7053 16.0949C51.6386 15.9757 51.5677 15.8423 51.501 15.7231V15.7231ZM20.0562 53.417C20.1861 53.4631 20.3301 53.505 20.46 53.5511L19.7774 55.6585C19.6334 55.6166 19.4851 55.5605 19.341 55.5187L20.0562 53.417V53.417ZM51.9097 16.4666L53.8765 15.4435C53.9475 15.5769 54.0134 15.7195 54.0844 15.8529L52.0998 16.8427C52.0381 16.7143 51.9764 16.5858 51.9097 16.4666ZM20.8687 53.676C21.0035 53.7129 21.1333 53.759 21.2774 53.8008L20.6644 55.9337C20.5203 55.8919 20.367 55.845 20.223 55.8032L20.8687 53.676V53.676ZM52.285 17.228L54.2873 16.2715C54.3533 16.4141 54.4193 16.5567 54.4903 16.6901L52.4702 17.6132C52.4085 17.4848 52.3468 17.3564 52.2942 17.2329L52.285 17.228ZM21.6818 53.9115C21.8166 53.9484 21.9514 53.9853 22.0912 54.013L21.5527 56.1622C21.4037 56.1296 21.2596 56.0877 21.1064 56.0409L21.6868 53.9023L21.6818 53.9115ZM52.6412 18.0028L54.679 17.113C54.745 17.2556 54.8018 17.3933 54.8628 17.5451L52.8165 18.4065C52.7597 18.2689 52.7072 18.1454 52.6455 18.017L52.6412 18.0028ZM22.5006 54.1145C22.6354 54.1514 22.7752 54.179 22.915 54.2067L22.4368 56.3765C22.2878 56.3438 22.1388 56.3112 21.9898 56.2785L22.5006 54.1145V54.1145ZM52.9691 18.7861L55.0281 17.9673C55.0849 18.1049 55.1367 18.2518 55.1977 18.4036L53.1209 19.1891C53.0734 19.0564 53.0166 18.9188 52.9641 18.7953L52.9691 18.7861ZM23.3293 54.2989C23.4691 54.3266 23.6089 54.3543 23.7487 54.3819L23.3358 56.5631C23.1868 56.5304 23.0328 56.507 22.8838 56.4744L23.3293 54.2989V54.2989ZM53.2727 19.5922L55.3581 18.835C55.4099 18.9819 55.4616 19.1288 55.5134 19.2757L53.4154 19.9902C53.3678 19.8575 53.3203 19.7248 53.2727 19.5922V19.5922ZM24.168 54.4649C24.3078 54.4926 24.4433 54.5061 24.5831 54.5338L24.2496 56.722C24.0957 56.6986 23.9417 56.6751 23.7927 56.6425L24.1638 54.4507L24.168 54.4649ZM53.553 20.3975L55.6596 19.7113C55.7114 19.8582 55.754 20.0001 55.8008 20.1562L53.6765 20.809C53.629 20.6763 53.5956 20.5394 53.5481 20.4067L53.553 20.3975ZM25.0081 54.5841C25.1529 54.6025 25.2834 54.6253 25.4281 54.6437L25.1692 56.8483C25.0152 56.8248 24.8655 56.8156 24.7115 56.7922L25.0173 54.5891L25.0081 54.5841ZM53.8049 21.2113L55.9328 20.5961C55.9754 20.738 56.013 20.8891 56.0598 21.0452L53.9234 21.632C53.8901 21.4951 53.8475 21.3532 53.8092 21.2255L53.8049 21.2113ZM25.8532 54.6941C25.9887 54.7076 26.1334 54.726 26.2739 54.7303L26.0803 56.9461C25.9213 56.932 25.7716 56.9228 25.6177 56.8993L25.8532 54.6941V54.6941ZM54.0284 22.0336L56.1826 21.4802C56.2202 21.6313 56.2578 21.7825 56.2954 21.9336L54.1377 22.4494C54.1043 22.3125 54.071 22.1756 54.0377 22.0386L54.0284 22.0336ZM26.6947 54.7664C26.8352 54.7707 26.9799 54.7891 27.1204 54.7934L26.997 57.0114C26.8473 57.0022 26.6883 56.988 26.5386 56.9788L26.6947 54.7664ZM54.2236 22.8645L56.3848 22.3863C56.4224 22.5374 56.4508 22.6836 56.4792 22.8297L54.3094 23.2796C54.2761 23.1427 54.2477 22.9965 54.2236 22.8645ZM27.5461 54.8204C27.6866 54.8246 27.8271 54.8289 27.9676 54.8331L27.9144 57.0533C27.7597 57.0533 27.61 57.0441 27.4461 57.0391L27.5319 54.8246L27.5461 54.8204ZM54.3996 23.7089L56.5821 23.3016C56.6105 23.4477 56.6339 23.6031 56.6623 23.7493L54.4712 24.1282C54.4521 23.987 54.4187 23.8501 54.3996 23.7089V23.7089ZM28.3983 54.8508C28.5388 54.8551 28.6842 54.8501 28.8247 54.8544L28.8418 57.0767C28.6871 57.0767 28.5324 57.0767 28.3778 57.0767L28.3933 54.8601L28.3983 54.8508ZM54.5429 24.5475L56.7375 24.2062C56.7609 24.3616 56.7801 24.5028 56.8035 24.6582L54.6053 24.9619C54.5862 24.8207 54.567 24.6795 54.5479 24.5383L54.5429 24.5475ZM29.2519 54.8345C29.3973 54.8296 29.5428 54.8246 29.679 54.8147L29.7713 57.0298C29.6166 57.0298 29.4662 57.044 29.3115 57.044L29.2568 54.8253L29.2519 54.8345ZM54.6628 25.3855L56.8645 25.1194C56.8879 25.2748 56.9021 25.4252 56.9163 25.5756L54.7111 25.8041C54.6919 25.6629 54.682 25.5267 54.6628 25.3855ZM30.0969 54.7898C30.2424 54.7849 30.3786 54.7749 30.5148 54.765L30.6773 56.9823C30.5269 56.9965 30.3673 57.0057 30.2218 57.0107L30.092 54.799L30.0969 54.7898ZM54.7451 26.227L56.9589 26.0269C56.9731 26.1773 56.9823 26.3369 56.9965 26.4874L54.7792 26.6499C54.7693 26.5137 54.7551 26.3632 54.7451 26.227V26.227ZM30.9377 54.7309C31.074 54.721 31.2244 54.7068 31.3656 54.6876L31.6033 56.8978C31.4529 56.912 31.3025 56.9262 31.152 56.9404L30.9519 54.7267L30.9377 54.7309ZM54.8083 27.082L57.0291 26.9571C57.0433 27.1075 57.0433 27.2622 57.0575 27.4126L54.8423 27.5049C54.8374 27.3594 54.8275 27.2232 54.8225 27.0777L54.8083 27.082ZM31.7934 54.6443C31.9346 54.6252 32.0758 54.606 32.217 54.5869L32.5207 56.785C32.3654 56.8084 32.2149 56.8226 32.0595 56.846L31.7934 54.6443V54.6443ZM54.853 27.9271L57.0717 27.8724C57.0717 28.0271 57.0767 28.1725 57.0767 28.3272L54.8544 28.3443C54.8495 28.1988 54.8537 28.0583 54.8438 27.9221L54.853 27.9271ZM32.6406 54.5294C32.7818 54.5102 32.9138 54.4861 33.06 54.4577L33.4389 56.6488C33.2835 56.6722 33.1373 56.7005 32.9819 56.724L32.6406 54.5294ZM54.8693 28.7806L57.0859 28.7962C57.0859 28.9509 57.0859 29.1056 57.0767 29.2553L54.8566 29.2021C54.8608 29.0616 54.8651 28.9211 54.8601 28.7757L54.8693 28.7806ZM33.4935 54.3818C33.6347 54.3626 33.7716 54.3293 33.9085 54.2959L34.3584 56.4657C34.2123 56.4941 34.0519 56.5267 33.9058 56.5551L33.4984 54.3726L33.4935 54.3818ZM54.853 29.6285L57.0675 29.7144C57.0583 29.8641 57.0583 30.0187 57.0441 30.1777L54.8261 30.0543C54.8303 29.9138 54.8346 29.7733 54.8438 29.6236L54.853 29.6285ZM34.3236 54.21C34.4606 54.1767 34.5975 54.1434 34.7345 54.11L35.2503 56.2677C35.0992 56.3053 34.948 56.3429 34.8019 56.3713L34.3286 54.2008L34.3236 54.21ZM54.7991 30.48L57.0115 30.6361C57.0023 30.7858 56.9881 30.9447 56.9788 31.0944L54.7722 30.9057C54.7906 30.761 54.7949 30.6205 54.8083 30.4849L54.7991 30.48ZM35.1403 54.0192C35.2772 53.9858 35.4142 53.9525 35.5561 53.9099L36.1429 56.0463C35.9918 56.0839 35.8499 56.1265 35.6987 56.1641L35.1453 54.01L35.1403 54.0192ZM54.7218 31.3307L56.927 31.5663C56.9128 31.7252 56.8944 31.8699 56.871 32.0239L54.6714 31.7557C54.6899 31.611 54.7033 31.4755 54.7218 31.3307ZM35.9626 53.7957C36.0996 53.7623 36.2323 53.7148 36.3742 53.6722L37.027 55.7966C36.8801 55.8484 36.729 55.886 36.5871 55.9285L35.9719 53.8006L35.9626 53.7957ZM54.6118 32.1758L56.8057 32.4766C56.7823 32.6305 56.7589 32.7845 56.7405 32.9293L54.543 32.5909C54.5707 32.4511 54.5842 32.3156 54.6026 32.1708L54.6118 32.1758ZM36.7715 53.553C36.9042 53.5055 37.0461 53.4629 37.1788 53.4153L37.9026 55.5184C37.7557 55.5702 37.6138 55.6128 37.4669 55.6646L36.7715 53.553V53.553ZM54.4877 33.0251L56.6794 33.3961C56.656 33.5501 56.6234 33.6991 56.6 33.8531L54.4189 33.4402C54.4465 33.3004 54.4742 33.1606 54.4877 33.0251ZM37.5861 53.2777C37.7187 53.2301 37.8514 53.1826 37.9891 53.1258L38.7795 55.1934C38.6327 55.2452 38.495 55.302 38.3482 55.3538L37.591 53.2685L37.5861 53.2777ZM54.3358 33.8595L56.5113 34.3051C56.4787 34.4541 56.446 34.6031 56.4134 34.7521L54.2436 34.2739C54.2713 34.1341 54.3082 33.9993 54.3358 33.8595V33.8595ZM38.3779 52.9782C38.5106 52.9307 38.639 52.869 38.7717 52.8214L39.6331 54.8677C39.4955 54.9245 39.3436 54.9855 39.206 55.0423L38.3779 52.9782V52.9782ZM54.1514 34.6883L56.3105 35.2083C56.2779 35.3573 56.236 35.5014 56.2034 35.6504L54.0542 35.1119C54.0911 34.977 54.1187 34.8372 54.1556 34.7024L54.1514 34.6883ZM39.1612 52.6504C39.2897 52.5887 39.4223 52.5412 39.5508 52.4794L40.4789 54.4902C40.3363 54.5562 40.1986 54.613 40.056 54.679L39.1612 52.6504ZM53.9435 35.5163L56.082 36.0967C56.0402 36.2407 55.9983 36.3847 55.9607 36.543L53.8278 35.9299C53.8647 35.7951 53.9016 35.6603 53.9435 35.5163V35.5163ZM39.9453 52.2992C40.0737 52.2375 40.2021 52.1757 40.3305 52.114L41.3204 54.0986C41.1778 54.1646 41.0444 54.2355 40.9018 54.3015L39.9453 52.2992V52.2992ZM53.7079 36.3294L55.8302 36.9843C55.7883 37.1283 55.7415 37.2816 55.6904 37.4207L53.5831 36.7381C53.6292 36.6083 53.671 36.4642 53.7079 36.3294ZM40.7066 51.9238C40.835 51.8621 40.9542 51.7954 41.0876 51.7244L42.1442 53.6735C42.0108 53.7445 41.8724 53.8247 41.7298 53.8907L40.7066 51.9238V51.9238ZM53.449 37.1418L55.5506 37.857C55.4995 37.9961 55.4527 38.1494 55.3967 38.2977L53.3056 37.5406C53.3518 37.4108 53.4029 37.2717 53.449 37.1418V37.1418ZM41.4594 51.5201C41.5786 51.4534 41.7028 51.3775 41.8362 51.3065L42.9544 53.2294C42.8161 53.3095 42.6827 53.3805 42.5535 53.4656L41.4686 51.5251L41.4594 51.5201ZM53.1623 37.9394L55.2384 38.7241C55.1824 38.8724 55.1313 39.0115 55.066 39.1548L53.0006 38.3282C53.0559 38.2033 53.107 38.0643 53.1531 37.9344L53.1623 37.9394ZM42.1945 51.083C42.3187 51.0071 42.4428 50.9312 42.5528 50.8595L43.7285 52.7419C43.5994 52.827 43.461 52.9072 43.3369 52.9831L42.1803 51.0873L42.1945 51.083ZM52.848 38.722L54.8986 39.5763C54.8425 39.7246 54.7822 39.8587 54.717 40.002L52.6862 39.1108C52.7416 38.9859 52.8019 38.8518 52.848 38.722V38.722ZM42.9161 50.6268C43.031 50.5459 43.1552 50.47 43.2701 50.3891L44.5126 52.236C44.3834 52.3211 44.2543 52.4063 44.1252 52.4914L42.9161 50.6268ZM52.501 39.4989L54.5169 40.4178C54.4424 40.5561 54.3913 40.6952 54.3168 40.8336L52.3066 39.8821C52.3762 39.753 52.4315 39.6281 52.4918 39.494L52.501 39.4989ZM43.615 50.1464C43.7299 50.0655 43.8449 49.9846 43.9648 49.8945L45.2696 51.6918C45.1497 51.7819 45.0206 51.867 44.9007 51.9571L43.6291 50.1422L43.615 50.1464ZM52.1357 40.266L54.1259 41.2543C54.0514 41.3927 53.9819 41.5218 53.9166 41.6652L51.9462 40.6399C52.0157 40.5108 52.0803 40.3909 52.1498 40.2617L52.1357 40.266ZM44.3096 49.6519C44.4245 49.571 44.5303 49.4851 44.6502 49.395L46.0125 51.1518C45.8876 51.2511 45.7677 51.3412 45.6478 51.4313L44.3188 49.6568L44.3096 49.6519ZM51.7426 41.0181L53.6981 42.071C53.6236 42.2094 53.5541 42.3385 53.4796 42.4769L51.539 41.3963C51.6085 41.2671 51.6731 41.1472 51.7426 41.0181ZM44.9815 49.1332C45.0872 49.0473 45.1979 48.9522 45.3129 48.8713L46.7234 50.5827C46.5986 50.6821 46.4879 50.7771 46.363 50.8765L44.9765 49.1424L44.9815 49.1332ZM51.3261 41.7695L53.2468 42.887C53.1723 43.0253 53.0936 43.1495 53.0099 43.2829L51.104 42.1377C51.1686 42.0178 51.2473 41.8937 51.3211 41.7787L51.3261 41.7695ZM45.64 48.5953C45.7506 48.5002 45.8564 48.4144 45.9578 48.3143L47.4309 49.9761C47.3152 50.0804 47.1995 50.1847 47.0796 50.2748L45.6449 48.5861L45.64 48.5953ZM50.8961 42.5017L52.7779 43.6696C52.7034 43.808 52.6154 43.9272 52.5316 44.0606L50.6698 42.8558C50.7436 42.7408 50.8223 42.6167 50.8961 42.5017ZM46.2757 48.0334C46.3864 47.9383 46.4878 47.8382 46.5893 47.7382L48.1106 49.3545C47.9949 49.4588 47.8885 49.5681 47.7728 49.6724L46.2757 48.0334V48.0334ZM50.4293 43.2141L52.2762 44.4466C52.1925 44.58 52.1045 44.6992 52.0115 44.8276L50.1937 43.5632C50.2767 43.4533 50.3555 43.329 50.4293 43.2141ZM46.898 47.4522C46.9994 47.3522 47.1009 47.2522 47.2023 47.1521L48.7719 48.723C48.6654 48.8323 48.559 48.9415 48.4433 49.0458L46.898 47.4522V47.4522ZM49.9489 43.9073L51.7519 45.1994C51.6589 45.3278 51.5709 45.447 51.478 45.5754L49.6949 44.2465C49.7779 44.1365 49.8659 44.0173 49.9489 43.9073ZM47.4975 46.847C47.599 46.7469 47.6912 46.6419 47.7927 46.5419L49.4154 48.0581C49.309 48.1674 49.2025 48.2767 49.1053 48.3909L47.5067 46.852L47.4975 46.847ZM49.4359 44.5949L51.1949 45.9465C51.1069 46.0657 51.0047 46.1892 50.9167 46.3084L49.1727 44.9291C49.2557 44.8191 49.3529 44.7049 49.4359 44.5949ZM48.0694 46.2268C48.1616 46.1218 48.2539 46.0168 48.3511 45.9026L50.0178 47.3592C49.9206 47.4735 49.8142 47.5828 49.712 47.7062L48.0602 46.2219L48.0694 46.2268ZM48.9002 45.2583L50.6152 46.6696C50.518 46.7838 50.4158 46.9072 50.3186 47.0215L48.6278 45.5875C48.72 45.4825 48.8172 45.3683 48.9002 45.2583V45.2583Z" fill="white" />
</svg>
