<svg width="119" height="57" viewBox="0 0 119 57" fill="none" xmlns="http://www.w3.org/2000/svg">
<path d="M11.64 22.08V29.1H44.1V22.08H11.64ZM41.76 22.08V23.4C41.22 40.08 40.56 46.8 39.12 48.36C38.46 49.02 37.8 49.2 36.72 49.2C35.22 49.2 32.1 49.14 28.74 48.84C30.06 50.88 31.02 54 31.14 56.1C34.68 56.22 38.16 56.28 40.26 55.98C42.54 55.62 44.22 55.08 45.72 53.04C47.82 50.58 48.54 43.44 49.2 25.2C49.26 24.3 49.32 22.08 49.32 22.08H41.76ZM18.42 0.839998C14.82 9.96 8.16 18.36 0.6 23.34C2.34 24.72 5.46 27.6 6.84 29.16C14.4 23.22 21.72 13.56 26.22 3.12L18.42 0.839998ZM41.28 0.719996L34.2 3.54C38.94 12.72 46.32 22.44 53.1 28.68C54.48 26.64 57.24 23.7 59.22 22.14C52.62 17.1 45.06 8.34 41.28 0.719996ZM22.38 24.12C21.42 34.8 19.98 44.94 3.9 50.22C5.58 51.78 7.68 54.84 8.58 56.82C26.46 50.16 29.04 37.62 30.18 24.12H22.38ZM92.22 20.34V27.12H118.32V20.34H92.22ZM88.56 4.26V21.72C88.56 30.66 87.9 42.78 81.18 51.6C82.92 52.44 85.68 54.78 86.7 56.34C94.5 46.38 95.58 31.44 95.58 21.84V7.74C96.66 7.56 97.08 7.2 97.14 6.66L88.56 4.26ZM110.34 0.659997C105.42 3.06 97.44 5.28 90.06 6.72C90.96 8.22 92.04 10.92 92.4 12.6C100.32 11.34 109.5 9.24 116.4 6.3L110.34 0.659997ZM103.38 22.44V56.34H110.52V22.44H103.38ZM62.64 12.42V19.26H85.08V12.42H62.64ZM70.92 0.0599978V56.4H77.82V0.0599978H70.92ZM70.56 17.04C69 24.72 65.22 34.08 61.08 39.3C62.16 41.1 63.84 44.04 64.5 46.02C69.12 39.84 72.9 28.2 74.82 18.54L70.56 17.04ZM77.28 22.32L73.98 25.56C76.02 28.56 80.1 35.22 81.72 38.82L85.74 33.12C84.54 31.38 78.84 24 77.28 22.32Z" fill="white"/>
</svg>
