<svg width="119" height="57" fill="none" xmlns="http://www.w3.org/2000/svg"><path d="M11.64 22.08v7.02H44.1v-7.02H11.64zm30.12 0v1.32c-.54 16.68-1.2 23.4-2.64 24.96-.66.66-1.32.84-2.4.84-1.5 0-4.62-.06-7.98-.36 1.32 2.04 2.28 5.16 2.4 7.26 3.54.12 7.02.18 9.12-.12 2.28-.36 3.96-.9 5.46-2.94 2.1-2.46 2.82-9.6 3.48-27.84.06-.9.12-3.12.12-3.12h-7.56zM18.42.84C14.82 9.96 8.16 18.36.6 23.34c1.74 1.38 4.86 4.26 6.24 5.82 7.56-5.94 14.88-15.6 19.38-26.04L18.42.84zM41.28.72 34.2 3.54c4.74 9.18 12.12 18.9 18.9 25.14 1.38-2.04 4.14-4.98 6.12-6.54C52.62 17.1 45.06 8.34 41.28.72zm-18.9 23.4c-.96 10.68-2.4 20.82-18.48 26.1 1.68 1.56 3.78 4.62 4.68 6.6 17.88-6.66 20.46-19.2 21.6-32.7h-7.8zm69.84-3.78v6.78h26.1v-6.78h-26.1zM88.56 4.26v17.46c0 8.94-.66 21.06-7.38 29.88 1.74.84 4.5 3.18 5.52 4.74 7.8-9.96 8.88-24.9 8.88-34.5V7.74c1.08-.18 1.5-.54 1.56-1.08l-8.58-2.4zm21.78-3.6c-4.92 2.4-12.9 4.62-20.28 6.06.9 1.5 1.98 4.2 2.34 5.88 7.92-1.26 17.1-3.36 24-6.3L110.34.66zm-6.96 21.78v33.9h7.14v-33.9h-7.14zM62.64 12.42v6.84h22.44v-6.84H62.64zM70.92.06V56.4h6.9V.06h-6.9zm-.36 16.98C69 24.72 65.22 34.08 61.08 39.3c1.08 1.8 2.76 4.74 3.42 6.72 4.62-6.18 8.4-17.82 10.32-27.48l-4.26-1.5zm6.72 5.28-3.3 3.24c2.04 3 6.12 9.66 7.74 13.26l4.02-5.7c-1.2-1.74-6.9-9.12-8.46-10.8z" fill="#fff"/></svg>