<svg width="17" height="163" fill="none" xmlns="http://www.w3.org/2000/svg"><path d="M16.774 163H.226v-7.179c0-1.234.243-2.314.727-3.24a5.302 5.302 0 0 1 2.045-2.16c.878-.514 1.904-.771 3.078-.771 1.185 0 2.211.265 3.078.796.868.525 1.536 1.264 2.004 2.217.469.947.703 2.054.703 3.321v4.287h-3.49v-3.378c0-.53-.092-.982-.275-1.356a2.018 2.018 0 0 0-.8-.869c-.345-.205-.751-.308-1.22-.308-.474 0-.878.103-1.212.308-.34.201-.598.49-.776.869-.183.374-.274.826-.274 1.356v1.592h12.96V163zM5.397 139.028c-.538.043-.958.246-1.26.609-.302.357-.453.902-.453 1.632 0 .466.057.848.17 1.145.108.293.256.509.444.65.189.141.404.214.647.219.2.011.38-.024.541-.105.156-.087.3-.222.428-.406.124-.184.237-.42.34-.707.102-.287.194-.628.275-1.023l.29-1.364c.194-.921.45-1.708.768-2.363s.692-1.191 1.123-1.608a4.005 4.005 0 0 1 1.438-.918 5.048 5.048 0 0 1 1.745-.308c1.089.005 2.01.278 2.764.82.754.541 1.328 1.315 1.72 2.322.394 1.002.59 2.206.59 3.614 0 1.445-.212 2.707-.638 3.784-.425 1.072-1.08 1.906-1.963 2.501-.889.59-2.025.888-3.41.893v-4.287c.507-.027.932-.154 1.277-.382.345-.227.606-.547.784-.958.177-.417.266-.912.266-1.486 0-.482-.059-.885-.178-1.21-.118-.325-.282-.571-.492-.739a1.156 1.156 0 0 0-.72-.26 1.013 1.013 0 0 0-.662.252c-.194.157-.366.417-.517.779-.156.363-.302.853-.436 1.47l-.356 1.657c-.318 1.472-.848 2.634-1.592 3.484-.748.844-1.77 1.264-3.062 1.258-1.05.006-1.969-.276-2.755-.844-.792-.574-1.409-1.367-1.85-2.38-.442-1.017-.663-2.184-.663-3.5 0-1.342.224-2.503.67-3.483.448-.98 1.078-1.735 1.891-2.266.808-.536 1.754-.807 2.836-.812v4.32zM.226 133.445v-5.035l6.723-3.248v-.13l-6.723-3.248v-5.035l11.344 6.107h5.204v4.483H11.57L.226 133.445zM6.432 100.912v4.58c-.378.033-.72.119-1.027.26a2.309 2.309 0 0 0-.791.569 2.368 2.368 0 0 0-.518.868 3.391 3.391 0 0 0-.185 1.162c0 .758.183 1.399.55 1.924.365.52.89.915 1.575 1.186.684.265 1.505.398 2.464.398 1.013 0 1.861-.136 2.545-.406.679-.276 1.19-.674 1.535-1.194.34-.52.51-1.145.51-1.876 0-.417-.052-.79-.154-1.121a2.625 2.625 0 0 0-.46-.86 2.374 2.374 0 0 0-.72-.593 2.874 2.874 0 0 0-.961-.317l.032-4.58c.7.054 1.414.252 2.141.593.722.341 1.39.826 2.004 1.454.609.622 1.099 1.394 1.47 2.314.372.92.558 1.989.558 3.208 0 1.526-.326 2.896-.978 4.109-.651 1.207-1.61 2.162-2.876 2.866-1.266.699-2.815 1.048-4.646 1.048-1.842 0-3.394-.358-4.654-1.072-1.266-.715-2.222-1.678-2.868-2.891-.652-1.213-.978-2.566-.978-4.06 0-1.051.143-2.017.428-2.899a6.984 6.984 0 0 1 1.253-2.323 6.19 6.19 0 0 1 2.011-1.608c.798-.406 1.71-.652 2.74-.739zM16.774 98.864H.226v-4.515H6.69v-5.977H.226v-4.515h16.548v4.515H10.31v5.977h6.464v4.515zM8.5 65.602c1.842 0 3.396.36 4.662 1.08 1.26.72 2.217 1.692 2.868 2.915.647 1.224.97 2.588.97 4.093 0 1.516-.326 2.886-.978 4.11-.657 1.217-1.616 2.186-2.876 2.906-1.266.715-2.815 1.072-4.646 1.072-1.842 0-3.394-.357-4.654-1.072-1.266-.72-2.222-1.689-2.868-2.907C.326 76.576 0 75.206 0 73.69c0-1.505.326-2.87.978-4.093.646-1.223 1.602-2.195 2.868-2.915 1.26-.72 2.812-1.08 4.654-1.08zm0 4.645c-.991 0-1.826.133-2.505.398-.684.26-1.201.647-1.551 1.161-.356.509-.533 1.137-.533 1.884 0 .747.177 1.378.533 1.892.35.509.867.896 1.551 1.161.679.26 1.514.39 2.505.39.991 0 1.829-.13 2.513-.39.678-.265 1.196-.652 1.551-1.16.35-.515.525-1.146.525-1.893 0-.747-.175-1.375-.525-1.884-.355-.514-.873-.901-1.551-1.161-.684-.265-1.522-.398-2.513-.398zM16.774 63.513H.226v-4.515h12.928v-6.724h3.62v11.239zM8.5 34.985c1.842 0 3.396.36 4.662 1.08 1.26.72 2.217 1.692 2.868 2.916.647 1.223.97 2.587.97 4.093 0 1.515-.326 2.885-.978 4.108-.657 1.219-1.616 2.188-2.876 2.908-1.266.714-2.815 1.072-4.646 1.072-1.842 0-3.394-.358-4.654-1.072-1.266-.72-2.222-1.69-2.868-2.908C.326 45.96 0 44.59 0 43.075c0-1.505.326-2.87.978-4.093.646-1.224 1.602-2.196 2.868-2.916 1.26-.72 2.812-1.08 4.654-1.08zm0 4.645c-.991 0-1.826.133-2.505.398-.684.26-1.201.647-1.551 1.162-.356.508-.533 1.136-.533 1.884 0 .747.177 1.377.533 1.892.35.508.867.896 1.551 1.16.679.26 1.514.39 2.505.39.991 0 1.829-.13 2.513-.39.678-.264 1.196-.651 1.551-1.16.35-.515.525-1.145.525-1.892 0-.748-.175-1.376-.525-1.884-.355-.515-.873-.902-1.551-1.162-.684-.265-1.522-.398-2.513-.398zM5.688 22.096a2.21 2.21 0 0 0-.751.333 2.07 2.07 0 0 0-.558.568 2.338 2.338 0 0 0-.347.78c-.081.292-.121.614-.121.966 0 .758.18 1.405.541 1.941.36.53.88.937 1.56 1.218.678.276 1.497.414 2.456.414.97 0 1.799-.132 2.488-.397.69-.266 1.218-.661 1.584-1.186.366-.525.55-1.178.55-1.957 0-.688-.1-1.259-.3-1.714-.199-.46-.482-.803-.848-1.03-.366-.228-.797-.342-1.293-.342l.081-.78v3.8h-3.2v-7.373h2.295c1.508 0 2.798.323 3.87.967a6.388 6.388 0 0 1 2.457 2.647c.565 1.12.848 2.406.848 3.857 0 1.619-.342 3.04-1.026 4.264-.684 1.223-1.66 2.179-2.925 2.866-1.266.682-2.771 1.023-4.517 1.023-1.368 0-2.58-.208-3.636-.625-1.055-.422-1.947-1.007-2.674-1.754a7.418 7.418 0 0 1-1.656-2.59A8.698 8.698 0 0 1 0 24.84c0-.986.14-1.9.42-2.745.275-.85.668-1.6 1.18-2.25a6.137 6.137 0 0 1 1.802-1.583 5.711 5.711 0 0 1 2.286-.73v4.563zM.226 16.696V11.66L6.95 8.413v-.13L.226 5.035V0L11.57 6.107h5.204v4.482H11.57L.226 16.696z" fill="#F8EC2C"/></svg>