<svg width="267" height="200" fill="none" xmlns="http://www.w3.org/2000/svg"><path d="M3.38 8.964v1.68h8.204v-1.68H3.38zm.084-7.476v1.68h8.008v-1.68H3.464zM3.38 12.716v1.68h8.204v-1.68H3.38zm-1.316-7.56v1.736h10.444V5.156H2.064zm2.24 11.34v1.736h5.432v4.676H4.304v1.764h7.28v-8.176h-7.28zm-.952 0v9.464h1.82v-9.464h-1.82zm9.772-14.112v1.624h14.084V2.384H13.124zm.728 3.304v1.54h12.936v-1.54H13.852zm-1.428 3.36v1.624h15.4V9.048h-15.4zM19.088.48v9.94h1.988V.48h-1.988zm-4.564 11.844v13.888h1.988V13.92h8.792v-1.596h-10.78zm9.604 0V24c0 .336-.084.42-.448.448-.364 0-1.512.028-2.772-.028.252.504.532 1.232.616 1.736 1.736 0 2.912 0 3.668-.28.7-.308.924-.812.924-1.848V12.324h-1.988zm-8.708 3.612v1.512h9.716v-1.512H15.42zm0 3.528v1.512h9.716v-1.512H15.42zm19.908 4.144v1.68h15.428v-1.68H35.328zm-.98-5.012v7.644h2.044v-5.964h13.272v5.88h2.156v-7.56H34.348zM32.052 3.588V5.24h21.924V3.588H32.052zm-.756 7.028v1.652h23.548v-1.652H31.296zm2.464-3.5v1.568h18.48V7.116H33.76zm-3.304 8.148v1.68h25.116v-1.68H30.456zM41.852 4.316v11.676h2.156V4.316h-2.156zm-5.936-3.248c.728.952 1.512 2.268 1.792 3.108l1.988-.672c-.364-.84-1.12-2.1-1.904-2.996l-1.876.56zm-1.232 11.62c.644.84 1.344 2.044 1.596 2.856l2.016-.616c-.308-.784-1.008-1.932-1.736-2.772l-1.876.532zM47.928.452c-.392.924-1.176 2.268-1.764 3.164l1.848.448c.616-.784 1.4-1.96 2.072-3.136L47.928.452zm1.288 11.732c-.392.812-1.148 2.044-1.708 2.828l1.876.42c.616-.7 1.288-1.736 1.932-2.8l-2.1-.448zM62.46 2.468v2.016h18.116V2.468H62.46zm0 6.524v1.988h18.088V8.992H62.46zm-.14 6.692v1.988h18.284v-1.988H62.32zM61.284 2.468v10.136c0 3.948-.308 8.932-3.388 12.404.448.28 1.288.98 1.624 1.4 3.332-3.724 3.836-9.52 3.836-13.776V2.468h-2.072zm18.452 0v20.916c0 .532-.196.7-.728.728-.532 0-2.436.028-4.424-.056.308.56.644 1.484.728 2.044 2.66.028 4.284 0 5.236-.336.924-.364 1.26-1.008 1.26-2.38V2.468h-2.072zm-9.66.756v22.764h2.128V3.224h-2.128zM16.08 64.6v4.2h22.8v-4.2h-22.8zm8.8-17.32-1.96 3.24H34.2l.96-3.24H24.88zm5 12.64v16.64c0 .52-.2.64-.76.64-.64.04-2.64.04-4.56-.04.6 1.32 1.2 3.28 1.36 4.64 3 0 5.12-.08 6.6-.84 1.56-.72 1.92-2.04 1.92-4.32V59.92h-4.56zm-4.04-15.64c-2.32 3.48-6.64 7.12-11.4 9.16.92.68 2.32 2.08 3 2.92 4.92-2.44 9.84-6.52 13.04-10.88l-4.64-1.2zM18 71.2c1.64 1.76 3.4 4.24 4.08 5.88l3.96-2.36c-.8-1.64-2.72-3.96-4.36-5.64L18 71.2zm4.6-19.08c2.04 1.24 4.4 3.12 5.44 4.48l2.52-2.44c-1.12-1.36-3.56-3.12-5.6-4.24l-2.36 2.2zm-4.52 2.96C20 56.48 22.2 58.56 23.2 60l2.84-2.24C25 56.28 22.72 54.32 20.76 53l-2.68 2.08zM1.6 64.04v4.12h10.6v-4.12H1.6zm8.84-19.84v37.56h4.44V44.2h-4.44zM3.6 65.76v2.28c0 2.88-.28 8.04-2.44 11.52 1.04.44 2.76 1.56 3.52 2.28 2.68-4.08 3.08-10.32 3.08-13.64v-2.44H3.6zm29.88-18.48v.68c-2.64 6.92-9.88 11.52-17.72 13.4.8.84 1.88 2.4 2.36 3.44 8.76-2.52 16.52-7.4 19.92-16.28l-2.92-1.4-.8.16h-.84zm-30.24-1.2v13.36h9.68v-4.28H7.36v-9.08H3.24zm43.88 3.12v4.68h34.8V49.2h-34.8zm14.6-5v37.56h5.04V44.2h-5.04zm.56 18.08c-3.36 5.76-9.96 11.2-16.88 13.88 1.08.96 2.64 2.92 3.4 4.12 7.12-3.28 13.56-9.4 17.48-16.48l-4-1.52zm4.28.32-3.96 1.56C66.52 71 72.84 77.04 79.8 80.24c.8-1.36 2.36-3.36 3.56-4.4-6.88-2.52-13.44-7.72-16.8-13.24zm-14.6-1.76c1.84 1.64 4.36 3.96 5.56 5.4l3.16-3.36C59.4 61.52 56.8 59.32 55 57.8l-3.04 3.04zm1.6-6.72C52.44 59 50 63.24 46.48 65.8c1.08.72 2.92 2.28 3.72 3.16 3.72-3.12 6.56-8.12 8.04-13.96l-4.68-.88zM71.08 61c2.56 2.12 6.24 5.08 7.92 6.88l3.32-3.32c-1.84-1.72-5.64-4.56-8.12-6.44L71.08 61zm1.36-6.88c-.84 4.04-2.72 7.76-5.4 10.04 1.12.52 3.16 1.76 4.08 2.52C73.8 64 76 59.76 77.08 54.96l-4.64-.84zm36.92-1.4v4.04h13.56v-4.04h-13.56zm-4.92 23.96 1.32 4.64c3.52-.8 8-1.84 12.16-2.88l-.52-4.48c-4.68 1.08-9.6 2.12-12.96 2.72zm5.04-31v4.24h11.36v9.72h-11.36v4.2h15.96V45.68h-15.96zm8.68 16.76-4.12.6c1.56 8.76 4.4 15.48 10.64 18.84.68-1.28 2.04-3.12 3.08-4-5.52-2.56-8.28-8.44-9.6-15.44zm5.64 2.44c-1.52 1.6-4.12 3.72-5.92 4.92l2.64 2.84c1.88-1.08 4.44-2.84 6.52-4.48l-3.24-3.28zm-16.32-19.2v32.48l4.52-.8V45.68h-4.52zm-15.04 8.44v4h12.44v-4H92.44zm-1.72 6.96v4.08h15.04v-4.08H90.72zm.32 6.36c.64 2.24 1.24 5.08 1.36 7l3.32-.92c-.2-1.84-.84-4.68-1.56-6.88l-3.12.8zm-.96 9.16.96 4.32c4.28-.72 9.96-1.72 15.24-2.72l-.28-4.04c-5.8.96-11.88 1.88-15.92 2.44zm12.24-10.32c-.24 2-.92 4.92-1.48 6.76l2.88.84c.64-1.68 1.44-4.32 2.24-6.72l-3.64-.88zm-6.04-10.44v22.2l4.16-.72V55.84h-4.16zm0-11.64c-1.36 3.12-3.8 6.88-7.4 9.76.92.64 2.28 2.2 2.92 3.2 4.2-3.56 6.8-7.72 8.44-10.76v-1.32h-1.36v-.88h-2.6zm.6 0v3.4h.84c2.32 1.88 5.2 5.36 6.48 7.48l3.12-3.72c-1.48-2.12-4.6-5.12-7.08-7.16h-3.36zm53.36 2.28v4.56h19.56v-4.56h-19.56zm10.16 12.44v17.16c0 .6-.24.76-1 .8-.72 0-3.36 0-5.64-.12.64 1.4 1.28 3.48 1.44 4.88 3.6 0 6.12-.04 7.84-.76 1.76-.76 2.28-2.12 2.28-4.68V58.92h-4.92zm-11.88-1.36v4.56h22.32v-4.56h-22.32zm-8.96 4.72V81.8h4.8V58.32l-.6-.24-4.2 4.2zm4.52-9.36c-2.64 4.52-7 9.16-11.08 12.04.96.96 2.6 3.12 3.28 4.12 4.28-3.52 9.2-9.12 12.36-14.44l-4.56-1.72zm-1.52-8.72c-1.96 2.8-5.8 6.4-9.12 8.56.8.96 2.04 2.84 2.68 3.92 3.8-2.64 8.12-6.8 11.04-10.6l-4.6-1.88z" fill="#000"/><path d="M103.32 18.74h163.64M.52 198.86h266.44" stroke="#000" stroke-miterlimit="10"/><path d="M31.36 134.88v8.4h45.6v-8.4h-45.6zm17.6-34.64-3.92 6.48H67.6l1.92-6.48H48.96zm10 25.28v33.28c0 1.04-.4 1.28-1.52 1.28-1.28.08-5.28.08-9.12-.08 1.2 2.64 2.4 6.56 2.72 9.28 6 0 10.24-.16 13.2-1.68 3.12-1.44 3.84-4.08 3.84-8.64v-33.44h-9.12zm-8.08-31.28c-4.64 6.96-13.28 14.24-22.8 18.32 1.84 1.36 4.64 4.16 6 5.84 9.84-4.88 19.68-13.04 26.08-21.76l-9.28-2.4zM35.2 148.08c3.28 3.52 6.8 8.48 8.16 11.76l7.92-4.72c-1.6-3.28-5.44-7.92-8.72-11.28l-7.36 4.24zm9.2-38.16c4.08 2.48 8.8 6.24 10.88 8.96l5.04-4.88c-2.24-2.72-7.12-6.24-11.2-8.48l-4.72 4.4zm-9.04 5.92c3.84 2.8 8.24 6.96 10.24 9.84l5.68-4.48c-2.08-2.96-6.64-6.88-10.56-9.52l-5.36 4.16zM2.4 133.76V142h21.2v-8.24H2.4zm17.68-39.68v75.12h8.88V94.08h-8.88zM6.4 137.2v4.56c0 5.76-.56 16.08-4.88 23.04 2.08.88 5.52 3.12 7.04 4.56 5.36-8.16 6.16-20.64 6.16-27.28v-4.88H6.4zm59.76-36.96v1.36c-5.28 13.84-19.76 23.04-35.44 26.8 1.6 1.68 3.76 4.8 4.72 6.88 17.52-5.04 33.04-14.8 39.84-32.56l-5.84-2.8-1.6.32h-1.68zm-60.48-2.4v26.72h19.36V116H13.92V97.84H5.68zm105.68 37.04v8.4h45.6v-8.4h-45.6zm17.6-34.64-3.92 6.48h22.56l1.92-6.48h-20.56zm10 25.28v33.28c0 1.04-.4 1.28-1.52 1.28-1.28.08-5.28.08-9.12-.08 1.2 2.64 2.4 6.56 2.72 9.28 6 0 10.24-.16 13.2-1.68 3.12-1.44 3.84-4.08 3.84-8.64v-33.44h-9.12zm-8.08-31.28c-4.64 6.96-13.28 14.24-22.8 18.32 1.84 1.36 4.64 4.16 6 5.84 9.84-4.88 19.68-13.04 26.08-21.76l-9.28-2.4zm-15.68 53.84c3.28 3.52 6.8 8.48 8.16 11.76l7.92-4.72c-1.6-3.28-5.44-7.92-8.72-11.28l-7.36 4.24zm9.2-38.16c4.08 2.48 8.8 6.24 10.88 8.96l5.04-4.88c-2.24-2.72-7.12-6.24-11.2-8.48l-4.72 4.4zm-9.04 5.92c3.84 2.8 8.24 6.96 10.24 9.84l5.68-4.48c-2.08-2.96-6.64-6.88-10.56-9.52l-5.36 4.16zM82.4 133.76V142h21.2v-8.24H82.4zm17.68-39.68v75.12h8.88V94.08h-8.88zM86.4 137.2v4.56c0 5.76-.56 16.08-4.88 23.04 2.08.88 5.52 3.12 7.04 4.56 5.36-8.16 6.16-20.64 6.16-27.28v-4.88H86.4zm59.76-36.96v1.36c-5.28 13.84-19.76 23.04-35.44 26.8 1.6 1.68 3.76 4.8 4.72 6.88 17.52-5.04 33.04-14.8 39.84-32.56l-5.84-2.8-1.6.32h-1.68zm-60.48-2.4v26.72h19.36V116H93.92V97.84h-8.24zm120.88 24.56v46.8h9.68v-46.8h-9.68zm-21.04 10v8.72h51.44v-8.72h-51.44zm32.56 3.84-7.2 2.64c4.96 10.64 13.2 21.44 21.6 27.44 1.6-2.4 4.64-5.84 6.8-7.68-8.32-4.8-16.8-13.68-21.2-22.4zm-12.8-.72c-4.64 9.12-13.52 18.24-22.64 22.96 2.08 1.84 5.12 5.28 6.64 7.6 9.44-6 18.32-16.64 23.52-27.92l-7.52-2.64zM199.92 106h23.52v10.72h-23.52V106zm-9.12-8.4v27.6h42.24V97.6H190.8zm-10.48-3.36c-4.24 11.44-11.44 22.8-18.88 30 1.6 2.32 4.24 7.6 5.04 9.84 8.88-9.04 17.44-23.36 22.8-36.96l-8.96-2.88zm-7.68 22.16v52.56h9.12v-61.6l-.08-.08-9.04 9.12z" fill="#000"/></svg>