<svg version="1.1" id="圖層_1" xmlns="http://www.w3.org/2000/svg" x="0" y="0" viewBox="0 0 335.2 326" style="enable-background:new 0 0 335.2 326" xml:space="preserve"><style>.st2{fill:#989898}</style><path d="M335.2 281.3H172.1l-.1.2-23 33.5H.5V.5h298.8L335 35.2l.2 246.1z" style="fill:#f8ec2c;stroke:#989898"/><path d="M173.1 280H.5v45h142.8l29.8-45z" style="fill:#fff"/><path class="st2" d="m110.8 307.6-2.8 7.7c0 .1 0 .2.1.2h1.9c.1 0 .1 0 .1-.1l.4-1.4h2.7l.4 1.4.1.1h1.9c.1 0 .1-.1.1-.2l-2.8-7.7-.1-.1-2 .1m.1 4.9.9-2.9.9 2.9h-1.8zM106.9 311.9c-.4-.5-.8-.7-.8-.7.2-.2.9-.5.9-1.6 0-.6-.2-1.1-.6-1.5-.4-.4-1.1-.5-2.1-.5h-3.9c-.1 0-.1 0-.1.1v7.7c0 .1.1.1.1.1h3.8c1 0 1.8-.2 2.2-.7.5-.4.7-1 .7-1.8.1-.4 0-.8-.2-1.1m-4.7-2.8h2c.3 0 .6.1.7.2.1.2.2.3.2.6 0 .2-.1.4-.2.6-.1.1-.4.2-.7.2h-2v-1.6zm2.8 4.6c-.2.2-.4.3-.7.3h-2.1v-1.9h2.1c.3 0 .6.1.7.3.2.2.2.4.2.7s0 .4-.2.6M123.8 315.4v-7.7c0-.1-.1-.1-.1-.1H122c-.1 0-.1.1-.1.1v4.4l-3.2-4.5-.1-.1H117c-.1 0-.1.1-.1.1v7.7c0 .1 0 .1.1.1h1.7c.1 0 .1 0 .1-.1v-4.6l3.4 4.6h1.6c-.1.2 0 .2 0 .1M130.2 315.5h2.1c.1 0 .1-.1.1-.2l-2.6-5 2.2-2.5c.1-.1 0-.2-.1-.2h-2.2l-2.4 2.9v-2.8c0-.1-.1-.1-.1-.1h-1.8c-.1 0-.1 0-.1.1v7.7c0 .1.1.1.1.1h1.8c.1 0 .1 0 .1-.1v-2l1-1.2 1.7 3.2c.1.1.2.1.2.1M87.7 307.6h-2.1l-1.3 2.1-1.3-2.1-.1-.1h-2c-.1 0-.2.1-.1.2l2.4 3.7-2.5 3.8c0 .1 0 .2.1.2h2s.1 0 .1-.1l1.4-2.2 1.4 2.2.1.1h2c.1 0 .2-.1.1-.2l-2.5-3.9 2.4-3.7c0 .1 0 0-.1 0M95.8 307.6H89c-.1 0-.1 0-.1.1v1.5c0 .1 0 .1.1.1h2.4v6.1c0 .1.1.1.1.1h1.8c.1 0 .1-.1.1-.1v-6.1h2.4c.1 0 .1 0 .1-.1v-1.5c0-.1-.1-.1-.1-.1M72 315.4v-7.7c0-.1 0-.1-.1-.1h-1.7c-.1 0-.1.1-.1.1v4.4l-3.2-4.5-.1-.1h-1.6c-.1 0-.1.1-.1.1v7.7c0 .1.1.1.1.1h1.7c.1 0 .1 0 .1-.1v-4.6l3.4 4.6H72c-.1.2 0 .2 0 .1M79.5 309.1v-1.4c0-.1 0-.1-.1-.1h-5.8c-.1 0-.1 0-.1.1v7.7c0 .1.1.1.1.1h5.8c.1 0 .1 0 .1-.1V314c0-.1 0-.1-.1-.1h-3.9v-1.7h2.3c.1 0 .1 0 .1-.1v-1.4c0-.1-.1-.1-.1-.1h-2.3v-1.4h3.9c.1 0 .1-.1.1-.1M25.2 288.6h-1c-2.1 0-3.8 1.7-3.8 3.8v12l11.1 11.1v-12c0-2.1 1.7-3.8 3.8-3.8h1l-11.1-11.1z"/><path d="M47.3 315.5h1c2.1 0 3.8-1.7 3.8-3.8v-12L41 288.6v12c0 2.1-1.7 3.8-3.8 3.8h-1l11.1 11.1z" style="fill:#faec32"/><path class="st2" d="m96.7 296.5-1.1 1.1c-.1.1-.1.1-.2 0-.4-.4-1-1-1.9-1.7-.3.5-.6.9-1 1.2h-.2c-.3-.3-.7-.5-1.1-.7.7.9 1.6 1.8 2.6 2.5s2 1.3 3.1 1.7c.1 0 .1.1 0 .2-.4.4-.8.9-1.2 1.5 0 0-.1.1-.2 0-1.8-.9-3.5-2.2-4.9-3.9v4.4c0 .1-.1.1-.1.1H89c-.1 0-.1-.1-.1-.1v-4.3c-1.4 1.7-3 2.9-4.9 3.8h-.2c-.3-.5-.7-.9-1.1-1.4-.1-.1 0-.2 0-.2 1.2-.5 2.3-1.2 3.4-2 1.1-.9 2-1.9 2.7-2.9v-3.6h-5.5c-.1 0-.1-.1-.1-.1v-1.6c0-.1.1-.1.1-.1h5.5v-1.8c0-.1.1-.1.1-.1h1.7c.1 0 .1.1.1.1v1.8h5.7c.1 0 .1.1.1.1v1.6c0 .1-.1.1-.1.1h-5.7v3.5s.1.1.1.2c.1.1.1.1.1.2 1-.8 1.6-2 1.9-3.6 0-.1.1-.1.1-.1l1.6.3c.1 0 .1.1.1.1-.1.5-.3 1-.5 1.5 1.2 1 2 1.6 2.4 1.9.3.2.3.3.2.3m-10.8-4.1 1.5.3c.1 0 .1.1.1.2-.1.5-.3 1-.5 1.5.7.6 1.2 1 1.4 1.3.1.1.1.1 0 .2l-1.1 1.1h-.2c-.2-.2-.5-.6-1-1-.5.9-1.1 1.5-1.7 2h-.2c-.3-.3-.7-.6-1.2-1-.1 0-.1-.1 0-.2 1.3-1 2.1-2.4 2.6-4.3.2 0 .2-.1.3-.1M113.6 296.7l1.1 1.1c.1 0 .1.1 0 .2-.6.4-1.2.9-2 1.4.6 1 1.3 1.7 2.3 2.2.1 0 .1.1 0 .2-.2.2-.3.4-.5.6-.2.2-.4.5-.5.7 0 .1-.1.1-.2 0-1.1-.6-2-1.7-2.6-2.8l.2 1.4c0 .1 0 .1-.1.1-1.5.4-3 .7-4.6 1.1-.1 0-.1 0-.2-.1l-.3-1c-1.9.4-3.6.7-5.2.9-.1 0-.1 0-.1-.1l-.3-1.4c0-.1 0-.1.1-.1.7-.1 1.4-.2 2.3-.3v-4.1h-2.1c-.1 0-.1-.1-.1-.1v-1.3c0-.1.1-.1.1-.1h2.1V294h-1.5c-.1 0-.1-.1-.1-.1v-.7l-1-.7c-.1 0-.1-.1 0-.2l2.7-3.5.1-.1h1.4s.1 0 .1.1l2.5 3.5v.2l-.7.6v.9c0 .1-.1.1-.1.1h-1.6v1.1h1.9c.1 0 .1.1.1.1v1.3c0 .1-.1.1-.1.1h-1.9v3.8c.2 0 .6-.1 1.1-.2.4-.1.7-.1.9-.1.1 0 .1 0 .1.1v.7l.5-.1v-11.6c0-.1.1-.1.1-.1h6.7c.1 0 .1.1.1.1v6.7c0 .1-.1.1-.1.1h-2.5c.1.7.3 1.2.5 1.8.6-.4 1-.8 1.4-1.3-.2 0-.1 0 0 .1m-12.6.8 1-.2c.1 0 .1 0 .2.1l.5 2.4c0 .1 0 .1-.1.1l-1 .3c-.1 0-.1 0-.2-.1l-.5-2.4c0-.1 0-.1.1-.2m1.2-5h3l-1.5-2.1-1.5 2.1zm3.4 7.5-.8-.2c-.1 0-.1-.1-.1-.2l.5-2.4c0-.1.1-.1.2-.1l1.2.3c.1 0 .1.1.1.2l-.8 2.3c-.1.1-.2.1-.3.1m6.8-9.2H109v1.1h3.4v-1.1zm-3.5 3.8h3.4v-1.1h-3.4v1.1zm0 1.6v4.4c.2 0 .5-.1 1-.2s.8-.2 1.1-.2c-.5-1.1-.9-2.4-1.2-3.9h-.9v-.1zM122.2 292l1.5.6c.1 0 .1.1.1.2-.5.7-1 1.5-1.6 2.2v8c0 .1-.1.1-.1.1h-1.6c-.1 0-.1-.1-.1-.1v-6c-.5.4-.8.8-1.2 1.1h-.2c-.4-.6-.8-1-1.1-1.4-.1-.1 0-.1 0-.2.8-.5 1.5-1.2 2.2-2 .7-.8 1.4-1.6 1.8-2.4.2-.1.3-.1.3-.1m-.6-3.4 1.5.6c.1 0 .1.1 0 .2-.5.7-1.2 1.4-1.9 2.1-.7.7-1.5 1.3-2.2 1.8h-.2c-.3-.5-.6-1-.8-1.3-.1-.1 0-.1 0-.2.6-.4 1.2-.9 1.8-1.5.6-.6 1.1-1.1 1.5-1.7h.3m10.8 5.3v1.5c0 .1-.1.1-.1.1h-2v6c0 .9-.7 1.6-1.6 1.6h-2.2c-.1 0-.1 0-.1-.1l-.5-1.6c0-.1 0-.2.1-.2h2.1c.2 0 .4-.2.4-.4v-5.3H124c-.1 0-.1-.1-.1-.1v-1.5c0-.1.1-.1.1-.1h8.3c.1 0 .1 0 .1.1m-.4-4.3v1.5c0 .1-.1.1-.1.1h-7.3c-.1 0-.1-.1-.1-.1v-1.5c0-.1.1-.1.1-.1h7.3c.1 0 .1 0 .1.1zM79.5 296.6v1.4c0 .1-.1.1-.1.1h-1.6v3.4c0 .9-.7 1.6-1.6 1.6h-1.6c-.1 0-.1 0-.1-.1-.1-.4-.3-1.2-.5-1.5 0-.1 0-.2.1-.2h1.5c.2 0 .4-.2.4-.4V298h-5.2c-.1 0-.1-.1-.1-.1v-1.4c0-.1.1-.1.1-.1h.7c-.2-.4-.4-.7-.7-1.1-.1-.1 0-.2.1-.2.8-.2 1.6-.5 2.3-.8-.4-.5-.8-.9-1.4-1.3-.1 0-.3.2-.5.2h-.2l-.9-.9V303c0 .1-.1.1-.1.1h-1.4c-.1 0-.1-.1-.1-.1v-5.1h-1c0 2.2-.4 3.9-1.1 5.1 0 .1-.1.1-.2 0-.3-.3-.7-.5-1.1-.7-.1 0-.1-.1-.1-.2.6-1 .9-2.4.9-4.3h-.6c-.1 0-.1-.1-.1-.1v-1.3c0-.1.1-.1.1-.1h3.3v-.9l-1.3-2.5v2.1c0 .1-.1.1-.1.1h-1.2c-.1 0-.1-.1-.1-.1v-5c0-.1.1-.1.1-.1h1.2s.1 0 .1.1l1.4 2.6v-3.3c0-.1.1-.1.1-.1h1.4c.1 0 .1.1.1.1v2.9c.9-.4 1.7-.8 2.4-1.5.7-.6 1.3-1.2 1.8-1.8l.1-.1 1.5.4c.1 0 .1.1.1.2-.2.2-.3.4-.5.6h2.5l1 .5c.1 0 .1.1.1.2-1.2 2.9-3.7 4.9-7.4 6h4.3V295c0-.1.1-.1.1-.1h1.5c.1 0 .1.1.1.1v1.7h1.6c-.1-.2-.1-.2-.1-.1m-7.9 2.3 1.2-.7h.2c.8.8 1.3 1.5 1.6 2v.2l-1.3.8h-.2c-.3-.6-.7-1.2-1.4-2-.1-.1-.1-.2-.1-.3m1.4-6.6c.6.5 1.1.9 1.4 1.3.3-.2.5-.3.7-.5-.4-.5-1-.9-1.6-1.3-.1 0-.2.1-.3.2-.1.2-.2.2-.2.3zm4-1.3h-2.4c.7.4 1.2.8 1.6 1.2.3-.4.6-.8.8-1.2z"/></svg>