<svg width="151" height="197" viewBox="0 0 151 197" fill="none" xmlns="http://www.w3.org/2000/svg">
<path d="M148.68 1H0.490112V196H148.68V1Z" fill="#F8EC2C"/>
<path d="M149.83 1H1.64014V196H149.83V1Z" stroke="white" stroke-miterlimit="10"/>
<path d="M10.4801 1.10986H1.21008V10.3799H10.4801V1.10986Z" stroke="white" stroke-width="0.25" stroke-miterlimit="10"/>
<path d="M19.7501 1.10986H10.4801V10.3799H19.7501V1.10986Z" stroke="white" stroke-width="0.25" stroke-miterlimit="10"/>
<path d="M29.0101 1.10986H19.7401V10.3799H29.0101V1.10986Z" stroke="white" stroke-width="0.25" stroke-miterlimit="10"/>
<path d="M38.2801 1.10986H29.0101V10.3799H38.2801V1.10986Z" stroke="white" stroke-width="0.25" stroke-miterlimit="10"/>
<path d="M47.55 1.10986H38.28V10.3799H47.55V1.10986Z" stroke="white" stroke-width="0.25" stroke-miterlimit="10"/>
<path d="M56.82 1.10986H47.55V10.3799H56.82V1.10986Z" stroke="white" stroke-width="0.25" stroke-miterlimit="10"/>
<path d="M66.0801 1.10986H56.8101V10.3799H66.0801V1.10986Z" stroke="white" stroke-width="0.25" stroke-miterlimit="10"/>
<path d="M75.3501 1.10986H66.0801V10.3799H75.3501V1.10986Z" stroke="white" stroke-width="0.25" stroke-miterlimit="10"/>
<path d="M10.4801 10.3799H1.21008V19.6499H10.4801V10.3799Z" stroke="white" stroke-width="0.25" stroke-miterlimit="10"/>
<path d="M19.7501 10.3799H10.4801V19.6499H19.7501V10.3799Z" stroke="white" stroke-width="0.25" stroke-miterlimit="10"/>
<path d="M29.0101 10.3799H19.7401V19.6499H29.0101V10.3799Z" stroke="white" stroke-width="0.25" stroke-miterlimit="10"/>
<path d="M38.2801 10.3799H29.0101V19.6499H38.2801V10.3799Z" stroke="white" stroke-width="0.25" stroke-miterlimit="10"/>
<path d="M47.55 10.3799H38.28V19.6499H47.55V10.3799Z" stroke="white" stroke-width="0.25" stroke-miterlimit="10"/>
<path d="M56.82 10.3799H47.55V19.6499H56.82V10.3799Z" stroke="white" stroke-width="0.25" stroke-miterlimit="10"/>
<path d="M66.0801 10.3799H56.8101V19.6499H66.0801V10.3799Z" stroke="white" stroke-width="0.25" stroke-miterlimit="10"/>
<path d="M75.3501 10.3799H66.0801V19.6499H75.3501V10.3799Z" stroke="white" stroke-width="0.25" stroke-miterlimit="10"/>
<path d="M10.4801 19.6399H1.21008V28.9098H10.4801V19.6399Z" stroke="white" stroke-width="0.25" stroke-miterlimit="10"/>
<path d="M19.7501 19.6399H10.4801V28.9098H19.7501V19.6399Z" stroke="white" stroke-width="0.25" stroke-miterlimit="10"/>
<path d="M29.0101 19.6399H19.7401V28.9098H29.0101V19.6399Z" stroke="white" stroke-width="0.25" stroke-miterlimit="10"/>
<path d="M38.2801 19.6399H29.0101V28.9098H38.2801V19.6399Z" stroke="white" stroke-width="0.25" stroke-miterlimit="10"/>
<path d="M47.55 19.6399H38.28V28.9098H47.55V19.6399Z" stroke="white" stroke-width="0.25" stroke-miterlimit="10"/>
<path d="M56.82 19.6399H47.55V28.9098H56.82V19.6399Z" stroke="white" stroke-width="0.25" stroke-miterlimit="10"/>
<path d="M66.0801 19.6399H56.8101V28.9098H66.0801V19.6399Z" stroke="white" stroke-width="0.25" stroke-miterlimit="10"/>
<path d="M75.3501 19.6399H66.0801V28.9098H75.3501V19.6399Z" stroke="white" stroke-width="0.25" stroke-miterlimit="10"/>
<path d="M10.4801 28.9097H1.21008V38.1797H10.4801V28.9097Z" stroke="white" stroke-width="0.25" stroke-miterlimit="10"/>
<path d="M19.7501 28.9097H10.4801V38.1797H19.7501V28.9097Z" stroke="white" stroke-width="0.25" stroke-miterlimit="10"/>
<path d="M29.0101 28.9097H19.7401V38.1797H29.0101V28.9097Z" stroke="white" stroke-width="0.25" stroke-miterlimit="10"/>
<path d="M38.2801 28.9097H29.0101V38.1797H38.2801V28.9097Z" stroke="white" stroke-width="0.25" stroke-miterlimit="10"/>
<path d="M47.55 28.9097H38.28V38.1797H47.55V28.9097Z" stroke="white" stroke-width="0.25" stroke-miterlimit="10"/>
<path d="M56.82 28.9097H47.55V38.1797H56.82V28.9097Z" stroke="white" stroke-width="0.25" stroke-miterlimit="10"/>
<path d="M66.0801 28.9097H56.8101V38.1797H66.0801V28.9097Z" stroke="white" stroke-width="0.25" stroke-miterlimit="10"/>
<path d="M75.3501 28.9097H66.0801V38.1797H75.3501V28.9097Z" stroke="white" stroke-width="0.25" stroke-miterlimit="10"/>
<path d="M10.4801 38.25H1.21008V47.52H10.4801V38.25Z" stroke="white" stroke-width="0.25" stroke-miterlimit="10"/>
<path d="M19.7501 38.25H10.4801V47.52H19.7501V38.25Z" stroke="white" stroke-width="0.25" stroke-miterlimit="10"/>
<path d="M29.0101 38.25H19.7401V47.52H29.0101V38.25Z" stroke="white" stroke-width="0.25" stroke-miterlimit="10"/>
<path d="M38.2801 38.25H29.0101V47.52H38.2801V38.25Z" stroke="white" stroke-width="0.25" stroke-miterlimit="10"/>
<path d="M47.55 38.25H38.28V47.52H47.55V38.25Z" stroke="white" stroke-width="0.25" stroke-miterlimit="10"/>
<path d="M56.82 38.25H47.55V47.52H56.82V38.25Z" stroke="white" stroke-width="0.25" stroke-miterlimit="10"/>
<path d="M66.0801 38.25H56.8101V47.52H66.0801V38.25Z" stroke="white" stroke-width="0.25" stroke-miterlimit="10"/>
<path d="M75.3501 38.25H66.0801V47.52H75.3501V38.25Z" stroke="white" stroke-width="0.25" stroke-miterlimit="10"/>
<path d="M10.4801 47.52H1.21008V56.7899H10.4801V47.52Z" stroke="white" stroke-width="0.25" stroke-miterlimit="10"/>
<path d="M19.7501 47.52H10.4801V56.7899H19.7501V47.52Z" stroke="white" stroke-width="0.25" stroke-miterlimit="10"/>
<path d="M29.0101 47.52H19.7401V56.7899H29.0101V47.52Z" stroke="white" stroke-width="0.25" stroke-miterlimit="10"/>
<path d="M38.2801 47.52H29.0101V56.7899H38.2801V47.52Z" stroke="white" stroke-width="0.25" stroke-miterlimit="10"/>
<path d="M47.55 47.52H38.28V56.7899H47.55V47.52Z" stroke="white" stroke-width="0.25" stroke-miterlimit="10"/>
<path d="M56.82 47.52H47.55V56.7899H56.82V47.52Z" stroke="white" stroke-width="0.25" stroke-miterlimit="10"/>
<path d="M66.0801 47.52H56.8101V56.7899H66.0801V47.52Z" stroke="white" stroke-width="0.25" stroke-miterlimit="10"/>
<path d="M75.3501 47.52H66.0801V56.7899H75.3501V47.52Z" stroke="white" stroke-width="0.25" stroke-miterlimit="10"/>
<path d="M10.4801 56.7898H1.21008V66.0598H10.4801V56.7898Z" stroke="white" stroke-width="0.25" stroke-miterlimit="10"/>
<path d="M19.7501 56.7898H10.4801V66.0598H19.7501V56.7898Z" stroke="white" stroke-width="0.25" stroke-miterlimit="10"/>
<path d="M29.0101 56.7898H19.7401V66.0598H29.0101V56.7898Z" stroke="white" stroke-width="0.25" stroke-miterlimit="10"/>
<path d="M38.2801 56.7898H29.0101V66.0598H38.2801V56.7898Z" stroke="white" stroke-width="0.25" stroke-miterlimit="10"/>
<path d="M47.55 56.7898H38.28V66.0598H47.55V56.7898Z" stroke="white" stroke-width="0.25" stroke-miterlimit="10"/>
<path d="M56.82 56.7898H47.55V66.0598H56.82V56.7898Z" stroke="white" stroke-width="0.25" stroke-miterlimit="10"/>
<path d="M66.0801 56.7898H56.8101V66.0598H66.0801V56.7898Z" stroke="white" stroke-width="0.25" stroke-miterlimit="10"/>
<path d="M75.3501 56.7898H66.0801V66.0598H75.3501V56.7898Z" stroke="white" stroke-width="0.25" stroke-miterlimit="10"/>
<path d="M10.4801 66.0598H1.21008V75.3298H10.4801V66.0598Z" stroke="white" stroke-width="0.25" stroke-miterlimit="10"/>
<path d="M19.7501 66.0598H10.4801V75.3298H19.7501V66.0598Z" stroke="white" stroke-width="0.25" stroke-miterlimit="10"/>
<path d="M29.0101 66.0598H19.7401V75.3298H29.0101V66.0598Z" stroke="white" stroke-width="0.25" stroke-miterlimit="10"/>
<path d="M38.2801 66.0598H29.0101V75.3298H38.2801V66.0598Z" stroke="white" stroke-width="0.25" stroke-miterlimit="10"/>
<path d="M47.55 66.0598H38.28V75.3298H47.55V66.0598Z" stroke="white" stroke-width="0.25" stroke-miterlimit="10"/>
<path d="M56.82 66.0598H47.55V75.3298H56.82V66.0598Z" stroke="white" stroke-width="0.25" stroke-miterlimit="10"/>
<path d="M66.0801 66.0598H56.8101V75.3298H66.0801V66.0598Z" stroke="white" stroke-width="0.25" stroke-miterlimit="10"/>
<path d="M75.3501 66.0598H66.0801V75.3298H75.3501V66.0598Z" stroke="white" stroke-width="0.25" stroke-miterlimit="10"/>
<path d="M10.4801 75.3198H1.21008V84.5898H10.4801V75.3198Z" stroke="white" stroke-width="0.25" stroke-miterlimit="10"/>
<path d="M19.7501 75.3198H10.4801V84.5898H19.7501V75.3198Z" stroke="white" stroke-width="0.25" stroke-miterlimit="10"/>
<path d="M29.0101 75.3198H19.7401V84.5898H29.0101V75.3198Z" stroke="white" stroke-width="0.25" stroke-miterlimit="10"/>
<path d="M38.2801 75.3198H29.0101V84.5898H38.2801V75.3198Z" stroke="white" stroke-width="0.25" stroke-miterlimit="10"/>
<path d="M47.55 75.3198H38.28V84.5898H47.55V75.3198Z" stroke="white" stroke-width="0.25" stroke-miterlimit="10"/>
<path d="M56.82 75.3198H47.55V84.5898H56.82V75.3198Z" stroke="white" stroke-width="0.25" stroke-miterlimit="10"/>
<path d="M66.0801 75.3198H56.8101V84.5898H66.0801V75.3198Z" stroke="white" stroke-width="0.25" stroke-miterlimit="10"/>
<path d="M75.3501 75.3198H66.0801V84.5898H75.3501V75.3198Z" stroke="white" stroke-width="0.25" stroke-miterlimit="10"/>
<path d="M10.4801 84.5898H1.21008V93.8599H10.4801V84.5898Z" stroke="white" stroke-width="0.25" stroke-miterlimit="10"/>
<path d="M19.7501 84.5898H10.4801V93.8599H19.7501V84.5898Z" stroke="white" stroke-width="0.25" stroke-miterlimit="10"/>
<path d="M29.0101 84.5898H19.7401V93.8599H29.0101V84.5898Z" stroke="white" stroke-width="0.25" stroke-miterlimit="10"/>
<path d="M38.2801 84.5898H29.0101V93.8599H38.2801V84.5898Z" stroke="white" stroke-width="0.25" stroke-miterlimit="10"/>
<path d="M47.55 84.5898H38.28V93.8599H47.55V84.5898Z" stroke="white" stroke-width="0.25" stroke-miterlimit="10"/>
<path d="M56.82 84.5898H47.55V93.8599H56.82V84.5898Z" stroke="white" stroke-width="0.25" stroke-miterlimit="10"/>
<path d="M66.0801 84.5898H56.8101V93.8599H66.0801V84.5898Z" stroke="white" stroke-width="0.25" stroke-miterlimit="10"/>
<path d="M75.3501 84.5898H66.0801V93.8599H75.3501V84.5898Z" stroke="white" stroke-width="0.25" stroke-miterlimit="10"/>
<path d="M10.4801 93.8599H1.21008V103.13H10.4801V93.8599Z" stroke="white" stroke-width="0.25" stroke-miterlimit="10"/>
<path d="M19.7501 93.8599H10.4801V103.13H19.7501V93.8599Z" stroke="white" stroke-width="0.25" stroke-miterlimit="10"/>
<path d="M29.0101 93.8599H19.7401V103.13H29.0101V93.8599Z" stroke="white" stroke-width="0.25" stroke-miterlimit="10"/>
<path d="M38.2801 93.8599H29.0101V103.13H38.2801V93.8599Z" stroke="white" stroke-width="0.25" stroke-miterlimit="10"/>
<path d="M47.55 93.8599H38.28V103.13H47.55V93.8599Z" stroke="white" stroke-width="0.25" stroke-miterlimit="10"/>
<path d="M56.82 93.8599H47.55V103.13H56.82V93.8599Z" stroke="white" stroke-width="0.25" stroke-miterlimit="10"/>
<path d="M66.0801 93.8599H56.8101V103.13H66.0801V93.8599Z" stroke="white" stroke-width="0.25" stroke-miterlimit="10"/>
<path d="M75.3501 93.8599H66.0801V103.13H75.3501V93.8599Z" stroke="white" stroke-width="0.25" stroke-miterlimit="10"/>
<path d="M10.4801 103.13H1.21008V112.4H10.4801V103.13Z" stroke="white" stroke-width="0.25" stroke-miterlimit="10"/>
<path d="M19.7501 103.13H10.4801V112.4H19.7501V103.13Z" stroke="white" stroke-width="0.25" stroke-miterlimit="10"/>
<path d="M29.0101 103.13H19.7401V112.4H29.0101V103.13Z" stroke="white" stroke-width="0.25" stroke-miterlimit="10"/>
<path d="M38.2801 103.13H29.0101V112.4H38.2801V103.13Z" stroke="white" stroke-width="0.25" stroke-miterlimit="10"/>
<path d="M47.55 103.13H38.28V112.4H47.55V103.13Z" stroke="white" stroke-width="0.25" stroke-miterlimit="10"/>
<path d="M56.82 103.13H47.55V112.4H56.82V103.13Z" stroke="white" stroke-width="0.25" stroke-miterlimit="10"/>
<path d="M66.0801 103.13H56.8101V112.4H66.0801V103.13Z" stroke="white" stroke-width="0.25" stroke-miterlimit="10"/>
<path d="M75.3501 103.13H66.0801V112.4H75.3501V103.13Z" stroke="white" stroke-width="0.25" stroke-miterlimit="10"/>
<path d="M10.4801 112.47H1.21008V121.74H10.4801V112.47Z" stroke="white" stroke-width="0.25" stroke-miterlimit="10"/>
<path d="M19.7501 112.47H10.4801V121.74H19.7501V112.47Z" stroke="white" stroke-width="0.25" stroke-miterlimit="10"/>
<path d="M29.0101 112.47H19.7401V121.74H29.0101V112.47Z" stroke="white" stroke-width="0.25" stroke-miterlimit="10"/>
<path d="M38.2801 112.47H29.0101V121.74H38.2801V112.47Z" stroke="white" stroke-width="0.25" stroke-miterlimit="10"/>
<path d="M47.55 112.47H38.28V121.74H47.55V112.47Z" stroke="white" stroke-width="0.25" stroke-miterlimit="10"/>
<path d="M56.82 112.47H47.55V121.74H56.82V112.47Z" stroke="white" stroke-width="0.25" stroke-miterlimit="10"/>
<path d="M66.0801 112.47H56.8101V121.74H66.0801V112.47Z" stroke="white" stroke-width="0.25" stroke-miterlimit="10"/>
<path d="M75.3501 112.47H66.0801V121.74H75.3501V112.47Z" stroke="white" stroke-width="0.25" stroke-miterlimit="10"/>
<path d="M10.4801 121.74H1.21008V131.01H10.4801V121.74Z" stroke="white" stroke-width="0.25" stroke-miterlimit="10"/>
<path d="M19.7501 121.74H10.4801V131.01H19.7501V121.74Z" stroke="white" stroke-width="0.25" stroke-miterlimit="10"/>
<path d="M29.0101 121.74H19.7401V131.01H29.0101V121.74Z" stroke="white" stroke-width="0.25" stroke-miterlimit="10"/>
<path d="M38.2801 121.74H29.0101V131.01H38.2801V121.74Z" stroke="white" stroke-width="0.25" stroke-miterlimit="10"/>
<path d="M47.55 121.74H38.28V131.01H47.55V121.74Z" stroke="white" stroke-width="0.25" stroke-miterlimit="10"/>
<path d="M56.82 121.74H47.55V131.01H56.82V121.74Z" stroke="white" stroke-width="0.25" stroke-miterlimit="10"/>
<path d="M66.0801 121.74H56.8101V131.01H66.0801V121.74Z" stroke="white" stroke-width="0.25" stroke-miterlimit="10"/>
<path d="M75.3501 121.74H66.0801V131.01H75.3501V121.74Z" stroke="white" stroke-width="0.25" stroke-miterlimit="10"/>
<path d="M10.4801 131H1.21008V140.27H10.4801V131Z" stroke="white" stroke-width="0.25" stroke-miterlimit="10"/>
<path d="M19.7501 131H10.4801V140.27H19.7501V131Z" stroke="white" stroke-width="0.25" stroke-miterlimit="10"/>
<path d="M29.0101 131H19.7401V140.27H29.0101V131Z" stroke="white" stroke-width="0.25" stroke-miterlimit="10"/>
<path d="M38.2801 131H29.0101V140.27H38.2801V131Z" stroke="white" stroke-width="0.25" stroke-miterlimit="10"/>
<path d="M47.55 131H38.28V140.27H47.55V131Z" stroke="white" stroke-width="0.25" stroke-miterlimit="10"/>
<path d="M56.82 131H47.55V140.27H56.82V131Z" stroke="white" stroke-width="0.25" stroke-miterlimit="10"/>
<path d="M66.0801 131H56.8101V140.27H66.0801V131Z" stroke="white" stroke-width="0.25" stroke-miterlimit="10"/>
<path d="M75.3501 131H66.0801V140.27H75.3501V131Z" stroke="white" stroke-width="0.25" stroke-miterlimit="10"/>
<path d="M10.4801 140.27H1.21008V149.54H10.4801V140.27Z" stroke="white" stroke-width="0.25" stroke-miterlimit="10"/>
<path d="M19.7501 140.27H10.4801V149.54H19.7501V140.27Z" stroke="white" stroke-width="0.25" stroke-miterlimit="10"/>
<path d="M29.0101 140.27H19.7401V149.54H29.0101V140.27Z" stroke="white" stroke-width="0.25" stroke-miterlimit="10"/>
<path d="M38.2801 140.27H29.0101V149.54H38.2801V140.27Z" stroke="white" stroke-width="0.25" stroke-miterlimit="10"/>
<path d="M47.55 140.27H38.28V149.54H47.55V140.27Z" stroke="white" stroke-width="0.25" stroke-miterlimit="10"/>
<path d="M56.82 140.27H47.55V149.54H56.82V140.27Z" stroke="white" stroke-width="0.25" stroke-miterlimit="10"/>
<path d="M66.0801 140.27H56.8101V149.54H66.0801V140.27Z" stroke="white" stroke-width="0.25" stroke-miterlimit="10"/>
<path d="M75.3501 140.27H66.0801V149.54H75.3501V140.27Z" stroke="white" stroke-width="0.25" stroke-miterlimit="10"/>
<path d="M84.9102 1.10986H75.6401V10.3799H84.9102V1.10986Z" stroke="white" stroke-width="0.25" stroke-miterlimit="10"/>
<path d="M94.1702 1.10986H84.9001V10.3799H94.1702V1.10986Z" stroke="white" stroke-width="0.25" stroke-miterlimit="10"/>
<path d="M103.44 1.10986H94.1702V10.3799H103.44V1.10986Z" stroke="white" stroke-width="0.25" stroke-miterlimit="10"/>
<path d="M112.71 1.10986H103.44V10.3799H112.71V1.10986Z" stroke="white" stroke-width="0.25" stroke-miterlimit="10"/>
<path d="M121.98 1.10986H112.71V10.3799H121.98V1.10986Z" stroke="white" stroke-width="0.25" stroke-miterlimit="10"/>
<path d="M131.25 1.10986H121.98V10.3799H131.25V1.10986Z" stroke="white" stroke-width="0.25" stroke-miterlimit="10"/>
<path d="M140.51 1.10986H131.24V10.3799H140.51V1.10986Z" stroke="white" stroke-width="0.25" stroke-miterlimit="10"/>
<path d="M149.78 1.10986H140.51V10.3799H149.78V1.10986Z" stroke="white" stroke-width="0.25" stroke-miterlimit="10"/>
<path d="M84.9102 10.3799H75.6401V19.6499H84.9102V10.3799Z" stroke="white" stroke-width="0.25" stroke-miterlimit="10"/>
<path d="M94.1702 10.3799H84.9001V19.6499H94.1702V10.3799Z" stroke="white" stroke-width="0.25" stroke-miterlimit="10"/>
<path d="M103.44 10.3799H94.1702V19.6499H103.44V10.3799Z" stroke="white" stroke-width="0.25" stroke-miterlimit="10"/>
<path d="M112.71 10.3799H103.44V19.6499H112.71V10.3799Z" stroke="white" stroke-width="0.25" stroke-miterlimit="10"/>
<path d="M121.98 10.3799H112.71V19.6499H121.98V10.3799Z" stroke="white" stroke-width="0.25" stroke-miterlimit="10"/>
<path d="M131.25 10.3799H121.98V19.6499H131.25V10.3799Z" stroke="white" stroke-width="0.25" stroke-miterlimit="10"/>
<path d="M140.51 10.3799H131.24V19.6499H140.51V10.3799Z" stroke="white" stroke-width="0.25" stroke-miterlimit="10"/>
<path d="M149.78 10.3799H140.51V19.6499H149.78V10.3799Z" stroke="white" stroke-width="0.25" stroke-miterlimit="10"/>
<path d="M84.9102 19.6399H75.6401V28.9098H84.9102V19.6399Z" stroke="white" stroke-width="0.25" stroke-miterlimit="10"/>
<path d="M94.1702 19.6399H84.9001V28.9098H94.1702V19.6399Z" stroke="white" stroke-width="0.25" stroke-miterlimit="10"/>
<path d="M103.44 19.6399H94.1702V28.9098H103.44V19.6399Z" stroke="white" stroke-width="0.25" stroke-miterlimit="10"/>
<path d="M112.71 19.6399H103.44V28.9098H112.71V19.6399Z" stroke="white" stroke-width="0.25" stroke-miterlimit="10"/>
<path d="M121.98 19.6399H112.71V28.9098H121.98V19.6399Z" stroke="white" stroke-width="0.25" stroke-miterlimit="10"/>
<path d="M131.25 19.6399H121.98V28.9098H131.25V19.6399Z" stroke="white" stroke-width="0.25" stroke-miterlimit="10"/>
<path d="M140.51 19.6399H131.24V28.9098H140.51V19.6399Z" stroke="white" stroke-width="0.25" stroke-miterlimit="10"/>
<path d="M149.78 19.6399H140.51V28.9098H149.78V19.6399Z" stroke="white" stroke-width="0.25" stroke-miterlimit="10"/>
<path d="M84.9102 28.9097H75.6401V38.1797H84.9102V28.9097Z" stroke="white" stroke-width="0.25" stroke-miterlimit="10"/>
<path d="M94.1702 28.9097H84.9001V38.1797H94.1702V28.9097Z" stroke="white" stroke-width="0.25" stroke-miterlimit="10"/>
<path d="M103.44 28.9097H94.1702V38.1797H103.44V28.9097Z" stroke="white" stroke-width="0.25" stroke-miterlimit="10"/>
<path d="M112.71 28.9097H103.44V38.1797H112.71V28.9097Z" stroke="white" stroke-width="0.25" stroke-miterlimit="10"/>
<path d="M121.98 28.9097H112.71V38.1797H121.98V28.9097Z" stroke="white" stroke-width="0.25" stroke-miterlimit="10"/>
<path d="M131.25 28.9097H121.98V38.1797H131.25V28.9097Z" stroke="white" stroke-width="0.25" stroke-miterlimit="10"/>
<path d="M140.51 28.9097H131.24V38.1797H140.51V28.9097Z" stroke="white" stroke-width="0.25" stroke-miterlimit="10"/>
<path d="M149.78 28.9097H140.51V38.1797H149.78V28.9097Z" stroke="white" stroke-width="0.25" stroke-miterlimit="10"/>
<path d="M84.9102 38.25H75.6401V47.52H84.9102V38.25Z" stroke="white" stroke-width="0.25" stroke-miterlimit="10"/>
<path d="M94.1702 38.25H84.9001V47.52H94.1702V38.25Z" stroke="white" stroke-width="0.25" stroke-miterlimit="10"/>
<path d="M103.44 38.25H94.1702V47.52H103.44V38.25Z" stroke="white" stroke-width="0.25" stroke-miterlimit="10"/>
<path d="M112.71 38.25H103.44V47.52H112.71V38.25Z" stroke="white" stroke-width="0.25" stroke-miterlimit="10"/>
<path d="M121.98 38.25H112.71V47.52H121.98V38.25Z" stroke="white" stroke-width="0.25" stroke-miterlimit="10"/>
<path d="M131.25 38.25H121.98V47.52H131.25V38.25Z" stroke="white" stroke-width="0.25" stroke-miterlimit="10"/>
<path d="M140.51 38.25H131.24V47.52H140.51V38.25Z" stroke="white" stroke-width="0.25" stroke-miterlimit="10"/>
<path d="M149.78 38.25H140.51V47.52H149.78V38.25Z" stroke="white" stroke-width="0.25" stroke-miterlimit="10"/>
<path d="M84.9102 47.52H75.6401V56.7899H84.9102V47.52Z" stroke="white" stroke-width="0.25" stroke-miterlimit="10"/>
<path d="M94.1702 47.52H84.9001V56.7899H94.1702V47.52Z" stroke="white" stroke-width="0.25" stroke-miterlimit="10"/>
<path d="M103.44 47.52H94.1702V56.7899H103.44V47.52Z" stroke="white" stroke-width="0.25" stroke-miterlimit="10"/>
<path d="M112.71 47.52H103.44V56.7899H112.71V47.52Z" stroke="white" stroke-width="0.25" stroke-miterlimit="10"/>
<path d="M121.98 47.52H112.71V56.7899H121.98V47.52Z" stroke="white" stroke-width="0.25" stroke-miterlimit="10"/>
<path d="M131.25 47.52H121.98V56.7899H131.25V47.52Z" stroke="white" stroke-width="0.25" stroke-miterlimit="10"/>
<path d="M140.51 47.52H131.24V56.7899H140.51V47.52Z" stroke="white" stroke-width="0.25" stroke-miterlimit="10"/>
<path d="M149.78 47.52H140.51V56.7899H149.78V47.52Z" stroke="white" stroke-width="0.25" stroke-miterlimit="10"/>
<path d="M84.9102 56.7898H75.6401V66.0598H84.9102V56.7898Z" stroke="white" stroke-width="0.25" stroke-miterlimit="10"/>
<path d="M94.1702 56.7898H84.9001V66.0598H94.1702V56.7898Z" stroke="white" stroke-width="0.25" stroke-miterlimit="10"/>
<path d="M103.44 56.7898H94.1702V66.0598H103.44V56.7898Z" stroke="white" stroke-width="0.25" stroke-miterlimit="10"/>
<path d="M112.71 56.7898H103.44V66.0598H112.71V56.7898Z" stroke="white" stroke-width="0.25" stroke-miterlimit="10"/>
<path d="M121.98 56.7898H112.71V66.0598H121.98V56.7898Z" stroke="white" stroke-width="0.25" stroke-miterlimit="10"/>
<path d="M131.25 56.7898H121.98V66.0598H131.25V56.7898Z" stroke="white" stroke-width="0.25" stroke-miterlimit="10"/>
<path d="M140.51 56.7898H131.24V66.0598H140.51V56.7898Z" stroke="white" stroke-width="0.25" stroke-miterlimit="10"/>
<path d="M149.78 56.7898H140.51V66.0598H149.78V56.7898Z" stroke="white" stroke-width="0.25" stroke-miterlimit="10"/>
<path d="M84.9102 66.0598H75.6401V75.3298H84.9102V66.0598Z" stroke="white" stroke-width="0.25" stroke-miterlimit="10"/>
<path d="M94.1702 66.0598H84.9001V75.3298H94.1702V66.0598Z" stroke="white" stroke-width="0.25" stroke-miterlimit="10"/>
<path d="M103.44 66.0598H94.1702V75.3298H103.44V66.0598Z" stroke="white" stroke-width="0.25" stroke-miterlimit="10"/>
<path d="M112.71 66.0598H103.44V75.3298H112.71V66.0598Z" stroke="white" stroke-width="0.25" stroke-miterlimit="10"/>
<path d="M121.98 66.0598H112.71V75.3298H121.98V66.0598Z" stroke="white" stroke-width="0.25" stroke-miterlimit="10"/>
<path d="M131.25 66.0598H121.98V75.3298H131.25V66.0598Z" stroke="white" stroke-width="0.25" stroke-miterlimit="10"/>
<path d="M140.51 66.0598H131.24V75.3298H140.51V66.0598Z" stroke="white" stroke-width="0.25" stroke-miterlimit="10"/>
<path d="M149.78 66.0598H140.51V75.3298H149.78V66.0598Z" stroke="white" stroke-width="0.25" stroke-miterlimit="10"/>
<path d="M84.9102 75.3198H75.6401V84.5898H84.9102V75.3198Z" stroke="white" stroke-width="0.25" stroke-miterlimit="10"/>
<path d="M94.1702 75.3198H84.9001V84.5898H94.1702V75.3198Z" stroke="white" stroke-width="0.25" stroke-miterlimit="10"/>
<path d="M103.44 75.3198H94.1702V84.5898H103.44V75.3198Z" stroke="white" stroke-width="0.25" stroke-miterlimit="10"/>
<path d="M112.71 75.3198H103.44V84.5898H112.71V75.3198Z" stroke="white" stroke-width="0.25" stroke-miterlimit="10"/>
<path d="M121.98 75.3198H112.71V84.5898H121.98V75.3198Z" stroke="white" stroke-width="0.25" stroke-miterlimit="10"/>
<path d="M131.25 75.3198H121.98V84.5898H131.25V75.3198Z" stroke="white" stroke-width="0.25" stroke-miterlimit="10"/>
<path d="M140.51 75.3198H131.24V84.5898H140.51V75.3198Z" stroke="white" stroke-width="0.25" stroke-miterlimit="10"/>
<path d="M149.78 75.3198H140.51V84.5898H149.78V75.3198Z" stroke="white" stroke-width="0.25" stroke-miterlimit="10"/>
<path d="M84.9102 84.5898H75.6401V93.8599H84.9102V84.5898Z" stroke="white" stroke-width="0.25" stroke-miterlimit="10"/>
<path d="M94.1702 84.5898H84.9001V93.8599H94.1702V84.5898Z" stroke="white" stroke-width="0.25" stroke-miterlimit="10"/>
<path d="M103.44 84.5898H94.1702V93.8599H103.44V84.5898Z" stroke="white" stroke-width="0.25" stroke-miterlimit="10"/>
<path d="M112.71 84.5898H103.44V93.8599H112.71V84.5898Z" stroke="white" stroke-width="0.25" stroke-miterlimit="10"/>
<path d="M121.98 84.5898H112.71V93.8599H121.98V84.5898Z" stroke="white" stroke-width="0.25" stroke-miterlimit="10"/>
<path d="M131.25 84.5898H121.98V93.8599H131.25V84.5898Z" stroke="white" stroke-width="0.25" stroke-miterlimit="10"/>
<path d="M140.51 84.5898H131.24V93.8599H140.51V84.5898Z" stroke="white" stroke-width="0.25" stroke-miterlimit="10"/>
<path d="M149.78 84.5898H140.51V93.8599H149.78V84.5898Z" stroke="white" stroke-width="0.25" stroke-miterlimit="10"/>
<path d="M84.9102 93.8599H75.6401V103.13H84.9102V93.8599Z" stroke="white" stroke-width="0.25" stroke-miterlimit="10"/>
<path d="M94.1702 93.8599H84.9001V103.13H94.1702V93.8599Z" stroke="white" stroke-width="0.25" stroke-miterlimit="10"/>
<path d="M103.44 93.8599H94.1702V103.13H103.44V93.8599Z" stroke="white" stroke-width="0.25" stroke-miterlimit="10"/>
<path d="M112.71 93.8599H103.44V103.13H112.71V93.8599Z" stroke="white" stroke-width="0.25" stroke-miterlimit="10"/>
<path d="M121.98 93.8599H112.71V103.13H121.98V93.8599Z" stroke="white" stroke-width="0.25" stroke-miterlimit="10"/>
<path d="M131.25 93.8599H121.98V103.13H131.25V93.8599Z" stroke="white" stroke-width="0.25" stroke-miterlimit="10"/>
<path d="M140.51 93.8599H131.24V103.13H140.51V93.8599Z" stroke="white" stroke-width="0.25" stroke-miterlimit="10"/>
<path d="M149.78 93.8599H140.51V103.13H149.78V93.8599Z" stroke="white" stroke-width="0.25" stroke-miterlimit="10"/>
<path d="M84.9102 103.13H75.6401V112.4H84.9102V103.13Z" stroke="white" stroke-width="0.25" stroke-miterlimit="10"/>
<path d="M94.1702 103.13H84.9001V112.4H94.1702V103.13Z" stroke="white" stroke-width="0.25" stroke-miterlimit="10"/>
<path d="M103.44 103.13H94.1702V112.4H103.44V103.13Z" stroke="white" stroke-width="0.25" stroke-miterlimit="10"/>
<path d="M112.71 103.13H103.44V112.4H112.71V103.13Z" stroke="white" stroke-width="0.25" stroke-miterlimit="10"/>
<path d="M121.98 103.13H112.71V112.4H121.98V103.13Z" stroke="white" stroke-width="0.25" stroke-miterlimit="10"/>
<path d="M131.25 103.13H121.98V112.4H131.25V103.13Z" stroke="white" stroke-width="0.25" stroke-miterlimit="10"/>
<path d="M140.51 103.13H131.24V112.4H140.51V103.13Z" stroke="white" stroke-width="0.25" stroke-miterlimit="10"/>
<path d="M149.78 103.13H140.51V112.4H149.78V103.13Z" stroke="white" stroke-width="0.25" stroke-miterlimit="10"/>
<path d="M84.9102 112.47H75.6401V121.74H84.9102V112.47Z" stroke="white" stroke-width="0.25" stroke-miterlimit="10"/>
<path d="M94.1702 112.47H84.9001V121.74H94.1702V112.47Z" stroke="white" stroke-width="0.25" stroke-miterlimit="10"/>
<path d="M103.44 112.47H94.1702V121.74H103.44V112.47Z" stroke="white" stroke-width="0.25" stroke-miterlimit="10"/>
<path d="M112.71 112.47H103.44V121.74H112.71V112.47Z" stroke="white" stroke-width="0.25" stroke-miterlimit="10"/>
<path d="M121.98 112.47H112.71V121.74H121.98V112.47Z" stroke="white" stroke-width="0.25" stroke-miterlimit="10"/>
<path d="M131.25 112.47H121.98V121.74H131.25V112.47Z" stroke="white" stroke-width="0.25" stroke-miterlimit="10"/>
<path d="M140.51 112.47H131.24V121.74H140.51V112.47Z" stroke="white" stroke-width="0.25" stroke-miterlimit="10"/>
<path d="M149.78 112.47H140.51V121.74H149.78V112.47Z" stroke="white" stroke-width="0.25" stroke-miterlimit="10"/>
<path d="M84.9102 121.74H75.6401V131.01H84.9102V121.74Z" stroke="white" stroke-width="0.25" stroke-miterlimit="10"/>
<path d="M94.1702 121.74H84.9001V131.01H94.1702V121.74Z" stroke="white" stroke-width="0.25" stroke-miterlimit="10"/>
<path d="M103.44 121.74H94.1702V131.01H103.44V121.74Z" stroke="white" stroke-width="0.25" stroke-miterlimit="10"/>
<path d="M112.71 121.74H103.44V131.01H112.71V121.74Z" stroke="white" stroke-width="0.25" stroke-miterlimit="10"/>
<path d="M121.98 121.74H112.71V131.01H121.98V121.74Z" stroke="white" stroke-width="0.25" stroke-miterlimit="10"/>
<path d="M131.25 121.74H121.98V131.01H131.25V121.74Z" stroke="white" stroke-width="0.25" stroke-miterlimit="10"/>
<path d="M140.51 121.74H131.24V131.01H140.51V121.74Z" stroke="white" stroke-width="0.25" stroke-miterlimit="10"/>
<path d="M149.78 121.74H140.51V131.01H149.78V121.74Z" stroke="white" stroke-width="0.25" stroke-miterlimit="10"/>
<path d="M84.9102 131H75.6401V140.27H84.9102V131Z" stroke="white" stroke-width="0.25" stroke-miterlimit="10"/>
<path d="M94.1702 131H84.9001V140.27H94.1702V131Z" stroke="white" stroke-width="0.25" stroke-miterlimit="10"/>
<path d="M103.44 131H94.1702V140.27H103.44V131Z" stroke="white" stroke-width="0.25" stroke-miterlimit="10"/>
<path d="M112.71 131H103.44V140.27H112.71V131Z" stroke="white" stroke-width="0.25" stroke-miterlimit="10"/>
<path d="M121.98 131H112.71V140.27H121.98V131Z" stroke="white" stroke-width="0.25" stroke-miterlimit="10"/>
<path d="M131.25 131H121.98V140.27H131.25V131Z" stroke="white" stroke-width="0.25" stroke-miterlimit="10"/>
<path d="M140.51 131H131.24V140.27H140.51V131Z" stroke="white" stroke-width="0.25" stroke-miterlimit="10"/>
<path d="M149.78 131H140.51V140.27H149.78V131Z" stroke="white" stroke-width="0.25" stroke-miterlimit="10"/>
<path d="M84.9102 140.27H75.6401V149.54H84.9102V140.27Z" stroke="white" stroke-width="0.25" stroke-miterlimit="10"/>
<path d="M94.1702 140.27H84.9001V149.54H94.1702V140.27Z" stroke="white" stroke-width="0.25" stroke-miterlimit="10"/>
<path d="M103.44 140.27H94.1702V149.54H103.44V140.27Z" stroke="white" stroke-width="0.25" stroke-miterlimit="10"/>
<path d="M112.71 140.27H103.44V149.54H112.71V140.27Z" stroke="white" stroke-width="0.25" stroke-miterlimit="10"/>
<path d="M121.98 140.27H112.71V149.54H121.98V140.27Z" stroke="white" stroke-width="0.25" stroke-miterlimit="10"/>
<path d="M131.25 140.27H121.98V149.54H131.25V140.27Z" stroke="white" stroke-width="0.25" stroke-miterlimit="10"/>
<path d="M140.51 140.27H131.24V149.54H140.51V140.27Z" stroke="white" stroke-width="0.25" stroke-miterlimit="10"/>
<path d="M149.78 140.27H140.51V149.54H149.78V140.27Z" stroke="white" stroke-width="0.25" stroke-miterlimit="10"/>
<path d="M10.4801 149.54H1.21008V158.81H10.4801V149.54Z" stroke="white" stroke-width="0.25" stroke-miterlimit="10"/>
<path d="M19.7501 149.54H10.4801V158.81H19.7501V149.54Z" stroke="white" stroke-width="0.25" stroke-miterlimit="10"/>
<path d="M29.0101 149.54H19.7401V158.81H29.0101V149.54Z" stroke="white" stroke-width="0.25" stroke-miterlimit="10"/>
<path d="M38.2801 149.54H29.0101V158.81H38.2801V149.54Z" stroke="white" stroke-width="0.25" stroke-miterlimit="10"/>
<path d="M47.55 149.54H38.28V158.81H47.55V149.54Z" stroke="white" stroke-width="0.25" stroke-miterlimit="10"/>
<path d="M56.82 149.54H47.55V158.81H56.82V149.54Z" stroke="white" stroke-width="0.25" stroke-miterlimit="10"/>
<path d="M66.0801 149.54H56.8101V158.81H66.0801V149.54Z" stroke="white" stroke-width="0.25" stroke-miterlimit="10"/>
<path d="M75.3501 149.54H66.0801V158.81H75.3501V149.54Z" stroke="white" stroke-width="0.25" stroke-miterlimit="10"/>
<path d="M10.4801 158.88H1.21008V168.15H10.4801V158.88Z" stroke="white" stroke-width="0.25" stroke-miterlimit="10"/>
<path d="M19.7501 158.88H10.4801V168.15H19.7501V158.88Z" stroke="white" stroke-width="0.25" stroke-miterlimit="10"/>
<path d="M29.0101 158.88H19.7401V168.15H29.0101V158.88Z" stroke="white" stroke-width="0.25" stroke-miterlimit="10"/>
<path d="M38.2801 158.88H29.0101V168.15H38.2801V158.88Z" stroke="white" stroke-width="0.25" stroke-miterlimit="10"/>
<path d="M47.55 158.88H38.28V168.15H47.55V158.88Z" stroke="white" stroke-width="0.25" stroke-miterlimit="10"/>
<path d="M56.82 158.88H47.55V168.15H56.82V158.88Z" stroke="white" stroke-width="0.25" stroke-miterlimit="10"/>
<path d="M66.0801 158.88H56.8101V168.15H66.0801V158.88Z" stroke="white" stroke-width="0.25" stroke-miterlimit="10"/>
<path d="M75.3501 158.88H66.0801V168.15H75.3501V158.88Z" stroke="white" stroke-width="0.25" stroke-miterlimit="10"/>
<path d="M10.4801 168.15H1.21008V177.42H10.4801V168.15Z" stroke="white" stroke-width="0.25" stroke-miterlimit="10"/>
<path d="M19.7501 168.15H10.4801V177.42H19.7501V168.15Z" stroke="white" stroke-width="0.25" stroke-miterlimit="10"/>
<path d="M29.0101 168.15H19.7401V177.42H29.0101V168.15Z" stroke="white" stroke-width="0.25" stroke-miterlimit="10"/>
<path d="M38.2801 168.15H29.0101V177.42H38.2801V168.15Z" stroke="white" stroke-width="0.25" stroke-miterlimit="10"/>
<path d="M47.55 168.15H38.28V177.42H47.55V168.15Z" stroke="white" stroke-width="0.25" stroke-miterlimit="10"/>
<path d="M56.82 168.15H47.55V177.42H56.82V168.15Z" stroke="white" stroke-width="0.25" stroke-miterlimit="10"/>
<path d="M66.0801 168.15H56.8101V177.42H66.0801V168.15Z" stroke="white" stroke-width="0.25" stroke-miterlimit="10"/>
<path d="M75.3501 168.15H66.0801V177.42H75.3501V168.15Z" stroke="white" stroke-width="0.25" stroke-miterlimit="10"/>
<path d="M10.4801 177.42H1.21008V186.69H10.4801V177.42Z" stroke="white" stroke-width="0.25" stroke-miterlimit="10"/>
<path d="M19.7501 177.42H10.4801V186.69H19.7501V177.42Z" stroke="white" stroke-width="0.25" stroke-miterlimit="10"/>
<path d="M29.0101 177.42H19.7401V186.69H29.0101V177.42Z" stroke="white" stroke-width="0.25" stroke-miterlimit="10"/>
<path d="M38.2801 177.42H29.0101V186.69H38.2801V177.42Z" stroke="white" stroke-width="0.25" stroke-miterlimit="10"/>
<path d="M47.55 177.42H38.28V186.69H47.55V177.42Z" stroke="white" stroke-width="0.25" stroke-miterlimit="10"/>
<path d="M56.82 177.42H47.55V186.69H56.82V177.42Z" stroke="white" stroke-width="0.25" stroke-miterlimit="10"/>
<path d="M66.0801 177.42H56.8101V186.69H66.0801V177.42Z" stroke="white" stroke-width="0.25" stroke-miterlimit="10"/>
<path d="M75.3501 177.42H66.0801V186.69H75.3501V177.42Z" stroke="white" stroke-width="0.25" stroke-miterlimit="10"/>
<path d="M10.4801 186.68H1.21008V195.95H10.4801V186.68Z" stroke="white" stroke-width="0.25" stroke-miterlimit="10"/>
<path d="M19.7501 186.68H10.4801V195.95H19.7501V186.68Z" stroke="white" stroke-width="0.25" stroke-miterlimit="10"/>
<path d="M29.0101 186.68H19.7401V195.95H29.0101V186.68Z" stroke="white" stroke-width="0.25" stroke-miterlimit="10"/>
<path d="M38.2801 186.68H29.0101V195.95H38.2801V186.68Z" stroke="white" stroke-width="0.25" stroke-miterlimit="10"/>
<path d="M47.55 186.68H38.28V195.95H47.55V186.68Z" stroke="white" stroke-width="0.25" stroke-miterlimit="10"/>
<path d="M56.82 186.68H47.55V195.95H56.82V186.68Z" stroke="white" stroke-width="0.25" stroke-miterlimit="10"/>
<path d="M66.0801 186.68H56.8101V195.95H66.0801V186.68Z" stroke="white" stroke-width="0.25" stroke-miterlimit="10"/>
<path d="M75.3501 186.68H66.0801V195.95H75.3501V186.68Z" stroke="white" stroke-width="0.25" stroke-miterlimit="10"/>
<path d="M84.9102 149.54H75.6401V158.81H84.9102V149.54Z" stroke="white" stroke-width="0.25" stroke-miterlimit="10"/>
<path d="M94.1702 149.54H84.9001V158.81H94.1702V149.54Z" stroke="white" stroke-width="0.25" stroke-miterlimit="10"/>
<path d="M103.44 149.54H94.1702V158.81H103.44V149.54Z" stroke="white" stroke-width="0.25" stroke-miterlimit="10"/>
<path d="M112.71 149.54H103.44V158.81H112.71V149.54Z" stroke="white" stroke-width="0.25" stroke-miterlimit="10"/>
<path d="M121.98 149.54H112.71V158.81H121.98V149.54Z" stroke="white" stroke-width="0.25" stroke-miterlimit="10"/>
<path d="M131.25 149.54H121.98V158.81H131.25V149.54Z" stroke="white" stroke-width="0.25" stroke-miterlimit="10"/>
<path d="M140.51 149.54H131.24V158.81H140.51V149.54Z" stroke="white" stroke-width="0.25" stroke-miterlimit="10"/>
<path d="M149.78 149.54H140.51V158.81H149.78V149.54Z" stroke="white" stroke-width="0.25" stroke-miterlimit="10"/>
<path d="M84.9102 158.88H75.6401V168.15H84.9102V158.88Z" stroke="white" stroke-width="0.25" stroke-miterlimit="10"/>
<path d="M94.1702 158.88H84.9001V168.15H94.1702V158.88Z" stroke="white" stroke-width="0.25" stroke-miterlimit="10"/>
<path d="M103.44 158.88H94.1702V168.15H103.44V158.88Z" stroke="white" stroke-width="0.25" stroke-miterlimit="10"/>
<path d="M112.71 158.88H103.44V168.15H112.71V158.88Z" stroke="white" stroke-width="0.25" stroke-miterlimit="10"/>
<path d="M121.98 158.88H112.71V168.15H121.98V158.88Z" stroke="white" stroke-width="0.25" stroke-miterlimit="10"/>
<path d="M131.25 158.88H121.98V168.15H131.25V158.88Z" stroke="white" stroke-width="0.25" stroke-miterlimit="10"/>
<path d="M140.51 158.88H131.24V168.15H140.51V158.88Z" stroke="white" stroke-width="0.25" stroke-miterlimit="10"/>
<path d="M149.78 158.88H140.51V168.15H149.78V158.88Z" stroke="white" stroke-width="0.25" stroke-miterlimit="10"/>
<path d="M84.9102 168.15H75.6401V177.42H84.9102V168.15Z" stroke="white" stroke-width="0.25" stroke-miterlimit="10"/>
<path d="M94.1702 168.15H84.9001V177.42H94.1702V168.15Z" stroke="white" stroke-width="0.25" stroke-miterlimit="10"/>
<path d="M103.44 168.15H94.1702V177.42H103.44V168.15Z" stroke="white" stroke-width="0.25" stroke-miterlimit="10"/>
<path d="M112.71 168.15H103.44V177.42H112.71V168.15Z" stroke="white" stroke-width="0.25" stroke-miterlimit="10"/>
<path d="M121.98 168.15H112.71V177.42H121.98V168.15Z" stroke="white" stroke-width="0.25" stroke-miterlimit="10"/>
<path d="M131.25 168.15H121.98V177.42H131.25V168.15Z" stroke="white" stroke-width="0.25" stroke-miterlimit="10"/>
<path d="M140.51 168.15H131.24V177.42H140.51V168.15Z" stroke="white" stroke-width="0.25" stroke-miterlimit="10"/>
<path d="M149.78 168.15H140.51V177.42H149.78V168.15Z" stroke="white" stroke-width="0.25" stroke-miterlimit="10"/>
<path d="M84.9102 177.42H75.6401V186.69H84.9102V177.42Z" stroke="white" stroke-width="0.25" stroke-miterlimit="10"/>
<path d="M94.1702 177.42H84.9001V186.69H94.1702V177.42Z" stroke="white" stroke-width="0.25" stroke-miterlimit="10"/>
<path d="M103.44 177.42H94.1702V186.69H103.44V177.42Z" stroke="white" stroke-width="0.25" stroke-miterlimit="10"/>
<path d="M112.71 177.42H103.44V186.69H112.71V177.42Z" stroke="white" stroke-width="0.25" stroke-miterlimit="10"/>
<path d="M121.98 177.42H112.71V186.69H121.98V177.42Z" stroke="white" stroke-width="0.25" stroke-miterlimit="10"/>
<path d="M131.25 177.42H121.98V186.69H131.25V177.42Z" stroke="white" stroke-width="0.25" stroke-miterlimit="10"/>
<path d="M140.51 177.42H131.24V186.69H140.51V177.42Z" stroke="white" stroke-width="0.25" stroke-miterlimit="10"/>
<path d="M149.78 177.42H140.51V186.69H149.78V177.42Z" stroke="white" stroke-width="0.25" stroke-miterlimit="10"/>
<path d="M84.9102 186.68H75.6401V195.95H84.9102V186.68Z" stroke="white" stroke-width="0.25" stroke-miterlimit="10"/>
<path d="M94.1702 186.68H84.9001V195.95H94.1702V186.68Z" stroke="white" stroke-width="0.25" stroke-miterlimit="10"/>
<path d="M103.44 186.68H94.1702V195.95H103.44V186.68Z" stroke="white" stroke-width="0.25" stroke-miterlimit="10"/>
<path d="M112.71 186.68H103.44V195.95H112.71V186.68Z" stroke="white" stroke-width="0.25" stroke-miterlimit="10"/>
<path d="M121.98 186.68H112.71V195.95H121.98V186.68Z" stroke="white" stroke-width="0.25" stroke-miterlimit="10"/>
<path d="M131.25 186.68H121.98V195.95H131.25V186.68Z" stroke="white" stroke-width="0.25" stroke-miterlimit="10"/>
<path d="M140.51 186.68H131.24V195.95H140.51V186.68Z" stroke="white" stroke-width="0.25" stroke-miterlimit="10"/>
<path d="M149.78 186.68H140.51V195.95H149.78V186.68Z" stroke="white" stroke-width="0.25" stroke-miterlimit="10"/>
</svg>
