<svg width="151" height="197" fill="none" xmlns="http://www.w3.org/2000/svg"><path d="M148.68 1H.49v195h148.19V1z" fill="#F8EC2C"/><path d="M149.83 1H1.64v195h148.19V1z" stroke="#fff" stroke-miterlimit="10"/><path d="M10.48 1.11H1.21v9.27h9.27V1.11zM19.75 1.11h-9.27v9.27h9.27V1.11z" stroke="#fff" stroke-width=".25" stroke-miterlimit="10"/><path d="M29.01 1.11h-9.27v9.27h9.27V1.11zM38.28 1.11h-9.27v9.27h9.27V1.11zM47.55 1.11h-9.27v9.27h9.27V1.11zM56.82 1.11h-9.27v9.27h9.27V1.11z" stroke="#fff" stroke-width=".25" stroke-miterlimit="10"/><path d="M66.08 1.11h-9.27v9.27h9.27V1.11zM75.35 1.11h-9.27v9.27h9.27V1.11zM10.48 10.38H1.21v9.27h9.27v-9.27zM19.75 10.38h-9.27v9.27h9.27v-9.27z" stroke="#fff" stroke-width=".25" stroke-miterlimit="10"/><path d="M29.01 10.38h-9.27v9.27h9.27v-9.27zM38.28 10.38h-9.27v9.27h9.27v-9.27zM47.55 10.38h-9.27v9.27h9.27v-9.27zM56.82 10.38h-9.27v9.27h9.27v-9.27z" stroke="#fff" stroke-width=".25" stroke-miterlimit="10"/><path d="M66.08 10.38h-9.27v9.27h9.27v-9.27zM75.35 10.38h-9.27v9.27h9.27v-9.27zM10.48 19.64H1.21v9.27h9.27v-9.27zM19.75 19.64h-9.27v9.27h9.27v-9.27z" stroke="#fff" stroke-width=".25" stroke-miterlimit="10"/><path d="M29.01 19.64h-9.27v9.27h9.27v-9.27zM38.28 19.64h-9.27v9.27h9.27v-9.27zM47.55 19.64h-9.27v9.27h9.27v-9.27zM56.82 19.64h-9.27v9.27h9.27v-9.27z" stroke="#fff" stroke-width=".25" stroke-miterlimit="10"/><path d="M66.08 19.64h-9.27v9.27h9.27v-9.27zM75.35 19.64h-9.27v9.27h9.27v-9.27zM10.48 28.91H1.21v9.27h9.27v-9.27zM19.75 28.91h-9.27v9.27h9.27v-9.27z" stroke="#fff" stroke-width=".25" stroke-miterlimit="10"/><path d="M29.01 28.91h-9.27v9.27h9.27v-9.27zM38.28 28.91h-9.27v9.27h9.27v-9.27zM47.55 28.91h-9.27v9.27h9.27v-9.27zM56.82 28.91h-9.27v9.27h9.27v-9.27z" stroke="#fff" stroke-width=".25" stroke-miterlimit="10"/><path d="M66.08 28.91h-9.27v9.27h9.27v-9.27zM75.35 28.91h-9.27v9.27h9.27v-9.27zM10.48 38.25H1.21v9.27h9.27v-9.27zM19.75 38.25h-9.27v9.27h9.27v-9.27z" stroke="#fff" stroke-width=".25" stroke-miterlimit="10"/><path d="M29.01 38.25h-9.27v9.27h9.27v-9.27zM38.28 38.25h-9.27v9.27h9.27v-9.27zM47.55 38.25h-9.27v9.27h9.27v-9.27zM56.82 38.25h-9.27v9.27h9.27v-9.27z" stroke="#fff" stroke-width=".25" stroke-miterlimit="10"/><path d="M66.08 38.25h-9.27v9.27h9.27v-9.27zM75.35 38.25h-9.27v9.27h9.27v-9.27zM10.48 47.52H1.21v9.27h9.27v-9.27zM19.75 47.52h-9.27v9.27h9.27v-9.27z" stroke="#fff" stroke-width=".25" stroke-miterlimit="10"/><path d="M29.01 47.52h-9.27v9.27h9.27v-9.27zM38.28 47.52h-9.27v9.27h9.27v-9.27zM47.55 47.52h-9.27v9.27h9.27v-9.27zM56.82 47.52h-9.27v9.27h9.27v-9.27z" stroke="#fff" stroke-width=".25" stroke-miterlimit="10"/><path d="M66.08 47.52h-9.27v9.27h9.27v-9.27zM75.35 47.52h-9.27v9.27h9.27v-9.27zM10.48 56.79H1.21v9.27h9.27v-9.27zM19.75 56.79h-9.27v9.27h9.27v-9.27z" stroke="#fff" stroke-width=".25" stroke-miterlimit="10"/><path d="M29.01 56.79h-9.27v9.27h9.27v-9.27zM38.28 56.79h-9.27v9.27h9.27v-9.27zM47.55 56.79h-9.27v9.27h9.27v-9.27zM56.82 56.79h-9.27v9.27h9.27v-9.27z" stroke="#fff" stroke-width=".25" stroke-miterlimit="10"/><path d="M66.08 56.79h-9.27v9.27h9.27v-9.27zM75.35 56.79h-9.27v9.27h9.27v-9.27zM10.48 66.06H1.21v9.27h9.27v-9.27zM19.75 66.06h-9.27v9.27h9.27v-9.27z" stroke="#fff" stroke-width=".25" stroke-miterlimit="10"/><path d="M29.01 66.06h-9.27v9.27h9.27v-9.27zM38.28 66.06h-9.27v9.27h9.27v-9.27zM47.55 66.06h-9.27v9.27h9.27v-9.27zM56.82 66.06h-9.27v9.27h9.27v-9.27z" stroke="#fff" stroke-width=".25" stroke-miterlimit="10"/><path d="M66.08 66.06h-9.27v9.27h9.27v-9.27zM75.35 66.06h-9.27v9.27h9.27v-9.27zM10.48 75.32H1.21v9.27h9.27v-9.27zM19.75 75.32h-9.27v9.27h9.27v-9.27z" stroke="#fff" stroke-width=".25" stroke-miterlimit="10"/><path d="M29.01 75.32h-9.27v9.27h9.27v-9.27zM38.28 75.32h-9.27v9.27h9.27v-9.27zM47.55 75.32h-9.27v9.27h9.27v-9.27zM56.82 75.32h-9.27v9.27h9.27v-9.27z" stroke="#fff" stroke-width=".25" stroke-miterlimit="10"/><path d="M66.08 75.32h-9.27v9.27h9.27v-9.27zM75.35 75.32h-9.27v9.27h9.27v-9.27zM10.48 84.59H1.21v9.27h9.27v-9.27zM19.75 84.59h-9.27v9.27h9.27v-9.27z" stroke="#fff" stroke-width=".25" stroke-miterlimit="10"/><path d="M29.01 84.59h-9.27v9.27h9.27v-9.27zM38.28 84.59h-9.27v9.27h9.27v-9.27zM47.55 84.59h-9.27v9.27h9.27v-9.27zM56.82 84.59h-9.27v9.27h9.27v-9.27z" stroke="#fff" stroke-width=".25" stroke-miterlimit="10"/><path d="M66.08 84.59h-9.27v9.27h9.27v-9.27zM75.35 84.59h-9.27v9.27h9.27v-9.27zM10.48 93.86H1.21v9.27h9.27v-9.27zM19.75 93.86h-9.27v9.27h9.27v-9.27z" stroke="#fff" stroke-width=".25" stroke-miterlimit="10"/><path d="M29.01 93.86h-9.27v9.27h9.27v-9.27zM38.28 93.86h-9.27v9.27h9.27v-9.27zM47.55 93.86h-9.27v9.27h9.27v-9.27zM56.82 93.86h-9.27v9.27h9.27v-9.27z" stroke="#fff" stroke-width=".25" stroke-miterlimit="10"/><path d="M66.08 93.86h-9.27v9.27h9.27v-9.27zM75.35 93.86h-9.27v9.27h9.27v-9.27zM10.48 103.13H1.21v9.27h9.27v-9.27zM19.75 103.13h-9.27v9.27h9.27v-9.27z" stroke="#fff" stroke-width=".25" stroke-miterlimit="10"/><path d="M29.01 103.13h-9.27v9.27h9.27v-9.27zM38.28 103.13h-9.27v9.27h9.27v-9.27zM47.55 103.13h-9.27v9.27h9.27v-9.27zM56.82 103.13h-9.27v9.27h9.27v-9.27z" stroke="#fff" stroke-width=".25" stroke-miterlimit="10"/><path d="M66.08 103.13h-9.27v9.27h9.27v-9.27zM75.35 103.13h-9.27v9.27h9.27v-9.27zM10.48 112.47H1.21v9.27h9.27v-9.27zM19.75 112.47h-9.27v9.27h9.27v-9.27z" stroke="#fff" stroke-width=".25" stroke-miterlimit="10"/><path d="M29.01 112.47h-9.27v9.27h9.27v-9.27zM38.28 112.47h-9.27v9.27h9.27v-9.27zM47.55 112.47h-9.27v9.27h9.27v-9.27zM56.82 112.47h-9.27v9.27h9.27v-9.27z" stroke="#fff" stroke-width=".25" stroke-miterlimit="10"/><path d="M66.08 112.47h-9.27v9.27h9.27v-9.27zM75.35 112.47h-9.27v9.27h9.27v-9.27zM10.48 121.74H1.21v9.27h9.27v-9.27zM19.75 121.74h-9.27v9.27h9.27v-9.27z" stroke="#fff" stroke-width=".25" stroke-miterlimit="10"/><path d="M29.01 121.74h-9.27v9.27h9.27v-9.27zM38.28 121.74h-9.27v9.27h9.27v-9.27zM47.55 121.74h-9.27v9.27h9.27v-9.27zM56.82 121.74h-9.27v9.27h9.27v-9.27z" stroke="#fff" stroke-width=".25" stroke-miterlimit="10"/><path d="M66.08 121.74h-9.27v9.27h9.27v-9.27zM75.35 121.74h-9.27v9.27h9.27v-9.27zM10.48 131H1.21v9.27h9.27V131zM19.75 131h-9.27v9.27h9.27V131z" stroke="#fff" stroke-width=".25" stroke-miterlimit="10"/><path d="M29.01 131h-9.27v9.27h9.27V131zM38.28 131h-9.27v9.27h9.27V131zM47.55 131h-9.27v9.27h9.27V131zM56.82 131h-9.27v9.27h9.27V131z" stroke="#fff" stroke-width=".25" stroke-miterlimit="10"/><path d="M66.08 131h-9.27v9.27h9.27V131zM75.35 131h-9.27v9.27h9.27V131zM10.48 140.27H1.21v9.27h9.27v-9.27zM19.75 140.27h-9.27v9.27h9.27v-9.27z" stroke="#fff" stroke-width=".25" stroke-miterlimit="10"/><path d="M29.01 140.27h-9.27v9.27h9.27v-9.27zM38.28 140.27h-9.27v9.27h9.27v-9.27zM47.55 140.27h-9.27v9.27h9.27v-9.27zM56.82 140.27h-9.27v9.27h9.27v-9.27z" stroke="#fff" stroke-width=".25" stroke-miterlimit="10"/><path d="M66.08 140.27h-9.27v9.27h9.27v-9.27zM75.35 140.27h-9.27v9.27h9.27v-9.27zM84.91 1.11h-9.27v9.27h9.27V1.11z" stroke="#fff" stroke-width=".25" stroke-miterlimit="10"/><path d="M94.17 1.11H84.9v9.27h9.27V1.11zM103.44 1.11h-9.27v9.27h9.27V1.11zM112.71 1.11h-9.27v9.27h9.27V1.11zM121.98 1.11h-9.27v9.27h9.27V1.11zM131.25 1.11h-9.27v9.27h9.27V1.11z" stroke="#fff" stroke-width=".25" stroke-miterlimit="10"/><path d="M140.51 1.11h-9.27v9.27h9.27V1.11zM149.78 1.11h-9.27v9.27h9.27V1.11zM84.91 10.38h-9.27v9.27h9.27v-9.27z" stroke="#fff" stroke-width=".25" stroke-miterlimit="10"/><path d="M94.17 10.38H84.9v9.27h9.27v-9.27zM103.44 10.38h-9.27v9.27h9.27v-9.27zM112.71 10.38h-9.27v9.27h9.27v-9.27zM121.98 10.38h-9.27v9.27h9.27v-9.27zM131.25 10.38h-9.27v9.27h9.27v-9.27z" stroke="#fff" stroke-width=".25" stroke-miterlimit="10"/><path d="M140.51 10.38h-9.27v9.27h9.27v-9.27zM149.78 10.38h-9.27v9.27h9.27v-9.27zM84.91 19.64h-9.27v9.27h9.27v-9.27z" stroke="#fff" stroke-width=".25" stroke-miterlimit="10"/><path d="M94.17 19.64H84.9v9.27h9.27v-9.27zM103.44 19.64h-9.27v9.27h9.27v-9.27zM112.71 19.64h-9.27v9.27h9.27v-9.27zM121.98 19.64h-9.27v9.27h9.27v-9.27zM131.25 19.64h-9.27v9.27h9.27v-9.27z" stroke="#fff" stroke-width=".25" stroke-miterlimit="10"/><path d="M140.51 19.64h-9.27v9.27h9.27v-9.27zM149.78 19.64h-9.27v9.27h9.27v-9.27zM84.91 28.91h-9.27v9.27h9.27v-9.27z" stroke="#fff" stroke-width=".25" stroke-miterlimit="10"/><path d="M94.17 28.91H84.9v9.27h9.27v-9.27zM103.44 28.91h-9.27v9.27h9.27v-9.27zM112.71 28.91h-9.27v9.27h9.27v-9.27zM121.98 28.91h-9.27v9.27h9.27v-9.27zM131.25 28.91h-9.27v9.27h9.27v-9.27z" stroke="#fff" stroke-width=".25" stroke-miterlimit="10"/><path d="M140.51 28.91h-9.27v9.27h9.27v-9.27zM149.78 28.91h-9.27v9.27h9.27v-9.27zM84.91 38.25h-9.27v9.27h9.27v-9.27z" stroke="#fff" stroke-width=".25" stroke-miterlimit="10"/><path d="M94.17 38.25H84.9v9.27h9.27v-9.27zM103.44 38.25h-9.27v9.27h9.27v-9.27zM112.71 38.25h-9.27v9.27h9.27v-9.27zM121.98 38.25h-9.27v9.27h9.27v-9.27zM131.25 38.25h-9.27v9.27h9.27v-9.27z" stroke="#fff" stroke-width=".25" stroke-miterlimit="10"/><path d="M140.51 38.25h-9.27v9.27h9.27v-9.27zM149.78 38.25h-9.27v9.27h9.27v-9.27zM84.91 47.52h-9.27v9.27h9.27v-9.27z" stroke="#fff" stroke-width=".25" stroke-miterlimit="10"/><path d="M94.17 47.52H84.9v9.27h9.27v-9.27zM103.44 47.52h-9.27v9.27h9.27v-9.27zM112.71 47.52h-9.27v9.27h9.27v-9.27zM121.98 47.52h-9.27v9.27h9.27v-9.27zM131.25 47.52h-9.27v9.27h9.27v-9.27z" stroke="#fff" stroke-width=".25" stroke-miterlimit="10"/><path d="M140.51 47.52h-9.27v9.27h9.27v-9.27zM149.78 47.52h-9.27v9.27h9.27v-9.27zM84.91 56.79h-9.27v9.27h9.27v-9.27z" stroke="#fff" stroke-width=".25" stroke-miterlimit="10"/><path d="M94.17 56.79H84.9v9.27h9.27v-9.27zM103.44 56.79h-9.27v9.27h9.27v-9.27zM112.71 56.79h-9.27v9.27h9.27v-9.27zM121.98 56.79h-9.27v9.27h9.27v-9.27zM131.25 56.79h-9.27v9.27h9.27v-9.27z" stroke="#fff" stroke-width=".25" stroke-miterlimit="10"/><path d="M140.51 56.79h-9.27v9.27h9.27v-9.27zM149.78 56.79h-9.27v9.27h9.27v-9.27zM84.91 66.06h-9.27v9.27h9.27v-9.27z" stroke="#fff" stroke-width=".25" stroke-miterlimit="10"/><path d="M94.17 66.06H84.9v9.27h9.27v-9.27zM103.44 66.06h-9.27v9.27h9.27v-9.27zM112.71 66.06h-9.27v9.27h9.27v-9.27zM121.98 66.06h-9.27v9.27h9.27v-9.27zM131.25 66.06h-9.27v9.27h9.27v-9.27z" stroke="#fff" stroke-width=".25" stroke-miterlimit="10"/><path d="M140.51 66.06h-9.27v9.27h9.27v-9.27zM149.78 66.06h-9.27v9.27h9.27v-9.27zM84.91 75.32h-9.27v9.27h9.27v-9.27z" stroke="#fff" stroke-width=".25" stroke-miterlimit="10"/><path d="M94.17 75.32H84.9v9.27h9.27v-9.27zM103.44 75.32h-9.27v9.27h9.27v-9.27zM112.71 75.32h-9.27v9.27h9.27v-9.27zM121.98 75.32h-9.27v9.27h9.27v-9.27zM131.25 75.32h-9.27v9.27h9.27v-9.27z" stroke="#fff" stroke-width=".25" stroke-miterlimit="10"/><path d="M140.51 75.32h-9.27v9.27h9.27v-9.27zM149.78 75.32h-9.27v9.27h9.27v-9.27zM84.91 84.59h-9.27v9.27h9.27v-9.27z" stroke="#fff" stroke-width=".25" stroke-miterlimit="10"/><path d="M94.17 84.59H84.9v9.27h9.27v-9.27zM103.44 84.59h-9.27v9.27h9.27v-9.27zM112.71 84.59h-9.27v9.27h9.27v-9.27zM121.98 84.59h-9.27v9.27h9.27v-9.27zM131.25 84.59h-9.27v9.27h9.27v-9.27z" stroke="#fff" stroke-width=".25" stroke-miterlimit="10"/><path d="M140.51 84.59h-9.27v9.27h9.27v-9.27zM149.78 84.59h-9.27v9.27h9.27v-9.27zM84.91 93.86h-9.27v9.27h9.27v-9.27z" stroke="#fff" stroke-width=".25" stroke-miterlimit="10"/><path d="M94.17 93.86H84.9v9.27h9.27v-9.27zM103.44 93.86h-9.27v9.27h9.27v-9.27zM112.71 93.86h-9.27v9.27h9.27v-9.27zM121.98 93.86h-9.27v9.27h9.27v-9.27zM131.25 93.86h-9.27v9.27h9.27v-9.27z" stroke="#fff" stroke-width=".25" stroke-miterlimit="10"/><path d="M140.51 93.86h-9.27v9.27h9.27v-9.27zM149.78 93.86h-9.27v9.27h9.27v-9.27zM84.91 103.13h-9.27v9.27h9.27v-9.27z" stroke="#fff" stroke-width=".25" stroke-miterlimit="10"/><path d="M94.17 103.13H84.9v9.27h9.27v-9.27zM103.44 103.13h-9.27v9.27h9.27v-9.27zM112.71 103.13h-9.27v9.27h9.27v-9.27zM121.98 103.13h-9.27v9.27h9.27v-9.27zM131.25 103.13h-9.27v9.27h9.27v-9.27z" stroke="#fff" stroke-width=".25" stroke-miterlimit="10"/><path d="M140.51 103.13h-9.27v9.27h9.27v-9.27zM149.78 103.13h-9.27v9.27h9.27v-9.27zM84.91 112.47h-9.27v9.27h9.27v-9.27z" stroke="#fff" stroke-width=".25" stroke-miterlimit="10"/><path d="M94.17 112.47H84.9v9.27h9.27v-9.27zM103.44 112.47h-9.27v9.27h9.27v-9.27zM112.71 112.47h-9.27v9.27h9.27v-9.27zM121.98 112.47h-9.27v9.27h9.27v-9.27zM131.25 112.47h-9.27v9.27h9.27v-9.27z" stroke="#fff" stroke-width=".25" stroke-miterlimit="10"/><path d="M140.51 112.47h-9.27v9.27h9.27v-9.27zM149.78 112.47h-9.27v9.27h9.27v-9.27zM84.91 121.74h-9.27v9.27h9.27v-9.27z" stroke="#fff" stroke-width=".25" stroke-miterlimit="10"/><path d="M94.17 121.74H84.9v9.27h9.27v-9.27zM103.44 121.74h-9.27v9.27h9.27v-9.27zM112.71 121.74h-9.27v9.27h9.27v-9.27zM121.98 121.74h-9.27v9.27h9.27v-9.27zM131.25 121.74h-9.27v9.27h9.27v-9.27z" stroke="#fff" stroke-width=".25" stroke-miterlimit="10"/><path d="M140.51 121.74h-9.27v9.27h9.27v-9.27zM149.78 121.74h-9.27v9.27h9.27v-9.27zM84.91 131h-9.27v9.27h9.27V131z" stroke="#fff" stroke-width=".25" stroke-miterlimit="10"/><path d="M94.17 131H84.9v9.27h9.27V131zM103.44 131h-9.27v9.27h9.27V131zM112.71 131h-9.27v9.27h9.27V131zM121.98 131h-9.27v9.27h9.27V131zM131.25 131h-9.27v9.27h9.27V131z" stroke="#fff" stroke-width=".25" stroke-miterlimit="10"/><path d="M140.51 131h-9.27v9.27h9.27V131zM149.78 131h-9.27v9.27h9.27V131zM84.91 140.27h-9.27v9.27h9.27v-9.27z" stroke="#fff" stroke-width=".25" stroke-miterlimit="10"/><path d="M94.17 140.27H84.9v9.27h9.27v-9.27zM103.44 140.27h-9.27v9.27h9.27v-9.27zM112.71 140.27h-9.27v9.27h9.27v-9.27zM121.98 140.27h-9.27v9.27h9.27v-9.27zM131.25 140.27h-9.27v9.27h9.27v-9.27z" stroke="#fff" stroke-width=".25" stroke-miterlimit="10"/><path d="M140.51 140.27h-9.27v9.27h9.27v-9.27zM149.78 140.27h-9.27v9.27h9.27v-9.27zM10.48 149.54H1.21v9.27h9.27v-9.27zM19.75 149.54h-9.27v9.27h9.27v-9.27z" stroke="#fff" stroke-width=".25" stroke-miterlimit="10"/><path d="M29.01 149.54h-9.27v9.27h9.27v-9.27zM38.28 149.54h-9.27v9.27h9.27v-9.27zM47.55 149.54h-9.27v9.27h9.27v-9.27zM56.82 149.54h-9.27v9.27h9.27v-9.27z" stroke="#fff" stroke-width=".25" stroke-miterlimit="10"/><path d="M66.08 149.54h-9.27v9.27h9.27v-9.27zM75.35 149.54h-9.27v9.27h9.27v-9.27zM10.48 158.88H1.21v9.27h9.27v-9.27zM19.75 158.88h-9.27v9.27h9.27v-9.27z" stroke="#fff" stroke-width=".25" stroke-miterlimit="10"/><path d="M29.01 158.88h-9.27v9.27h9.27v-9.27zM38.28 158.88h-9.27v9.27h9.27v-9.27zM47.55 158.88h-9.27v9.27h9.27v-9.27zM56.82 158.88h-9.27v9.27h9.27v-9.27z" stroke="#fff" stroke-width=".25" stroke-miterlimit="10"/><path d="M66.08 158.88h-9.27v9.27h9.27v-9.27zM75.35 158.88h-9.27v9.27h9.27v-9.27zM10.48 168.15H1.21v9.27h9.27v-9.27zM19.75 168.15h-9.27v9.27h9.27v-9.27z" stroke="#fff" stroke-width=".25" stroke-miterlimit="10"/><path d="M29.01 168.15h-9.27v9.27h9.27v-9.27zM38.28 168.15h-9.27v9.27h9.27v-9.27zM47.55 168.15h-9.27v9.27h9.27v-9.27zM56.82 168.15h-9.27v9.27h9.27v-9.27z" stroke="#fff" stroke-width=".25" stroke-miterlimit="10"/><path d="M66.08 168.15h-9.27v9.27h9.27v-9.27zM75.35 168.15h-9.27v9.27h9.27v-9.27zM10.48 177.42H1.21v9.27h9.27v-9.27zM19.75 177.42h-9.27v9.27h9.27v-9.27z" stroke="#fff" stroke-width=".25" stroke-miterlimit="10"/><path d="M29.01 177.42h-9.27v9.27h9.27v-9.27zM38.28 177.42h-9.27v9.27h9.27v-9.27zM47.55 177.42h-9.27v9.27h9.27v-9.27zM56.82 177.42h-9.27v9.27h9.27v-9.27z" stroke="#fff" stroke-width=".25" stroke-miterlimit="10"/><path d="M66.08 177.42h-9.27v9.27h9.27v-9.27zM75.35 177.42h-9.27v9.27h9.27v-9.27zM10.48 186.68H1.21v9.27h9.27v-9.27zM19.75 186.68h-9.27v9.27h9.27v-9.27z" stroke="#fff" stroke-width=".25" stroke-miterlimit="10"/><path d="M29.01 186.68h-9.27v9.27h9.27v-9.27zM38.28 186.68h-9.27v9.27h9.27v-9.27zM47.55 186.68h-9.27v9.27h9.27v-9.27zM56.82 186.68h-9.27v9.27h9.27v-9.27z" stroke="#fff" stroke-width=".25" stroke-miterlimit="10"/><path d="M66.08 186.68h-9.27v9.27h9.27v-9.27zM75.35 186.68h-9.27v9.27h9.27v-9.27zM84.91 149.54h-9.27v9.27h9.27v-9.27z" stroke="#fff" stroke-width=".25" stroke-miterlimit="10"/><path d="M94.17 149.54H84.9v9.27h9.27v-9.27zM103.44 149.54h-9.27v9.27h9.27v-9.27zM112.71 149.54h-9.27v9.27h9.27v-9.27zM121.98 149.54h-9.27v9.27h9.27v-9.27zM131.25 149.54h-9.27v9.27h9.27v-9.27z" stroke="#fff" stroke-width=".25" stroke-miterlimit="10"/><path d="M140.51 149.54h-9.27v9.27h9.27v-9.27zM149.78 149.54h-9.27v9.27h9.27v-9.27zM84.91 158.88h-9.27v9.27h9.27v-9.27z" stroke="#fff" stroke-width=".25" stroke-miterlimit="10"/><path d="M94.17 158.88H84.9v9.27h9.27v-9.27zM103.44 158.88h-9.27v9.27h9.27v-9.27zM112.71 158.88h-9.27v9.27h9.27v-9.27zM121.98 158.88h-9.27v9.27h9.27v-9.27zM131.25 158.88h-9.27v9.27h9.27v-9.27z" stroke="#fff" stroke-width=".25" stroke-miterlimit="10"/><path d="M140.51 158.88h-9.27v9.27h9.27v-9.27zM149.78 158.88h-9.27v9.27h9.27v-9.27zM84.91 168.15h-9.27v9.27h9.27v-9.27z" stroke="#fff" stroke-width=".25" stroke-miterlimit="10"/><path d="M94.17 168.15H84.9v9.27h9.27v-9.27zM103.44 168.15h-9.27v9.27h9.27v-9.27zM112.71 168.15h-9.27v9.27h9.27v-9.27zM121.98 168.15h-9.27v9.27h9.27v-9.27zM131.25 168.15h-9.27v9.27h9.27v-9.27z" stroke="#fff" stroke-width=".25" stroke-miterlimit="10"/><path d="M140.51 168.15h-9.27v9.27h9.27v-9.27zM149.78 168.15h-9.27v9.27h9.27v-9.27zM84.91 177.42h-9.27v9.27h9.27v-9.27z" stroke="#fff" stroke-width=".25" stroke-miterlimit="10"/><path d="M94.17 177.42H84.9v9.27h9.27v-9.27zM103.44 177.42h-9.27v9.27h9.27v-9.27zM112.71 177.42h-9.27v9.27h9.27v-9.27zM121.98 177.42h-9.27v9.27h9.27v-9.27zM131.25 177.42h-9.27v9.27h9.27v-9.27z" stroke="#fff" stroke-width=".25" stroke-miterlimit="10"/><path d="M140.51 177.42h-9.27v9.27h9.27v-9.27zM149.78 177.42h-9.27v9.27h9.27v-9.27zM84.91 186.68h-9.27v9.27h9.27v-9.27z" stroke="#fff" stroke-width=".25" stroke-miterlimit="10"/><path d="M94.17 186.68H84.9v9.27h9.27v-9.27zM103.44 186.68h-9.27v9.27h9.27v-9.27zM112.71 186.68h-9.27v9.27h9.27v-9.27zM121.98 186.68h-9.27v9.27h9.27v-9.27zM131.25 186.68h-9.27v9.27h9.27v-9.27z" stroke="#fff" stroke-width=".25" stroke-miterlimit="10"/><path d="M140.51 186.68h-9.27v9.27h9.27v-9.27zM149.78 186.68h-9.27v9.27h9.27v-9.27z" stroke="#fff" stroke-width=".25" stroke-miterlimit="10"/></svg>