<svg width="262" height="348" fill="none" xmlns="http://www.w3.org/2000/svg"><g filter="url(#a)"><path d="M143.994 217.759c57.157 0 103.492-46.342 103.492-103.508 0-57.165-46.335-103.507-103.492-103.507-57.157 0-103.492 46.342-103.492 103.507 0 57.166 46.335 103.508 103.492 103.508z" fill="#fff" stroke="#989898" stroke-width="16" stroke-miterlimit="10"/><path d="m56.129 230.316-45.603 75.222c-5.54 9.139-2.624 21.039 6.513 26.58l9.53 5.779c9.137 5.541 21.035 2.625 26.575-6.514l45.603-75.222c5.54-9.138 2.624-21.038-6.513-26.579l-9.53-5.779c-9.137-5.541-21.035-2.625-26.575 6.513z" fill="#989898"/><path d="M87.611 202.439 53.886 258.07a7.741 7.741 0 0 0 2.605 10.632l8.073 4.896a7.738 7.738 0 0 0 10.63-2.606l33.726-55.63a7.74 7.74 0 0 0-2.605-10.632l-8.073-4.896a7.74 7.74 0 0 0-10.63 2.605z" fill="#989898"/><path d="m41.392 301.391 2.154 1.307L50.638 291l-2.154-1.307-7.093 11.698zm-6.149-9.903 1.053 2.013 3.508-5.787-1.363-1.501-3.198 5.275zm8.04 1.367 8.537 5.177c.267.162.266.302.092.589-.179.341-.8 1.367-1.439 2.327.864.103 2.056.405 2.803.746.934-1.539 1.552-2.652 1.622-3.648.116-1.024-.449-1.619-1.619-2.329l-8.578-5.202-1.418 2.34zm-9.28-2.793c1.063 2.273 1.587 5.622 1.153 8.699.635-.261 1.789-.543 2.431-.631.279-3.283-.284-7.077-1.526-10.075l-2.059 2.007zm11.372 12.398c1.413-.294 3.233-.426 4.285-.264l.022-2.766c-1.09-.1-2.878.163-4.25.482l-.057 2.548zm-8.358-8.297c1.27-.66 2.97-1.286 3.99-1.397l-.468-2.052c-1.046.152-2.708.856-3.917 1.554l.395 1.895zm.112 3.24c1.316-.549 3.067-1.031 4.117-1.096l-.266-2.154c-1.082.073-2.797.633-4.084 1.228l.233 2.022zm-.529 11.244 2.114 1.281 3.297-5.438-2.114-1.282-3.297 5.439zm-7.429-10.709 19.27 11.686 1.381-2.278-19.27-11.686-1.38 2.278zm8.934 10.218 1.17.709c1.477.896 4.037 2.645 5.15 4.836.55-.397 1.66-.931 2.265-1.097-1.26-2.644-4.336-4.791-6.04-5.824l-1.251-.759-1.294 2.135zm-.187-21.081.349.212c2.729 3.507 2.837 8.653 1.363 13.261.68-.15 1.816-.218 2.499-.141 1.432-5.279 1.342-10.778-2.156-15.286l-1.627 1.063-.167.46-.26.431zm-10.022 15.142 6.854 4.157 3.011-4.967-2.195-1.331-1.73 2.852-4.658-2.824-1.282 2.113zm25.938-21.349 2.154 1.307 7.092-11.698-2.154-1.307-7.093 11.698zm-6.149-9.903 1.053 2.013 3.508-5.787-1.363-1.501-3.198 5.275zm8.04 1.367 8.537 5.177c.267.162.266.302.092.589-.179.341-.8 1.367-1.439 2.327.864.103 2.056.405 2.804.746.933-1.539 1.551-2.652 1.622-3.648.115-1.024-.45-1.619-1.62-2.329l-8.578-5.202-1.418 2.34zm-9.28-2.793c1.063 2.273 1.587 5.622 1.153 8.699.635-.261 1.789-.543 2.431-.631.279-3.284-.284-7.077-1.526-10.076l-2.059 2.008zm11.372 12.398c1.413-.294 3.233-.426 4.285-.264l.022-2.766c-1.09-.1-2.878.163-4.25.482l-.057 2.548zm-8.358-8.297c1.27-.661 2.97-1.287 3.99-1.397l-.468-2.052c-1.046.151-2.708.856-3.917 1.554l.395 1.895zm.113 3.24c1.315-.549 3.066-1.031 4.116-1.096l-.266-2.154c-1.082.073-2.797.633-4.084 1.228l.234 2.022zm-.53 11.243 2.114 1.282 3.297-5.438-2.114-1.282-3.297 5.438zm-7.429-10.708 19.27 11.686 1.381-2.278-19.27-11.686-1.38 2.278zm8.934 10.217 1.17.71c1.477.896 4.037 2.645 5.15 4.836.55-.397 1.66-.931 2.265-1.097-1.26-2.644-4.336-4.791-6.04-5.824l-1.251-.759-1.294 2.134zm-.187-21.08.349.212c2.729 3.507 2.837 8.653 1.363 13.261.68-.15 1.816-.218 2.499-.141 1.432-5.279 1.342-10.778-2.156-15.286l-1.627 1.063-.167.46-.26.431zm-10.022 15.142 6.854 4.157 3.011-4.967-2.195-1.331-1.73 2.852-4.658-2.825-1.282 2.114zm25.1-27.189 12.005 7.28 1.506-2.484-12.005-7.28-1.506 2.484zm-.707 6.953 2.237 1.356 8-13.196-2.237-1.357-8 13.197zm6.05-7.756-.444 2.258c3.501.383 7.553-.051 10.399-1.273-.367-.784-.777-2.099-.913-2.939-2.525 1.388-6.122 2.182-9.043 1.954zm-2.176 3.172c1.617 2.609 2.576 6.306 2.368 9.38.796-.248 2.15-.493 2.982-.522-.07-3.355-1.419-7.288-3.504-10.377l-1.846 1.519zm-8.406-3.217 3.658-6.034 2.75 1.668-3.658 6.033-2.75-1.667zm-3.573 1.033 7.08 4.293 6.569-10.836-7.08-4.293-6.57 10.836zm-2.492 2.166c2.275 2.867 4.07 6.481 4.759 9.51.844-.05 2.609.094 3.308.238-.938-3.685-3.28-8.108-5.935-11.599l-2.132 1.851zm4.49 5.417 13.482 8.176 1.419-2.339-15.802-9.583-.033.008.934 3.738z" fill="#fff"/></g><defs><filter id="a" x="5.72" y=".744" width="255.766" height="345.96" filterUnits="userSpaceOnUse" color-interpolation-filters="sRGB"><feFlood flood-opacity="0" result="BackgroundImageFix"/><feColorMatrix in="SourceAlpha" values="0 0 0 0 0 0 0 0 0 0 0 0 0 0 0 0 0 0 127 0" result="hardAlpha"/><feOffset dx="2" dy="2"/><feGaussianBlur stdDeviation="2"/><feColorMatrix values="0 0 0 0 0.486275 0 0 0 0 0.392157 0 0 0 0 0 0 0 0 0.25 0"/><feBlend in2="BackgroundImageFix" result="effect1_dropShadow_221_21029"/><feBlend in="SourceGraphic" in2="effect1_dropShadow_221_21029" result="shape"/></filter></defs></svg>