<svg width="221" height="44" fill="none" xmlns="http://www.w3.org/2000/svg"><path d="M.221 43.84h-14.248L-44 0h14.272L.222 43.84zM22.236 43.84H7.988L-21.985 0h14.272l29.95 43.84zM44.252 43.84H29.98L.03 0h14.272l29.95 43.84zM66.267 43.84H51.995L22.045 0h14.249l29.973 43.84zM88.258 43.84H74.01L44.037 0H58.31l29.95 43.84zM110.274 43.84H96.026L66.053 0h14.272l29.949 43.84zM132.289 43.84h-14.272L88.067 0h14.273l29.949 43.84zM154.305 43.84h-14.272L110.083 0h14.249l29.973 43.84zM176.296 43.84h-14.248L132.075 0h14.272l29.949 43.84zM198.312 43.84H184.04L154.09 0h14.272l29.95 43.84zM220.327 43.84h-14.272L176.105 0h14.272l29.95 43.84z" fill="#989898"/></svg>