<svg width="145" height="144" viewBox="0 0 145 144" fill="none" xmlns="http://www.w3.org/2000/svg">
<path d="M2.50369 56.9371L7.95928 58.0967C7.88022 58.4393 7.8011 58.782 7.74839 59.1509L2.2665 58.0704C2.34557 57.7014 2.42462 57.3061 2.50369 56.9371ZM2.76726 55.8037C2.84633 55.4348 2.95176 55.0395 3.03083 54.6705L8.46004 56.0146C8.38097 56.3573 8.30192 56.6998 8.22285 57.0425L2.79356 55.8037H2.76726ZM2.05561 59.2036L7.56397 60.2051C7.51126 60.5478 7.43217 60.9167 7.37946 61.2593L1.87119 60.3369C1.9239 59.9679 2.0029 59.5726 2.05561 59.2036ZM3.3207 53.5372C3.42612 53.1682 3.53153 52.7992 3.63695 52.4303L9.01348 53.9325C8.90806 54.2752 8.82895 54.6178 8.72353 54.9604L3.3207 53.5372ZM1.68668 61.4702L7.22133 62.2872C7.16862 62.6299 7.11592 62.9988 7.06321 63.3414L1.52855 62.6035C1.58126 62.2345 1.63397 61.8392 1.68668 61.4702ZM3.95321 51.297C4.05863 50.928 4.16406 50.559 4.29584 50.19L9.61969 51.8768C9.51426 52.2194 9.40878 52.5621 9.30335 52.9047L3.95321 51.297ZM1.39673 63.7631L6.93138 64.3956C6.87867 64.7383 6.85229 65.1072 6.82594 65.4498L1.26498 64.8964C1.29134 64.5011 1.34402 64.1321 1.39673 63.7368V63.7631ZM4.66485 49.0831C4.79663 48.7142 4.90201 48.3452 5.03379 47.9762L10.3049 49.8211C10.1731 50.1637 10.0677 50.5063 9.96224 50.8489L4.66485 49.0831ZM1.18592 66.0824L6.74687 66.5304C6.72052 66.8994 6.69417 67.242 6.66781 67.611L1.10686 67.242C1.10686 66.8467 1.15956 66.4778 1.18592 66.0824ZM5.45548 46.8956C5.58726 46.5266 5.71905 46.1841 5.87718 45.8151L11.0692 47.8444C10.9374 48.1871 10.8056 48.5033 10.7002 48.846L5.45548 46.8956ZM1.05417 68.4016L6.64151 68.6652C6.64151 69.0342 6.6151 69.3768 6.58875 69.7458L1.00141 69.5613C1.00141 69.1659 1.02782 68.797 1.05417 68.4016ZM6.29888 44.7345C6.45701 44.3655 6.58874 44.0229 6.74687 43.6539L11.8862 45.8678C11.7544 46.184 11.6226 46.5267 11.4645 46.8429L6.29888 44.7345ZM0.975112 70.7209L6.56245 70.8264C6.56245 71.1953 6.56245 71.538 6.56245 71.9069H0.975112C0.975112 71.5116 0.975112 71.1426 0.975112 70.7473V70.7209ZM7.22133 42.5997C7.37947 42.2571 7.53758 41.8881 7.69571 41.5455L12.7559 43.9175C12.5978 44.2338 12.466 44.5764 12.3079 44.8926L7.22133 42.626V42.5997ZM0.975112 73.0402L6.56245 72.9611C6.56245 73.3038 6.56245 73.6727 6.56245 74.0154L0.975112 74.1999C0.975112 73.8045 0.975086 73.4355 0.94873 73.0402H0.975112ZM8.19647 40.4913C8.3546 40.1486 8.53904 39.8061 8.72353 39.4634L13.7047 41.9935C13.5466 42.3098 13.3885 42.626 13.2304 42.9423L8.22285 40.4913H8.19647ZM1.02779 75.3595L6.61513 75.0959C6.61513 75.4386 6.64146 75.8075 6.66781 76.1501L1.10686 76.5191C1.10686 76.1238 1.05417 75.7548 1.05417 75.3595H1.02779ZM9.22429 38.4355C9.40878 38.0929 9.59332 37.7503 9.77781 37.4077L14.6799 40.0959C14.5217 40.4122 14.3373 40.7285 14.1791 41.0448L9.25067 38.4355H9.22429ZM1.15954 77.6788L6.72057 77.2307C6.74693 77.5733 6.77323 77.9423 6.82594 78.2849L1.26498 78.812C1.23863 78.4167 1.18589 78.0477 1.15954 77.6524V77.6788ZM10.3313 36.4062C10.5157 36.0636 10.7266 35.7209 10.9111 35.4047L15.7078 38.251C15.5233 38.5673 15.3388 38.8572 15.1806 39.1735L10.3313 36.4062ZM1.39673 79.9981L6.95776 79.3919C6.98412 79.7345 7.0368 80.1035 7.08951 80.4461L1.55485 81.184C1.50214 80.7887 1.44946 80.4197 1.42311 80.0244L1.39673 79.9981ZM11.5173 34.4032C11.7281 34.0605 11.9389 33.7443 12.1234 33.4016L16.841 36.4062C16.6566 36.6961 16.4721 37.0124 16.2612 37.3023L11.4909 34.3768L11.5173 34.4032ZM1.68668 82.291L7.22133 81.474C7.27404 81.8166 7.32675 82.1856 7.37946 82.5282L1.87119 83.4242C1.81848 83.0289 1.73939 82.6599 1.68668 82.2646V82.291ZM12.7559 32.4265C12.9668 32.1102 13.1776 31.7676 13.4148 31.4514L18.027 34.6141C17.8161 34.904 17.6317 35.1939 17.4209 35.5101L12.7559 32.4265ZM2.05561 84.5839L7.53759 83.5824C7.5903 83.925 7.66933 84.294 7.74839 84.6366L2.2665 85.7172C2.18744 85.3482 2.13468 84.9792 2.05561 84.5839ZM14.0737 30.5026C14.2845 30.1863 14.5217 29.87 14.7589 29.5538L19.2657 32.8482C19.0549 33.1381 18.844 33.428 18.6332 33.7179L14.0737 30.4762V30.5026ZM2.50369 86.8504L7.95928 85.6908C8.03835 86.0334 8.1174 86.3761 8.19647 86.7187L2.76726 87.9838C2.68819 87.6148 2.60911 87.2194 2.50369 86.8504ZM15.4442 28.6313C15.6814 28.3151 15.9186 28.0251 16.1558 27.7089L20.5572 31.1615C20.3463 31.4514 20.1091 31.7149 19.8983 32.0048L15.4442 28.6313ZM3.00445 89.117L8.43366 87.7729C8.51273 88.1155 8.61816 88.4582 8.69723 88.8008L3.29432 90.2239C3.1889 89.8549 3.10987 89.486 3.00445 89.117ZM16.8674 26.8128C17.1046 26.5229 17.3418 26.2066 17.6054 25.9167L21.9012 29.5011C21.664 29.7646 21.4533 30.0545 21.2161 30.3444L16.8937 26.8128H16.8674ZM3.58427 91.3573L8.9608 89.8286C9.06622 90.1712 9.14525 90.5139 9.25067 90.8565L3.90052 92.4641C3.7951 92.0952 3.68969 91.7262 3.58427 91.3573ZM18.3433 25.0206C18.6069 24.7307 18.844 24.4409 19.1076 24.1509L23.2718 27.8671C23.0346 28.1306 22.7973 28.3942 22.5601 28.6841L18.3433 25.0206ZM4.24316 93.5711L9.56692 91.8843C9.67235 92.2269 9.77778 92.5696 9.90956 92.8858L4.61209 94.6517C4.48031 94.2827 4.37493 93.9137 4.24316 93.5447V93.5711ZM19.8983 23.3076C20.1618 23.0176 20.4254 22.7277 20.6889 22.4642L24.7213 26.312C24.4841 26.5756 24.2205 26.8392 23.9833 27.1027L19.8719 23.3076H19.8983ZM4.98111 95.7849L10.2522 93.9137C10.3576 94.2564 10.4893 94.5725 10.6211 94.9152L5.37642 96.8655C5.24464 96.4966 5.11288 96.1276 4.98111 95.7849ZM21.5059 21.6472C21.7695 21.3836 22.0594 21.0937 22.3229 20.8301L26.2236 24.8098C25.96 25.047 25.7228 25.3105 25.4592 25.5741L21.4796 21.6472H21.5059ZM5.79812 97.9724L10.9901 95.9431C11.1219 96.2857 11.2537 96.602 11.3855 96.9446L6.21981 99.053C6.06168 98.684 5.92989 98.3414 5.79812 97.9724ZM23.1663 20.0395C23.4562 19.776 23.7198 19.5124 24.0097 19.2488L27.7785 23.3602C27.515 23.5974 27.2515 23.8346 26.9879 24.0982L23.1399 20.0395H23.1663ZM6.66781 100.134L11.8071 97.9197C11.9389 98.236 12.0971 98.5786 12.2288 98.8949L7.14227 101.188C6.98414 100.845 6.82594 100.476 6.66781 100.134ZM24.8794 18.4582C25.1693 18.1946 25.4593 17.9574 25.7492 17.6938L29.3862 21.9107C29.1227 22.1479 28.8327 22.3851 28.5692 22.6223L24.8531 18.4582H24.8794ZM7.61665 102.242L12.6768 99.87C12.835 100.186 12.9668 100.503 13.1249 100.819L8.11741 103.27C7.95928 102.927 7.77478 102.585 7.61665 102.216V102.242ZM26.6189 16.9559C26.9088 16.7187 27.225 16.4551 27.515 16.2179L31.0203 20.5666C30.7567 20.7774 30.4668 21.0146 30.2033 21.2518L26.6189 16.9559ZM28.4374 15.5064C28.7537 15.2692 29.0436 15.0319 29.3599 14.7947L32.7334 19.2488C32.4434 19.4596 32.1535 19.6968 31.89 19.9077L28.4638 15.5064H28.4374ZM30.2823 14.1095C30.5986 13.8723 30.9148 13.6615 31.2311 13.4243L34.4464 17.9838C34.1565 18.1946 33.8667 18.4055 33.5768 18.6163L30.2823 14.1095ZM32.1799 12.7654C32.4962 12.5545 32.8124 12.3437 33.1551 12.1329L36.2386 16.7978C35.9487 16.9823 35.6324 17.1931 35.3425 17.404L32.2062 12.7918L32.1799 12.7654ZM34.1302 11.5003C34.4465 11.2895 34.7891 11.0787 35.1053 10.8942L38.0308 15.6381C37.7146 15.8226 37.4246 16.0071 37.1084 16.2179L34.1038 11.5003H34.1302ZM36.1068 10.288C36.4495 10.0771 36.7657 9.89264 37.1084 9.70815L39.8757 14.5575C39.5594 14.742 39.2695 14.9002 38.9532 15.0847L36.1068 10.288ZM38.1362 9.12833C38.4788 8.94384 38.8215 8.75938 39.1641 8.57489L41.7733 13.5033C41.457 13.6615 41.1408 13.846 40.8245 14.0041L38.1362 9.10195V9.12833ZM40.1919 8.04775C40.5345 7.86326 40.8772 7.70518 41.2198 7.52069L43.6708 12.5282C43.3546 12.6863 43.0383 12.8444 42.7221 13.0026L40.1919 8.02137V8.04775ZM42.274 7.01993C42.6166 6.8618 42.9592 6.7036 43.3282 6.54547L45.6211 11.6321C45.3049 11.7903 44.9622 11.922 44.646 12.0801L42.274 7.01993ZM44.3824 6.07109C44.725 5.91296 45.0941 5.78123 45.4367 5.6231L47.5451 10.7887C47.2025 10.9205 46.8862 11.0523 46.5436 11.2104L44.3561 6.07109H44.3824ZM46.5173 5.2014C46.8862 5.06962 47.2288 4.91148 47.5978 4.7797L49.5481 10.0244C49.2055 10.1562 48.8892 10.288 48.5466 10.3934L46.5173 5.2014ZM48.6784 4.38439C49.0473 4.25261 49.4163 4.12079 49.7853 4.01537L51.5511 9.31284C51.2085 9.41826 50.8923 9.55005 50.5496 9.65547L48.6784 4.38439ZM50.8659 3.64644C51.2349 3.54102 51.6038 3.40923 51.9728 3.30381L53.5805 8.65395C53.2379 8.75937 52.8952 8.86478 52.5526 8.9702L50.8659 3.64644ZM53.0797 2.98755C53.4487 2.88213 53.8177 2.77664 54.1866 2.67122L55.6362 8.07413C55.2936 8.17955 54.9509 8.25858 54.6083 8.364L53.0797 2.98755ZM55.32 2.38135C55.6889 2.27593 56.0579 2.19685 56.4532 2.11778L57.7183 7.54699C57.3757 7.62606 57.033 7.70511 56.6904 7.78418L55.3463 2.35497L55.32 2.38135ZM57.5601 1.85421C57.9291 1.77514 58.3245 1.69609 58.6935 1.61702L59.774 7.09899C59.4314 7.17806 59.0887 7.23073 58.7198 7.3098L57.5601 1.85421ZM59.8267 1.40621C60.1957 1.32715 60.591 1.27439 60.96 1.19532L61.8561 6.7036C61.5134 6.75631 61.1445 6.80904 60.8019 6.8881L59.8003 1.40621H59.8267ZM33.0496 131.76L36.1332 127.095C36.4231 127.28 36.713 127.491 37.0293 127.675L34.0247 132.393C33.6821 132.182 33.3659 131.971 33.0496 131.76ZM62.1196 1.0372C62.515 0.984487 62.8839 0.931783 63.2793 0.879072L64.0172 6.41373C63.6746 6.46644 63.3056 6.51914 62.963 6.57185L62.146 1.0372H62.1196ZM35.0263 133.025L37.9518 128.281C38.2417 128.466 38.5579 128.65 38.8741 128.835L36.0278 133.631C35.6852 133.42 35.3689 133.236 35.0263 133.025ZM64.4389 0.747327C64.8079 0.694617 65.2032 0.668213 65.5722 0.615502L66.1256 6.17654C65.7567 6.20289 65.4141 6.25563 65.0451 6.28198L64.4125 0.720946L64.4389 0.747327ZM37.0293 134.211L39.823 129.362C40.1392 129.546 40.4292 129.704 40.7454 129.889L38.0571 134.791C37.7145 134.606 37.3719 134.422 37.0293 134.211ZM66.7318 0.510138C67.1272 0.483783 67.4961 0.457431 67.8915 0.431075L68.2605 5.99203C67.8915 5.99203 67.5489 6.04474 67.1799 6.07109L66.7318 0.510138ZM39.0586 135.318L41.6678 130.39C41.9841 130.548 42.3004 130.706 42.6166 130.89L40.0865 135.872C39.7439 135.687 39.4013 135.529 39.0586 135.344V135.318ZM69.0511 0.352012C69.4465 0.352012 69.8154 0.325605 70.2108 0.29925L70.3689 5.88658C70.0263 5.88658 69.6573 5.88664 69.3147 5.93935L69.0511 0.352012ZM41.1407 136.372L43.5918 131.365C43.908 131.523 44.2243 131.681 44.5406 131.813L42.1949 136.873C41.8523 136.715 41.4834 136.53 41.1407 136.372ZM71.3704 0.272949C71.7657 0.272949 72.1347 0.272949 72.5301 0.272949V5.86028C72.1874 5.86028 71.8185 5.86028 71.4495 5.86028L71.3704 0.272949ZM43.2491 137.347L45.5421 132.261C45.8583 132.419 46.201 132.551 46.5173 132.683L44.3033 137.822C43.9607 137.664 43.5918 137.506 43.2491 137.347ZM73.6897 0.272949C74.085 0.272949 74.454 0.272895 74.8493 0.29925L74.6648 5.88658C74.2959 5.88658 73.9532 5.88664 73.5843 5.86028L73.6633 0.272949H73.6897ZM45.3839 138.27L47.4924 133.104C47.835 133.236 48.1513 133.368 48.4939 133.5L46.4645 138.692C46.0955 138.56 45.7529 138.402 45.3839 138.27ZM76.0089 0.352012C76.4042 0.352012 76.7732 0.40472 77.1686 0.431075L76.7996 5.99203C76.4306 5.99203 76.088 5.93935 75.7454 5.93935L76.0089 0.352012ZM47.5451 139.113L49.4954 133.868C49.838 134 50.1543 134.106 50.4969 134.237L48.6257 139.509C48.2567 139.377 47.8877 139.245 47.5451 139.113ZM78.3282 0.510138C78.7235 0.536494 79.0925 0.562791 79.4878 0.615502L78.9344 6.17654C78.5918 6.15018 78.2228 6.09745 77.8802 6.07109L78.3282 0.510138ZM49.7326 139.878L51.4984 134.58C51.841 134.686 52.1837 134.791 52.5263 134.923L50.8395 140.247C50.4705 140.141 50.1016 140.009 49.7326 139.878ZM80.6475 0.720946C81.0428 0.773657 81.4118 0.800061 81.8071 0.852772L81.0692 6.38734C80.7266 6.33463 80.3576 6.30831 80.015 6.2556L80.6475 0.720946ZM51.9465 140.563L53.5541 135.213C53.8967 135.318 54.2394 135.424 54.582 135.503L53.0534 140.879C52.6844 140.774 52.3155 140.668 51.9465 140.563ZM82.9404 1.0109C83.3094 1.06361 83.7048 1.11626 84.0737 1.19532L83.1776 6.7036C82.835 6.65089 82.466 6.59818 82.1234 6.54547L82.9404 1.0109ZM54.1866 141.195L55.6098 135.792C55.9525 135.872 56.2951 135.977 56.664 136.056L55.32 141.485C54.951 141.38 54.582 141.301 54.213 141.195H54.1866ZM85.2333 1.37983C85.6023 1.4589 85.9977 1.51165 86.3667 1.59072L85.2861 7.07261C84.9435 6.99354 84.5745 6.94087 84.2319 6.8618L85.2333 1.37983ZM56.4269 141.749L57.6656 136.32C58.0082 136.399 58.3508 136.478 58.7198 136.557H58.8779L57.7183 142.065H57.5601C57.1911 141.96 56.7958 141.854 56.4269 141.775V141.749ZM87.4999 1.82791H87.579C87.9216 1.93333 88.2642 1.98603 88.6332 2.0651L87.3945 7.49431C87.0782 7.41524 86.762 7.36248 86.4193 7.28342L87.4999 1.80153V1.82791ZM59.9322 136.794C60.2748 136.873 60.6174 136.926 60.9864 136.978L60.0112 142.487C59.6423 142.408 59.2469 142.355 58.8779 142.276L59.9585 136.794H59.9322ZM88.4224 7.78418L89.7664 2.35497C90.1354 2.46039 90.5308 2.5395 90.8998 2.64492L89.4766 8.04775C89.134 7.96868 88.7913 7.86324 88.4487 7.78418H88.4224ZM62.0406 137.163C62.3832 137.216 62.7522 137.268 63.0948 137.321L62.3041 142.856C61.9088 142.803 61.5398 142.75 61.1445 142.671L62.0406 137.163ZM90.4781 8.31132L91.9804 2.93479C92.3493 3.04021 92.7183 3.14562 93.0872 3.25104L91.5059 8.60119C91.1633 8.49577 90.8207 8.39038 90.4781 8.31132ZM64.149 137.453C64.4916 137.506 64.8606 137.532 65.2033 137.585L64.5707 143.119C64.1753 143.067 63.8064 143.04 63.411 142.988L64.1227 137.453H64.149ZM92.5338 8.91752L94.2205 3.59368C94.5895 3.6991 94.9585 3.83091 95.3275 3.96269L93.5616 9.26007C93.219 9.15465 92.8764 9.0493 92.5338 8.91752ZM66.2838 137.69C66.6528 137.716 66.9954 137.743 67.3643 137.795L66.9163 143.356C66.521 143.33 66.152 143.304 65.7567 143.251L66.2838 137.69ZM94.5631 9.57641L96.4081 4.30532C96.777 4.4371 97.146 4.56886 97.5149 4.70064L95.5647 9.94534C95.222 9.81356 94.9058 9.70818 94.5631 9.57641ZM68.3922 137.848C68.7612 137.848 69.1038 137.901 69.4728 137.901L69.2093 143.488C68.8139 143.488 68.4449 143.436 68.0496 143.436L68.3922 137.875V137.848ZM96.5662 10.3144L98.5955 5.09595C98.9645 5.22773 99.3071 5.38587 99.6761 5.51765L97.5677 10.6833C97.2514 10.5515 96.9088 10.4198 96.5662 10.288V10.3144ZM70.5534 137.954C70.9224 137.954 71.265 137.954 71.634 137.954L71.5549 143.541C71.1596 143.541 70.7906 143.541 70.3953 143.515L70.5797 137.927L70.5534 137.954ZM98.5692 11.1314L100.757 5.99203C101.126 6.15016 101.468 6.30827 101.811 6.46641L99.5444 11.5531C99.2281 11.4213 98.8855 11.2631 98.5692 11.1314ZM72.6882 138.006C73.0572 138.006 73.3998 138.006 73.7688 138.006L73.8741 143.594C73.4788 143.594 73.1098 143.594 72.7145 143.594V138.006H72.6882ZM100.493 12.0011L102.839 6.94087C103.181 7.099 103.55 7.28349 103.893 7.44163L101.442 12.4491C101.126 12.291 100.809 12.1328 100.467 12.0011H100.493ZM74.823 137.954C75.1656 137.954 75.5345 137.954 75.8772 137.901L76.1671 143.488C75.7718 143.488 75.4028 143.515 75.0075 143.541L74.823 137.954ZM102.417 12.9235L104.921 7.9423C105.263 8.12679 105.606 8.28496 105.949 8.46944L103.34 13.3979C103.023 13.2398 102.707 13.0816 102.391 12.8971L102.417 12.9235ZM76.9577 137.848C77.3267 137.848 77.6694 137.795 78.0383 137.769L78.4863 143.33C78.091 143.356 77.722 143.383 77.3267 143.409L76.9577 137.848ZM104.315 13.925L107.003 9.02289C107.346 9.20737 107.688 9.39192 108.004 9.57641L105.237 14.4258C104.921 14.2413 104.605 14.0831 104.315 13.8987V13.925ZM79.0925 137.664C79.4352 137.637 79.8041 137.585 80.1467 137.558L80.7793 143.119C80.384 143.172 80.015 143.198 79.6197 143.251L79.0925 137.69V137.664ZM106.186 14.9792L109.032 10.1825C109.375 10.3934 109.691 10.5779 110.034 10.7887L107.108 15.5591C106.818 15.3746 106.502 15.1901 106.186 15.0056V14.9792ZM81.2273 137.426C81.5699 137.374 81.9389 137.321 82.2815 137.268L83.0985 142.803C82.7032 142.856 82.3342 142.908 81.9389 142.961L81.2273 137.426ZM108.031 16.1125L111.035 11.3949C111.352 11.6058 111.694 11.8166 112.01 12.0274L108.927 16.6923C108.637 16.5078 108.321 16.297 108.031 16.1125ZM83.3358 137.11C83.6784 137.058 84.0474 136.978 84.39 136.926L85.3915 142.408C85.0225 142.487 84.6272 142.539 84.2582 142.618L83.3358 137.11ZM109.823 17.2721L112.959 12.6599C113.276 12.8708 113.592 13.108 113.908 13.3188L110.693 17.8783C110.403 17.6675 110.113 17.4566 109.823 17.2721ZM85.4442 136.715C85.7868 136.636 86.1294 136.583 86.4984 136.504L87.6844 141.96C87.3154 142.039 86.9201 142.118 86.5511 142.197L85.4442 136.715ZM111.562 18.5109L114.857 14.0041C115.173 14.2413 115.489 14.4785 115.806 14.6894L112.432 19.1434C112.142 18.9325 111.852 18.7217 111.589 18.5109H111.562ZM87.5263 136.267C87.8689 136.188 88.2115 136.109 88.5541 136.003L89.9247 141.406C89.5557 141.512 89.1866 141.591 88.7913 141.67L87.5263 136.241V136.267ZM113.276 19.8022L116.728 15.4009C117.044 15.6381 117.334 15.8753 117.651 16.1389L114.145 20.4875C113.855 20.2503 113.592 20.0395 113.302 19.8286L113.276 19.8022ZM89.582 135.74C89.9246 135.661 90.2672 135.555 90.6098 135.45L92.1385 140.826C91.7695 140.932 91.4005 141.037 91.0315 141.143L89.582 135.74ZM114.936 21.1464L118.52 16.8768C118.81 17.114 119.1 17.3776 119.416 17.6412L115.753 21.858C115.489 21.6208 115.199 21.3836 114.936 21.1728V21.1464ZM91.6377 135.16C91.9804 135.055 92.3229 134.949 92.6656 134.844L94.3523 140.167C93.9834 140.273 93.6144 140.405 93.2454 140.51L91.6377 135.16ZM116.57 22.5696L120.286 18.4054C120.576 18.669 120.866 18.9326 121.156 19.1961L117.361 23.2812C117.097 23.044 116.833 22.8068 116.57 22.5696ZM93.6935 134.527C94.0361 134.422 94.3524 134.29 94.695 134.185L96.5662 139.43C96.1972 139.561 95.8282 139.693 95.4592 139.798L93.6671 134.501L93.6935 134.527ZM118.151 24.0191L121.999 19.9867C122.289 20.2503 122.553 20.5138 122.843 20.8038L118.916 24.7835C118.652 24.5463 118.415 24.2827 118.151 24.0455V24.0191ZM95.6964 133.789C96.039 133.658 96.3553 133.552 96.6979 133.42L98.7537 138.612C98.3847 138.744 98.042 138.902 97.6731 139.034L95.7228 133.789H95.6964ZM119.68 25.5214L123.66 21.6208C123.923 21.8843 124.187 22.1743 124.477 22.4642L120.444 26.312C120.207 26.0485 119.943 25.785 119.706 25.5478L119.68 25.5214ZM97.6995 133.025C98.0157 132.893 98.3583 132.762 98.6746 132.603L100.888 137.743C100.519 137.901 100.177 138.059 99.8079 138.191L97.6995 133.025ZM121.156 27.0764L125.267 23.2812C125.531 23.5711 125.794 23.861 126.058 24.1509L121.894 27.8671C121.657 27.6035 121.419 27.3399 121.182 27.0764H121.156ZM99.6497 132.182C99.966 132.024 100.309 131.892 100.625 131.734L102.997 136.794C102.654 136.952 102.285 137.11 101.943 137.268L99.6497 132.182ZM122.579 28.6841L126.796 25.047C127.059 25.3369 127.297 25.6268 127.534 25.9167L123.264 29.5011C123.027 29.2375 122.79 28.9476 122.579 28.6841ZM101.6 131.286C101.916 131.128 102.233 130.969 102.549 130.811L105.079 135.792C104.736 135.977 104.394 136.135 104.025 136.32L101.574 131.312L101.6 131.286ZM123.976 30.3444L128.324 26.8392C128.562 27.1291 128.799 27.4453 129.036 27.7352L124.635 31.1878C124.424 30.8979 124.187 30.6343 123.976 30.3444ZM103.524 130.337C103.84 130.179 104.157 129.994 104.473 129.836L107.161 134.738C106.818 134.923 106.476 135.107 106.133 135.292L103.524 130.363V130.337ZM125.294 32.0312L129.748 28.6577C129.985 28.974 130.196 29.2639 130.433 29.5802L125.926 32.8746C125.715 32.5847 125.504 32.2947 125.294 32.0048V32.0312ZM105.395 129.283C105.712 129.098 106.028 128.914 106.318 128.729L109.164 133.526C108.821 133.71 108.505 133.921 108.163 134.106L105.395 129.256V129.283ZM126.559 33.7443L131.118 30.5289C131.355 30.8452 131.566 31.1615 131.777 31.4778L127.165 34.6141C126.954 34.3241 126.77 34.0342 126.559 33.7443ZM107.214 128.176C107.53 127.991 107.82 127.807 108.11 127.622L111.114 132.34C110.798 132.551 110.455 132.762 110.139 132.946L107.214 128.202V128.176ZM127.745 35.5101L132.41 32.4265C132.62 32.7428 132.831 33.0854 133.042 33.4016L128.324 36.4062C128.14 36.1163 127.929 35.8 127.745 35.5101ZM109.006 127.042C109.296 126.858 109.612 126.647 109.902 126.436L113.065 131.049C112.748 131.259 112.432 131.47 112.116 131.681L109.032 127.016L109.006 127.042ZM128.904 37.3287L133.675 34.4032C133.885 34.7194 134.07 35.062 134.281 35.3783L129.484 38.2247C129.3 37.9085 129.115 37.6185 128.931 37.3023L128.904 37.3287ZM110.798 125.83C111.088 125.619 111.378 125.408 111.668 125.198L114.962 129.704C114.646 129.942 114.33 130.152 114.013 130.39L110.798 125.83ZM130.011 39.1472L134.861 36.3798C135.045 36.7224 135.23 37.0387 135.414 37.3813L130.512 40.0696C130.327 39.7533 130.169 39.4371 129.985 39.1472H130.011ZM112.538 124.565C112.827 124.354 113.091 124.143 113.381 123.906L116.834 128.308C116.517 128.545 116.227 128.782 115.911 129.019L112.538 124.565ZM131.065 41.0184L135.994 38.4092C136.178 38.7519 136.363 39.0944 136.521 39.4371L131.54 41.9672C131.382 41.6509 131.224 41.3347 131.039 41.0184H131.065ZM114.251 123.221C114.541 123.01 114.804 122.773 115.068 122.536L118.652 126.805C118.362 127.042 118.046 127.306 117.756 127.543L114.251 123.195V123.221ZM132.041 42.916L137.048 40.465C137.206 40.8076 137.391 41.1502 137.549 41.5192L132.489 43.8911C132.331 43.5749 132.172 43.2586 132.014 42.916H132.041ZM115.885 121.85C116.148 121.613 116.412 121.376 116.675 121.139L120.392 125.303C120.102 125.567 119.812 125.83 119.522 126.067L115.885 121.824V121.85ZM132.937 44.8663L138.023 42.5734C138.181 42.916 138.34 43.2849 138.498 43.6276L133.385 45.8414C133.253 45.4988 133.095 45.1825 132.963 44.8663H132.937ZM117.466 120.454C117.73 120.216 117.993 119.979 118.257 119.716L122.105 123.748C121.815 124.012 121.551 124.275 121.261 124.539L117.466 120.427V120.454ZM133.78 46.8429L138.946 44.7345C139.104 45.1035 139.236 45.4461 139.367 45.8151L134.175 47.8444C134.044 47.5018 133.912 47.1855 133.78 46.8429ZM119.021 118.978C119.285 118.74 119.522 118.477 119.785 118.213L123.765 122.14C123.501 122.43 123.212 122.694 122.948 122.957L119.047 118.978H119.021ZM134.544 48.846L139.763 46.8956C139.894 47.2646 140.026 47.6336 140.158 47.9762L134.887 49.8475C134.782 49.5049 134.65 49.1886 134.518 48.846H134.544ZM120.523 117.475C120.76 117.212 121.024 116.948 121.261 116.685L125.373 120.48C125.109 120.77 124.846 121.033 124.582 121.323L120.523 117.475ZM135.282 50.8753L140.58 49.0831C140.711 49.4521 140.817 49.8211 140.949 50.19L135.625 51.8768C135.52 51.5342 135.414 51.1916 135.282 50.8753ZM121.999 115.894C122.236 115.631 122.474 115.367 122.711 115.077L126.928 118.714C126.664 119.004 126.427 119.294 126.163 119.584L121.999 115.868V115.894ZM135.941 52.9047L141.291 51.297C141.397 51.666 141.502 52.035 141.608 52.404L136.231 53.9325C136.126 53.5899 136.047 53.2473 135.941 52.9047ZM123.396 114.286C123.633 114.023 123.844 113.733 124.081 113.469L128.43 116.975C128.193 117.265 127.929 117.581 127.692 117.871L123.396 114.286ZM136.521 54.9604L141.924 53.5372C142.029 53.9062 142.108 54.2751 142.214 54.6441L136.811 56.0146C136.732 55.672 136.626 55.3294 136.547 54.9867L136.521 54.9604ZM124.74 112.626C124.951 112.336 125.188 112.073 125.399 111.783L129.853 115.13C129.616 115.446 129.379 115.736 129.141 116.052L124.74 112.626ZM137.048 57.0425L142.477 55.7774C142.556 56.1464 142.635 56.5154 142.741 56.9107L137.285 58.0967C137.206 57.754 137.127 57.4114 137.048 57.0425ZM126.058 110.913C126.269 110.623 126.48 110.333 126.69 110.043L131.25 113.259C131.013 113.575 130.802 113.891 130.565 114.207L126.058 110.913ZM137.496 59.1246L142.978 58.044C143.057 58.4129 143.136 58.8083 143.189 59.1772L137.707 60.1788C137.654 59.8361 137.575 59.4672 137.496 59.1246ZM127.297 109.173C127.507 108.884 127.692 108.594 127.903 108.277L132.568 111.335C132.357 111.651 132.146 111.993 131.909 112.31L127.297 109.173ZM137.891 61.233L143.4 60.3106C143.452 60.6796 143.532 61.0749 143.584 61.4702L138.05 62.2872C137.997 61.9446 137.944 61.5756 137.891 61.233ZM128.483 107.381C128.667 107.091 128.852 106.775 129.062 106.459L133.833 109.384C133.622 109.727 133.411 110.043 133.227 110.386L128.509 107.381H128.483ZM138.208 63.3414L143.742 62.6035C143.795 62.9988 143.848 63.3678 143.874 63.7631L138.313 64.3956C138.287 64.053 138.234 63.6841 138.181 63.3414H138.208ZM129.59 105.536C129.774 105.22 129.959 104.904 130.117 104.614L134.966 107.381C134.782 107.724 134.571 108.067 134.386 108.383L129.563 105.563L129.59 105.536ZM138.445 65.4498L144.006 64.8964C144.059 65.2917 144.085 65.6607 144.111 66.056L138.55 66.504C138.524 66.1614 138.498 65.7925 138.445 65.4498ZM130.644 103.665C130.802 103.349 130.986 103.033 131.144 102.716L136.099 105.326C135.915 105.668 135.73 106.011 135.546 106.353L130.644 103.665ZM138.603 67.5846L144.164 67.2157C144.164 67.611 144.217 67.98 144.217 68.3753L138.629 68.6652C138.629 68.2962 138.603 67.9536 138.577 67.5846H138.603ZM131.619 101.768C131.777 101.451 131.935 101.135 132.093 100.792L137.127 103.217C136.969 103.56 136.785 103.902 136.626 104.245L131.645 101.741L131.619 101.768ZM138.708 69.7194L144.296 69.535C144.296 69.9303 144.296 70.2993 144.322 70.6946L138.735 70.7737C138.735 70.4047 138.735 70.0621 138.735 69.6931L138.708 69.7194ZM132.568 99.8437C132.726 99.5274 132.858 99.2111 133.016 98.8685L138.129 101.135C137.971 101.504 137.812 101.847 137.654 102.189L132.594 99.8437H132.568ZM138.735 71.8542H144.322C144.322 72.2495 144.322 72.6185 144.322 73.0138L138.735 72.9348C138.735 72.5658 138.735 72.2232 138.735 71.8542ZM133.437 97.8933C133.569 97.5771 133.701 97.2345 133.859 96.9182L139.025 99.0267C138.867 99.3957 138.735 99.7382 138.577 100.107L133.437 97.9197V97.8933ZM138.708 74.0154L144.296 74.1999C144.296 74.5952 144.269 74.9642 144.243 75.3595L138.656 75.0959C138.656 74.7533 138.682 74.3843 138.708 74.0417V74.0154ZM134.254 95.9167C134.386 95.5741 134.518 95.2578 134.623 94.9152L139.868 96.8391C139.736 97.2081 139.605 97.5771 139.446 97.9197L134.254 95.8904V95.9167ZM138.629 76.1501L144.19 76.4928C144.19 76.8881 144.138 77.2571 144.111 77.6524L138.55 77.2043C138.577 76.8617 138.603 76.4928 138.629 76.1501ZM134.992 93.9137C135.124 93.5711 135.23 93.2285 135.335 92.8858L140.632 94.6517C140.501 95.0207 140.395 95.3896 140.263 95.7586L134.992 93.9137ZM138.445 78.2849L144.006 78.812C143.98 79.2074 143.927 79.5764 143.874 79.9717L138.34 79.3392C138.392 78.9966 138.419 78.6275 138.445 78.2849ZM135.678 91.8843C135.783 91.5417 135.888 91.1991 135.994 90.8565L141.344 92.4641C141.239 92.8331 141.133 93.2021 141.001 93.5711L135.678 91.8843ZM138.208 80.3934L143.742 81.105C143.69 81.5003 143.637 81.8693 143.584 82.2646L138.05 81.4476C138.102 81.105 138.155 80.736 138.208 80.3934ZM136.284 89.8286C136.389 89.486 136.468 89.1434 136.574 88.8008L141.977 90.2239C141.871 90.5929 141.766 90.9619 141.687 91.3309L136.31 89.8286H136.284ZM137.891 82.5282L143.4 83.4242C143.347 83.7932 143.268 84.1885 143.215 84.5575L137.707 83.5824C137.76 83.2398 137.839 82.8708 137.891 82.5282ZM136.811 87.7729C136.89 87.4303 136.969 87.0877 137.048 86.7187L142.477 87.9574C142.398 88.3264 142.293 88.6953 142.214 89.0906L136.785 87.7729H136.811ZM137.496 84.6366L142.978 85.7172C142.899 86.0861 142.82 86.4814 142.741 86.8504L137.285 85.6908C137.364 85.3482 137.443 84.9792 137.496 84.6366Z" fill="#989898"/>
</svg>
