<svg width="145" height="144" fill="none" xmlns="http://www.w3.org/2000/svg"><path d="m2.504 56.937 5.455 1.16c-.079.342-.158.685-.21 1.054l-5.482-1.08c.079-.37.158-.765.237-1.134zm.263-1.133c.08-.37.185-.765.264-1.134l5.429 1.345-.237 1.027-5.43-1.238h-.026zm-.711 3.4 5.508 1.001c-.053.343-.132.712-.185 1.054l-5.508-.922c.053-.37.132-.764.185-1.133zm1.265-5.667.316-1.107 5.376 1.502c-.105.343-.184.686-.29 1.028l-5.402-1.423zM1.687 61.47l5.534.817c-.052.343-.105.712-.158 1.054l-5.534-.738c.052-.369.105-.764.158-1.133zm2.266-10.173c.106-.369.211-.738.343-1.107l5.324 1.687-.317 1.028-5.35-1.608zM1.397 63.763l5.534.633c-.052.342-.079.711-.105 1.054l-5.561-.554c.026-.395.079-.764.132-1.16v.027zm3.268-14.68c.132-.369.237-.738.369-1.107l5.27 1.845c-.13.343-.236.685-.342 1.028l-5.297-1.766zm-3.48 17 5.562.447c-.026.37-.053.712-.08 1.081l-5.56-.369c0-.395.053-.764.079-1.16zm4.27-19.187c.132-.37.264-.712.422-1.08l5.192 2.028c-.132.343-.263.66-.369 1.002l-5.245-1.95zm-4.4 21.506 5.587.263c0 .37-.027.712-.053 1.08L1 69.562c0-.395.027-.764.053-1.16zm5.244-23.668c.158-.369.29-.711.448-1.08l5.14 2.214c-.133.316-.264.659-.423.975L6.3 44.734zM.975 70.721l5.587.105v1.08H.975v-1.185zM7.221 42.6c.158-.343.317-.712.475-1.055l5.06 2.372c-.158.317-.29.66-.448.976L7.22 42.626V42.6zM.975 73.04l5.587-.079v1.054L.975 74.2c0-.395 0-.764-.026-1.16h.026zm7.221-32.549c.159-.342.343-.685.528-1.028l4.98 2.53c-.157.317-.316.633-.474.95L8.223 40.49h-.027zM1.028 75.36l5.587-.263c0 .343.026.712.053 1.054l-5.561.37c0-.396-.053-.765-.053-1.16h-.026zm8.196-36.923.554-1.028 4.902 2.688c-.158.316-.343.633-.5.949l-4.93-2.61h-.026zM1.16 77.678l5.56-.448c.027.342.053.711.106 1.054l-5.561.527c-.026-.395-.08-.764-.105-1.16v.027zm9.171-41.273c.185-.342.396-.685.58-1.001l4.797 2.846c-.185.316-.37.606-.527.922l-4.85-2.767zM1.397 79.998l5.56-.606c.027.343.08.712.133 1.054l-5.535.738c-.053-.395-.106-.764-.132-1.16l-.026-.026zm10.12-45.595c.211-.343.422-.659.606-1.001l4.718 3.004c-.184.29-.369.606-.58.896l-4.77-2.925.026.026zm-9.83 47.888 5.534-.817c.053.343.106.712.158 1.054l-5.508.896c-.053-.395-.132-.764-.184-1.16v.027zm11.069-49.864c.21-.317.422-.66.659-.976l4.612 3.163c-.21.29-.395.58-.606.896l-4.665-3.084zm-10.7 52.157 5.482-1.002c.052.343.131.712.21 1.055l-5.482 1.08c-.079-.369-.131-.738-.21-1.133zm12.018-54.081c.21-.317.448-.633.685-.95l4.507 3.295-.633.87-4.56-3.242v.027zM2.504 86.85l5.455-1.16.237 1.029-5.429 1.265c-.079-.37-.158-.765-.263-1.134zm12.94-58.219c.237-.316.475-.606.712-.922l4.401 3.453c-.21.29-.448.553-.659.843l-4.454-3.374zM3.004 89.117l5.43-1.344c.079.343.184.685.263 1.028l-5.403 1.423c-.105-.37-.184-.738-.29-1.107zm13.863-62.304c.238-.29.475-.606.738-.896l4.296 3.584c-.237.264-.448.553-.685.843l-4.322-3.531h-.027zM3.584 91.357l5.377-1.528c.105.342.184.685.29 1.028L3.9 92.463l-.317-1.107zm14.76-66.336c.263-.29.5-.58.764-.87l4.164 3.716c-.237.264-.475.527-.712.817l-4.217-3.663zm-14.1 68.55 5.323-1.687c.105.343.21.686.343 1.002l-5.298 1.766c-.132-.37-.237-.738-.369-1.107v.026zm15.654-70.263c.264-.29.527-.58.79-.844l4.033 3.848c-.237.264-.5.527-.738.79l-4.111-3.794h.026zM4.981 95.785l5.271-1.871c.106.342.237.659.37 1.001l-5.246 1.95c-.131-.368-.263-.737-.395-1.08zm16.525-74.138.817-.817 3.9 3.98c-.263.237-.5.5-.764.764l-3.98-3.927h.027zM5.798 97.972l5.192-2.029c.132.343.264.659.396 1.002L6.22 99.053c-.158-.369-.29-.712-.422-1.08zM23.166 20.04c.29-.264.554-.528.844-.791l3.768 4.111c-.263.237-.526.475-.79.738L23.14 20.04h.026zM6.668 100.133l5.14-2.214c.13.316.29.659.42.975l-5.086 2.293c-.158-.343-.316-.712-.474-1.054zm18.211-81.676c.29-.263.58-.5.87-.764l3.637 4.217c-.263.237-.553.474-.817.711l-3.716-4.164h.026zM7.617 102.242l5.06-2.372c.158.316.29.633.448.949l-5.008 2.451c-.158-.343-.342-.685-.5-1.054v.026zm19.002-85.286c.29-.237.606-.5.896-.738l3.505 4.349c-.263.21-.553.448-.817.685l-3.584-4.296zm1.818-1.45c.317-.237.607-.474.923-.711l3.373 4.454c-.29.21-.58.448-.843.659l-3.426-4.402h-.027zm1.845-1.396c.317-.238.633-.448.95-.686l3.214 4.56-.87.632-3.294-4.506zm1.898-1.345c.316-.21.632-.421.975-.632l3.084 4.665c-.29.184-.607.395-.896.606l-3.137-4.612-.026-.027zm1.95-1.265c.316-.21.66-.421.975-.606l2.926 4.744c-.316.185-.606.37-.923.58L34.104 11.5h.026zm1.977-1.212c.343-.21.659-.395 1.001-.58l2.768 4.85c-.317.184-.606.342-.923.527l-2.846-4.797zm2.03-1.16 1.027-.553 2.61 4.928c-.317.159-.633.343-.95.501l-2.688-4.902v.026zm2.055-1.08c.343-.185.685-.343 1.028-.527l2.45 5.007-.948.475-2.53-4.982v.027zm2.082-1.028c.343-.158.685-.316 1.054-.475l2.293 5.087c-.316.158-.659.29-.975.448l-2.372-5.06zm2.108-.949c.343-.158.712-.29 1.055-.448l2.108 5.166c-.343.132-.659.263-1.001.421l-2.188-5.139h.026zm2.135-.87c.37-.131.712-.29 1.08-.421l1.951 5.244c-.343.132-.659.264-1.001.37L46.517 5.2zm2.161-.817c.37-.131.738-.263 1.107-.369l1.766 5.298c-.343.105-.659.237-1.001.342l-1.872-5.27zm2.188-.738c.369-.105.738-.237 1.107-.342l1.608 5.35-1.028.316-1.687-5.324zm2.214-.658 1.107-.317 1.45 5.403c-.343.106-.686.185-1.029.29L53.08 2.988zm2.24-.607c.369-.105.738-.184 1.133-.263l1.265 5.429c-.342.08-.685.158-1.028.237l-1.344-5.429-.026.026zm2.24-.527c.37-.079.764-.158 1.133-.237l1.081 5.482c-.343.08-.685.132-1.054.21l-1.16-5.455zm2.267-.448c.369-.079.764-.132 1.133-.21l.896 5.508c-.343.052-.712.105-1.054.184L59.8 1.406h.027zM33.05 131.76l3.083-4.665c.29.185.58.396.896.58l-3.004 4.718c-.343-.211-.66-.422-.975-.633zM62.12 1.037 63.28.88l.737 5.535c-.342.052-.711.105-1.054.158l-.817-5.535h-.026zM35.026 133.025l2.926-4.744c.29.185.606.369.922.554l-2.846 4.796c-.343-.211-.66-.395-1.002-.606zM64.44.747c.369-.052.764-.079 1.133-.131l.554 5.56c-.37.027-.712.08-1.08.106L64.411.721l.027.026zm-27.41 133.464 2.794-4.849c.316.184.606.342.922.527l-2.688 4.902c-.343-.185-.685-.369-1.028-.58zM66.732.511c.395-.027.764-.054 1.16-.08l.368 5.561c-.369 0-.711.053-1.08.08L66.732.51zM39.059 135.317l2.609-4.928c.316.158.632.316.949.5l-2.53 4.982c-.343-.185-.686-.343-1.028-.528v-.026zM69.05.352c.395 0 .764-.026 1.16-.053l.158 5.588c-.343 0-.712 0-1.054.052L69.05.352zm-27.91 136.02 2.45-5.007c.317.158.633.316.95.448l-2.346 5.06c-.343-.158-.712-.343-1.054-.501zM71.37.272h1.16V5.86h-1.082L71.37.273zM43.248 137.348l2.293-5.086c.316.158.659.29.975.422l-2.214 5.139c-.342-.158-.711-.316-1.054-.475zM73.69.273c.396 0 .765 0 1.16.026l-.184 5.588c-.37 0-.712 0-1.08-.027l.078-5.587h.027zM45.385 138.27l2.108-5.166c.343.132.66.264 1.002.396l-2.03 5.192c-.368-.132-.711-.29-1.08-.422zM76.009.352c.395 0 .764.053 1.16.08l-.37 5.56c-.368 0-.711-.053-1.054-.053L76.01.352zM47.545 139.113l1.95-5.245c.343.132.66.238 1.002.369l-1.871 5.272a48.592 48.592 0 0 1-1.08-.396zM78.328.51c.395.026.764.053 1.16.106l-.554 5.56c-.342-.026-.711-.079-1.054-.105l.448-5.56zM49.733 139.878l1.765-5.298c.343.106.686.211 1.028.343l-1.687 5.324c-.368-.106-.737-.238-1.106-.369zM80.647.721c.396.053.765.08 1.16.132l-.738 5.534c-.342-.052-.711-.079-1.054-.131L80.647.72zm-28.7 139.842 1.607-5.35c.343.105.685.211 1.028.29l-1.529 5.376-1.106-.316zM82.94 1.011c.37.053.765.105 1.134.184l-.896 5.509c-.343-.053-.712-.106-1.055-.159l.817-5.534zM54.187 141.195l1.423-5.403c.343.08.685.185 1.054.264l-1.344 5.429c-.369-.105-.738-.184-1.107-.29h-.026zM85.233 1.38c.37.079.765.132 1.134.21l-1.08 5.483c-.344-.08-.713-.132-1.055-.211l1.001-5.482zM56.427 141.749l1.239-5.429c.342.079.685.158 1.054.237h.158l-1.16 5.508h-.158a18.13 18.13 0 0 0-1.133-.29v-.026zM87.5 1.828h.079c.343.105.685.158 1.054.237l-1.239 5.43c-.316-.08-.632-.133-.975-.212l1.08-5.481v.026zM59.932 136.794c.343.079.685.132 1.054.184l-.975 5.509c-.369-.079-.764-.132-1.133-.211l1.08-5.482h-.026zm28.49-129.01 1.344-5.429c.37.105.765.184 1.134.29l-1.423 5.403c-.343-.08-.686-.185-1.028-.264h-.027zM62.041 137.163c.342.053.711.105 1.054.158l-.79 5.535a17.906 17.906 0 0 1-1.16-.185l.896-5.508zM90.478 8.311l1.502-5.376 1.107.316-1.581 5.35c-.343-.105-.685-.21-1.028-.29zM64.15 137.453c.343.053.712.079 1.054.132l-.632 5.534c-.396-.052-.765-.079-1.16-.131l.712-5.535h.026zM92.534 8.918l1.686-5.324c.37.105.739.237 1.108.369L93.561 9.26c-.343-.105-.686-.21-1.028-.342zM66.284 137.69c.369.026.711.053 1.08.105l-.448 5.561a16.81 16.81 0 0 1-1.16-.105l.528-5.561zM94.564 9.576l1.844-5.27 1.107.395-1.95 5.244c-.343-.131-.66-.237-1.002-.369zM68.391 137.848c.37 0 .712.053 1.08.053l-.263 5.587c-.395 0-.764-.052-1.16-.052l.343-5.561v-.027zM96.566 10.314l2.03-5.218c.368.132.711.29 1.08.422l-2.108 5.165c-.317-.131-.66-.263-1.002-.395v.026zm-26.013 127.64h1.081l-.08 5.587c-.394 0-.763 0-1.159-.026l.185-5.588-.027.027zM98.57 11.131l2.188-5.139c.369.158.711.316 1.054.474l-2.267 5.087c-.316-.132-.659-.29-.975-.422zM72.69 138.006h1.08l.105 5.588h-1.16v-5.588h-.026zm27.804-126.005 2.346-5.06c.342.158.711.342 1.054.5l-2.451 5.008a11.02 11.02 0 0 0-.975-.448h.026zm-25.67 125.953c.343 0 .712 0 1.054-.053l.29 5.587c-.395 0-.764.027-1.16.053l-.184-5.587zm27.594-125.03 2.504-4.982c.342.185.685.343 1.028.527l-2.609 4.929a16.12 16.12 0 0 1-.949-.5l.026.026zm-25.46 124.924c.37 0 .712-.053 1.081-.079l.448 5.561-1.16.079-.368-5.561zm27.358-123.923 2.688-4.902c.343.184.685.369 1.001.553l-2.767 4.85c-.316-.185-.632-.343-.922-.527v.026zM79.093 137.664c.342-.027.711-.079 1.054-.106l.632 5.561c-.395.053-.764.079-1.16.132l-.526-5.561v-.026zm27.093-122.685 2.846-4.796c.343.21.659.395 1.002.606l-2.926 4.77c-.29-.184-.606-.369-.922-.553v-.027zM81.227 137.426c.343-.052.712-.105 1.054-.158l.817 5.535-1.16.158-.71-5.535zm26.804-121.313 3.004-4.718c.317.21.659.422.975.632l-3.083 4.665c-.29-.184-.606-.395-.896-.58zM83.336 137.11c.342-.052.711-.132 1.054-.184l1.001 5.482c-.369.079-.764.131-1.133.21l-.922-5.508zm26.487-119.838 3.136-4.612c.317.21.633.448.949.659l-3.215 4.56c-.29-.212-.58-.422-.87-.607zM85.444 136.715c.343-.079.685-.132 1.054-.211l1.186 5.456c-.369.079-.764.158-1.133.237l-1.107-5.482zm26.118-118.204 3.295-4.507c.316.237.632.475.949.685l-3.374 4.454c-.29-.21-.58-.421-.843-.632h-.027zM87.526 136.267c.343-.079.686-.158 1.028-.264l1.37 5.403c-.368.106-.737.185-1.133.264l-1.265-5.429v.026zm25.75-116.465 3.452-4.401c.316.237.606.474.923.738l-3.506 4.349c-.29-.238-.553-.448-.843-.66l-.026-.026zM89.582 135.74c.343-.079.685-.185 1.028-.29l1.528 5.376-1.107.317-1.449-5.403zm25.354-114.594 3.584-4.27c.29.238.58.502.896.765l-3.663 4.217a19.352 19.352 0 0 0-.817-.685v-.027zM91.638 135.16l1.028-.316 1.686 5.323c-.369.106-.738.238-1.107.343l-1.607-5.35zM116.57 22.57l3.716-4.165.87.791-3.795 4.085-.791-.711zM93.694 134.527c.342-.105.658-.237 1.001-.342l1.871 5.245c-.369.131-.738.263-1.107.368l-1.792-5.297.026.026zM118.15 24.019l3.848-4.032c.29.263.554.527.844.817l-3.927 3.98c-.264-.238-.501-.501-.765-.738v-.027zM95.696 133.79c.343-.131.66-.237 1.002-.369l2.056 5.192c-.37.132-.712.29-1.08.422l-1.951-5.245h-.027zM119.68 25.521l3.98-3.9c.263.263.527.553.817.843l-4.033 3.848c-.237-.264-.501-.527-.738-.764l-.026-.027zM97.7 133.025c.316-.132.658-.263.975-.422l2.213 5.14c-.369.158-.711.316-1.08.448l-2.109-5.166zm23.456-105.949 4.111-3.795.791.87-4.164 3.716-.712-.79h-.026zM99.65 132.182c.316-.158.659-.29.975-.448l2.372 5.06c-.343.158-.712.316-1.054.474l-2.293-5.086zm22.929-103.498 4.217-3.637c.263.29.501.58.738.87l-4.27 3.584a19.08 19.08 0 0 1-.685-.817zM101.6 131.286l.949-.475 2.53 4.981c-.343.185-.685.343-1.054.528l-2.451-5.008.026-.026zm22.376-100.942 4.348-3.505c.238.29.475.606.712.896l-4.401 3.453c-.211-.29-.448-.554-.659-.844zm-20.452 99.993c.316-.158.633-.343.949-.501l2.688 4.902-1.028.554-2.609-4.929v-.026zm21.77-98.306 4.454-3.373c.237.316.448.606.685.922l-4.507 3.295-.632-.87v.026zm-19.899 97.252c.317-.185.633-.369.923-.554l2.846 4.797c-.343.184-.659.395-1.001.58l-2.768-4.85v.027zm21.164-95.539 4.559-3.215c.237.316.448.633.659.949l-4.612 3.136c-.211-.29-.395-.58-.606-.87zm-19.345 94.432c.316-.185.606-.369.896-.554l3.004 4.718a19.16 19.16 0 0 1-.975.606l-2.925-4.744v-.026zm20.531-92.666 4.665-3.084c.21.317.421.66.632.976l-4.718 3.004c-.184-.29-.395-.606-.579-.896zm-18.739 91.532c.29-.184.606-.395.896-.606l3.163 4.613-.949.632-3.084-4.665-.026.026zm19.898-89.713 4.771-2.926c.21.316.395.659.606.975l-4.797 2.847c-.184-.317-.369-.607-.553-.923l-.027.027zm-18.106 88.501.87-.632 3.294 4.506c-.316.238-.632.448-.949.686l-3.215-4.56zm19.213-86.683 4.85-2.767c.184.342.369.659.553 1.001l-4.902 2.689c-.185-.317-.343-.633-.527-.923h.026zm-17.473 85.418c.289-.211.553-.422.843-.659l3.453 4.402c-.317.237-.607.474-.923.711l-3.373-4.454zm18.527-83.547 4.929-2.609c.184.343.369.685.527 1.028l-4.981 2.53a16.076 16.076 0 0 0-.501-.949h.026zm-16.814 82.203c.29-.211.553-.448.817-.685l3.584 4.269c-.29.237-.606.501-.896.738l-3.505-4.348v.026zm17.79-80.305 5.007-2.451c.158.343.343.685.501 1.054l-5.06 2.372c-.158-.316-.317-.632-.475-.975h.027zm-16.156 78.934.79-.711 3.717 4.164c-.29.264-.58.527-.87.764l-3.637-4.243v.026zm17.052-76.984 5.086-2.293c.158.343.317.712.475 1.055l-5.113 2.213c-.132-.342-.29-.659-.422-.975h-.026zm-15.471 75.588c.264-.238.527-.475.791-.738l3.848 4.032c-.29.264-.554.527-.844.791l-3.795-4.112v.027zm16.314-73.611 5.166-2.109c.158.37.29.712.421 1.081l-5.192 2.03c-.131-.343-.263-.66-.395-1.002zm-14.759 72.135c.264-.238.501-.501.764-.765l3.98 3.927c-.264.29-.553.554-.817.817l-3.901-3.979h-.026zm15.523-70.132 5.219-1.95c.131.369.263.738.395 1.08l-5.271 1.871c-.105-.342-.237-.658-.369-1.001h.026zm-14.021 68.629c.237-.263.501-.527.738-.79l4.112 3.795c-.264.29-.527.553-.791.843l-4.059-3.848zm14.759-66.6 5.298-1.792c.131.37.237.738.369 1.107l-5.324 1.687a10.97 10.97 0 0 0-.343-1.002zm-13.283 65.019c.237-.263.475-.527.712-.817l4.217 3.637c-.264.29-.501.58-.765.87l-4.164-3.716v.026zm13.942-62.99 5.35-1.607.317 1.107-5.377 1.528c-.105-.342-.184-.685-.29-1.027zm-12.545 61.382c.237-.263.448-.553.685-.817l4.349 3.506c-.237.29-.501.606-.738.896l-4.296-3.585zm13.125-59.326 5.403-1.423c.105.37.184.738.29 1.107l-5.403 1.37c-.079-.342-.185-.685-.264-1.027l-.026-.027zm-11.781 57.666c.211-.29.448-.553.659-.843l4.454 3.347c-.237.316-.474.606-.712.922l-4.401-3.426zm12.308-55.584 5.429-1.265c.079.37.158.738.264 1.134l-5.456 1.186c-.079-.343-.158-.686-.237-1.055zm-10.99 53.871.632-.87 4.56 3.216c-.237.316-.448.632-.685.948l-4.507-3.294zm11.438-51.788 5.482-1.081c.079.369.158.764.211 1.133l-5.482 1.002a15.106 15.106 0 0 0-.211-1.054zm-10.199 50.048c.21-.289.395-.579.606-.896l4.665 3.058c-.211.316-.422.658-.659.975l-4.612-3.137zm10.594-47.94 5.509-.922c.052.369.132.764.184 1.16l-5.534.816c-.053-.342-.106-.711-.159-1.054zm-9.408 46.148c.184-.29.369-.606.579-.922l4.771 2.925c-.211.343-.422.659-.606 1.002l-4.718-3.005h-.026zm9.725-44.04 5.534-.738c.053.396.106.765.132 1.16l-5.561.633a14.056 14.056 0 0 0-.132-1.055h.027zm-8.618 42.195c.184-.316.369-.632.527-.922l4.849 2.767c-.184.343-.395.686-.58 1.002l-4.823-2.82.027-.027zm8.855-40.086 5.561-.554c.053.396.079.765.105 1.16l-5.561.448c-.026-.343-.052-.712-.105-1.054zm-7.801 38.215c.158-.316.342-.632.5-.949l4.955 2.61-.553 1.027-4.902-2.688zm7.959-36.08 5.561-.37c0 .396.053.765.053 1.16l-5.588.29c0-.369-.026-.711-.052-1.08h.026zm-6.984 34.183c.158-.317.316-.633.474-.976l5.034 2.425c-.158.343-.342.685-.501 1.028l-4.981-2.504-.026.027zm7.089-32.049 5.588-.184c0 .395 0 .764.026 1.16l-5.587.079v-1.08l-.027.025zm-6.14 30.125c.158-.317.29-.633.448-.975l5.113 2.266c-.158.369-.317.712-.475 1.054l-5.06-2.345h-.026zm6.167-27.99h5.587v1.16l-5.587-.08v-1.08zm-5.298 26.04c.132-.317.264-.66.422-.976l5.166 2.109c-.158.369-.29.711-.448 1.08l-5.14-2.187v-.027zm5.271-23.879 5.588.185c0 .395-.027.764-.053 1.16l-5.587-.264c0-.343.026-.712.052-1.054v-.027zm-4.454 21.902c.132-.343.264-.66.369-1.002l5.245 1.924c-.132.37-.263.738-.422 1.08l-5.192-2.029v.027zm4.375-19.767 5.561.343c0 .395-.052.764-.079 1.16l-5.561-.449c.027-.342.053-.711.079-1.054zm-3.637 17.764c.132-.343.238-.686.343-1.028l5.297 1.766c-.131.369-.237.738-.369 1.107l-5.271-1.845zm3.453-15.63 5.561.528c-.026.395-.079.764-.132 1.16l-5.534-.633c.052-.342.079-.712.105-1.054zm-2.767 13.6.316-1.028 5.35 1.608c-.105.37-.211.738-.343 1.107l-5.323-1.687zm2.53-11.49 5.534.711c-.052.395-.105.764-.158 1.16l-5.534-.817c.052-.343.105-.712.158-1.055zm-1.924 9.435c.105-.343.184-.686.29-1.028l5.403 1.423c-.106.369-.211.738-.29 1.107l-5.377-1.502h-.026zm1.607-7.3 5.509.895c-.053.37-.132.764-.185 1.133l-5.508-.975c.053-.342.132-.711.184-1.054zm-1.08 5.244c.079-.343.158-.685.237-1.054l5.429 1.238c-.079.37-.184.738-.263 1.134l-5.429-1.318h.026zm.685-3.136 5.482 1.08c-.079.37-.158.764-.237 1.133l-5.456-1.16c.079-.342.158-.71.211-1.053z" fill="#989898"/></svg>